G04 #@! TF.GenerationSoftware,KiCad,Pcbnew,(5.1.2)-1*
G04 #@! TF.CreationDate,2019-07-12T20:41:11-07:00*
G04 #@! TF.ProjectId,1000WConverter_r1_pwr,31303030-5743-46f6-9e76-65727465725f,rev?*
G04 #@! TF.SameCoordinates,Original*
G04 #@! TF.FileFunction,Soldermask,Bot*
G04 #@! TF.FilePolarity,Negative*
%FSLAX46Y46*%
G04 Gerber Fmt 4.6, Leading zero omitted, Abs format (unit mm)*
G04 Created by KiCad (PCBNEW (5.1.2)-1) date 2019-07-12 20:41:11*
%MOMM*%
%LPD*%
G04 APERTURE LIST*
%ADD10R,2.400000X2.400000*%
%ADD11C,2.400000*%
%ADD12O,2.400000X2.400000*%
%ADD13C,1.600000*%
%ADD14C,1.800000*%
%ADD15R,1.800000X1.800000*%
%ADD16C,2.000000*%
%ADD17C,2.800000*%
%ADD18C,5.000000*%
%ADD19R,2.200000X1.500000*%
%ADD20C,4.000000*%
%ADD21R,4.000000X4.000000*%
G04 APERTURE END LIST*
D10*
X-43500000Y21250000D03*
D11*
X-43500000Y28750000D03*
X-62500000Y28750000D03*
D10*
X-62500000Y21250000D03*
X-43500000Y2250000D03*
D11*
X-43500000Y9750000D03*
X-62522499Y9625002D03*
D10*
X-62522499Y2125002D03*
D12*
X-2000000Y-37920000D03*
D11*
X-2000000Y-43000000D03*
X-2000000Y43000000D03*
D12*
X-2000000Y37920000D03*
D13*
X-19050000Y-23860000D03*
X19050000Y-21320000D03*
X19050000Y21320000D03*
X19050000Y15990000D03*
X19050000Y10660000D03*
X19050000Y5330000D03*
X19050000Y-15990000D03*
X19050000Y-10660000D03*
X19050000Y-5330000D03*
X19050000Y0D03*
X-19050000Y0D03*
X-19050000Y-5330000D03*
X-19050000Y-10660000D03*
X-19050000Y-15990000D03*
X-19050000Y5330000D03*
X-19050000Y10660000D03*
X-19050000Y15990000D03*
X-19050000Y21320000D03*
D14*
X28540000Y44000000D03*
D15*
X23460000Y44000000D03*
D14*
X26000000Y44000000D03*
X12100000Y44000000D03*
D15*
X9560000Y44000000D03*
D14*
X14640000Y44000000D03*
X9560000Y-44000000D03*
D15*
X14640000Y-44000000D03*
D14*
X12100000Y-44000000D03*
X26000000Y-44000000D03*
D15*
X28540000Y-44000000D03*
D14*
X23460000Y-44000000D03*
X-9510000Y44000000D03*
D15*
X-14590000Y44000000D03*
D14*
X-12050000Y44000000D03*
X-26050000Y44000000D03*
D15*
X-28590000Y44000000D03*
D14*
X-23510000Y44000000D03*
D16*
X-31000000Y3000000D03*
X-31000000Y8000000D03*
D11*
X45500000Y-50000D03*
X30500000Y-50000D03*
D17*
X31000000Y-22500000D03*
X68500000Y-22500000D03*
X31000000Y22500000D03*
X68500000Y22500000D03*
D18*
X57000000Y0D03*
X67500000Y0D03*
D19*
X-58000000Y-16200000D03*
X-58000000Y-9800000D03*
D20*
X-53000000Y20500000D03*
D21*
X-53000000Y10500000D03*
D14*
X-14590000Y-44000000D03*
D15*
X-9510000Y-44000000D03*
D14*
X-12050000Y-44000000D03*
X-26050000Y-44000000D03*
D15*
X-23510000Y-44000000D03*
D14*
X-28590000Y-44000000D03*
D19*
X-48000000Y-9800000D03*
X-48000000Y-16200000D03*
D13*
X-30000000Y38500000D03*
X-35000000Y38500000D03*
X-35000000Y-38500000D03*
X-30000000Y-38500000D03*
X8000000Y38500000D03*
X3000000Y38500000D03*
X3000000Y-38500000D03*
X8000000Y-38500000D03*
D12*
X-42080000Y-43500000D03*
D11*
X-37000000Y-43500000D03*
D12*
X-42080000Y43500000D03*
D11*
X-37000000Y43500000D03*
D18*
X-64250000Y-35500000D03*
X-59500000Y-24750000D03*
X-53569998Y-35587499D03*
X-48750000Y-24750000D03*
M02*
