G04 #@! TF.GenerationSoftware,KiCad,Pcbnew,(5.1.2)-1*
G04 #@! TF.CreationDate,2019-07-12T20:41:11-07:00*
G04 #@! TF.ProjectId,1000WConverter_r1_pwr,31303030-5743-46f6-9e76-65727465725f,rev?*
G04 #@! TF.SameCoordinates,Original*
G04 #@! TF.FileFunction,Copper,L1,Top*
G04 #@! TF.FilePolarity,Positive*
%FSLAX46Y46*%
G04 Gerber Fmt 4.6, Leading zero omitted, Abs format (unit mm)*
G04 Created by KiCad (PCBNEW (5.1.2)-1) date 2019-07-12 20:41:11*
%MOMM*%
%LPD*%
G04 APERTURE LIST*
%ADD10R,2.400000X2.400000*%
%ADD11C,2.400000*%
%ADD12O,2.400000X2.400000*%
%ADD13C,1.600000*%
%ADD14C,1.800000*%
%ADD15R,1.800000X1.800000*%
%ADD16C,2.000000*%
%ADD17C,2.800000*%
%ADD18C,5.000000*%
%ADD19C,4.000000*%
%ADD20R,4.000000X4.000000*%
%ADD21C,0.406400*%
%ADD22C,0.863600*%
%ADD23C,0.254000*%
%ADD24C,0.500000*%
G04 APERTURE END LIST*
D10*
X-43500000Y21250000D03*
D11*
X-43500000Y28750000D03*
X-62500000Y28750000D03*
D10*
X-62500000Y21250000D03*
X-43500000Y2250000D03*
D11*
X-43500000Y9750000D03*
X-62522499Y9625002D03*
D10*
X-62522499Y2125002D03*
D12*
X-2000000Y-37920000D03*
D11*
X-2000000Y-43000000D03*
X-2000000Y43000000D03*
D12*
X-2000000Y37920000D03*
D13*
X-19050000Y-23860000D03*
X19050000Y-21320000D03*
X19050000Y21320000D03*
X19050000Y15990000D03*
X19050000Y10660000D03*
X19050000Y5330000D03*
X19050000Y-15990000D03*
X19050000Y-10660000D03*
X19050000Y-5330000D03*
X19050000Y0D03*
X-19050000Y0D03*
X-19050000Y-5330000D03*
X-19050000Y-10660000D03*
X-19050000Y-15990000D03*
X-19050000Y5330000D03*
X-19050000Y10660000D03*
X-19050000Y15990000D03*
X-19050000Y21320000D03*
D14*
X28540000Y44000000D03*
D15*
X23460000Y44000000D03*
D14*
X26000000Y44000000D03*
X12100000Y44000000D03*
D15*
X9560000Y44000000D03*
D14*
X14640000Y44000000D03*
X9560000Y-44000000D03*
D15*
X14640000Y-44000000D03*
D14*
X12100000Y-44000000D03*
X26000000Y-44000000D03*
D15*
X28540000Y-44000000D03*
D14*
X23460000Y-44000000D03*
X-9510000Y44000000D03*
D15*
X-14590000Y44000000D03*
D14*
X-12050000Y44000000D03*
X-26050000Y44000000D03*
D15*
X-28590000Y44000000D03*
D14*
X-23510000Y44000000D03*
D16*
X-31000000Y3000000D03*
X-31000000Y8000000D03*
D11*
X45500000Y-50000D03*
X30500000Y-50000D03*
D17*
X31000000Y-22500000D03*
X68500000Y-22500000D03*
X31000000Y22500000D03*
X68500000Y22500000D03*
D18*
X57000000Y0D03*
X67500000Y0D03*
D19*
X-53000000Y20500000D03*
D20*
X-53000000Y10500000D03*
D14*
X-14590000Y-44000000D03*
D15*
X-9510000Y-44000000D03*
D14*
X-12050000Y-44000000D03*
X-26050000Y-44000000D03*
D15*
X-23510000Y-44000000D03*
D14*
X-28590000Y-44000000D03*
D13*
X-30000000Y38500000D03*
X-35000000Y38500000D03*
X-35000000Y-38500000D03*
X-30000000Y-38500000D03*
X8000000Y38500000D03*
X3000000Y38500000D03*
X3000000Y-38500000D03*
X8000000Y-38500000D03*
D12*
X-42080000Y-43500000D03*
D11*
X-37000000Y-43500000D03*
D12*
X-42080000Y43500000D03*
D11*
X-37000000Y43500000D03*
D18*
X-64250000Y-35500000D03*
X-59500000Y-24750000D03*
X-53569998Y-35587499D03*
X-48750000Y-24750000D03*
D21*
X23510000Y-40400000D02*
X23510000Y-34590000D01*
X23510000Y-34590000D02*
X24100000Y-34000000D01*
D22*
X23500000Y-40400000D02*
X23510000Y-40400000D01*
X22200000Y-42690000D02*
X22200000Y-42600000D01*
X28540000Y44000000D02*
X28000000Y43460000D01*
X28000000Y43460000D02*
X28000000Y41000000D01*
X23460000Y-44000000D02*
X23900000Y-43560000D01*
X23900000Y-43560000D02*
X23900000Y-42100000D01*
X-28590000Y-44000000D02*
X-29090000Y-44500000D01*
X-29090000Y-44500000D02*
X-32800000Y-44500000D01*
X-28590000Y-44000000D02*
X-28100000Y-43510000D01*
X-28100000Y-43510000D02*
X-28100000Y-41400000D01*
X-28590000Y-44000000D02*
X-30300000Y-42290000D01*
X-30300000Y-42290000D02*
X-30300000Y-42100000D01*
X-14590000Y-44000000D02*
X-15090000Y-44500000D01*
X-15090000Y-44500000D02*
X-17900000Y-44500000D01*
X-14590000Y-44000000D02*
X-13800000Y-43210000D01*
X-13800000Y-43210000D02*
X-13800000Y-41200000D01*
X-14590000Y-44000000D02*
X-16000000Y-42590000D01*
X-16000000Y-42590000D02*
X-16000000Y-42300000D01*
D21*
X8050000Y-42540000D02*
X8050000Y-41800000D01*
X8050000Y-41800000D02*
X8050000Y-36750000D01*
D22*
X8050000Y-42540000D02*
X8050000Y-41950000D01*
X8050000Y-41950000D02*
X8200000Y-41800000D01*
X8200000Y-41800000D02*
X8050000Y-41800000D01*
X9560000Y-44000000D02*
X10000000Y-43560000D01*
X10000000Y-43560000D02*
X10000000Y-42000000D01*
X14640000Y44000000D02*
X14200000Y43560000D01*
X14200000Y43560000D02*
X14200000Y41800000D01*
D23*
G36*
X-6627000Y-46423000D02*
G01*
X-71423000Y-46423000D01*
X-71423000Y-45291050D01*
X-29070706Y-45291050D01*
X-28963077Y-45488343D01*
X-28665548Y-45532529D01*
X-28365115Y-45517820D01*
X-28216923Y-45488343D01*
X-28109294Y-45291050D01*
X-28590000Y-44810344D01*
X-29070706Y-45291050D01*
X-71423000Y-45291050D01*
X-71423000Y-44337331D01*
X-43703825Y-44337331D01*
X-43678377Y-44384978D01*
X-43475014Y-44679801D01*
X-43218041Y-44929285D01*
X-42917334Y-45123842D01*
X-42653000Y-45078088D01*
X-42653000Y-44073000D01*
X-41507000Y-44073000D01*
X-41507000Y-45078088D01*
X-41242666Y-45123842D01*
X-40941959Y-44929285D01*
X-40684986Y-44679801D01*
X-40481623Y-44384978D01*
X-40456175Y-44337331D01*
X-40511113Y-44073000D01*
X-41507000Y-44073000D01*
X-42653000Y-44073000D01*
X-43648887Y-44073000D01*
X-43703825Y-44337331D01*
X-71423000Y-44337331D01*
X-71423000Y-43329905D01*
X-38727000Y-43329905D01*
X-38727000Y-43670095D01*
X-38660632Y-44003747D01*
X-38530447Y-44318041D01*
X-38341448Y-44600898D01*
X-38100898Y-44841448D01*
X-37818041Y-45030447D01*
X-37503747Y-45160632D01*
X-37170095Y-45227000D01*
X-36829905Y-45227000D01*
X-36496253Y-45160632D01*
X-36181959Y-45030447D01*
X-35899102Y-44841448D01*
X-35658552Y-44600898D01*
X-35469553Y-44318041D01*
X-35339368Y-44003747D01*
X-35323596Y-43924452D01*
X-30122529Y-43924452D01*
X-30107820Y-44224885D01*
X-30078343Y-44373077D01*
X-29881050Y-44480706D01*
X-29400344Y-44000000D01*
X-27779656Y-44000000D01*
X-27436749Y-44342907D01*
X-27422162Y-44416241D01*
X-27314591Y-44675938D01*
X-27158424Y-44909660D01*
X-26959660Y-45108424D01*
X-26725938Y-45264591D01*
X-26466241Y-45372162D01*
X-26190547Y-45427000D01*
X-25909453Y-45427000D01*
X-25633759Y-45372162D01*
X-25374062Y-45264591D01*
X-25140340Y-45108424D01*
X-24941576Y-44909660D01*
X-24938980Y-44905775D01*
X-24929374Y-45003310D01*
X-24899239Y-45102650D01*
X-24850304Y-45194202D01*
X-24784448Y-45274448D01*
X-24704202Y-45340304D01*
X-24612650Y-45389239D01*
X-24513310Y-45419374D01*
X-24410000Y-45429549D01*
X-22610000Y-45429549D01*
X-22506690Y-45419374D01*
X-22407350Y-45389239D01*
X-22315798Y-45340304D01*
X-22255782Y-45291050D01*
X-15070706Y-45291050D01*
X-14963077Y-45488343D01*
X-14665548Y-45532529D01*
X-14365115Y-45517820D01*
X-14216923Y-45488343D01*
X-14109294Y-45291050D01*
X-14590000Y-44810344D01*
X-15070706Y-45291050D01*
X-22255782Y-45291050D01*
X-22235552Y-45274448D01*
X-22169696Y-45194202D01*
X-22120761Y-45102650D01*
X-22090626Y-45003310D01*
X-22080451Y-44900000D01*
X-22080451Y-43924452D01*
X-16122529Y-43924452D01*
X-16107820Y-44224885D01*
X-16078343Y-44373077D01*
X-15881050Y-44480706D01*
X-15400344Y-44000000D01*
X-13779656Y-44000000D01*
X-13436749Y-44342907D01*
X-13422162Y-44416241D01*
X-13314591Y-44675938D01*
X-13158424Y-44909660D01*
X-12959660Y-45108424D01*
X-12725938Y-45264591D01*
X-12466241Y-45372162D01*
X-12190547Y-45427000D01*
X-11909453Y-45427000D01*
X-11633759Y-45372162D01*
X-11374062Y-45264591D01*
X-11140340Y-45108424D01*
X-10941576Y-44909660D01*
X-10938980Y-44905775D01*
X-10929374Y-45003310D01*
X-10899239Y-45102650D01*
X-10850304Y-45194202D01*
X-10784448Y-45274448D01*
X-10704202Y-45340304D01*
X-10612650Y-45389239D01*
X-10513310Y-45419374D01*
X-10410000Y-45429549D01*
X-8610000Y-45429549D01*
X-8506690Y-45419374D01*
X-8407350Y-45389239D01*
X-8315798Y-45340304D01*
X-8235552Y-45274448D01*
X-8169696Y-45194202D01*
X-8120761Y-45102650D01*
X-8090626Y-45003310D01*
X-8080451Y-44900000D01*
X-8080451Y-43100000D01*
X-8090626Y-42996690D01*
X-8120761Y-42897350D01*
X-8169696Y-42805798D01*
X-8235552Y-42725552D01*
X-8315798Y-42659696D01*
X-8407350Y-42610761D01*
X-8506690Y-42580626D01*
X-8610000Y-42570451D01*
X-10410000Y-42570451D01*
X-10513310Y-42580626D01*
X-10612650Y-42610761D01*
X-10704202Y-42659696D01*
X-10784448Y-42725552D01*
X-10850304Y-42805798D01*
X-10899239Y-42897350D01*
X-10929374Y-42996690D01*
X-10938980Y-43094225D01*
X-10941576Y-43090340D01*
X-11140340Y-42891576D01*
X-11374062Y-42735409D01*
X-11633759Y-42627838D01*
X-11909453Y-42573000D01*
X-12190547Y-42573000D01*
X-12466241Y-42627838D01*
X-12725938Y-42735409D01*
X-12959660Y-42891576D01*
X-13158424Y-43090340D01*
X-13314591Y-43324062D01*
X-13422162Y-43583759D01*
X-13436749Y-43657093D01*
X-13779656Y-44000000D01*
X-15400344Y-44000000D01*
X-15881050Y-43519294D01*
X-16078343Y-43626923D01*
X-16122529Y-43924452D01*
X-22080451Y-43924452D01*
X-22080451Y-43100000D01*
X-22090626Y-42996690D01*
X-22120761Y-42897350D01*
X-22169696Y-42805798D01*
X-22235552Y-42725552D01*
X-22255781Y-42708950D01*
X-15070706Y-42708950D01*
X-14590000Y-43189656D01*
X-14109294Y-42708950D01*
X-14216923Y-42511657D01*
X-14514452Y-42467471D01*
X-14814885Y-42482180D01*
X-14963077Y-42511657D01*
X-15070706Y-42708950D01*
X-22255781Y-42708950D01*
X-22315798Y-42659696D01*
X-22407350Y-42610761D01*
X-22506690Y-42580626D01*
X-22610000Y-42570451D01*
X-24410000Y-42570451D01*
X-24513310Y-42580626D01*
X-24612650Y-42610761D01*
X-24704202Y-42659696D01*
X-24784448Y-42725552D01*
X-24850304Y-42805798D01*
X-24899239Y-42897350D01*
X-24929374Y-42996690D01*
X-24938980Y-43094225D01*
X-24941576Y-43090340D01*
X-25140340Y-42891576D01*
X-25374062Y-42735409D01*
X-25633759Y-42627838D01*
X-25909453Y-42573000D01*
X-26190547Y-42573000D01*
X-26466241Y-42627838D01*
X-26725938Y-42735409D01*
X-26959660Y-42891576D01*
X-27158424Y-43090340D01*
X-27314591Y-43324062D01*
X-27422162Y-43583759D01*
X-27436749Y-43657093D01*
X-27779656Y-44000000D01*
X-29400344Y-44000000D01*
X-29881050Y-43519294D01*
X-30078343Y-43626923D01*
X-30122529Y-43924452D01*
X-35323596Y-43924452D01*
X-35273000Y-43670095D01*
X-35273000Y-43329905D01*
X-35339368Y-42996253D01*
X-35458372Y-42708950D01*
X-29070706Y-42708950D01*
X-28590000Y-43189656D01*
X-28109294Y-42708950D01*
X-28216923Y-42511657D01*
X-28514452Y-42467471D01*
X-28814885Y-42482180D01*
X-28963077Y-42511657D01*
X-29070706Y-42708950D01*
X-35458372Y-42708950D01*
X-35469553Y-42681959D01*
X-35658552Y-42399102D01*
X-35899102Y-42158552D01*
X-36181959Y-41969553D01*
X-36496253Y-41839368D01*
X-36829905Y-41773000D01*
X-37170095Y-41773000D01*
X-37503747Y-41839368D01*
X-37818041Y-41969553D01*
X-38100898Y-42158552D01*
X-38341448Y-42399102D01*
X-38530447Y-42681959D01*
X-38660632Y-42996253D01*
X-38727000Y-43329905D01*
X-71423000Y-43329905D01*
X-71423000Y-42662669D01*
X-43703825Y-42662669D01*
X-43648887Y-42927000D01*
X-42653000Y-42927000D01*
X-42653000Y-41921912D01*
X-41507000Y-41921912D01*
X-41507000Y-42927000D01*
X-40511113Y-42927000D01*
X-40456175Y-42662669D01*
X-40481623Y-42615022D01*
X-40684986Y-42320199D01*
X-40941959Y-42070715D01*
X-41242666Y-41876158D01*
X-41507000Y-41921912D01*
X-42653000Y-41921912D01*
X-42917334Y-41876158D01*
X-43218041Y-42070715D01*
X-43475014Y-42320199D01*
X-43678377Y-42615022D01*
X-43703825Y-42662669D01*
X-71423000Y-42662669D01*
X-71423000Y-35201867D01*
X-67277000Y-35201867D01*
X-67277000Y-35798133D01*
X-67160674Y-36382943D01*
X-66932492Y-36933822D01*
X-66601224Y-37429600D01*
X-66179600Y-37851224D01*
X-65683822Y-38182492D01*
X-65132943Y-38410674D01*
X-64548133Y-38527000D01*
X-63951867Y-38527000D01*
X-63367057Y-38410674D01*
X-62816178Y-38182492D01*
X-62320400Y-37851224D01*
X-61898776Y-37429600D01*
X-61567508Y-36933822D01*
X-61339326Y-36382943D01*
X-61223000Y-35798133D01*
X-61223000Y-35289366D01*
X-56596998Y-35289366D01*
X-56596998Y-35885632D01*
X-56480672Y-36470442D01*
X-56252490Y-37021321D01*
X-55921222Y-37517099D01*
X-55499598Y-37938723D01*
X-55003820Y-38269991D01*
X-54452941Y-38498173D01*
X-53868131Y-38614499D01*
X-53271865Y-38614499D01*
X-52687055Y-38498173D01*
X-52375934Y-38369302D01*
X-36327000Y-38369302D01*
X-36327000Y-38630698D01*
X-36276004Y-38887072D01*
X-36175972Y-39128570D01*
X-36030748Y-39345913D01*
X-35845913Y-39530748D01*
X-35628570Y-39675972D01*
X-35387072Y-39776004D01*
X-35130698Y-39827000D01*
X-34869302Y-39827000D01*
X-34612928Y-39776004D01*
X-34371430Y-39675972D01*
X-34154087Y-39530748D01*
X-33969252Y-39345913D01*
X-33824028Y-39128570D01*
X-33723996Y-38887072D01*
X-33673000Y-38630698D01*
X-33673000Y-38369302D01*
X-31327000Y-38369302D01*
X-31327000Y-38630698D01*
X-31276004Y-38887072D01*
X-31175972Y-39128570D01*
X-31030748Y-39345913D01*
X-30845913Y-39530748D01*
X-30628570Y-39675972D01*
X-30387072Y-39776004D01*
X-30130698Y-39827000D01*
X-29869302Y-39827000D01*
X-29612928Y-39776004D01*
X-29371430Y-39675972D01*
X-29154087Y-39530748D01*
X-28969252Y-39345913D01*
X-28824028Y-39128570D01*
X-28723996Y-38887072D01*
X-28673000Y-38630698D01*
X-28673000Y-38369302D01*
X-28723996Y-38112928D01*
X-28824028Y-37871430D01*
X-28969252Y-37654087D01*
X-29154087Y-37469252D01*
X-29371430Y-37324028D01*
X-29612928Y-37223996D01*
X-29869302Y-37173000D01*
X-30130698Y-37173000D01*
X-30387072Y-37223996D01*
X-30628570Y-37324028D01*
X-30845913Y-37469252D01*
X-31030748Y-37654087D01*
X-31175972Y-37871430D01*
X-31276004Y-38112928D01*
X-31327000Y-38369302D01*
X-33673000Y-38369302D01*
X-33723996Y-38112928D01*
X-33824028Y-37871430D01*
X-33969252Y-37654087D01*
X-34154087Y-37469252D01*
X-34371430Y-37324028D01*
X-34612928Y-37223996D01*
X-34869302Y-37173000D01*
X-35130698Y-37173000D01*
X-35387072Y-37223996D01*
X-35628570Y-37324028D01*
X-35845913Y-37469252D01*
X-36030748Y-37654087D01*
X-36175972Y-37871430D01*
X-36276004Y-38112928D01*
X-36327000Y-38369302D01*
X-52375934Y-38369302D01*
X-52136176Y-38269991D01*
X-51640398Y-37938723D01*
X-51218774Y-37517099D01*
X-50887506Y-37021321D01*
X-50659324Y-36470442D01*
X-50542998Y-35885632D01*
X-50542998Y-35289366D01*
X-50659324Y-34704556D01*
X-50887506Y-34153677D01*
X-51218774Y-33657899D01*
X-51640398Y-33236275D01*
X-52136176Y-32905007D01*
X-52687055Y-32676825D01*
X-53271865Y-32560499D01*
X-53868131Y-32560499D01*
X-54452941Y-32676825D01*
X-55003820Y-32905007D01*
X-55499598Y-33236275D01*
X-55921222Y-33657899D01*
X-56252490Y-34153677D01*
X-56480672Y-34704556D01*
X-56596998Y-35289366D01*
X-61223000Y-35289366D01*
X-61223000Y-35201867D01*
X-61339326Y-34617057D01*
X-61567508Y-34066178D01*
X-61898776Y-33570400D01*
X-62320400Y-33148776D01*
X-62816178Y-32817508D01*
X-63367057Y-32589326D01*
X-63951867Y-32473000D01*
X-64548133Y-32473000D01*
X-65132943Y-32589326D01*
X-65683822Y-32817508D01*
X-66179600Y-33148776D01*
X-66601224Y-33570400D01*
X-66932492Y-34066178D01*
X-67160674Y-34617057D01*
X-67277000Y-35201867D01*
X-71423000Y-35201867D01*
X-71423000Y-27226907D01*
X-61166562Y-27226907D01*
X-60852362Y-27586212D01*
X-60273059Y-27795549D01*
X-59664047Y-27887846D01*
X-59048732Y-27859557D01*
X-58450757Y-27711770D01*
X-58147638Y-27586212D01*
X-57833438Y-27226907D01*
X-50416562Y-27226907D01*
X-50102362Y-27586212D01*
X-49523059Y-27795549D01*
X-48914047Y-27887846D01*
X-48298732Y-27859557D01*
X-47700757Y-27711770D01*
X-47397638Y-27586212D01*
X-47083438Y-27226907D01*
X-48750000Y-25560344D01*
X-50416562Y-27226907D01*
X-57833438Y-27226907D01*
X-59500000Y-25560344D01*
X-61166562Y-27226907D01*
X-71423000Y-27226907D01*
X-71423000Y-24585953D01*
X-62637846Y-24585953D01*
X-62609557Y-25201268D01*
X-62461770Y-25799243D01*
X-62336212Y-26102362D01*
X-61976907Y-26416562D01*
X-60310344Y-24750000D01*
X-58689656Y-24750000D01*
X-57023093Y-26416562D01*
X-56663788Y-26102362D01*
X-56454451Y-25523059D01*
X-56362154Y-24914047D01*
X-56377238Y-24585953D01*
X-51887846Y-24585953D01*
X-51859557Y-25201268D01*
X-51711770Y-25799243D01*
X-51586212Y-26102362D01*
X-51226907Y-26416562D01*
X-49560344Y-24750000D01*
X-47939656Y-24750000D01*
X-46273093Y-26416562D01*
X-45913788Y-26102362D01*
X-45704451Y-25523059D01*
X-45612154Y-24914047D01*
X-45640443Y-24298732D01*
X-45781175Y-23729302D01*
X-20377000Y-23729302D01*
X-20377000Y-23990698D01*
X-20326004Y-24247072D01*
X-20225972Y-24488570D01*
X-20080748Y-24705913D01*
X-19895913Y-24890748D01*
X-19678570Y-25035972D01*
X-19437072Y-25136004D01*
X-19180698Y-25187000D01*
X-18919302Y-25187000D01*
X-18662928Y-25136004D01*
X-18421430Y-25035972D01*
X-18204087Y-24890748D01*
X-18019252Y-24705913D01*
X-17874028Y-24488570D01*
X-17773996Y-24247072D01*
X-17723000Y-23990698D01*
X-17723000Y-23729302D01*
X-17773996Y-23472928D01*
X-17874028Y-23231430D01*
X-18019252Y-23014087D01*
X-18204087Y-22829252D01*
X-18421430Y-22684028D01*
X-18662928Y-22583996D01*
X-18919302Y-22533000D01*
X-19180698Y-22533000D01*
X-19437072Y-22583996D01*
X-19678570Y-22684028D01*
X-19895913Y-22829252D01*
X-20080748Y-23014087D01*
X-20225972Y-23231430D01*
X-20326004Y-23472928D01*
X-20377000Y-23729302D01*
X-45781175Y-23729302D01*
X-45788230Y-23700757D01*
X-45913788Y-23397638D01*
X-46273093Y-23083438D01*
X-47939656Y-24750000D01*
X-49560344Y-24750000D01*
X-51226907Y-23083438D01*
X-51586212Y-23397638D01*
X-51795549Y-23976941D01*
X-51887846Y-24585953D01*
X-56377238Y-24585953D01*
X-56390443Y-24298732D01*
X-56538230Y-23700757D01*
X-56663788Y-23397638D01*
X-57023093Y-23083438D01*
X-58689656Y-24750000D01*
X-60310344Y-24750000D01*
X-61976907Y-23083438D01*
X-62336212Y-23397638D01*
X-62545549Y-23976941D01*
X-62637846Y-24585953D01*
X-71423000Y-24585953D01*
X-71423000Y-22273093D01*
X-61166562Y-22273093D01*
X-59500000Y-23939656D01*
X-57833438Y-22273093D01*
X-50416562Y-22273093D01*
X-48750000Y-23939656D01*
X-47083438Y-22273093D01*
X-47397638Y-21913788D01*
X-47976941Y-21704451D01*
X-48585953Y-21612154D01*
X-49201268Y-21640443D01*
X-49799243Y-21788230D01*
X-50102362Y-21913788D01*
X-50416562Y-22273093D01*
X-57833438Y-22273093D01*
X-58147638Y-21913788D01*
X-58726941Y-21704451D01*
X-59335953Y-21612154D01*
X-59951268Y-21640443D01*
X-60549243Y-21788230D01*
X-60852362Y-21913788D01*
X-61166562Y-22273093D01*
X-71423000Y-22273093D01*
X-71423000Y-15859302D01*
X-20377000Y-15859302D01*
X-20377000Y-16120698D01*
X-20326004Y-16377072D01*
X-20225972Y-16618570D01*
X-20080748Y-16835913D01*
X-19895913Y-17020748D01*
X-19678570Y-17165972D01*
X-19437072Y-17266004D01*
X-19180698Y-17317000D01*
X-18919302Y-17317000D01*
X-18662928Y-17266004D01*
X-18421430Y-17165972D01*
X-18204087Y-17020748D01*
X-18019252Y-16835913D01*
X-17874028Y-16618570D01*
X-17773996Y-16377072D01*
X-17723000Y-16120698D01*
X-17723000Y-15859302D01*
X-17773996Y-15602928D01*
X-17874028Y-15361430D01*
X-18019252Y-15144087D01*
X-18204087Y-14959252D01*
X-18421430Y-14814028D01*
X-18662928Y-14713996D01*
X-18919302Y-14663000D01*
X-19180698Y-14663000D01*
X-19437072Y-14713996D01*
X-19678570Y-14814028D01*
X-19895913Y-14959252D01*
X-20080748Y-15144087D01*
X-20225972Y-15361430D01*
X-20326004Y-15602928D01*
X-20377000Y-15859302D01*
X-71423000Y-15859302D01*
X-71423000Y-10529302D01*
X-20377000Y-10529302D01*
X-20377000Y-10790698D01*
X-20326004Y-11047072D01*
X-20225972Y-11288570D01*
X-20080748Y-11505913D01*
X-19895913Y-11690748D01*
X-19678570Y-11835972D01*
X-19437072Y-11936004D01*
X-19180698Y-11987000D01*
X-18919302Y-11987000D01*
X-18662928Y-11936004D01*
X-18421430Y-11835972D01*
X-18204087Y-11690748D01*
X-18019252Y-11505913D01*
X-17874028Y-11288570D01*
X-17773996Y-11047072D01*
X-17723000Y-10790698D01*
X-17723000Y-10529302D01*
X-17773996Y-10272928D01*
X-17874028Y-10031430D01*
X-18019252Y-9814087D01*
X-18204087Y-9629252D01*
X-18421430Y-9484028D01*
X-18662928Y-9383996D01*
X-18919302Y-9333000D01*
X-19180698Y-9333000D01*
X-19437072Y-9383996D01*
X-19678570Y-9484028D01*
X-19895913Y-9629252D01*
X-20080748Y-9814087D01*
X-20225972Y-10031430D01*
X-20326004Y-10272928D01*
X-20377000Y-10529302D01*
X-71423000Y-10529302D01*
X-71423000Y-5199302D01*
X-20377000Y-5199302D01*
X-20377000Y-5460698D01*
X-20326004Y-5717072D01*
X-20225972Y-5958570D01*
X-20080748Y-6175913D01*
X-19895913Y-6360748D01*
X-19678570Y-6505972D01*
X-19437072Y-6606004D01*
X-19180698Y-6657000D01*
X-18919302Y-6657000D01*
X-18662928Y-6606004D01*
X-18421430Y-6505972D01*
X-18204087Y-6360748D01*
X-18019252Y-6175913D01*
X-17874028Y-5958570D01*
X-17773996Y-5717072D01*
X-17723000Y-5460698D01*
X-17723000Y-5199302D01*
X-17773996Y-4942928D01*
X-17874028Y-4701430D01*
X-18019252Y-4484087D01*
X-18204087Y-4299252D01*
X-18421430Y-4154028D01*
X-18662928Y-4053996D01*
X-18919302Y-4003000D01*
X-19180698Y-4003000D01*
X-19437072Y-4053996D01*
X-19678570Y-4154028D01*
X-19895913Y-4299252D01*
X-20080748Y-4484087D01*
X-20225972Y-4701430D01*
X-20326004Y-4942928D01*
X-20377000Y-5199302D01*
X-71423000Y-5199302D01*
X-71423000Y130698D01*
X-20377000Y130698D01*
X-20377000Y-130698D01*
X-20326004Y-387072D01*
X-20225972Y-628570D01*
X-20080748Y-845913D01*
X-19895913Y-1030748D01*
X-19678570Y-1175972D01*
X-19437072Y-1276004D01*
X-19180698Y-1327000D01*
X-18919302Y-1327000D01*
X-18662928Y-1276004D01*
X-18421430Y-1175972D01*
X-18204087Y-1030748D01*
X-18019252Y-845913D01*
X-17874028Y-628570D01*
X-17773996Y-387072D01*
X-17723000Y-130698D01*
X-17723000Y130698D01*
X-17773996Y387072D01*
X-17874028Y628570D01*
X-18019252Y845913D01*
X-18204087Y1030748D01*
X-18421430Y1175972D01*
X-18662928Y1276004D01*
X-18919302Y1327000D01*
X-19180698Y1327000D01*
X-19437072Y1276004D01*
X-19678570Y1175972D01*
X-19895913Y1030748D01*
X-20080748Y845913D01*
X-20225972Y628570D01*
X-20326004Y387072D01*
X-20377000Y130698D01*
X-71423000Y130698D01*
X-71423000Y3325002D01*
X-64252048Y3325002D01*
X-64252048Y925002D01*
X-64241873Y821692D01*
X-64211738Y722352D01*
X-64162803Y630800D01*
X-64096947Y550554D01*
X-64016701Y484698D01*
X-63925149Y435763D01*
X-63825809Y405628D01*
X-63722499Y395453D01*
X-61322499Y395453D01*
X-61219189Y405628D01*
X-61119849Y435763D01*
X-61028297Y484698D01*
X-60948051Y550554D01*
X-60882195Y630800D01*
X-60833260Y722352D01*
X-60803125Y821692D01*
X-60792950Y925002D01*
X-60792950Y3325002D01*
X-60803125Y3428312D01*
X-60809704Y3450000D01*
X-45229549Y3450000D01*
X-45229549Y1050000D01*
X-45219374Y946690D01*
X-45189239Y847350D01*
X-45140304Y755798D01*
X-45074448Y675552D01*
X-44994202Y609696D01*
X-44902650Y560761D01*
X-44803310Y530626D01*
X-44700000Y520451D01*
X-42300000Y520451D01*
X-42196690Y530626D01*
X-42097350Y560761D01*
X-42005798Y609696D01*
X-41925552Y675552D01*
X-41859696Y755798D01*
X-41810761Y847350D01*
X-41780626Y946690D01*
X-41770451Y1050000D01*
X-41770451Y3150396D01*
X-32527000Y3150396D01*
X-32527000Y2849604D01*
X-32468319Y2554590D01*
X-32353210Y2276694D01*
X-32186099Y2026594D01*
X-31973406Y1813901D01*
X-31723306Y1646790D01*
X-31445410Y1531681D01*
X-31150396Y1473000D01*
X-30849604Y1473000D01*
X-30554590Y1531681D01*
X-30276694Y1646790D01*
X-30026594Y1813901D01*
X-29813901Y2026594D01*
X-29646790Y2276694D01*
X-29531681Y2554590D01*
X-29473000Y2849604D01*
X-29473000Y3150396D01*
X-29531681Y3445410D01*
X-29646790Y3723306D01*
X-29813901Y3973406D01*
X-30026594Y4186099D01*
X-30276694Y4353210D01*
X-30554590Y4468319D01*
X-30849604Y4527000D01*
X-31150396Y4527000D01*
X-31445410Y4468319D01*
X-31723306Y4353210D01*
X-31973406Y4186099D01*
X-32186099Y3973406D01*
X-32353210Y3723306D01*
X-32468319Y3445410D01*
X-32527000Y3150396D01*
X-41770451Y3150396D01*
X-41770451Y3450000D01*
X-41780626Y3553310D01*
X-41810761Y3652650D01*
X-41859696Y3744202D01*
X-41925552Y3824448D01*
X-42005798Y3890304D01*
X-42097350Y3939239D01*
X-42196690Y3969374D01*
X-42300000Y3979549D01*
X-44700000Y3979549D01*
X-44803310Y3969374D01*
X-44902650Y3939239D01*
X-44994202Y3890304D01*
X-45074448Y3824448D01*
X-45140304Y3744202D01*
X-45189239Y3652650D01*
X-45219374Y3553310D01*
X-45229549Y3450000D01*
X-60809704Y3450000D01*
X-60833260Y3527652D01*
X-60882195Y3619204D01*
X-60948051Y3699450D01*
X-61028297Y3765306D01*
X-61119849Y3814241D01*
X-61219189Y3844376D01*
X-61322499Y3854551D01*
X-63722499Y3854551D01*
X-63825809Y3844376D01*
X-63925149Y3814241D01*
X-64016701Y3765306D01*
X-64096947Y3699450D01*
X-64162803Y3619204D01*
X-64211738Y3527652D01*
X-64241873Y3428312D01*
X-64252048Y3325002D01*
X-71423000Y3325002D01*
X-71423000Y5460698D01*
X-20377000Y5460698D01*
X-20377000Y5199302D01*
X-20326004Y4942928D01*
X-20225972Y4701430D01*
X-20080748Y4484087D01*
X-19895913Y4299252D01*
X-19678570Y4154028D01*
X-19437072Y4053996D01*
X-19180698Y4003000D01*
X-18919302Y4003000D01*
X-18662928Y4053996D01*
X-18421430Y4154028D01*
X-18204087Y4299252D01*
X-18019252Y4484087D01*
X-17874028Y4701430D01*
X-17773996Y4942928D01*
X-17723000Y5199302D01*
X-17723000Y5460698D01*
X-17773996Y5717072D01*
X-17874028Y5958570D01*
X-18019252Y6175913D01*
X-18204087Y6360748D01*
X-18421430Y6505972D01*
X-18662928Y6606004D01*
X-18919302Y6657000D01*
X-19180698Y6657000D01*
X-19437072Y6606004D01*
X-19678570Y6505972D01*
X-19895913Y6360748D01*
X-20080748Y6175913D01*
X-20225972Y5958570D01*
X-20326004Y5717072D01*
X-20377000Y5460698D01*
X-71423000Y5460698D01*
X-71423000Y6631367D01*
X-31558289Y6631367D01*
X-31436432Y6424457D01*
X-31120673Y6369587D01*
X-30800277Y6377373D01*
X-30563568Y6424457D01*
X-30441711Y6631367D01*
X-31000000Y7189656D01*
X-31558289Y6631367D01*
X-71423000Y6631367D01*
X-71423000Y8103807D01*
X-63233350Y8103807D01*
X-63084104Y7877173D01*
X-62732329Y7801193D01*
X-62372489Y7795301D01*
X-62018415Y7859723D01*
X-61960894Y7877173D01*
X-61811648Y8103807D01*
X-62522499Y8814658D01*
X-63233350Y8103807D01*
X-71423000Y8103807D01*
X-71423000Y9474992D01*
X-64352200Y9474992D01*
X-64287778Y9120918D01*
X-64270328Y9063397D01*
X-64043694Y8914151D01*
X-63332843Y9625002D01*
X-61712155Y9625002D01*
X-61001304Y8914151D01*
X-60774670Y9063397D01*
X-60698690Y9415172D01*
X-60692798Y9775012D01*
X-60757220Y10129086D01*
X-60774670Y10186607D01*
X-61001304Y10335853D01*
X-61712155Y9625002D01*
X-63332843Y9625002D01*
X-64043694Y10335853D01*
X-64270328Y10186607D01*
X-64346308Y9834832D01*
X-64352200Y9474992D01*
X-71423000Y9474992D01*
X-71423000Y11146197D01*
X-63233350Y11146197D01*
X-62522499Y10435346D01*
X-61811648Y11146197D01*
X-61960894Y11372831D01*
X-62312669Y11448811D01*
X-62672509Y11454703D01*
X-63026583Y11390281D01*
X-63084104Y11372831D01*
X-63233350Y11146197D01*
X-71423000Y11146197D01*
X-71423000Y12500000D01*
X-55529549Y12500000D01*
X-55529549Y8500000D01*
X-55519374Y8396690D01*
X-55489239Y8297350D01*
X-55440304Y8205798D01*
X-55374448Y8125552D01*
X-55294202Y8059696D01*
X-55202650Y8010761D01*
X-55103310Y7980626D01*
X-55000000Y7970451D01*
X-51000000Y7970451D01*
X-50896690Y7980626D01*
X-50797350Y8010761D01*
X-50705798Y8059696D01*
X-50625552Y8125552D01*
X-50559696Y8205798D01*
X-50547399Y8228805D01*
X-44210851Y8228805D01*
X-44061605Y8002171D01*
X-43709830Y7926191D01*
X-43349990Y7920299D01*
X-42995916Y7984721D01*
X-42938395Y8002171D01*
X-42860358Y8120673D01*
X-32630413Y8120673D01*
X-32622627Y7800277D01*
X-32575543Y7563568D01*
X-32368633Y7441711D01*
X-31810344Y8000000D01*
X-30189656Y8000000D01*
X-29631367Y7441711D01*
X-29424457Y7563568D01*
X-29369587Y7879327D01*
X-29377373Y8199723D01*
X-29424457Y8436432D01*
X-29631367Y8558289D01*
X-30189656Y8000000D01*
X-31810344Y8000000D01*
X-32368633Y8558289D01*
X-32575543Y8436432D01*
X-32630413Y8120673D01*
X-42860358Y8120673D01*
X-42789149Y8228805D01*
X-43500000Y8939656D01*
X-44210851Y8228805D01*
X-50547399Y8228805D01*
X-50510761Y8297350D01*
X-50480626Y8396690D01*
X-50470451Y8500000D01*
X-50470451Y9599990D01*
X-45329701Y9599990D01*
X-45265279Y9245916D01*
X-45247829Y9188395D01*
X-45021195Y9039149D01*
X-44310344Y9750000D01*
X-42689656Y9750000D01*
X-41978805Y9039149D01*
X-41752171Y9188395D01*
X-41713242Y9368633D01*
X-31558289Y9368633D01*
X-31000000Y8810344D01*
X-30441711Y9368633D01*
X-30563568Y9575543D01*
X-30879327Y9630413D01*
X-31199723Y9622627D01*
X-31436432Y9575543D01*
X-31558289Y9368633D01*
X-41713242Y9368633D01*
X-41676191Y9540170D01*
X-41670299Y9900010D01*
X-41734721Y10254084D01*
X-41752171Y10311605D01*
X-41978805Y10460851D01*
X-42689656Y9750000D01*
X-44310344Y9750000D01*
X-45021195Y10460851D01*
X-45247829Y10311605D01*
X-45323809Y9959830D01*
X-45329701Y9599990D01*
X-50470451Y9599990D01*
X-50470451Y11271195D01*
X-44210851Y11271195D01*
X-43500000Y10560344D01*
X-43269646Y10790698D01*
X-20377000Y10790698D01*
X-20377000Y10529302D01*
X-20326004Y10272928D01*
X-20225972Y10031430D01*
X-20080748Y9814087D01*
X-19895913Y9629252D01*
X-19678570Y9484028D01*
X-19437072Y9383996D01*
X-19180698Y9333000D01*
X-18919302Y9333000D01*
X-18662928Y9383996D01*
X-18421430Y9484028D01*
X-18204087Y9629252D01*
X-18019252Y9814087D01*
X-17874028Y10031430D01*
X-17773996Y10272928D01*
X-17723000Y10529302D01*
X-17723000Y10790698D01*
X-17773996Y11047072D01*
X-17874028Y11288570D01*
X-18019252Y11505913D01*
X-18204087Y11690748D01*
X-18421430Y11835972D01*
X-18662928Y11936004D01*
X-18919302Y11987000D01*
X-19180698Y11987000D01*
X-19437072Y11936004D01*
X-19678570Y11835972D01*
X-19895913Y11690748D01*
X-20080748Y11505913D01*
X-20225972Y11288570D01*
X-20326004Y11047072D01*
X-20377000Y10790698D01*
X-43269646Y10790698D01*
X-42789149Y11271195D01*
X-42938395Y11497829D01*
X-43290170Y11573809D01*
X-43650010Y11579701D01*
X-44004084Y11515279D01*
X-44061605Y11497829D01*
X-44210851Y11271195D01*
X-50470451Y11271195D01*
X-50470451Y12500000D01*
X-50480626Y12603310D01*
X-50510761Y12702650D01*
X-50559696Y12794202D01*
X-50625552Y12874448D01*
X-50705798Y12940304D01*
X-50797350Y12989239D01*
X-50896690Y13019374D01*
X-51000000Y13029549D01*
X-55000000Y13029549D01*
X-55103310Y13019374D01*
X-55202650Y12989239D01*
X-55294202Y12940304D01*
X-55374448Y12874448D01*
X-55440304Y12794202D01*
X-55489239Y12702650D01*
X-55519374Y12603310D01*
X-55529549Y12500000D01*
X-71423000Y12500000D01*
X-71423000Y16120698D01*
X-20377000Y16120698D01*
X-20377000Y15859302D01*
X-20326004Y15602928D01*
X-20225972Y15361430D01*
X-20080748Y15144087D01*
X-19895913Y14959252D01*
X-19678570Y14814028D01*
X-19437072Y14713996D01*
X-19180698Y14663000D01*
X-18919302Y14663000D01*
X-18662928Y14713996D01*
X-18421430Y14814028D01*
X-18204087Y14959252D01*
X-18019252Y15144087D01*
X-17874028Y15361430D01*
X-17773996Y15602928D01*
X-17723000Y15859302D01*
X-17723000Y16120698D01*
X-17773996Y16377072D01*
X-17874028Y16618570D01*
X-18019252Y16835913D01*
X-18204087Y17020748D01*
X-18421430Y17165972D01*
X-18662928Y17266004D01*
X-18919302Y17317000D01*
X-19180698Y17317000D01*
X-19437072Y17266004D01*
X-19678570Y17165972D01*
X-19895913Y17020748D01*
X-20080748Y16835913D01*
X-20225972Y16618570D01*
X-20326004Y16377072D01*
X-20377000Y16120698D01*
X-71423000Y16120698D01*
X-71423000Y18386500D01*
X-54303155Y18386500D01*
X-54051021Y18078548D01*
X-53558423Y17920032D01*
X-53044367Y17860662D01*
X-52528604Y17902720D01*
X-52030958Y18044592D01*
X-51948979Y18078548D01*
X-51696845Y18386500D01*
X-53000000Y19689656D01*
X-54303155Y18386500D01*
X-71423000Y18386500D01*
X-71423000Y22450000D01*
X-64229549Y22450000D01*
X-64229549Y20050000D01*
X-64219374Y19946690D01*
X-64189239Y19847350D01*
X-64140304Y19755798D01*
X-64074448Y19675552D01*
X-63994202Y19609696D01*
X-63902650Y19560761D01*
X-63803310Y19530626D01*
X-63700000Y19520451D01*
X-61300000Y19520451D01*
X-61196690Y19530626D01*
X-61097350Y19560761D01*
X-61005798Y19609696D01*
X-60925552Y19675552D01*
X-60859696Y19755798D01*
X-60810761Y19847350D01*
X-60780626Y19946690D01*
X-60770451Y20050000D01*
X-60770451Y20544367D01*
X-55639338Y20544367D01*
X-55597280Y20028604D01*
X-55455408Y19530958D01*
X-55421452Y19448979D01*
X-55113500Y19196845D01*
X-53810344Y20500000D01*
X-52189656Y20500000D01*
X-50886500Y19196845D01*
X-50578548Y19448979D01*
X-50420032Y19941577D01*
X-50360662Y20455633D01*
X-50402720Y20971396D01*
X-50544592Y21469042D01*
X-50578548Y21551021D01*
X-50886500Y21803155D01*
X-52189656Y20500000D01*
X-53810344Y20500000D01*
X-55113500Y21803155D01*
X-55421452Y21551021D01*
X-55579968Y21058423D01*
X-55639338Y20544367D01*
X-60770451Y20544367D01*
X-60770451Y22450000D01*
X-60780626Y22553310D01*
X-60798884Y22613500D01*
X-54303155Y22613500D01*
X-53000000Y21310344D01*
X-51860345Y22450000D01*
X-45229549Y22450000D01*
X-45229549Y20050000D01*
X-45219374Y19946690D01*
X-45189239Y19847350D01*
X-45140304Y19755798D01*
X-45074448Y19675552D01*
X-44994202Y19609696D01*
X-44902650Y19560761D01*
X-44803310Y19530626D01*
X-44700000Y19520451D01*
X-42300000Y19520451D01*
X-42196690Y19530626D01*
X-42097350Y19560761D01*
X-42005798Y19609696D01*
X-41925552Y19675552D01*
X-41859696Y19755798D01*
X-41810761Y19847350D01*
X-41780626Y19946690D01*
X-41770451Y20050000D01*
X-41770451Y21450698D01*
X-20377000Y21450698D01*
X-20377000Y21189302D01*
X-20326004Y20932928D01*
X-20225972Y20691430D01*
X-20080748Y20474087D01*
X-19895913Y20289252D01*
X-19678570Y20144028D01*
X-19437072Y20043996D01*
X-19180698Y19993000D01*
X-18919302Y19993000D01*
X-18662928Y20043996D01*
X-18421430Y20144028D01*
X-18204087Y20289252D01*
X-18019252Y20474087D01*
X-17874028Y20691430D01*
X-17773996Y20932928D01*
X-17723000Y21189302D01*
X-17723000Y21450698D01*
X-17773996Y21707072D01*
X-17874028Y21948570D01*
X-18019252Y22165913D01*
X-18204087Y22350748D01*
X-18421430Y22495972D01*
X-18662928Y22596004D01*
X-18919302Y22647000D01*
X-19180698Y22647000D01*
X-19437072Y22596004D01*
X-19678570Y22495972D01*
X-19895913Y22350748D01*
X-20080748Y22165913D01*
X-20225972Y21948570D01*
X-20326004Y21707072D01*
X-20377000Y21450698D01*
X-41770451Y21450698D01*
X-41770451Y22450000D01*
X-41780626Y22553310D01*
X-41810761Y22652650D01*
X-41859696Y22744202D01*
X-41925552Y22824448D01*
X-42005798Y22890304D01*
X-42097350Y22939239D01*
X-42196690Y22969374D01*
X-42300000Y22979549D01*
X-44700000Y22979549D01*
X-44803310Y22969374D01*
X-44902650Y22939239D01*
X-44994202Y22890304D01*
X-45074448Y22824448D01*
X-45140304Y22744202D01*
X-45189239Y22652650D01*
X-45219374Y22553310D01*
X-45229549Y22450000D01*
X-51860345Y22450000D01*
X-51696845Y22613500D01*
X-51948979Y22921452D01*
X-52441577Y23079968D01*
X-52955633Y23139338D01*
X-53471396Y23097280D01*
X-53969042Y22955408D01*
X-54051021Y22921452D01*
X-54303155Y22613500D01*
X-60798884Y22613500D01*
X-60810761Y22652650D01*
X-60859696Y22744202D01*
X-60925552Y22824448D01*
X-61005798Y22890304D01*
X-61097350Y22939239D01*
X-61196690Y22969374D01*
X-61300000Y22979549D01*
X-63700000Y22979549D01*
X-63803310Y22969374D01*
X-63902650Y22939239D01*
X-63994202Y22890304D01*
X-64074448Y22824448D01*
X-64140304Y22744202D01*
X-64189239Y22652650D01*
X-64219374Y22553310D01*
X-64229549Y22450000D01*
X-71423000Y22450000D01*
X-71423000Y27228805D01*
X-63210851Y27228805D01*
X-63061605Y27002171D01*
X-62709830Y26926191D01*
X-62349990Y26920299D01*
X-61995916Y26984721D01*
X-61938395Y27002171D01*
X-61789149Y27228805D01*
X-44210851Y27228805D01*
X-44061605Y27002171D01*
X-43709830Y26926191D01*
X-43349990Y26920299D01*
X-42995916Y26984721D01*
X-42938395Y27002171D01*
X-42789149Y27228805D01*
X-43500000Y27939656D01*
X-44210851Y27228805D01*
X-61789149Y27228805D01*
X-62500000Y27939656D01*
X-63210851Y27228805D01*
X-71423000Y27228805D01*
X-71423000Y28599990D01*
X-64329701Y28599990D01*
X-64265279Y28245916D01*
X-64247829Y28188395D01*
X-64021195Y28039149D01*
X-63310344Y28750000D01*
X-61689656Y28750000D01*
X-60978805Y28039149D01*
X-60752171Y28188395D01*
X-60676191Y28540170D01*
X-60675212Y28599990D01*
X-45329701Y28599990D01*
X-45265279Y28245916D01*
X-45247829Y28188395D01*
X-45021195Y28039149D01*
X-44310344Y28750000D01*
X-42689656Y28750000D01*
X-41978805Y28039149D01*
X-41752171Y28188395D01*
X-41676191Y28540170D01*
X-41670299Y28900010D01*
X-41734721Y29254084D01*
X-41752171Y29311605D01*
X-41978805Y29460851D01*
X-42689656Y28750000D01*
X-44310344Y28750000D01*
X-45021195Y29460851D01*
X-45247829Y29311605D01*
X-45323809Y28959830D01*
X-45329701Y28599990D01*
X-60675212Y28599990D01*
X-60670299Y28900010D01*
X-60734721Y29254084D01*
X-60752171Y29311605D01*
X-60978805Y29460851D01*
X-61689656Y28750000D01*
X-63310344Y28750000D01*
X-64021195Y29460851D01*
X-64247829Y29311605D01*
X-64323809Y28959830D01*
X-64329701Y28599990D01*
X-71423000Y28599990D01*
X-71423000Y30271195D01*
X-63210851Y30271195D01*
X-62500000Y29560344D01*
X-61789149Y30271195D01*
X-44210851Y30271195D01*
X-43500000Y29560344D01*
X-42789149Y30271195D01*
X-42938395Y30497829D01*
X-43290170Y30573809D01*
X-43650010Y30579701D01*
X-44004084Y30515279D01*
X-44061605Y30497829D01*
X-44210851Y30271195D01*
X-61789149Y30271195D01*
X-61938395Y30497829D01*
X-62290170Y30573809D01*
X-62650010Y30579701D01*
X-63004084Y30515279D01*
X-63061605Y30497829D01*
X-63210851Y30271195D01*
X-71423000Y30271195D01*
X-71423000Y38630698D01*
X-36327000Y38630698D01*
X-36327000Y38369302D01*
X-36276004Y38112928D01*
X-36175972Y37871430D01*
X-36030748Y37654087D01*
X-35845913Y37469252D01*
X-35628570Y37324028D01*
X-35387072Y37223996D01*
X-35130698Y37173000D01*
X-34869302Y37173000D01*
X-34612928Y37223996D01*
X-34371430Y37324028D01*
X-34154087Y37469252D01*
X-33969252Y37654087D01*
X-33824028Y37871430D01*
X-33723996Y38112928D01*
X-33673000Y38369302D01*
X-33673000Y38630698D01*
X-31327000Y38630698D01*
X-31327000Y38369302D01*
X-31276004Y38112928D01*
X-31175972Y37871430D01*
X-31030748Y37654087D01*
X-30845913Y37469252D01*
X-30628570Y37324028D01*
X-30387072Y37223996D01*
X-30130698Y37173000D01*
X-29869302Y37173000D01*
X-29612928Y37223996D01*
X-29371430Y37324028D01*
X-29154087Y37469252D01*
X-28969252Y37654087D01*
X-28824028Y37871430D01*
X-28723996Y38112928D01*
X-28673000Y38369302D01*
X-28673000Y38630698D01*
X-28723996Y38887072D01*
X-28824028Y39128570D01*
X-28969252Y39345913D01*
X-29154087Y39530748D01*
X-29371430Y39675972D01*
X-29612928Y39776004D01*
X-29869302Y39827000D01*
X-30130698Y39827000D01*
X-30387072Y39776004D01*
X-30628570Y39675972D01*
X-30845913Y39530748D01*
X-31030748Y39345913D01*
X-31175972Y39128570D01*
X-31276004Y38887072D01*
X-31327000Y38630698D01*
X-33673000Y38630698D01*
X-33723996Y38887072D01*
X-33824028Y39128570D01*
X-33969252Y39345913D01*
X-34154087Y39530748D01*
X-34371430Y39675972D01*
X-34612928Y39776004D01*
X-34869302Y39827000D01*
X-35130698Y39827000D01*
X-35387072Y39776004D01*
X-35628570Y39675972D01*
X-35845913Y39530748D01*
X-36030748Y39345913D01*
X-36175972Y39128570D01*
X-36276004Y38887072D01*
X-36327000Y38630698D01*
X-71423000Y38630698D01*
X-71423000Y42662669D01*
X-43703825Y42662669D01*
X-43678377Y42615022D01*
X-43475014Y42320199D01*
X-43218041Y42070715D01*
X-42917334Y41876158D01*
X-42653000Y41921912D01*
X-42653000Y42927000D01*
X-41507000Y42927000D01*
X-41507000Y41921912D01*
X-41242666Y41876158D01*
X-40941959Y42070715D01*
X-40684986Y42320199D01*
X-40481623Y42615022D01*
X-40456175Y42662669D01*
X-40511113Y42927000D01*
X-41507000Y42927000D01*
X-42653000Y42927000D01*
X-43648887Y42927000D01*
X-43703825Y42662669D01*
X-71423000Y42662669D01*
X-71423000Y43670095D01*
X-38727000Y43670095D01*
X-38727000Y43329905D01*
X-38660632Y42996253D01*
X-38530447Y42681959D01*
X-38341448Y42399102D01*
X-38100898Y42158552D01*
X-37818041Y41969553D01*
X-37503747Y41839368D01*
X-37170095Y41773000D01*
X-36829905Y41773000D01*
X-36496253Y41839368D01*
X-36181959Y41969553D01*
X-35899102Y42158552D01*
X-35658552Y42399102D01*
X-35469553Y42681959D01*
X-35339368Y42996253D01*
X-35273000Y43329905D01*
X-35273000Y43670095D01*
X-35339368Y44003747D01*
X-35469553Y44318041D01*
X-35658552Y44600898D01*
X-35899102Y44841448D01*
X-35986731Y44900000D01*
X-30019549Y44900000D01*
X-30019549Y43100000D01*
X-30009374Y42996690D01*
X-29979239Y42897350D01*
X-29930304Y42805798D01*
X-29864448Y42725552D01*
X-29784202Y42659696D01*
X-29692650Y42610761D01*
X-29593310Y42580626D01*
X-29490000Y42570451D01*
X-27690000Y42570451D01*
X-27586690Y42580626D01*
X-27487350Y42610761D01*
X-27395798Y42659696D01*
X-27315552Y42725552D01*
X-27249696Y42805798D01*
X-27200761Y42897350D01*
X-27170626Y42996690D01*
X-27161020Y43094225D01*
X-27158424Y43090340D01*
X-26959660Y42891576D01*
X-26725938Y42735409D01*
X-26466241Y42627838D01*
X-26190547Y42573000D01*
X-25909453Y42573000D01*
X-25633759Y42627838D01*
X-25437940Y42708950D01*
X-23990706Y42708950D01*
X-23883077Y42511657D01*
X-23585548Y42467471D01*
X-23285115Y42482180D01*
X-23136923Y42511657D01*
X-23029294Y42708950D01*
X-23510000Y43189656D01*
X-23990706Y42708950D01*
X-25437940Y42708950D01*
X-25374062Y42735409D01*
X-25140340Y42891576D01*
X-24941576Y43090340D01*
X-24785409Y43324062D01*
X-24677838Y43583759D01*
X-24663251Y43657093D01*
X-24320344Y44000000D01*
X-22699656Y44000000D01*
X-22218950Y43519294D01*
X-22021657Y43626923D01*
X-21977471Y43924452D01*
X-21992180Y44224885D01*
X-22021657Y44373077D01*
X-22218950Y44480706D01*
X-22699656Y44000000D01*
X-24320344Y44000000D01*
X-24663251Y44342907D01*
X-24677838Y44416241D01*
X-24785409Y44675938D01*
X-24941576Y44909660D01*
X-25140340Y45108424D01*
X-25374062Y45264591D01*
X-25437939Y45291050D01*
X-23990706Y45291050D01*
X-23510000Y44810344D01*
X-23420344Y44900000D01*
X-16019549Y44900000D01*
X-16019549Y43100000D01*
X-16009374Y42996690D01*
X-15979239Y42897350D01*
X-15930304Y42805798D01*
X-15864448Y42725552D01*
X-15784202Y42659696D01*
X-15692650Y42610761D01*
X-15593310Y42580626D01*
X-15490000Y42570451D01*
X-13690000Y42570451D01*
X-13586690Y42580626D01*
X-13487350Y42610761D01*
X-13395798Y42659696D01*
X-13315552Y42725552D01*
X-13249696Y42805798D01*
X-13200761Y42897350D01*
X-13170626Y42996690D01*
X-13161020Y43094225D01*
X-13158424Y43090340D01*
X-12959660Y42891576D01*
X-12725938Y42735409D01*
X-12466241Y42627838D01*
X-12190547Y42573000D01*
X-11909453Y42573000D01*
X-11633759Y42627838D01*
X-11437940Y42708950D01*
X-9990706Y42708950D01*
X-9883077Y42511657D01*
X-9585548Y42467471D01*
X-9285115Y42482180D01*
X-9136923Y42511657D01*
X-9029294Y42708950D01*
X-9510000Y43189656D01*
X-9990706Y42708950D01*
X-11437940Y42708950D01*
X-11374062Y42735409D01*
X-11140340Y42891576D01*
X-10941576Y43090340D01*
X-10785409Y43324062D01*
X-10677838Y43583759D01*
X-10663251Y43657093D01*
X-10320344Y44000000D01*
X-8699656Y44000000D01*
X-8218950Y43519294D01*
X-8021657Y43626923D01*
X-7977471Y43924452D01*
X-7992180Y44224885D01*
X-8021657Y44373077D01*
X-8218950Y44480706D01*
X-8699656Y44000000D01*
X-10320344Y44000000D01*
X-10663251Y44342907D01*
X-10677838Y44416241D01*
X-10785409Y44675938D01*
X-10941576Y44909660D01*
X-11140340Y45108424D01*
X-11374062Y45264591D01*
X-11437939Y45291050D01*
X-9990706Y45291050D01*
X-9510000Y44810344D01*
X-9029294Y45291050D01*
X-9136923Y45488343D01*
X-9434452Y45532529D01*
X-9734885Y45517820D01*
X-9883077Y45488343D01*
X-9990706Y45291050D01*
X-11437939Y45291050D01*
X-11633759Y45372162D01*
X-11909453Y45427000D01*
X-12190547Y45427000D01*
X-12466241Y45372162D01*
X-12725938Y45264591D01*
X-12959660Y45108424D01*
X-13158424Y44909660D01*
X-13161020Y44905775D01*
X-13170626Y45003310D01*
X-13200761Y45102650D01*
X-13249696Y45194202D01*
X-13315552Y45274448D01*
X-13395798Y45340304D01*
X-13487350Y45389239D01*
X-13586690Y45419374D01*
X-13690000Y45429549D01*
X-15490000Y45429549D01*
X-15593310Y45419374D01*
X-15692650Y45389239D01*
X-15784202Y45340304D01*
X-15864448Y45274448D01*
X-15930304Y45194202D01*
X-15979239Y45102650D01*
X-16009374Y45003310D01*
X-16019549Y44900000D01*
X-23420344Y44900000D01*
X-23029294Y45291050D01*
X-23136923Y45488343D01*
X-23434452Y45532529D01*
X-23734885Y45517820D01*
X-23883077Y45488343D01*
X-23990706Y45291050D01*
X-25437939Y45291050D01*
X-25633759Y45372162D01*
X-25909453Y45427000D01*
X-26190547Y45427000D01*
X-26466241Y45372162D01*
X-26725938Y45264591D01*
X-26959660Y45108424D01*
X-27158424Y44909660D01*
X-27161020Y44905775D01*
X-27170626Y45003310D01*
X-27200761Y45102650D01*
X-27249696Y45194202D01*
X-27315552Y45274448D01*
X-27395798Y45340304D01*
X-27487350Y45389239D01*
X-27586690Y45419374D01*
X-27690000Y45429549D01*
X-29490000Y45429549D01*
X-29593310Y45419374D01*
X-29692650Y45389239D01*
X-29784202Y45340304D01*
X-29864448Y45274448D01*
X-29930304Y45194202D01*
X-29979239Y45102650D01*
X-30009374Y45003310D01*
X-30019549Y44900000D01*
X-35986731Y44900000D01*
X-36181959Y45030447D01*
X-36496253Y45160632D01*
X-36829905Y45227000D01*
X-37170095Y45227000D01*
X-37503747Y45160632D01*
X-37818041Y45030447D01*
X-38100898Y44841448D01*
X-38341448Y44600898D01*
X-38530447Y44318041D01*
X-38660632Y44003747D01*
X-38727000Y43670095D01*
X-71423000Y43670095D01*
X-71423000Y44337331D01*
X-43703825Y44337331D01*
X-43648887Y44073000D01*
X-42653000Y44073000D01*
X-42653000Y45078088D01*
X-41507000Y45078088D01*
X-41507000Y44073000D01*
X-40511113Y44073000D01*
X-40456175Y44337331D01*
X-40481623Y44384978D01*
X-40684986Y44679801D01*
X-40941959Y44929285D01*
X-41242666Y45123842D01*
X-41507000Y45078088D01*
X-42653000Y45078088D01*
X-42917334Y45123842D01*
X-43218041Y44929285D01*
X-43475014Y44679801D01*
X-43678377Y44384978D01*
X-43703825Y44337331D01*
X-71423000Y44337331D01*
X-71423000Y46423000D01*
X-6627000Y46423000D01*
X-6627000Y-46423000D01*
X-6627000Y-46423000D01*
G37*
X-6627000Y-46423000D02*
X-71423000Y-46423000D01*
X-71423000Y-45291050D01*
X-29070706Y-45291050D01*
X-28963077Y-45488343D01*
X-28665548Y-45532529D01*
X-28365115Y-45517820D01*
X-28216923Y-45488343D01*
X-28109294Y-45291050D01*
X-28590000Y-44810344D01*
X-29070706Y-45291050D01*
X-71423000Y-45291050D01*
X-71423000Y-44337331D01*
X-43703825Y-44337331D01*
X-43678377Y-44384978D01*
X-43475014Y-44679801D01*
X-43218041Y-44929285D01*
X-42917334Y-45123842D01*
X-42653000Y-45078088D01*
X-42653000Y-44073000D01*
X-41507000Y-44073000D01*
X-41507000Y-45078088D01*
X-41242666Y-45123842D01*
X-40941959Y-44929285D01*
X-40684986Y-44679801D01*
X-40481623Y-44384978D01*
X-40456175Y-44337331D01*
X-40511113Y-44073000D01*
X-41507000Y-44073000D01*
X-42653000Y-44073000D01*
X-43648887Y-44073000D01*
X-43703825Y-44337331D01*
X-71423000Y-44337331D01*
X-71423000Y-43329905D01*
X-38727000Y-43329905D01*
X-38727000Y-43670095D01*
X-38660632Y-44003747D01*
X-38530447Y-44318041D01*
X-38341448Y-44600898D01*
X-38100898Y-44841448D01*
X-37818041Y-45030447D01*
X-37503747Y-45160632D01*
X-37170095Y-45227000D01*
X-36829905Y-45227000D01*
X-36496253Y-45160632D01*
X-36181959Y-45030447D01*
X-35899102Y-44841448D01*
X-35658552Y-44600898D01*
X-35469553Y-44318041D01*
X-35339368Y-44003747D01*
X-35323596Y-43924452D01*
X-30122529Y-43924452D01*
X-30107820Y-44224885D01*
X-30078343Y-44373077D01*
X-29881050Y-44480706D01*
X-29400344Y-44000000D01*
X-27779656Y-44000000D01*
X-27436749Y-44342907D01*
X-27422162Y-44416241D01*
X-27314591Y-44675938D01*
X-27158424Y-44909660D01*
X-26959660Y-45108424D01*
X-26725938Y-45264591D01*
X-26466241Y-45372162D01*
X-26190547Y-45427000D01*
X-25909453Y-45427000D01*
X-25633759Y-45372162D01*
X-25374062Y-45264591D01*
X-25140340Y-45108424D01*
X-24941576Y-44909660D01*
X-24938980Y-44905775D01*
X-24929374Y-45003310D01*
X-24899239Y-45102650D01*
X-24850304Y-45194202D01*
X-24784448Y-45274448D01*
X-24704202Y-45340304D01*
X-24612650Y-45389239D01*
X-24513310Y-45419374D01*
X-24410000Y-45429549D01*
X-22610000Y-45429549D01*
X-22506690Y-45419374D01*
X-22407350Y-45389239D01*
X-22315798Y-45340304D01*
X-22255782Y-45291050D01*
X-15070706Y-45291050D01*
X-14963077Y-45488343D01*
X-14665548Y-45532529D01*
X-14365115Y-45517820D01*
X-14216923Y-45488343D01*
X-14109294Y-45291050D01*
X-14590000Y-44810344D01*
X-15070706Y-45291050D01*
X-22255782Y-45291050D01*
X-22235552Y-45274448D01*
X-22169696Y-45194202D01*
X-22120761Y-45102650D01*
X-22090626Y-45003310D01*
X-22080451Y-44900000D01*
X-22080451Y-43924452D01*
X-16122529Y-43924452D01*
X-16107820Y-44224885D01*
X-16078343Y-44373077D01*
X-15881050Y-44480706D01*
X-15400344Y-44000000D01*
X-13779656Y-44000000D01*
X-13436749Y-44342907D01*
X-13422162Y-44416241D01*
X-13314591Y-44675938D01*
X-13158424Y-44909660D01*
X-12959660Y-45108424D01*
X-12725938Y-45264591D01*
X-12466241Y-45372162D01*
X-12190547Y-45427000D01*
X-11909453Y-45427000D01*
X-11633759Y-45372162D01*
X-11374062Y-45264591D01*
X-11140340Y-45108424D01*
X-10941576Y-44909660D01*
X-10938980Y-44905775D01*
X-10929374Y-45003310D01*
X-10899239Y-45102650D01*
X-10850304Y-45194202D01*
X-10784448Y-45274448D01*
X-10704202Y-45340304D01*
X-10612650Y-45389239D01*
X-10513310Y-45419374D01*
X-10410000Y-45429549D01*
X-8610000Y-45429549D01*
X-8506690Y-45419374D01*
X-8407350Y-45389239D01*
X-8315798Y-45340304D01*
X-8235552Y-45274448D01*
X-8169696Y-45194202D01*
X-8120761Y-45102650D01*
X-8090626Y-45003310D01*
X-8080451Y-44900000D01*
X-8080451Y-43100000D01*
X-8090626Y-42996690D01*
X-8120761Y-42897350D01*
X-8169696Y-42805798D01*
X-8235552Y-42725552D01*
X-8315798Y-42659696D01*
X-8407350Y-42610761D01*
X-8506690Y-42580626D01*
X-8610000Y-42570451D01*
X-10410000Y-42570451D01*
X-10513310Y-42580626D01*
X-10612650Y-42610761D01*
X-10704202Y-42659696D01*
X-10784448Y-42725552D01*
X-10850304Y-42805798D01*
X-10899239Y-42897350D01*
X-10929374Y-42996690D01*
X-10938980Y-43094225D01*
X-10941576Y-43090340D01*
X-11140340Y-42891576D01*
X-11374062Y-42735409D01*
X-11633759Y-42627838D01*
X-11909453Y-42573000D01*
X-12190547Y-42573000D01*
X-12466241Y-42627838D01*
X-12725938Y-42735409D01*
X-12959660Y-42891576D01*
X-13158424Y-43090340D01*
X-13314591Y-43324062D01*
X-13422162Y-43583759D01*
X-13436749Y-43657093D01*
X-13779656Y-44000000D01*
X-15400344Y-44000000D01*
X-15881050Y-43519294D01*
X-16078343Y-43626923D01*
X-16122529Y-43924452D01*
X-22080451Y-43924452D01*
X-22080451Y-43100000D01*
X-22090626Y-42996690D01*
X-22120761Y-42897350D01*
X-22169696Y-42805798D01*
X-22235552Y-42725552D01*
X-22255781Y-42708950D01*
X-15070706Y-42708950D01*
X-14590000Y-43189656D01*
X-14109294Y-42708950D01*
X-14216923Y-42511657D01*
X-14514452Y-42467471D01*
X-14814885Y-42482180D01*
X-14963077Y-42511657D01*
X-15070706Y-42708950D01*
X-22255781Y-42708950D01*
X-22315798Y-42659696D01*
X-22407350Y-42610761D01*
X-22506690Y-42580626D01*
X-22610000Y-42570451D01*
X-24410000Y-42570451D01*
X-24513310Y-42580626D01*
X-24612650Y-42610761D01*
X-24704202Y-42659696D01*
X-24784448Y-42725552D01*
X-24850304Y-42805798D01*
X-24899239Y-42897350D01*
X-24929374Y-42996690D01*
X-24938980Y-43094225D01*
X-24941576Y-43090340D01*
X-25140340Y-42891576D01*
X-25374062Y-42735409D01*
X-25633759Y-42627838D01*
X-25909453Y-42573000D01*
X-26190547Y-42573000D01*
X-26466241Y-42627838D01*
X-26725938Y-42735409D01*
X-26959660Y-42891576D01*
X-27158424Y-43090340D01*
X-27314591Y-43324062D01*
X-27422162Y-43583759D01*
X-27436749Y-43657093D01*
X-27779656Y-44000000D01*
X-29400344Y-44000000D01*
X-29881050Y-43519294D01*
X-30078343Y-43626923D01*
X-30122529Y-43924452D01*
X-35323596Y-43924452D01*
X-35273000Y-43670095D01*
X-35273000Y-43329905D01*
X-35339368Y-42996253D01*
X-35458372Y-42708950D01*
X-29070706Y-42708950D01*
X-28590000Y-43189656D01*
X-28109294Y-42708950D01*
X-28216923Y-42511657D01*
X-28514452Y-42467471D01*
X-28814885Y-42482180D01*
X-28963077Y-42511657D01*
X-29070706Y-42708950D01*
X-35458372Y-42708950D01*
X-35469553Y-42681959D01*
X-35658552Y-42399102D01*
X-35899102Y-42158552D01*
X-36181959Y-41969553D01*
X-36496253Y-41839368D01*
X-36829905Y-41773000D01*
X-37170095Y-41773000D01*
X-37503747Y-41839368D01*
X-37818041Y-41969553D01*
X-38100898Y-42158552D01*
X-38341448Y-42399102D01*
X-38530447Y-42681959D01*
X-38660632Y-42996253D01*
X-38727000Y-43329905D01*
X-71423000Y-43329905D01*
X-71423000Y-42662669D01*
X-43703825Y-42662669D01*
X-43648887Y-42927000D01*
X-42653000Y-42927000D01*
X-42653000Y-41921912D01*
X-41507000Y-41921912D01*
X-41507000Y-42927000D01*
X-40511113Y-42927000D01*
X-40456175Y-42662669D01*
X-40481623Y-42615022D01*
X-40684986Y-42320199D01*
X-40941959Y-42070715D01*
X-41242666Y-41876158D01*
X-41507000Y-41921912D01*
X-42653000Y-41921912D01*
X-42917334Y-41876158D01*
X-43218041Y-42070715D01*
X-43475014Y-42320199D01*
X-43678377Y-42615022D01*
X-43703825Y-42662669D01*
X-71423000Y-42662669D01*
X-71423000Y-35201867D01*
X-67277000Y-35201867D01*
X-67277000Y-35798133D01*
X-67160674Y-36382943D01*
X-66932492Y-36933822D01*
X-66601224Y-37429600D01*
X-66179600Y-37851224D01*
X-65683822Y-38182492D01*
X-65132943Y-38410674D01*
X-64548133Y-38527000D01*
X-63951867Y-38527000D01*
X-63367057Y-38410674D01*
X-62816178Y-38182492D01*
X-62320400Y-37851224D01*
X-61898776Y-37429600D01*
X-61567508Y-36933822D01*
X-61339326Y-36382943D01*
X-61223000Y-35798133D01*
X-61223000Y-35289366D01*
X-56596998Y-35289366D01*
X-56596998Y-35885632D01*
X-56480672Y-36470442D01*
X-56252490Y-37021321D01*
X-55921222Y-37517099D01*
X-55499598Y-37938723D01*
X-55003820Y-38269991D01*
X-54452941Y-38498173D01*
X-53868131Y-38614499D01*
X-53271865Y-38614499D01*
X-52687055Y-38498173D01*
X-52375934Y-38369302D01*
X-36327000Y-38369302D01*
X-36327000Y-38630698D01*
X-36276004Y-38887072D01*
X-36175972Y-39128570D01*
X-36030748Y-39345913D01*
X-35845913Y-39530748D01*
X-35628570Y-39675972D01*
X-35387072Y-39776004D01*
X-35130698Y-39827000D01*
X-34869302Y-39827000D01*
X-34612928Y-39776004D01*
X-34371430Y-39675972D01*
X-34154087Y-39530748D01*
X-33969252Y-39345913D01*
X-33824028Y-39128570D01*
X-33723996Y-38887072D01*
X-33673000Y-38630698D01*
X-33673000Y-38369302D01*
X-31327000Y-38369302D01*
X-31327000Y-38630698D01*
X-31276004Y-38887072D01*
X-31175972Y-39128570D01*
X-31030748Y-39345913D01*
X-30845913Y-39530748D01*
X-30628570Y-39675972D01*
X-30387072Y-39776004D01*
X-30130698Y-39827000D01*
X-29869302Y-39827000D01*
X-29612928Y-39776004D01*
X-29371430Y-39675972D01*
X-29154087Y-39530748D01*
X-28969252Y-39345913D01*
X-28824028Y-39128570D01*
X-28723996Y-38887072D01*
X-28673000Y-38630698D01*
X-28673000Y-38369302D01*
X-28723996Y-38112928D01*
X-28824028Y-37871430D01*
X-28969252Y-37654087D01*
X-29154087Y-37469252D01*
X-29371430Y-37324028D01*
X-29612928Y-37223996D01*
X-29869302Y-37173000D01*
X-30130698Y-37173000D01*
X-30387072Y-37223996D01*
X-30628570Y-37324028D01*
X-30845913Y-37469252D01*
X-31030748Y-37654087D01*
X-31175972Y-37871430D01*
X-31276004Y-38112928D01*
X-31327000Y-38369302D01*
X-33673000Y-38369302D01*
X-33723996Y-38112928D01*
X-33824028Y-37871430D01*
X-33969252Y-37654087D01*
X-34154087Y-37469252D01*
X-34371430Y-37324028D01*
X-34612928Y-37223996D01*
X-34869302Y-37173000D01*
X-35130698Y-37173000D01*
X-35387072Y-37223996D01*
X-35628570Y-37324028D01*
X-35845913Y-37469252D01*
X-36030748Y-37654087D01*
X-36175972Y-37871430D01*
X-36276004Y-38112928D01*
X-36327000Y-38369302D01*
X-52375934Y-38369302D01*
X-52136176Y-38269991D01*
X-51640398Y-37938723D01*
X-51218774Y-37517099D01*
X-50887506Y-37021321D01*
X-50659324Y-36470442D01*
X-50542998Y-35885632D01*
X-50542998Y-35289366D01*
X-50659324Y-34704556D01*
X-50887506Y-34153677D01*
X-51218774Y-33657899D01*
X-51640398Y-33236275D01*
X-52136176Y-32905007D01*
X-52687055Y-32676825D01*
X-53271865Y-32560499D01*
X-53868131Y-32560499D01*
X-54452941Y-32676825D01*
X-55003820Y-32905007D01*
X-55499598Y-33236275D01*
X-55921222Y-33657899D01*
X-56252490Y-34153677D01*
X-56480672Y-34704556D01*
X-56596998Y-35289366D01*
X-61223000Y-35289366D01*
X-61223000Y-35201867D01*
X-61339326Y-34617057D01*
X-61567508Y-34066178D01*
X-61898776Y-33570400D01*
X-62320400Y-33148776D01*
X-62816178Y-32817508D01*
X-63367057Y-32589326D01*
X-63951867Y-32473000D01*
X-64548133Y-32473000D01*
X-65132943Y-32589326D01*
X-65683822Y-32817508D01*
X-66179600Y-33148776D01*
X-66601224Y-33570400D01*
X-66932492Y-34066178D01*
X-67160674Y-34617057D01*
X-67277000Y-35201867D01*
X-71423000Y-35201867D01*
X-71423000Y-27226907D01*
X-61166562Y-27226907D01*
X-60852362Y-27586212D01*
X-60273059Y-27795549D01*
X-59664047Y-27887846D01*
X-59048732Y-27859557D01*
X-58450757Y-27711770D01*
X-58147638Y-27586212D01*
X-57833438Y-27226907D01*
X-50416562Y-27226907D01*
X-50102362Y-27586212D01*
X-49523059Y-27795549D01*
X-48914047Y-27887846D01*
X-48298732Y-27859557D01*
X-47700757Y-27711770D01*
X-47397638Y-27586212D01*
X-47083438Y-27226907D01*
X-48750000Y-25560344D01*
X-50416562Y-27226907D01*
X-57833438Y-27226907D01*
X-59500000Y-25560344D01*
X-61166562Y-27226907D01*
X-71423000Y-27226907D01*
X-71423000Y-24585953D01*
X-62637846Y-24585953D01*
X-62609557Y-25201268D01*
X-62461770Y-25799243D01*
X-62336212Y-26102362D01*
X-61976907Y-26416562D01*
X-60310344Y-24750000D01*
X-58689656Y-24750000D01*
X-57023093Y-26416562D01*
X-56663788Y-26102362D01*
X-56454451Y-25523059D01*
X-56362154Y-24914047D01*
X-56377238Y-24585953D01*
X-51887846Y-24585953D01*
X-51859557Y-25201268D01*
X-51711770Y-25799243D01*
X-51586212Y-26102362D01*
X-51226907Y-26416562D01*
X-49560344Y-24750000D01*
X-47939656Y-24750000D01*
X-46273093Y-26416562D01*
X-45913788Y-26102362D01*
X-45704451Y-25523059D01*
X-45612154Y-24914047D01*
X-45640443Y-24298732D01*
X-45781175Y-23729302D01*
X-20377000Y-23729302D01*
X-20377000Y-23990698D01*
X-20326004Y-24247072D01*
X-20225972Y-24488570D01*
X-20080748Y-24705913D01*
X-19895913Y-24890748D01*
X-19678570Y-25035972D01*
X-19437072Y-25136004D01*
X-19180698Y-25187000D01*
X-18919302Y-25187000D01*
X-18662928Y-25136004D01*
X-18421430Y-25035972D01*
X-18204087Y-24890748D01*
X-18019252Y-24705913D01*
X-17874028Y-24488570D01*
X-17773996Y-24247072D01*
X-17723000Y-23990698D01*
X-17723000Y-23729302D01*
X-17773996Y-23472928D01*
X-17874028Y-23231430D01*
X-18019252Y-23014087D01*
X-18204087Y-22829252D01*
X-18421430Y-22684028D01*
X-18662928Y-22583996D01*
X-18919302Y-22533000D01*
X-19180698Y-22533000D01*
X-19437072Y-22583996D01*
X-19678570Y-22684028D01*
X-19895913Y-22829252D01*
X-20080748Y-23014087D01*
X-20225972Y-23231430D01*
X-20326004Y-23472928D01*
X-20377000Y-23729302D01*
X-45781175Y-23729302D01*
X-45788230Y-23700757D01*
X-45913788Y-23397638D01*
X-46273093Y-23083438D01*
X-47939656Y-24750000D01*
X-49560344Y-24750000D01*
X-51226907Y-23083438D01*
X-51586212Y-23397638D01*
X-51795549Y-23976941D01*
X-51887846Y-24585953D01*
X-56377238Y-24585953D01*
X-56390443Y-24298732D01*
X-56538230Y-23700757D01*
X-56663788Y-23397638D01*
X-57023093Y-23083438D01*
X-58689656Y-24750000D01*
X-60310344Y-24750000D01*
X-61976907Y-23083438D01*
X-62336212Y-23397638D01*
X-62545549Y-23976941D01*
X-62637846Y-24585953D01*
X-71423000Y-24585953D01*
X-71423000Y-22273093D01*
X-61166562Y-22273093D01*
X-59500000Y-23939656D01*
X-57833438Y-22273093D01*
X-50416562Y-22273093D01*
X-48750000Y-23939656D01*
X-47083438Y-22273093D01*
X-47397638Y-21913788D01*
X-47976941Y-21704451D01*
X-48585953Y-21612154D01*
X-49201268Y-21640443D01*
X-49799243Y-21788230D01*
X-50102362Y-21913788D01*
X-50416562Y-22273093D01*
X-57833438Y-22273093D01*
X-58147638Y-21913788D01*
X-58726941Y-21704451D01*
X-59335953Y-21612154D01*
X-59951268Y-21640443D01*
X-60549243Y-21788230D01*
X-60852362Y-21913788D01*
X-61166562Y-22273093D01*
X-71423000Y-22273093D01*
X-71423000Y-15859302D01*
X-20377000Y-15859302D01*
X-20377000Y-16120698D01*
X-20326004Y-16377072D01*
X-20225972Y-16618570D01*
X-20080748Y-16835913D01*
X-19895913Y-17020748D01*
X-19678570Y-17165972D01*
X-19437072Y-17266004D01*
X-19180698Y-17317000D01*
X-18919302Y-17317000D01*
X-18662928Y-17266004D01*
X-18421430Y-17165972D01*
X-18204087Y-17020748D01*
X-18019252Y-16835913D01*
X-17874028Y-16618570D01*
X-17773996Y-16377072D01*
X-17723000Y-16120698D01*
X-17723000Y-15859302D01*
X-17773996Y-15602928D01*
X-17874028Y-15361430D01*
X-18019252Y-15144087D01*
X-18204087Y-14959252D01*
X-18421430Y-14814028D01*
X-18662928Y-14713996D01*
X-18919302Y-14663000D01*
X-19180698Y-14663000D01*
X-19437072Y-14713996D01*
X-19678570Y-14814028D01*
X-19895913Y-14959252D01*
X-20080748Y-15144087D01*
X-20225972Y-15361430D01*
X-20326004Y-15602928D01*
X-20377000Y-15859302D01*
X-71423000Y-15859302D01*
X-71423000Y-10529302D01*
X-20377000Y-10529302D01*
X-20377000Y-10790698D01*
X-20326004Y-11047072D01*
X-20225972Y-11288570D01*
X-20080748Y-11505913D01*
X-19895913Y-11690748D01*
X-19678570Y-11835972D01*
X-19437072Y-11936004D01*
X-19180698Y-11987000D01*
X-18919302Y-11987000D01*
X-18662928Y-11936004D01*
X-18421430Y-11835972D01*
X-18204087Y-11690748D01*
X-18019252Y-11505913D01*
X-17874028Y-11288570D01*
X-17773996Y-11047072D01*
X-17723000Y-10790698D01*
X-17723000Y-10529302D01*
X-17773996Y-10272928D01*
X-17874028Y-10031430D01*
X-18019252Y-9814087D01*
X-18204087Y-9629252D01*
X-18421430Y-9484028D01*
X-18662928Y-9383996D01*
X-18919302Y-9333000D01*
X-19180698Y-9333000D01*
X-19437072Y-9383996D01*
X-19678570Y-9484028D01*
X-19895913Y-9629252D01*
X-20080748Y-9814087D01*
X-20225972Y-10031430D01*
X-20326004Y-10272928D01*
X-20377000Y-10529302D01*
X-71423000Y-10529302D01*
X-71423000Y-5199302D01*
X-20377000Y-5199302D01*
X-20377000Y-5460698D01*
X-20326004Y-5717072D01*
X-20225972Y-5958570D01*
X-20080748Y-6175913D01*
X-19895913Y-6360748D01*
X-19678570Y-6505972D01*
X-19437072Y-6606004D01*
X-19180698Y-6657000D01*
X-18919302Y-6657000D01*
X-18662928Y-6606004D01*
X-18421430Y-6505972D01*
X-18204087Y-6360748D01*
X-18019252Y-6175913D01*
X-17874028Y-5958570D01*
X-17773996Y-5717072D01*
X-17723000Y-5460698D01*
X-17723000Y-5199302D01*
X-17773996Y-4942928D01*
X-17874028Y-4701430D01*
X-18019252Y-4484087D01*
X-18204087Y-4299252D01*
X-18421430Y-4154028D01*
X-18662928Y-4053996D01*
X-18919302Y-4003000D01*
X-19180698Y-4003000D01*
X-19437072Y-4053996D01*
X-19678570Y-4154028D01*
X-19895913Y-4299252D01*
X-20080748Y-4484087D01*
X-20225972Y-4701430D01*
X-20326004Y-4942928D01*
X-20377000Y-5199302D01*
X-71423000Y-5199302D01*
X-71423000Y130698D01*
X-20377000Y130698D01*
X-20377000Y-130698D01*
X-20326004Y-387072D01*
X-20225972Y-628570D01*
X-20080748Y-845913D01*
X-19895913Y-1030748D01*
X-19678570Y-1175972D01*
X-19437072Y-1276004D01*
X-19180698Y-1327000D01*
X-18919302Y-1327000D01*
X-18662928Y-1276004D01*
X-18421430Y-1175972D01*
X-18204087Y-1030748D01*
X-18019252Y-845913D01*
X-17874028Y-628570D01*
X-17773996Y-387072D01*
X-17723000Y-130698D01*
X-17723000Y130698D01*
X-17773996Y387072D01*
X-17874028Y628570D01*
X-18019252Y845913D01*
X-18204087Y1030748D01*
X-18421430Y1175972D01*
X-18662928Y1276004D01*
X-18919302Y1327000D01*
X-19180698Y1327000D01*
X-19437072Y1276004D01*
X-19678570Y1175972D01*
X-19895913Y1030748D01*
X-20080748Y845913D01*
X-20225972Y628570D01*
X-20326004Y387072D01*
X-20377000Y130698D01*
X-71423000Y130698D01*
X-71423000Y3325002D01*
X-64252048Y3325002D01*
X-64252048Y925002D01*
X-64241873Y821692D01*
X-64211738Y722352D01*
X-64162803Y630800D01*
X-64096947Y550554D01*
X-64016701Y484698D01*
X-63925149Y435763D01*
X-63825809Y405628D01*
X-63722499Y395453D01*
X-61322499Y395453D01*
X-61219189Y405628D01*
X-61119849Y435763D01*
X-61028297Y484698D01*
X-60948051Y550554D01*
X-60882195Y630800D01*
X-60833260Y722352D01*
X-60803125Y821692D01*
X-60792950Y925002D01*
X-60792950Y3325002D01*
X-60803125Y3428312D01*
X-60809704Y3450000D01*
X-45229549Y3450000D01*
X-45229549Y1050000D01*
X-45219374Y946690D01*
X-45189239Y847350D01*
X-45140304Y755798D01*
X-45074448Y675552D01*
X-44994202Y609696D01*
X-44902650Y560761D01*
X-44803310Y530626D01*
X-44700000Y520451D01*
X-42300000Y520451D01*
X-42196690Y530626D01*
X-42097350Y560761D01*
X-42005798Y609696D01*
X-41925552Y675552D01*
X-41859696Y755798D01*
X-41810761Y847350D01*
X-41780626Y946690D01*
X-41770451Y1050000D01*
X-41770451Y3150396D01*
X-32527000Y3150396D01*
X-32527000Y2849604D01*
X-32468319Y2554590D01*
X-32353210Y2276694D01*
X-32186099Y2026594D01*
X-31973406Y1813901D01*
X-31723306Y1646790D01*
X-31445410Y1531681D01*
X-31150396Y1473000D01*
X-30849604Y1473000D01*
X-30554590Y1531681D01*
X-30276694Y1646790D01*
X-30026594Y1813901D01*
X-29813901Y2026594D01*
X-29646790Y2276694D01*
X-29531681Y2554590D01*
X-29473000Y2849604D01*
X-29473000Y3150396D01*
X-29531681Y3445410D01*
X-29646790Y3723306D01*
X-29813901Y3973406D01*
X-30026594Y4186099D01*
X-30276694Y4353210D01*
X-30554590Y4468319D01*
X-30849604Y4527000D01*
X-31150396Y4527000D01*
X-31445410Y4468319D01*
X-31723306Y4353210D01*
X-31973406Y4186099D01*
X-32186099Y3973406D01*
X-32353210Y3723306D01*
X-32468319Y3445410D01*
X-32527000Y3150396D01*
X-41770451Y3150396D01*
X-41770451Y3450000D01*
X-41780626Y3553310D01*
X-41810761Y3652650D01*
X-41859696Y3744202D01*
X-41925552Y3824448D01*
X-42005798Y3890304D01*
X-42097350Y3939239D01*
X-42196690Y3969374D01*
X-42300000Y3979549D01*
X-44700000Y3979549D01*
X-44803310Y3969374D01*
X-44902650Y3939239D01*
X-44994202Y3890304D01*
X-45074448Y3824448D01*
X-45140304Y3744202D01*
X-45189239Y3652650D01*
X-45219374Y3553310D01*
X-45229549Y3450000D01*
X-60809704Y3450000D01*
X-60833260Y3527652D01*
X-60882195Y3619204D01*
X-60948051Y3699450D01*
X-61028297Y3765306D01*
X-61119849Y3814241D01*
X-61219189Y3844376D01*
X-61322499Y3854551D01*
X-63722499Y3854551D01*
X-63825809Y3844376D01*
X-63925149Y3814241D01*
X-64016701Y3765306D01*
X-64096947Y3699450D01*
X-64162803Y3619204D01*
X-64211738Y3527652D01*
X-64241873Y3428312D01*
X-64252048Y3325002D01*
X-71423000Y3325002D01*
X-71423000Y5460698D01*
X-20377000Y5460698D01*
X-20377000Y5199302D01*
X-20326004Y4942928D01*
X-20225972Y4701430D01*
X-20080748Y4484087D01*
X-19895913Y4299252D01*
X-19678570Y4154028D01*
X-19437072Y4053996D01*
X-19180698Y4003000D01*
X-18919302Y4003000D01*
X-18662928Y4053996D01*
X-18421430Y4154028D01*
X-18204087Y4299252D01*
X-18019252Y4484087D01*
X-17874028Y4701430D01*
X-17773996Y4942928D01*
X-17723000Y5199302D01*
X-17723000Y5460698D01*
X-17773996Y5717072D01*
X-17874028Y5958570D01*
X-18019252Y6175913D01*
X-18204087Y6360748D01*
X-18421430Y6505972D01*
X-18662928Y6606004D01*
X-18919302Y6657000D01*
X-19180698Y6657000D01*
X-19437072Y6606004D01*
X-19678570Y6505972D01*
X-19895913Y6360748D01*
X-20080748Y6175913D01*
X-20225972Y5958570D01*
X-20326004Y5717072D01*
X-20377000Y5460698D01*
X-71423000Y5460698D01*
X-71423000Y6631367D01*
X-31558289Y6631367D01*
X-31436432Y6424457D01*
X-31120673Y6369587D01*
X-30800277Y6377373D01*
X-30563568Y6424457D01*
X-30441711Y6631367D01*
X-31000000Y7189656D01*
X-31558289Y6631367D01*
X-71423000Y6631367D01*
X-71423000Y8103807D01*
X-63233350Y8103807D01*
X-63084104Y7877173D01*
X-62732329Y7801193D01*
X-62372489Y7795301D01*
X-62018415Y7859723D01*
X-61960894Y7877173D01*
X-61811648Y8103807D01*
X-62522499Y8814658D01*
X-63233350Y8103807D01*
X-71423000Y8103807D01*
X-71423000Y9474992D01*
X-64352200Y9474992D01*
X-64287778Y9120918D01*
X-64270328Y9063397D01*
X-64043694Y8914151D01*
X-63332843Y9625002D01*
X-61712155Y9625002D01*
X-61001304Y8914151D01*
X-60774670Y9063397D01*
X-60698690Y9415172D01*
X-60692798Y9775012D01*
X-60757220Y10129086D01*
X-60774670Y10186607D01*
X-61001304Y10335853D01*
X-61712155Y9625002D01*
X-63332843Y9625002D01*
X-64043694Y10335853D01*
X-64270328Y10186607D01*
X-64346308Y9834832D01*
X-64352200Y9474992D01*
X-71423000Y9474992D01*
X-71423000Y11146197D01*
X-63233350Y11146197D01*
X-62522499Y10435346D01*
X-61811648Y11146197D01*
X-61960894Y11372831D01*
X-62312669Y11448811D01*
X-62672509Y11454703D01*
X-63026583Y11390281D01*
X-63084104Y11372831D01*
X-63233350Y11146197D01*
X-71423000Y11146197D01*
X-71423000Y12500000D01*
X-55529549Y12500000D01*
X-55529549Y8500000D01*
X-55519374Y8396690D01*
X-55489239Y8297350D01*
X-55440304Y8205798D01*
X-55374448Y8125552D01*
X-55294202Y8059696D01*
X-55202650Y8010761D01*
X-55103310Y7980626D01*
X-55000000Y7970451D01*
X-51000000Y7970451D01*
X-50896690Y7980626D01*
X-50797350Y8010761D01*
X-50705798Y8059696D01*
X-50625552Y8125552D01*
X-50559696Y8205798D01*
X-50547399Y8228805D01*
X-44210851Y8228805D01*
X-44061605Y8002171D01*
X-43709830Y7926191D01*
X-43349990Y7920299D01*
X-42995916Y7984721D01*
X-42938395Y8002171D01*
X-42860358Y8120673D01*
X-32630413Y8120673D01*
X-32622627Y7800277D01*
X-32575543Y7563568D01*
X-32368633Y7441711D01*
X-31810344Y8000000D01*
X-30189656Y8000000D01*
X-29631367Y7441711D01*
X-29424457Y7563568D01*
X-29369587Y7879327D01*
X-29377373Y8199723D01*
X-29424457Y8436432D01*
X-29631367Y8558289D01*
X-30189656Y8000000D01*
X-31810344Y8000000D01*
X-32368633Y8558289D01*
X-32575543Y8436432D01*
X-32630413Y8120673D01*
X-42860358Y8120673D01*
X-42789149Y8228805D01*
X-43500000Y8939656D01*
X-44210851Y8228805D01*
X-50547399Y8228805D01*
X-50510761Y8297350D01*
X-50480626Y8396690D01*
X-50470451Y8500000D01*
X-50470451Y9599990D01*
X-45329701Y9599990D01*
X-45265279Y9245916D01*
X-45247829Y9188395D01*
X-45021195Y9039149D01*
X-44310344Y9750000D01*
X-42689656Y9750000D01*
X-41978805Y9039149D01*
X-41752171Y9188395D01*
X-41713242Y9368633D01*
X-31558289Y9368633D01*
X-31000000Y8810344D01*
X-30441711Y9368633D01*
X-30563568Y9575543D01*
X-30879327Y9630413D01*
X-31199723Y9622627D01*
X-31436432Y9575543D01*
X-31558289Y9368633D01*
X-41713242Y9368633D01*
X-41676191Y9540170D01*
X-41670299Y9900010D01*
X-41734721Y10254084D01*
X-41752171Y10311605D01*
X-41978805Y10460851D01*
X-42689656Y9750000D01*
X-44310344Y9750000D01*
X-45021195Y10460851D01*
X-45247829Y10311605D01*
X-45323809Y9959830D01*
X-45329701Y9599990D01*
X-50470451Y9599990D01*
X-50470451Y11271195D01*
X-44210851Y11271195D01*
X-43500000Y10560344D01*
X-43269646Y10790698D01*
X-20377000Y10790698D01*
X-20377000Y10529302D01*
X-20326004Y10272928D01*
X-20225972Y10031430D01*
X-20080748Y9814087D01*
X-19895913Y9629252D01*
X-19678570Y9484028D01*
X-19437072Y9383996D01*
X-19180698Y9333000D01*
X-18919302Y9333000D01*
X-18662928Y9383996D01*
X-18421430Y9484028D01*
X-18204087Y9629252D01*
X-18019252Y9814087D01*
X-17874028Y10031430D01*
X-17773996Y10272928D01*
X-17723000Y10529302D01*
X-17723000Y10790698D01*
X-17773996Y11047072D01*
X-17874028Y11288570D01*
X-18019252Y11505913D01*
X-18204087Y11690748D01*
X-18421430Y11835972D01*
X-18662928Y11936004D01*
X-18919302Y11987000D01*
X-19180698Y11987000D01*
X-19437072Y11936004D01*
X-19678570Y11835972D01*
X-19895913Y11690748D01*
X-20080748Y11505913D01*
X-20225972Y11288570D01*
X-20326004Y11047072D01*
X-20377000Y10790698D01*
X-43269646Y10790698D01*
X-42789149Y11271195D01*
X-42938395Y11497829D01*
X-43290170Y11573809D01*
X-43650010Y11579701D01*
X-44004084Y11515279D01*
X-44061605Y11497829D01*
X-44210851Y11271195D01*
X-50470451Y11271195D01*
X-50470451Y12500000D01*
X-50480626Y12603310D01*
X-50510761Y12702650D01*
X-50559696Y12794202D01*
X-50625552Y12874448D01*
X-50705798Y12940304D01*
X-50797350Y12989239D01*
X-50896690Y13019374D01*
X-51000000Y13029549D01*
X-55000000Y13029549D01*
X-55103310Y13019374D01*
X-55202650Y12989239D01*
X-55294202Y12940304D01*
X-55374448Y12874448D01*
X-55440304Y12794202D01*
X-55489239Y12702650D01*
X-55519374Y12603310D01*
X-55529549Y12500000D01*
X-71423000Y12500000D01*
X-71423000Y16120698D01*
X-20377000Y16120698D01*
X-20377000Y15859302D01*
X-20326004Y15602928D01*
X-20225972Y15361430D01*
X-20080748Y15144087D01*
X-19895913Y14959252D01*
X-19678570Y14814028D01*
X-19437072Y14713996D01*
X-19180698Y14663000D01*
X-18919302Y14663000D01*
X-18662928Y14713996D01*
X-18421430Y14814028D01*
X-18204087Y14959252D01*
X-18019252Y15144087D01*
X-17874028Y15361430D01*
X-17773996Y15602928D01*
X-17723000Y15859302D01*
X-17723000Y16120698D01*
X-17773996Y16377072D01*
X-17874028Y16618570D01*
X-18019252Y16835913D01*
X-18204087Y17020748D01*
X-18421430Y17165972D01*
X-18662928Y17266004D01*
X-18919302Y17317000D01*
X-19180698Y17317000D01*
X-19437072Y17266004D01*
X-19678570Y17165972D01*
X-19895913Y17020748D01*
X-20080748Y16835913D01*
X-20225972Y16618570D01*
X-20326004Y16377072D01*
X-20377000Y16120698D01*
X-71423000Y16120698D01*
X-71423000Y18386500D01*
X-54303155Y18386500D01*
X-54051021Y18078548D01*
X-53558423Y17920032D01*
X-53044367Y17860662D01*
X-52528604Y17902720D01*
X-52030958Y18044592D01*
X-51948979Y18078548D01*
X-51696845Y18386500D01*
X-53000000Y19689656D01*
X-54303155Y18386500D01*
X-71423000Y18386500D01*
X-71423000Y22450000D01*
X-64229549Y22450000D01*
X-64229549Y20050000D01*
X-64219374Y19946690D01*
X-64189239Y19847350D01*
X-64140304Y19755798D01*
X-64074448Y19675552D01*
X-63994202Y19609696D01*
X-63902650Y19560761D01*
X-63803310Y19530626D01*
X-63700000Y19520451D01*
X-61300000Y19520451D01*
X-61196690Y19530626D01*
X-61097350Y19560761D01*
X-61005798Y19609696D01*
X-60925552Y19675552D01*
X-60859696Y19755798D01*
X-60810761Y19847350D01*
X-60780626Y19946690D01*
X-60770451Y20050000D01*
X-60770451Y20544367D01*
X-55639338Y20544367D01*
X-55597280Y20028604D01*
X-55455408Y19530958D01*
X-55421452Y19448979D01*
X-55113500Y19196845D01*
X-53810344Y20500000D01*
X-52189656Y20500000D01*
X-50886500Y19196845D01*
X-50578548Y19448979D01*
X-50420032Y19941577D01*
X-50360662Y20455633D01*
X-50402720Y20971396D01*
X-50544592Y21469042D01*
X-50578548Y21551021D01*
X-50886500Y21803155D01*
X-52189656Y20500000D01*
X-53810344Y20500000D01*
X-55113500Y21803155D01*
X-55421452Y21551021D01*
X-55579968Y21058423D01*
X-55639338Y20544367D01*
X-60770451Y20544367D01*
X-60770451Y22450000D01*
X-60780626Y22553310D01*
X-60798884Y22613500D01*
X-54303155Y22613500D01*
X-53000000Y21310344D01*
X-51860345Y22450000D01*
X-45229549Y22450000D01*
X-45229549Y20050000D01*
X-45219374Y19946690D01*
X-45189239Y19847350D01*
X-45140304Y19755798D01*
X-45074448Y19675552D01*
X-44994202Y19609696D01*
X-44902650Y19560761D01*
X-44803310Y19530626D01*
X-44700000Y19520451D01*
X-42300000Y19520451D01*
X-42196690Y19530626D01*
X-42097350Y19560761D01*
X-42005798Y19609696D01*
X-41925552Y19675552D01*
X-41859696Y19755798D01*
X-41810761Y19847350D01*
X-41780626Y19946690D01*
X-41770451Y20050000D01*
X-41770451Y21450698D01*
X-20377000Y21450698D01*
X-20377000Y21189302D01*
X-20326004Y20932928D01*
X-20225972Y20691430D01*
X-20080748Y20474087D01*
X-19895913Y20289252D01*
X-19678570Y20144028D01*
X-19437072Y20043996D01*
X-19180698Y19993000D01*
X-18919302Y19993000D01*
X-18662928Y20043996D01*
X-18421430Y20144028D01*
X-18204087Y20289252D01*
X-18019252Y20474087D01*
X-17874028Y20691430D01*
X-17773996Y20932928D01*
X-17723000Y21189302D01*
X-17723000Y21450698D01*
X-17773996Y21707072D01*
X-17874028Y21948570D01*
X-18019252Y22165913D01*
X-18204087Y22350748D01*
X-18421430Y22495972D01*
X-18662928Y22596004D01*
X-18919302Y22647000D01*
X-19180698Y22647000D01*
X-19437072Y22596004D01*
X-19678570Y22495972D01*
X-19895913Y22350748D01*
X-20080748Y22165913D01*
X-20225972Y21948570D01*
X-20326004Y21707072D01*
X-20377000Y21450698D01*
X-41770451Y21450698D01*
X-41770451Y22450000D01*
X-41780626Y22553310D01*
X-41810761Y22652650D01*
X-41859696Y22744202D01*
X-41925552Y22824448D01*
X-42005798Y22890304D01*
X-42097350Y22939239D01*
X-42196690Y22969374D01*
X-42300000Y22979549D01*
X-44700000Y22979549D01*
X-44803310Y22969374D01*
X-44902650Y22939239D01*
X-44994202Y22890304D01*
X-45074448Y22824448D01*
X-45140304Y22744202D01*
X-45189239Y22652650D01*
X-45219374Y22553310D01*
X-45229549Y22450000D01*
X-51860345Y22450000D01*
X-51696845Y22613500D01*
X-51948979Y22921452D01*
X-52441577Y23079968D01*
X-52955633Y23139338D01*
X-53471396Y23097280D01*
X-53969042Y22955408D01*
X-54051021Y22921452D01*
X-54303155Y22613500D01*
X-60798884Y22613500D01*
X-60810761Y22652650D01*
X-60859696Y22744202D01*
X-60925552Y22824448D01*
X-61005798Y22890304D01*
X-61097350Y22939239D01*
X-61196690Y22969374D01*
X-61300000Y22979549D01*
X-63700000Y22979549D01*
X-63803310Y22969374D01*
X-63902650Y22939239D01*
X-63994202Y22890304D01*
X-64074448Y22824448D01*
X-64140304Y22744202D01*
X-64189239Y22652650D01*
X-64219374Y22553310D01*
X-64229549Y22450000D01*
X-71423000Y22450000D01*
X-71423000Y27228805D01*
X-63210851Y27228805D01*
X-63061605Y27002171D01*
X-62709830Y26926191D01*
X-62349990Y26920299D01*
X-61995916Y26984721D01*
X-61938395Y27002171D01*
X-61789149Y27228805D01*
X-44210851Y27228805D01*
X-44061605Y27002171D01*
X-43709830Y26926191D01*
X-43349990Y26920299D01*
X-42995916Y26984721D01*
X-42938395Y27002171D01*
X-42789149Y27228805D01*
X-43500000Y27939656D01*
X-44210851Y27228805D01*
X-61789149Y27228805D01*
X-62500000Y27939656D01*
X-63210851Y27228805D01*
X-71423000Y27228805D01*
X-71423000Y28599990D01*
X-64329701Y28599990D01*
X-64265279Y28245916D01*
X-64247829Y28188395D01*
X-64021195Y28039149D01*
X-63310344Y28750000D01*
X-61689656Y28750000D01*
X-60978805Y28039149D01*
X-60752171Y28188395D01*
X-60676191Y28540170D01*
X-60675212Y28599990D01*
X-45329701Y28599990D01*
X-45265279Y28245916D01*
X-45247829Y28188395D01*
X-45021195Y28039149D01*
X-44310344Y28750000D01*
X-42689656Y28750000D01*
X-41978805Y28039149D01*
X-41752171Y28188395D01*
X-41676191Y28540170D01*
X-41670299Y28900010D01*
X-41734721Y29254084D01*
X-41752171Y29311605D01*
X-41978805Y29460851D01*
X-42689656Y28750000D01*
X-44310344Y28750000D01*
X-45021195Y29460851D01*
X-45247829Y29311605D01*
X-45323809Y28959830D01*
X-45329701Y28599990D01*
X-60675212Y28599990D01*
X-60670299Y28900010D01*
X-60734721Y29254084D01*
X-60752171Y29311605D01*
X-60978805Y29460851D01*
X-61689656Y28750000D01*
X-63310344Y28750000D01*
X-64021195Y29460851D01*
X-64247829Y29311605D01*
X-64323809Y28959830D01*
X-64329701Y28599990D01*
X-71423000Y28599990D01*
X-71423000Y30271195D01*
X-63210851Y30271195D01*
X-62500000Y29560344D01*
X-61789149Y30271195D01*
X-44210851Y30271195D01*
X-43500000Y29560344D01*
X-42789149Y30271195D01*
X-42938395Y30497829D01*
X-43290170Y30573809D01*
X-43650010Y30579701D01*
X-44004084Y30515279D01*
X-44061605Y30497829D01*
X-44210851Y30271195D01*
X-61789149Y30271195D01*
X-61938395Y30497829D01*
X-62290170Y30573809D01*
X-62650010Y30579701D01*
X-63004084Y30515279D01*
X-63061605Y30497829D01*
X-63210851Y30271195D01*
X-71423000Y30271195D01*
X-71423000Y38630698D01*
X-36327000Y38630698D01*
X-36327000Y38369302D01*
X-36276004Y38112928D01*
X-36175972Y37871430D01*
X-36030748Y37654087D01*
X-35845913Y37469252D01*
X-35628570Y37324028D01*
X-35387072Y37223996D01*
X-35130698Y37173000D01*
X-34869302Y37173000D01*
X-34612928Y37223996D01*
X-34371430Y37324028D01*
X-34154087Y37469252D01*
X-33969252Y37654087D01*
X-33824028Y37871430D01*
X-33723996Y38112928D01*
X-33673000Y38369302D01*
X-33673000Y38630698D01*
X-31327000Y38630698D01*
X-31327000Y38369302D01*
X-31276004Y38112928D01*
X-31175972Y37871430D01*
X-31030748Y37654087D01*
X-30845913Y37469252D01*
X-30628570Y37324028D01*
X-30387072Y37223996D01*
X-30130698Y37173000D01*
X-29869302Y37173000D01*
X-29612928Y37223996D01*
X-29371430Y37324028D01*
X-29154087Y37469252D01*
X-28969252Y37654087D01*
X-28824028Y37871430D01*
X-28723996Y38112928D01*
X-28673000Y38369302D01*
X-28673000Y38630698D01*
X-28723996Y38887072D01*
X-28824028Y39128570D01*
X-28969252Y39345913D01*
X-29154087Y39530748D01*
X-29371430Y39675972D01*
X-29612928Y39776004D01*
X-29869302Y39827000D01*
X-30130698Y39827000D01*
X-30387072Y39776004D01*
X-30628570Y39675972D01*
X-30845913Y39530748D01*
X-31030748Y39345913D01*
X-31175972Y39128570D01*
X-31276004Y38887072D01*
X-31327000Y38630698D01*
X-33673000Y38630698D01*
X-33723996Y38887072D01*
X-33824028Y39128570D01*
X-33969252Y39345913D01*
X-34154087Y39530748D01*
X-34371430Y39675972D01*
X-34612928Y39776004D01*
X-34869302Y39827000D01*
X-35130698Y39827000D01*
X-35387072Y39776004D01*
X-35628570Y39675972D01*
X-35845913Y39530748D01*
X-36030748Y39345913D01*
X-36175972Y39128570D01*
X-36276004Y38887072D01*
X-36327000Y38630698D01*
X-71423000Y38630698D01*
X-71423000Y42662669D01*
X-43703825Y42662669D01*
X-43678377Y42615022D01*
X-43475014Y42320199D01*
X-43218041Y42070715D01*
X-42917334Y41876158D01*
X-42653000Y41921912D01*
X-42653000Y42927000D01*
X-41507000Y42927000D01*
X-41507000Y41921912D01*
X-41242666Y41876158D01*
X-40941959Y42070715D01*
X-40684986Y42320199D01*
X-40481623Y42615022D01*
X-40456175Y42662669D01*
X-40511113Y42927000D01*
X-41507000Y42927000D01*
X-42653000Y42927000D01*
X-43648887Y42927000D01*
X-43703825Y42662669D01*
X-71423000Y42662669D01*
X-71423000Y43670095D01*
X-38727000Y43670095D01*
X-38727000Y43329905D01*
X-38660632Y42996253D01*
X-38530447Y42681959D01*
X-38341448Y42399102D01*
X-38100898Y42158552D01*
X-37818041Y41969553D01*
X-37503747Y41839368D01*
X-37170095Y41773000D01*
X-36829905Y41773000D01*
X-36496253Y41839368D01*
X-36181959Y41969553D01*
X-35899102Y42158552D01*
X-35658552Y42399102D01*
X-35469553Y42681959D01*
X-35339368Y42996253D01*
X-35273000Y43329905D01*
X-35273000Y43670095D01*
X-35339368Y44003747D01*
X-35469553Y44318041D01*
X-35658552Y44600898D01*
X-35899102Y44841448D01*
X-35986731Y44900000D01*
X-30019549Y44900000D01*
X-30019549Y43100000D01*
X-30009374Y42996690D01*
X-29979239Y42897350D01*
X-29930304Y42805798D01*
X-29864448Y42725552D01*
X-29784202Y42659696D01*
X-29692650Y42610761D01*
X-29593310Y42580626D01*
X-29490000Y42570451D01*
X-27690000Y42570451D01*
X-27586690Y42580626D01*
X-27487350Y42610761D01*
X-27395798Y42659696D01*
X-27315552Y42725552D01*
X-27249696Y42805798D01*
X-27200761Y42897350D01*
X-27170626Y42996690D01*
X-27161020Y43094225D01*
X-27158424Y43090340D01*
X-26959660Y42891576D01*
X-26725938Y42735409D01*
X-26466241Y42627838D01*
X-26190547Y42573000D01*
X-25909453Y42573000D01*
X-25633759Y42627838D01*
X-25437940Y42708950D01*
X-23990706Y42708950D01*
X-23883077Y42511657D01*
X-23585548Y42467471D01*
X-23285115Y42482180D01*
X-23136923Y42511657D01*
X-23029294Y42708950D01*
X-23510000Y43189656D01*
X-23990706Y42708950D01*
X-25437940Y42708950D01*
X-25374062Y42735409D01*
X-25140340Y42891576D01*
X-24941576Y43090340D01*
X-24785409Y43324062D01*
X-24677838Y43583759D01*
X-24663251Y43657093D01*
X-24320344Y44000000D01*
X-22699656Y44000000D01*
X-22218950Y43519294D01*
X-22021657Y43626923D01*
X-21977471Y43924452D01*
X-21992180Y44224885D01*
X-22021657Y44373077D01*
X-22218950Y44480706D01*
X-22699656Y44000000D01*
X-24320344Y44000000D01*
X-24663251Y44342907D01*
X-24677838Y44416241D01*
X-24785409Y44675938D01*
X-24941576Y44909660D01*
X-25140340Y45108424D01*
X-25374062Y45264591D01*
X-25437939Y45291050D01*
X-23990706Y45291050D01*
X-23510000Y44810344D01*
X-23420344Y44900000D01*
X-16019549Y44900000D01*
X-16019549Y43100000D01*
X-16009374Y42996690D01*
X-15979239Y42897350D01*
X-15930304Y42805798D01*
X-15864448Y42725552D01*
X-15784202Y42659696D01*
X-15692650Y42610761D01*
X-15593310Y42580626D01*
X-15490000Y42570451D01*
X-13690000Y42570451D01*
X-13586690Y42580626D01*
X-13487350Y42610761D01*
X-13395798Y42659696D01*
X-13315552Y42725552D01*
X-13249696Y42805798D01*
X-13200761Y42897350D01*
X-13170626Y42996690D01*
X-13161020Y43094225D01*
X-13158424Y43090340D01*
X-12959660Y42891576D01*
X-12725938Y42735409D01*
X-12466241Y42627838D01*
X-12190547Y42573000D01*
X-11909453Y42573000D01*
X-11633759Y42627838D01*
X-11437940Y42708950D01*
X-9990706Y42708950D01*
X-9883077Y42511657D01*
X-9585548Y42467471D01*
X-9285115Y42482180D01*
X-9136923Y42511657D01*
X-9029294Y42708950D01*
X-9510000Y43189656D01*
X-9990706Y42708950D01*
X-11437940Y42708950D01*
X-11374062Y42735409D01*
X-11140340Y42891576D01*
X-10941576Y43090340D01*
X-10785409Y43324062D01*
X-10677838Y43583759D01*
X-10663251Y43657093D01*
X-10320344Y44000000D01*
X-8699656Y44000000D01*
X-8218950Y43519294D01*
X-8021657Y43626923D01*
X-7977471Y43924452D01*
X-7992180Y44224885D01*
X-8021657Y44373077D01*
X-8218950Y44480706D01*
X-8699656Y44000000D01*
X-10320344Y44000000D01*
X-10663251Y44342907D01*
X-10677838Y44416241D01*
X-10785409Y44675938D01*
X-10941576Y44909660D01*
X-11140340Y45108424D01*
X-11374062Y45264591D01*
X-11437939Y45291050D01*
X-9990706Y45291050D01*
X-9510000Y44810344D01*
X-9029294Y45291050D01*
X-9136923Y45488343D01*
X-9434452Y45532529D01*
X-9734885Y45517820D01*
X-9883077Y45488343D01*
X-9990706Y45291050D01*
X-11437939Y45291050D01*
X-11633759Y45372162D01*
X-11909453Y45427000D01*
X-12190547Y45427000D01*
X-12466241Y45372162D01*
X-12725938Y45264591D01*
X-12959660Y45108424D01*
X-13158424Y44909660D01*
X-13161020Y44905775D01*
X-13170626Y45003310D01*
X-13200761Y45102650D01*
X-13249696Y45194202D01*
X-13315552Y45274448D01*
X-13395798Y45340304D01*
X-13487350Y45389239D01*
X-13586690Y45419374D01*
X-13690000Y45429549D01*
X-15490000Y45429549D01*
X-15593310Y45419374D01*
X-15692650Y45389239D01*
X-15784202Y45340304D01*
X-15864448Y45274448D01*
X-15930304Y45194202D01*
X-15979239Y45102650D01*
X-16009374Y45003310D01*
X-16019549Y44900000D01*
X-23420344Y44900000D01*
X-23029294Y45291050D01*
X-23136923Y45488343D01*
X-23434452Y45532529D01*
X-23734885Y45517820D01*
X-23883077Y45488343D01*
X-23990706Y45291050D01*
X-25437939Y45291050D01*
X-25633759Y45372162D01*
X-25909453Y45427000D01*
X-26190547Y45427000D01*
X-26466241Y45372162D01*
X-26725938Y45264591D01*
X-26959660Y45108424D01*
X-27158424Y44909660D01*
X-27161020Y44905775D01*
X-27170626Y45003310D01*
X-27200761Y45102650D01*
X-27249696Y45194202D01*
X-27315552Y45274448D01*
X-27395798Y45340304D01*
X-27487350Y45389239D01*
X-27586690Y45419374D01*
X-27690000Y45429549D01*
X-29490000Y45429549D01*
X-29593310Y45419374D01*
X-29692650Y45389239D01*
X-29784202Y45340304D01*
X-29864448Y45274448D01*
X-29930304Y45194202D01*
X-29979239Y45102650D01*
X-30009374Y45003310D01*
X-30019549Y44900000D01*
X-35986731Y44900000D01*
X-36181959Y45030447D01*
X-36496253Y45160632D01*
X-36829905Y45227000D01*
X-37170095Y45227000D01*
X-37503747Y45160632D01*
X-37818041Y45030447D01*
X-38100898Y44841448D01*
X-38341448Y44600898D01*
X-38530447Y44318041D01*
X-38660632Y44003747D01*
X-38727000Y43670095D01*
X-71423000Y43670095D01*
X-71423000Y44337331D01*
X-43703825Y44337331D01*
X-43648887Y44073000D01*
X-42653000Y44073000D01*
X-42653000Y45078088D01*
X-41507000Y45078088D01*
X-41507000Y44073000D01*
X-40511113Y44073000D01*
X-40456175Y44337331D01*
X-40481623Y44384978D01*
X-40684986Y44679801D01*
X-40941959Y44929285D01*
X-41242666Y45123842D01*
X-41507000Y45078088D01*
X-42653000Y45078088D01*
X-42917334Y45123842D01*
X-43218041Y44929285D01*
X-43475014Y44679801D01*
X-43678377Y44384978D01*
X-43703825Y44337331D01*
X-71423000Y44337331D01*
X-71423000Y46423000D01*
X-6627000Y46423000D01*
X-6627000Y-46423000D01*
G36*
X7056542Y45218948D02*
G01*
X7025128Y44900000D01*
X7025128Y43100000D01*
X7056542Y42781052D01*
X7149575Y42474362D01*
X7300654Y42191714D01*
X7503971Y41943971D01*
X7751714Y41740654D01*
X8034362Y41589575D01*
X8341052Y41496542D01*
X8660000Y41465128D01*
X10460000Y41465128D01*
X10778948Y41496542D01*
X11085638Y41589575D01*
X11186175Y41643313D01*
X11362901Y41570111D01*
X11851112Y41473000D01*
X12348888Y41473000D01*
X12837099Y41570111D01*
X13296983Y41760602D01*
X13710869Y42037151D01*
X14062849Y42389131D01*
X14211995Y42612345D01*
X14266923Y42511657D01*
X14564452Y42467471D01*
X14864885Y42482180D01*
X15013077Y42511657D01*
X15120706Y42708950D01*
X14640000Y43189656D01*
X14625858Y43175514D01*
X14531313Y43270058D01*
X14627000Y43751112D01*
X14627000Y44000000D01*
X15450344Y44000000D01*
X15931050Y43519294D01*
X16128343Y43626923D01*
X16172529Y43924452D01*
X16157820Y44224885D01*
X16128343Y44373077D01*
X15931050Y44480706D01*
X15450344Y44000000D01*
X14627000Y44000000D01*
X14627000Y44248888D01*
X14531313Y44729942D01*
X14625858Y44824487D01*
X14640000Y44810344D01*
X15120706Y45291050D01*
X15103276Y45323000D01*
X18873000Y45323000D01*
X18873000Y26000000D01*
X18875440Y25975224D01*
X18886408Y25943204D01*
X20123000Y23470020D01*
X20123000Y21582655D01*
X19860344Y21320000D01*
X20123000Y21057345D01*
X20123000Y16252655D01*
X19860344Y15990000D01*
X20123000Y15727345D01*
X20123000Y13131534D01*
X6127000Y13622622D01*
X6127000Y14777735D01*
X18648080Y14777735D01*
X18740958Y14589794D01*
X19020063Y14556407D01*
X19300318Y14578114D01*
X19359042Y14589794D01*
X19451920Y14777735D01*
X19050000Y15179656D01*
X18648080Y14777735D01*
X6127000Y14777735D01*
X6127000Y16019937D01*
X17616407Y16019937D01*
X17638114Y15739682D01*
X17649794Y15680958D01*
X17837735Y15588080D01*
X18239656Y15990000D01*
X17837735Y16391920D01*
X17649794Y16299042D01*
X17616407Y16019937D01*
X6127000Y16019937D01*
X6127000Y17202265D01*
X18648080Y17202265D01*
X19050000Y16800344D01*
X19451920Y17202265D01*
X19359042Y17390206D01*
X19079937Y17423593D01*
X18799682Y17401886D01*
X18740958Y17390206D01*
X18648080Y17202265D01*
X6127000Y17202265D01*
X6127000Y20107735D01*
X18648080Y20107735D01*
X18740958Y19919794D01*
X19020063Y19886407D01*
X19300318Y19908114D01*
X19359042Y19919794D01*
X19451920Y20107735D01*
X19050000Y20509656D01*
X18648080Y20107735D01*
X6127000Y20107735D01*
X6127000Y21349937D01*
X17616407Y21349937D01*
X17638114Y21069682D01*
X17649794Y21010958D01*
X17837735Y20918080D01*
X18239656Y21320000D01*
X17837735Y21721920D01*
X17649794Y21629042D01*
X17616407Y21349937D01*
X6127000Y21349937D01*
X6127000Y22532265D01*
X18648080Y22532265D01*
X19050000Y22130344D01*
X19451920Y22532265D01*
X19359042Y22720206D01*
X19079937Y22753593D01*
X18799682Y22731886D01*
X18740958Y22720206D01*
X18648080Y22532265D01*
X6127000Y22532265D01*
X6127000Y37287735D01*
X7598080Y37287735D01*
X7690958Y37099794D01*
X7970063Y37066407D01*
X8250318Y37088114D01*
X8309042Y37099794D01*
X8401920Y37287735D01*
X8000000Y37689656D01*
X7598080Y37287735D01*
X6127000Y37287735D01*
X6127000Y38529937D01*
X6566407Y38529937D01*
X6588114Y38249682D01*
X6599794Y38190958D01*
X6787735Y38098080D01*
X7189656Y38500000D01*
X8810344Y38500000D01*
X9212265Y38098080D01*
X9400206Y38190958D01*
X9433593Y38470063D01*
X9411886Y38750318D01*
X9400206Y38809042D01*
X9212265Y38901920D01*
X8810344Y38500000D01*
X7189656Y38500000D01*
X6787735Y38901920D01*
X6599794Y38809042D01*
X6566407Y38529937D01*
X6127000Y38529937D01*
X6127000Y39712265D01*
X7598080Y39712265D01*
X8000000Y39310344D01*
X8401920Y39712265D01*
X8309042Y39900206D01*
X8029937Y39933593D01*
X7749682Y39911886D01*
X7690958Y39900206D01*
X7598080Y39712265D01*
X6127000Y39712265D01*
X6127000Y45323000D01*
X7088106Y45323000D01*
X7056542Y45218948D01*
X7056542Y45218948D01*
G37*
X7056542Y45218948D02*
X7025128Y44900000D01*
X7025128Y43100000D01*
X7056542Y42781052D01*
X7149575Y42474362D01*
X7300654Y42191714D01*
X7503971Y41943971D01*
X7751714Y41740654D01*
X8034362Y41589575D01*
X8341052Y41496542D01*
X8660000Y41465128D01*
X10460000Y41465128D01*
X10778948Y41496542D01*
X11085638Y41589575D01*
X11186175Y41643313D01*
X11362901Y41570111D01*
X11851112Y41473000D01*
X12348888Y41473000D01*
X12837099Y41570111D01*
X13296983Y41760602D01*
X13710869Y42037151D01*
X14062849Y42389131D01*
X14211995Y42612345D01*
X14266923Y42511657D01*
X14564452Y42467471D01*
X14864885Y42482180D01*
X15013077Y42511657D01*
X15120706Y42708950D01*
X14640000Y43189656D01*
X14625858Y43175514D01*
X14531313Y43270058D01*
X14627000Y43751112D01*
X14627000Y44000000D01*
X15450344Y44000000D01*
X15931050Y43519294D01*
X16128343Y43626923D01*
X16172529Y43924452D01*
X16157820Y44224885D01*
X16128343Y44373077D01*
X15931050Y44480706D01*
X15450344Y44000000D01*
X14627000Y44000000D01*
X14627000Y44248888D01*
X14531313Y44729942D01*
X14625858Y44824487D01*
X14640000Y44810344D01*
X15120706Y45291050D01*
X15103276Y45323000D01*
X18873000Y45323000D01*
X18873000Y26000000D01*
X18875440Y25975224D01*
X18886408Y25943204D01*
X20123000Y23470020D01*
X20123000Y21582655D01*
X19860344Y21320000D01*
X20123000Y21057345D01*
X20123000Y16252655D01*
X19860344Y15990000D01*
X20123000Y15727345D01*
X20123000Y13131534D01*
X6127000Y13622622D01*
X6127000Y14777735D01*
X18648080Y14777735D01*
X18740958Y14589794D01*
X19020063Y14556407D01*
X19300318Y14578114D01*
X19359042Y14589794D01*
X19451920Y14777735D01*
X19050000Y15179656D01*
X18648080Y14777735D01*
X6127000Y14777735D01*
X6127000Y16019937D01*
X17616407Y16019937D01*
X17638114Y15739682D01*
X17649794Y15680958D01*
X17837735Y15588080D01*
X18239656Y15990000D01*
X17837735Y16391920D01*
X17649794Y16299042D01*
X17616407Y16019937D01*
X6127000Y16019937D01*
X6127000Y17202265D01*
X18648080Y17202265D01*
X19050000Y16800344D01*
X19451920Y17202265D01*
X19359042Y17390206D01*
X19079937Y17423593D01*
X18799682Y17401886D01*
X18740958Y17390206D01*
X18648080Y17202265D01*
X6127000Y17202265D01*
X6127000Y20107735D01*
X18648080Y20107735D01*
X18740958Y19919794D01*
X19020063Y19886407D01*
X19300318Y19908114D01*
X19359042Y19919794D01*
X19451920Y20107735D01*
X19050000Y20509656D01*
X18648080Y20107735D01*
X6127000Y20107735D01*
X6127000Y21349937D01*
X17616407Y21349937D01*
X17638114Y21069682D01*
X17649794Y21010958D01*
X17837735Y20918080D01*
X18239656Y21320000D01*
X17837735Y21721920D01*
X17649794Y21629042D01*
X17616407Y21349937D01*
X6127000Y21349937D01*
X6127000Y22532265D01*
X18648080Y22532265D01*
X19050000Y22130344D01*
X19451920Y22532265D01*
X19359042Y22720206D01*
X19079937Y22753593D01*
X18799682Y22731886D01*
X18740958Y22720206D01*
X18648080Y22532265D01*
X6127000Y22532265D01*
X6127000Y37287735D01*
X7598080Y37287735D01*
X7690958Y37099794D01*
X7970063Y37066407D01*
X8250318Y37088114D01*
X8309042Y37099794D01*
X8401920Y37287735D01*
X8000000Y37689656D01*
X7598080Y37287735D01*
X6127000Y37287735D01*
X6127000Y38529937D01*
X6566407Y38529937D01*
X6588114Y38249682D01*
X6599794Y38190958D01*
X6787735Y38098080D01*
X7189656Y38500000D01*
X8810344Y38500000D01*
X9212265Y38098080D01*
X9400206Y38190958D01*
X9433593Y38470063D01*
X9411886Y38750318D01*
X9400206Y38809042D01*
X9212265Y38901920D01*
X8810344Y38500000D01*
X7189656Y38500000D01*
X6787735Y38901920D01*
X6599794Y38809042D01*
X6566407Y38529937D01*
X6127000Y38529937D01*
X6127000Y39712265D01*
X7598080Y39712265D01*
X8000000Y39310344D01*
X8401920Y39712265D01*
X8309042Y39900206D01*
X8029937Y39933593D01*
X7749682Y39911886D01*
X7690958Y39900206D01*
X7598080Y39712265D01*
X6127000Y39712265D01*
X6127000Y45323000D01*
X7088106Y45323000D01*
X7056542Y45218948D01*
G36*
X20123000Y-15727345D02*
G01*
X19860344Y-15990000D01*
X20123000Y-16252655D01*
X20123000Y-21057345D01*
X19860344Y-21320000D01*
X20123000Y-21582655D01*
X20123000Y-24454020D01*
X18902436Y-25918697D01*
X18888449Y-25939293D01*
X18878749Y-25962222D01*
X18873709Y-25986602D01*
X18873000Y-26000000D01*
X18873000Y-45323000D01*
X17111894Y-45323000D01*
X17143458Y-45218948D01*
X17174872Y-44900000D01*
X17174872Y-43100000D01*
X17143458Y-42781052D01*
X17050425Y-42474362D01*
X16899346Y-42191714D01*
X16696029Y-41943971D01*
X16448286Y-41740654D01*
X16165638Y-41589575D01*
X15858948Y-41496542D01*
X15540000Y-41465128D01*
X13740000Y-41465128D01*
X13421052Y-41496542D01*
X13114362Y-41589575D01*
X13013825Y-41643313D01*
X12837099Y-41570111D01*
X12348888Y-41473000D01*
X11851112Y-41473000D01*
X11362901Y-41570111D01*
X10903017Y-41760602D01*
X10489131Y-42037151D01*
X10137151Y-42389131D01*
X9988005Y-42612345D01*
X9933077Y-42511657D01*
X9635548Y-42467471D01*
X9335115Y-42482180D01*
X9186923Y-42511657D01*
X9079294Y-42708950D01*
X9560000Y-43189656D01*
X9574143Y-43175514D01*
X9668687Y-43270058D01*
X9573000Y-43751112D01*
X9573000Y-44248888D01*
X9668687Y-44729942D01*
X9574143Y-44824487D01*
X9560000Y-44810344D01*
X9079294Y-45291050D01*
X9096724Y-45323000D01*
X6127000Y-45323000D01*
X6127000Y-43924452D01*
X8027471Y-43924452D01*
X8042180Y-44224885D01*
X8071657Y-44373077D01*
X8268950Y-44480706D01*
X8749656Y-44000000D01*
X8268950Y-43519294D01*
X8071657Y-43626923D01*
X8027471Y-43924452D01*
X6127000Y-43924452D01*
X6127000Y-39712265D01*
X7598080Y-39712265D01*
X7690958Y-39900206D01*
X7970063Y-39933593D01*
X8250318Y-39911886D01*
X8309042Y-39900206D01*
X8401920Y-39712265D01*
X8000000Y-39310344D01*
X7598080Y-39712265D01*
X6127000Y-39712265D01*
X6127000Y-38470063D01*
X6566407Y-38470063D01*
X6588114Y-38750318D01*
X6599794Y-38809042D01*
X6787735Y-38901920D01*
X7189656Y-38500000D01*
X8810344Y-38500000D01*
X9212265Y-38901920D01*
X9400206Y-38809042D01*
X9433593Y-38529937D01*
X9411886Y-38249682D01*
X9400206Y-38190958D01*
X9212265Y-38098080D01*
X8810344Y-38500000D01*
X7189656Y-38500000D01*
X6787735Y-38098080D01*
X6599794Y-38190958D01*
X6566407Y-38470063D01*
X6127000Y-38470063D01*
X6127000Y-37287735D01*
X7598080Y-37287735D01*
X8000000Y-37689656D01*
X8401920Y-37287735D01*
X8309042Y-37099794D01*
X8029937Y-37066407D01*
X7749682Y-37088114D01*
X7690958Y-37099794D01*
X7598080Y-37287735D01*
X6127000Y-37287735D01*
X6127000Y-22532265D01*
X18648080Y-22532265D01*
X18740958Y-22720206D01*
X19020063Y-22753593D01*
X19300318Y-22731886D01*
X19359042Y-22720206D01*
X19451920Y-22532265D01*
X19050000Y-22130344D01*
X18648080Y-22532265D01*
X6127000Y-22532265D01*
X6127000Y-21290063D01*
X17616407Y-21290063D01*
X17638114Y-21570318D01*
X17649794Y-21629042D01*
X17837735Y-21721920D01*
X18239656Y-21320000D01*
X17837735Y-20918080D01*
X17649794Y-21010958D01*
X17616407Y-21290063D01*
X6127000Y-21290063D01*
X6127000Y-20107735D01*
X18648080Y-20107735D01*
X19050000Y-20509656D01*
X19451920Y-20107735D01*
X19359042Y-19919794D01*
X19079937Y-19886407D01*
X18799682Y-19908114D01*
X18740958Y-19919794D01*
X18648080Y-20107735D01*
X6127000Y-20107735D01*
X6127000Y-17202265D01*
X18648080Y-17202265D01*
X18740958Y-17390206D01*
X19020063Y-17423593D01*
X19300318Y-17401886D01*
X19359042Y-17390206D01*
X19451920Y-17202265D01*
X19050000Y-16800344D01*
X18648080Y-17202265D01*
X6127000Y-17202265D01*
X6127000Y-15960063D01*
X17616407Y-15960063D01*
X17638114Y-16240318D01*
X17649794Y-16299042D01*
X17837735Y-16391920D01*
X18239656Y-15990000D01*
X17837735Y-15588080D01*
X17649794Y-15680958D01*
X17616407Y-15960063D01*
X6127000Y-15960063D01*
X6127000Y-14777735D01*
X18648080Y-14777735D01*
X19050000Y-15179656D01*
X19451920Y-14777735D01*
X19359042Y-14589794D01*
X19079937Y-14556407D01*
X18799682Y-14578114D01*
X18740958Y-14589794D01*
X18648080Y-14777735D01*
X6127000Y-14777735D01*
X6127000Y-13627000D01*
X20123000Y-13627000D01*
X20123000Y-15727345D01*
X20123000Y-15727345D01*
G37*
X20123000Y-15727345D02*
X19860344Y-15990000D01*
X20123000Y-16252655D01*
X20123000Y-21057345D01*
X19860344Y-21320000D01*
X20123000Y-21582655D01*
X20123000Y-24454020D01*
X18902436Y-25918697D01*
X18888449Y-25939293D01*
X18878749Y-25962222D01*
X18873709Y-25986602D01*
X18873000Y-26000000D01*
X18873000Y-45323000D01*
X17111894Y-45323000D01*
X17143458Y-45218948D01*
X17174872Y-44900000D01*
X17174872Y-43100000D01*
X17143458Y-42781052D01*
X17050425Y-42474362D01*
X16899346Y-42191714D01*
X16696029Y-41943971D01*
X16448286Y-41740654D01*
X16165638Y-41589575D01*
X15858948Y-41496542D01*
X15540000Y-41465128D01*
X13740000Y-41465128D01*
X13421052Y-41496542D01*
X13114362Y-41589575D01*
X13013825Y-41643313D01*
X12837099Y-41570111D01*
X12348888Y-41473000D01*
X11851112Y-41473000D01*
X11362901Y-41570111D01*
X10903017Y-41760602D01*
X10489131Y-42037151D01*
X10137151Y-42389131D01*
X9988005Y-42612345D01*
X9933077Y-42511657D01*
X9635548Y-42467471D01*
X9335115Y-42482180D01*
X9186923Y-42511657D01*
X9079294Y-42708950D01*
X9560000Y-43189656D01*
X9574143Y-43175514D01*
X9668687Y-43270058D01*
X9573000Y-43751112D01*
X9573000Y-44248888D01*
X9668687Y-44729942D01*
X9574143Y-44824487D01*
X9560000Y-44810344D01*
X9079294Y-45291050D01*
X9096724Y-45323000D01*
X6127000Y-45323000D01*
X6127000Y-43924452D01*
X8027471Y-43924452D01*
X8042180Y-44224885D01*
X8071657Y-44373077D01*
X8268950Y-44480706D01*
X8749656Y-44000000D01*
X8268950Y-43519294D01*
X8071657Y-43626923D01*
X8027471Y-43924452D01*
X6127000Y-43924452D01*
X6127000Y-39712265D01*
X7598080Y-39712265D01*
X7690958Y-39900206D01*
X7970063Y-39933593D01*
X8250318Y-39911886D01*
X8309042Y-39900206D01*
X8401920Y-39712265D01*
X8000000Y-39310344D01*
X7598080Y-39712265D01*
X6127000Y-39712265D01*
X6127000Y-38470063D01*
X6566407Y-38470063D01*
X6588114Y-38750318D01*
X6599794Y-38809042D01*
X6787735Y-38901920D01*
X7189656Y-38500000D01*
X8810344Y-38500000D01*
X9212265Y-38901920D01*
X9400206Y-38809042D01*
X9433593Y-38529937D01*
X9411886Y-38249682D01*
X9400206Y-38190958D01*
X9212265Y-38098080D01*
X8810344Y-38500000D01*
X7189656Y-38500000D01*
X6787735Y-38098080D01*
X6599794Y-38190958D01*
X6566407Y-38470063D01*
X6127000Y-38470063D01*
X6127000Y-37287735D01*
X7598080Y-37287735D01*
X8000000Y-37689656D01*
X8401920Y-37287735D01*
X8309042Y-37099794D01*
X8029937Y-37066407D01*
X7749682Y-37088114D01*
X7690958Y-37099794D01*
X7598080Y-37287735D01*
X6127000Y-37287735D01*
X6127000Y-22532265D01*
X18648080Y-22532265D01*
X18740958Y-22720206D01*
X19020063Y-22753593D01*
X19300318Y-22731886D01*
X19359042Y-22720206D01*
X19451920Y-22532265D01*
X19050000Y-22130344D01*
X18648080Y-22532265D01*
X6127000Y-22532265D01*
X6127000Y-21290063D01*
X17616407Y-21290063D01*
X17638114Y-21570318D01*
X17649794Y-21629042D01*
X17837735Y-21721920D01*
X18239656Y-21320000D01*
X17837735Y-20918080D01*
X17649794Y-21010958D01*
X17616407Y-21290063D01*
X6127000Y-21290063D01*
X6127000Y-20107735D01*
X18648080Y-20107735D01*
X19050000Y-20509656D01*
X19451920Y-20107735D01*
X19359042Y-19919794D01*
X19079937Y-19886407D01*
X18799682Y-19908114D01*
X18740958Y-19919794D01*
X18648080Y-20107735D01*
X6127000Y-20107735D01*
X6127000Y-17202265D01*
X18648080Y-17202265D01*
X18740958Y-17390206D01*
X19020063Y-17423593D01*
X19300318Y-17401886D01*
X19359042Y-17390206D01*
X19451920Y-17202265D01*
X19050000Y-16800344D01*
X18648080Y-17202265D01*
X6127000Y-17202265D01*
X6127000Y-15960063D01*
X17616407Y-15960063D01*
X17638114Y-16240318D01*
X17649794Y-16299042D01*
X17837735Y-16391920D01*
X18239656Y-15990000D01*
X17837735Y-15588080D01*
X17649794Y-15680958D01*
X17616407Y-15960063D01*
X6127000Y-15960063D01*
X6127000Y-14777735D01*
X18648080Y-14777735D01*
X19050000Y-15179656D01*
X19451920Y-14777735D01*
X19359042Y-14589794D01*
X19079937Y-14556407D01*
X18799682Y-14578114D01*
X18740958Y-14589794D01*
X18648080Y-14777735D01*
X6127000Y-14777735D01*
X6127000Y-13627000D01*
X20123000Y-13627000D01*
X20123000Y-15727345D01*
G36*
X71323000Y1554832D02*
G01*
X71157300Y1954868D01*
X70705650Y2630809D01*
X70130809Y3205650D01*
X69454868Y3657300D01*
X68703802Y3968402D01*
X67906474Y4127000D01*
X67093526Y4127000D01*
X66296198Y3968402D01*
X65545132Y3657300D01*
X64869191Y3205650D01*
X64294350Y2630809D01*
X63842700Y1954868D01*
X63531598Y1203802D01*
X63373000Y406474D01*
X63373000Y-406474D01*
X63531598Y-1203802D01*
X63842700Y-1954868D01*
X64294350Y-2630809D01*
X64869191Y-3205650D01*
X65545132Y-3657300D01*
X66296198Y-3968402D01*
X67093526Y-4127000D01*
X67906474Y-4127000D01*
X68703802Y-3968402D01*
X69454868Y-3657300D01*
X70130809Y-3205650D01*
X70705650Y-2630809D01*
X71157300Y-1954868D01*
X71323001Y-1554832D01*
X71323001Y-45323000D01*
X31011894Y-45323000D01*
X31043458Y-45218948D01*
X31074872Y-44900000D01*
X31074872Y-43100000D01*
X31043458Y-42781052D01*
X30950425Y-42474362D01*
X30799346Y-42191714D01*
X30596029Y-41943971D01*
X30348286Y-41740654D01*
X30065638Y-41589575D01*
X29758948Y-41496542D01*
X29440000Y-41465128D01*
X27640000Y-41465128D01*
X27321052Y-41496542D01*
X27014362Y-41589575D01*
X26913825Y-41643313D01*
X26737099Y-41570111D01*
X26248888Y-41473000D01*
X25751112Y-41473000D01*
X25262901Y-41570111D01*
X24803017Y-41760602D01*
X24389131Y-42037151D01*
X24037151Y-42389131D01*
X23888005Y-42612345D01*
X23833077Y-42511657D01*
X23535548Y-42467471D01*
X23235115Y-42482180D01*
X23086923Y-42511657D01*
X22979294Y-42708950D01*
X23460000Y-43189656D01*
X23474143Y-43175514D01*
X23568687Y-43270058D01*
X23473000Y-43751112D01*
X23473000Y-44248888D01*
X23568687Y-44729942D01*
X23474143Y-44824487D01*
X23460000Y-44810344D01*
X22979294Y-45291050D01*
X22996724Y-45323000D01*
X21627000Y-45323000D01*
X21627000Y-43924452D01*
X21927471Y-43924452D01*
X21942180Y-44224885D01*
X21971657Y-44373077D01*
X22168950Y-44480706D01*
X22649656Y-44000000D01*
X22168950Y-43519294D01*
X21971657Y-43626923D01*
X21927471Y-43924452D01*
X21627000Y-43924452D01*
X21627000Y-26038452D01*
X22605670Y-24570447D01*
X22617383Y-24548478D01*
X22624586Y-24524646D01*
X22627000Y-24500000D01*
X22627000Y-22201867D01*
X27973000Y-22201867D01*
X27973000Y-22798133D01*
X28089326Y-23382943D01*
X28317508Y-23933822D01*
X28648776Y-24429600D01*
X29070400Y-24851224D01*
X29566178Y-25182492D01*
X30117057Y-25410674D01*
X30701867Y-25527000D01*
X31298133Y-25527000D01*
X31882943Y-25410674D01*
X32433822Y-25182492D01*
X32929600Y-24851224D01*
X33351224Y-24429600D01*
X33523797Y-24171325D01*
X67639019Y-24171325D01*
X67814712Y-24418063D01*
X68202075Y-24514901D01*
X68600887Y-24534308D01*
X68995823Y-24475537D01*
X69185288Y-24418063D01*
X69360981Y-24171325D01*
X68500000Y-23310344D01*
X67639019Y-24171325D01*
X33523797Y-24171325D01*
X33682492Y-23933822D01*
X33910674Y-23382943D01*
X34027000Y-22798133D01*
X34027000Y-22600887D01*
X66465692Y-22600887D01*
X66524463Y-22995823D01*
X66581937Y-23185288D01*
X66828675Y-23360981D01*
X67689656Y-22500000D01*
X69310344Y-22500000D01*
X70171325Y-23360981D01*
X70418063Y-23185288D01*
X70514901Y-22797925D01*
X70534308Y-22399113D01*
X70475537Y-22004177D01*
X70418063Y-21814712D01*
X70171325Y-21639019D01*
X69310344Y-22500000D01*
X67689656Y-22500000D01*
X66828675Y-21639019D01*
X66581937Y-21814712D01*
X66485099Y-22202075D01*
X66465692Y-22600887D01*
X34027000Y-22600887D01*
X34027000Y-22201867D01*
X33910674Y-21617057D01*
X33682492Y-21066178D01*
X33523798Y-20828675D01*
X67639019Y-20828675D01*
X68500000Y-21689656D01*
X69360981Y-20828675D01*
X69185288Y-20581937D01*
X68797925Y-20485099D01*
X68399113Y-20465692D01*
X68004177Y-20524463D01*
X67814712Y-20581937D01*
X67639019Y-20828675D01*
X33523798Y-20828675D01*
X33351224Y-20570400D01*
X32929600Y-20148776D01*
X32433822Y-19817508D01*
X31882943Y-19589326D01*
X31298133Y-19473000D01*
X30701867Y-19473000D01*
X30117057Y-19589326D01*
X29566178Y-19817508D01*
X29070400Y-20148776D01*
X28648776Y-20570400D01*
X28317508Y-21066178D01*
X28089326Y-21617057D01*
X27973000Y-22201867D01*
X22627000Y-22201867D01*
X22627000Y228435D01*
X27673000Y228435D01*
X27673000Y-328435D01*
X27781640Y-874606D01*
X27994745Y-1389087D01*
X28304125Y-1852108D01*
X28697892Y-2245875D01*
X29160913Y-2555255D01*
X29675394Y-2768360D01*
X30221565Y-2877000D01*
X30778435Y-2877000D01*
X31324606Y-2768360D01*
X31839087Y-2555255D01*
X31956343Y-2476907D01*
X55333438Y-2476907D01*
X55647638Y-2836212D01*
X56226941Y-3045549D01*
X56835953Y-3137846D01*
X57451268Y-3109557D01*
X58049243Y-2961770D01*
X58352362Y-2836212D01*
X58666562Y-2476907D01*
X57000000Y-810344D01*
X55333438Y-2476907D01*
X31956343Y-2476907D01*
X32302108Y-2245875D01*
X32695875Y-1852108D01*
X32883574Y-1571195D01*
X44789149Y-1571195D01*
X44938395Y-1797829D01*
X45290170Y-1873809D01*
X45650010Y-1879701D01*
X46004084Y-1815279D01*
X46061605Y-1797829D01*
X46210851Y-1571195D01*
X45500000Y-860344D01*
X44789149Y-1571195D01*
X32883574Y-1571195D01*
X33005255Y-1389087D01*
X33218360Y-874606D01*
X33327000Y-328435D01*
X33327000Y-200010D01*
X43670299Y-200010D01*
X43734721Y-554084D01*
X43752171Y-611605D01*
X43978805Y-760851D01*
X44689656Y-50000D01*
X46310344Y-50000D01*
X47021195Y-760851D01*
X47247829Y-611605D01*
X47323809Y-259830D01*
X47329701Y100010D01*
X47318050Y164047D01*
X53862154Y164047D01*
X53890443Y-451268D01*
X54038230Y-1049243D01*
X54163788Y-1352362D01*
X54523093Y-1666562D01*
X56189656Y0D01*
X57810344Y0D01*
X59476907Y-1666562D01*
X59836212Y-1352362D01*
X60045549Y-773059D01*
X60137846Y-164047D01*
X60109557Y451268D01*
X59961770Y1049243D01*
X59836212Y1352362D01*
X59476907Y1666562D01*
X57810344Y0D01*
X56189656Y0D01*
X54523093Y1666562D01*
X54163788Y1352362D01*
X53954451Y773059D01*
X53862154Y164047D01*
X47318050Y164047D01*
X47265279Y454084D01*
X47247829Y511605D01*
X47021195Y660851D01*
X46310344Y-50000D01*
X44689656Y-50000D01*
X43978805Y660851D01*
X43752171Y511605D01*
X43676191Y159830D01*
X43670299Y-200010D01*
X33327000Y-200010D01*
X33327000Y228435D01*
X33218360Y774606D01*
X33005255Y1289087D01*
X32883575Y1471195D01*
X44789149Y1471195D01*
X45500000Y760344D01*
X46210851Y1471195D01*
X46061605Y1697829D01*
X45709830Y1773809D01*
X45349990Y1779701D01*
X44995916Y1715279D01*
X44938395Y1697829D01*
X44789149Y1471195D01*
X32883575Y1471195D01*
X32695875Y1752108D01*
X32302108Y2145875D01*
X31839087Y2455255D01*
X31786815Y2476907D01*
X55333438Y2476907D01*
X57000000Y810344D01*
X58666562Y2476907D01*
X58352362Y2836212D01*
X57773059Y3045549D01*
X57164047Y3137846D01*
X56548732Y3109557D01*
X55950757Y2961770D01*
X55647638Y2836212D01*
X55333438Y2476907D01*
X31786815Y2476907D01*
X31324606Y2668360D01*
X30778435Y2777000D01*
X30221565Y2777000D01*
X29675394Y2668360D01*
X29160913Y2455255D01*
X28697892Y2145875D01*
X28304125Y1752108D01*
X27994745Y1289087D01*
X27781640Y774606D01*
X27673000Y228435D01*
X22627000Y228435D01*
X22627000Y22798133D01*
X27973000Y22798133D01*
X27973000Y22201867D01*
X28089326Y21617057D01*
X28317508Y21066178D01*
X28648776Y20570400D01*
X29070400Y20148776D01*
X29566178Y19817508D01*
X30117057Y19589326D01*
X30701867Y19473000D01*
X31298133Y19473000D01*
X31882943Y19589326D01*
X32433822Y19817508D01*
X32929600Y20148776D01*
X33351224Y20570400D01*
X33523797Y20828675D01*
X67639019Y20828675D01*
X67814712Y20581937D01*
X68202075Y20485099D01*
X68600887Y20465692D01*
X68995823Y20524463D01*
X69185288Y20581937D01*
X69360981Y20828675D01*
X68500000Y21689656D01*
X67639019Y20828675D01*
X33523797Y20828675D01*
X33682492Y21066178D01*
X33910674Y21617057D01*
X34027000Y22201867D01*
X34027000Y22399113D01*
X66465692Y22399113D01*
X66524463Y22004177D01*
X66581937Y21814712D01*
X66828675Y21639019D01*
X67689656Y22500000D01*
X69310344Y22500000D01*
X70171325Y21639019D01*
X70418063Y21814712D01*
X70514901Y22202075D01*
X70534308Y22600887D01*
X70475537Y22995823D01*
X70418063Y23185288D01*
X70171325Y23360981D01*
X69310344Y22500000D01*
X67689656Y22500000D01*
X66828675Y23360981D01*
X66581937Y23185288D01*
X66485099Y22797925D01*
X66465692Y22399113D01*
X34027000Y22399113D01*
X34027000Y22798133D01*
X33910674Y23382943D01*
X33682492Y23933822D01*
X33523798Y24171325D01*
X67639019Y24171325D01*
X68500000Y23310344D01*
X69360981Y24171325D01*
X69185288Y24418063D01*
X68797925Y24514901D01*
X68399113Y24534308D01*
X68004177Y24475537D01*
X67814712Y24418063D01*
X67639019Y24171325D01*
X33523798Y24171325D01*
X33351224Y24429600D01*
X32929600Y24851224D01*
X32433822Y25182492D01*
X31882943Y25410674D01*
X31298133Y25527000D01*
X30701867Y25527000D01*
X30117057Y25410674D01*
X29566178Y25182492D01*
X29070400Y24851224D01*
X28648776Y24429600D01*
X28317508Y23933822D01*
X28089326Y23382943D01*
X27973000Y22798133D01*
X22627000Y22798133D01*
X22627000Y24500000D01*
X22624560Y24524776D01*
X22613592Y24556796D01*
X21627000Y26529980D01*
X21627000Y41760936D01*
X21651714Y41740654D01*
X21934362Y41589575D01*
X22241052Y41496542D01*
X22560000Y41465128D01*
X24360000Y41465128D01*
X24678948Y41496542D01*
X24985638Y41589575D01*
X25086175Y41643313D01*
X25262901Y41570111D01*
X25751112Y41473000D01*
X26248888Y41473000D01*
X26737099Y41570111D01*
X27196983Y41760602D01*
X27610869Y42037151D01*
X27962849Y42389131D01*
X28111995Y42612345D01*
X28166923Y42511657D01*
X28464452Y42467471D01*
X28764885Y42482180D01*
X28913077Y42511657D01*
X29020706Y42708950D01*
X28540000Y43189656D01*
X28525858Y43175514D01*
X28431313Y43270058D01*
X28527000Y43751112D01*
X28527000Y44000000D01*
X29350344Y44000000D01*
X29831050Y43519294D01*
X30028343Y43626923D01*
X30072529Y43924452D01*
X30057820Y44224885D01*
X30028343Y44373077D01*
X29831050Y44480706D01*
X29350344Y44000000D01*
X28527000Y44000000D01*
X28527000Y44248888D01*
X28431313Y44729942D01*
X28525858Y44824487D01*
X28540000Y44810344D01*
X29020706Y45291050D01*
X29003276Y45323000D01*
X71323000Y45323000D01*
X71323000Y1554832D01*
X71323000Y1554832D01*
G37*
X71323000Y1554832D02*
X71157300Y1954868D01*
X70705650Y2630809D01*
X70130809Y3205650D01*
X69454868Y3657300D01*
X68703802Y3968402D01*
X67906474Y4127000D01*
X67093526Y4127000D01*
X66296198Y3968402D01*
X65545132Y3657300D01*
X64869191Y3205650D01*
X64294350Y2630809D01*
X63842700Y1954868D01*
X63531598Y1203802D01*
X63373000Y406474D01*
X63373000Y-406474D01*
X63531598Y-1203802D01*
X63842700Y-1954868D01*
X64294350Y-2630809D01*
X64869191Y-3205650D01*
X65545132Y-3657300D01*
X66296198Y-3968402D01*
X67093526Y-4127000D01*
X67906474Y-4127000D01*
X68703802Y-3968402D01*
X69454868Y-3657300D01*
X70130809Y-3205650D01*
X70705650Y-2630809D01*
X71157300Y-1954868D01*
X71323001Y-1554832D01*
X71323001Y-45323000D01*
X31011894Y-45323000D01*
X31043458Y-45218948D01*
X31074872Y-44900000D01*
X31074872Y-43100000D01*
X31043458Y-42781052D01*
X30950425Y-42474362D01*
X30799346Y-42191714D01*
X30596029Y-41943971D01*
X30348286Y-41740654D01*
X30065638Y-41589575D01*
X29758948Y-41496542D01*
X29440000Y-41465128D01*
X27640000Y-41465128D01*
X27321052Y-41496542D01*
X27014362Y-41589575D01*
X26913825Y-41643313D01*
X26737099Y-41570111D01*
X26248888Y-41473000D01*
X25751112Y-41473000D01*
X25262901Y-41570111D01*
X24803017Y-41760602D01*
X24389131Y-42037151D01*
X24037151Y-42389131D01*
X23888005Y-42612345D01*
X23833077Y-42511657D01*
X23535548Y-42467471D01*
X23235115Y-42482180D01*
X23086923Y-42511657D01*
X22979294Y-42708950D01*
X23460000Y-43189656D01*
X23474143Y-43175514D01*
X23568687Y-43270058D01*
X23473000Y-43751112D01*
X23473000Y-44248888D01*
X23568687Y-44729942D01*
X23474143Y-44824487D01*
X23460000Y-44810344D01*
X22979294Y-45291050D01*
X22996724Y-45323000D01*
X21627000Y-45323000D01*
X21627000Y-43924452D01*
X21927471Y-43924452D01*
X21942180Y-44224885D01*
X21971657Y-44373077D01*
X22168950Y-44480706D01*
X22649656Y-44000000D01*
X22168950Y-43519294D01*
X21971657Y-43626923D01*
X21927471Y-43924452D01*
X21627000Y-43924452D01*
X21627000Y-26038452D01*
X22605670Y-24570447D01*
X22617383Y-24548478D01*
X22624586Y-24524646D01*
X22627000Y-24500000D01*
X22627000Y-22201867D01*
X27973000Y-22201867D01*
X27973000Y-22798133D01*
X28089326Y-23382943D01*
X28317508Y-23933822D01*
X28648776Y-24429600D01*
X29070400Y-24851224D01*
X29566178Y-25182492D01*
X30117057Y-25410674D01*
X30701867Y-25527000D01*
X31298133Y-25527000D01*
X31882943Y-25410674D01*
X32433822Y-25182492D01*
X32929600Y-24851224D01*
X33351224Y-24429600D01*
X33523797Y-24171325D01*
X67639019Y-24171325D01*
X67814712Y-24418063D01*
X68202075Y-24514901D01*
X68600887Y-24534308D01*
X68995823Y-24475537D01*
X69185288Y-24418063D01*
X69360981Y-24171325D01*
X68500000Y-23310344D01*
X67639019Y-24171325D01*
X33523797Y-24171325D01*
X33682492Y-23933822D01*
X33910674Y-23382943D01*
X34027000Y-22798133D01*
X34027000Y-22600887D01*
X66465692Y-22600887D01*
X66524463Y-22995823D01*
X66581937Y-23185288D01*
X66828675Y-23360981D01*
X67689656Y-22500000D01*
X69310344Y-22500000D01*
X70171325Y-23360981D01*
X70418063Y-23185288D01*
X70514901Y-22797925D01*
X70534308Y-22399113D01*
X70475537Y-22004177D01*
X70418063Y-21814712D01*
X70171325Y-21639019D01*
X69310344Y-22500000D01*
X67689656Y-22500000D01*
X66828675Y-21639019D01*
X66581937Y-21814712D01*
X66485099Y-22202075D01*
X66465692Y-22600887D01*
X34027000Y-22600887D01*
X34027000Y-22201867D01*
X33910674Y-21617057D01*
X33682492Y-21066178D01*
X33523798Y-20828675D01*
X67639019Y-20828675D01*
X68500000Y-21689656D01*
X69360981Y-20828675D01*
X69185288Y-20581937D01*
X68797925Y-20485099D01*
X68399113Y-20465692D01*
X68004177Y-20524463D01*
X67814712Y-20581937D01*
X67639019Y-20828675D01*
X33523798Y-20828675D01*
X33351224Y-20570400D01*
X32929600Y-20148776D01*
X32433822Y-19817508D01*
X31882943Y-19589326D01*
X31298133Y-19473000D01*
X30701867Y-19473000D01*
X30117057Y-19589326D01*
X29566178Y-19817508D01*
X29070400Y-20148776D01*
X28648776Y-20570400D01*
X28317508Y-21066178D01*
X28089326Y-21617057D01*
X27973000Y-22201867D01*
X22627000Y-22201867D01*
X22627000Y228435D01*
X27673000Y228435D01*
X27673000Y-328435D01*
X27781640Y-874606D01*
X27994745Y-1389087D01*
X28304125Y-1852108D01*
X28697892Y-2245875D01*
X29160913Y-2555255D01*
X29675394Y-2768360D01*
X30221565Y-2877000D01*
X30778435Y-2877000D01*
X31324606Y-2768360D01*
X31839087Y-2555255D01*
X31956343Y-2476907D01*
X55333438Y-2476907D01*
X55647638Y-2836212D01*
X56226941Y-3045549D01*
X56835953Y-3137846D01*
X57451268Y-3109557D01*
X58049243Y-2961770D01*
X58352362Y-2836212D01*
X58666562Y-2476907D01*
X57000000Y-810344D01*
X55333438Y-2476907D01*
X31956343Y-2476907D01*
X32302108Y-2245875D01*
X32695875Y-1852108D01*
X32883574Y-1571195D01*
X44789149Y-1571195D01*
X44938395Y-1797829D01*
X45290170Y-1873809D01*
X45650010Y-1879701D01*
X46004084Y-1815279D01*
X46061605Y-1797829D01*
X46210851Y-1571195D01*
X45500000Y-860344D01*
X44789149Y-1571195D01*
X32883574Y-1571195D01*
X33005255Y-1389087D01*
X33218360Y-874606D01*
X33327000Y-328435D01*
X33327000Y-200010D01*
X43670299Y-200010D01*
X43734721Y-554084D01*
X43752171Y-611605D01*
X43978805Y-760851D01*
X44689656Y-50000D01*
X46310344Y-50000D01*
X47021195Y-760851D01*
X47247829Y-611605D01*
X47323809Y-259830D01*
X47329701Y100010D01*
X47318050Y164047D01*
X53862154Y164047D01*
X53890443Y-451268D01*
X54038230Y-1049243D01*
X54163788Y-1352362D01*
X54523093Y-1666562D01*
X56189656Y0D01*
X57810344Y0D01*
X59476907Y-1666562D01*
X59836212Y-1352362D01*
X60045549Y-773059D01*
X60137846Y-164047D01*
X60109557Y451268D01*
X59961770Y1049243D01*
X59836212Y1352362D01*
X59476907Y1666562D01*
X57810344Y0D01*
X56189656Y0D01*
X54523093Y1666562D01*
X54163788Y1352362D01*
X53954451Y773059D01*
X53862154Y164047D01*
X47318050Y164047D01*
X47265279Y454084D01*
X47247829Y511605D01*
X47021195Y660851D01*
X46310344Y-50000D01*
X44689656Y-50000D01*
X43978805Y660851D01*
X43752171Y511605D01*
X43676191Y159830D01*
X43670299Y-200010D01*
X33327000Y-200010D01*
X33327000Y228435D01*
X33218360Y774606D01*
X33005255Y1289087D01*
X32883575Y1471195D01*
X44789149Y1471195D01*
X45500000Y760344D01*
X46210851Y1471195D01*
X46061605Y1697829D01*
X45709830Y1773809D01*
X45349990Y1779701D01*
X44995916Y1715279D01*
X44938395Y1697829D01*
X44789149Y1471195D01*
X32883575Y1471195D01*
X32695875Y1752108D01*
X32302108Y2145875D01*
X31839087Y2455255D01*
X31786815Y2476907D01*
X55333438Y2476907D01*
X57000000Y810344D01*
X58666562Y2476907D01*
X58352362Y2836212D01*
X57773059Y3045549D01*
X57164047Y3137846D01*
X56548732Y3109557D01*
X55950757Y2961770D01*
X55647638Y2836212D01*
X55333438Y2476907D01*
X31786815Y2476907D01*
X31324606Y2668360D01*
X30778435Y2777000D01*
X30221565Y2777000D01*
X29675394Y2668360D01*
X29160913Y2455255D01*
X28697892Y2145875D01*
X28304125Y1752108D01*
X27994745Y1289087D01*
X27781640Y774606D01*
X27673000Y228435D01*
X22627000Y228435D01*
X22627000Y22798133D01*
X27973000Y22798133D01*
X27973000Y22201867D01*
X28089326Y21617057D01*
X28317508Y21066178D01*
X28648776Y20570400D01*
X29070400Y20148776D01*
X29566178Y19817508D01*
X30117057Y19589326D01*
X30701867Y19473000D01*
X31298133Y19473000D01*
X31882943Y19589326D01*
X32433822Y19817508D01*
X32929600Y20148776D01*
X33351224Y20570400D01*
X33523797Y20828675D01*
X67639019Y20828675D01*
X67814712Y20581937D01*
X68202075Y20485099D01*
X68600887Y20465692D01*
X68995823Y20524463D01*
X69185288Y20581937D01*
X69360981Y20828675D01*
X68500000Y21689656D01*
X67639019Y20828675D01*
X33523797Y20828675D01*
X33682492Y21066178D01*
X33910674Y21617057D01*
X34027000Y22201867D01*
X34027000Y22399113D01*
X66465692Y22399113D01*
X66524463Y22004177D01*
X66581937Y21814712D01*
X66828675Y21639019D01*
X67689656Y22500000D01*
X69310344Y22500000D01*
X70171325Y21639019D01*
X70418063Y21814712D01*
X70514901Y22202075D01*
X70534308Y22600887D01*
X70475537Y22995823D01*
X70418063Y23185288D01*
X70171325Y23360981D01*
X69310344Y22500000D01*
X67689656Y22500000D01*
X66828675Y23360981D01*
X66581937Y23185288D01*
X66485099Y22797925D01*
X66465692Y22399113D01*
X34027000Y22399113D01*
X34027000Y22798133D01*
X33910674Y23382943D01*
X33682492Y23933822D01*
X33523798Y24171325D01*
X67639019Y24171325D01*
X68500000Y23310344D01*
X69360981Y24171325D01*
X69185288Y24418063D01*
X68797925Y24514901D01*
X68399113Y24534308D01*
X68004177Y24475537D01*
X67814712Y24418063D01*
X67639019Y24171325D01*
X33523798Y24171325D01*
X33351224Y24429600D01*
X32929600Y24851224D01*
X32433822Y25182492D01*
X31882943Y25410674D01*
X31298133Y25527000D01*
X30701867Y25527000D01*
X30117057Y25410674D01*
X29566178Y25182492D01*
X29070400Y24851224D01*
X28648776Y24429600D01*
X28317508Y23933822D01*
X28089326Y23382943D01*
X27973000Y22798133D01*
X22627000Y22798133D01*
X22627000Y24500000D01*
X22624560Y24524776D01*
X22613592Y24556796D01*
X21627000Y26529980D01*
X21627000Y41760936D01*
X21651714Y41740654D01*
X21934362Y41589575D01*
X22241052Y41496542D01*
X22560000Y41465128D01*
X24360000Y41465128D01*
X24678948Y41496542D01*
X24985638Y41589575D01*
X25086175Y41643313D01*
X25262901Y41570111D01*
X25751112Y41473000D01*
X26248888Y41473000D01*
X26737099Y41570111D01*
X27196983Y41760602D01*
X27610869Y42037151D01*
X27962849Y42389131D01*
X28111995Y42612345D01*
X28166923Y42511657D01*
X28464452Y42467471D01*
X28764885Y42482180D01*
X28913077Y42511657D01*
X29020706Y42708950D01*
X28540000Y43189656D01*
X28525858Y43175514D01*
X28431313Y43270058D01*
X28527000Y43751112D01*
X28527000Y44000000D01*
X29350344Y44000000D01*
X29831050Y43519294D01*
X30028343Y43626923D01*
X30072529Y43924452D01*
X30057820Y44224885D01*
X30028343Y44373077D01*
X29831050Y44480706D01*
X29350344Y44000000D01*
X28527000Y44000000D01*
X28527000Y44248888D01*
X28431313Y44729942D01*
X28525858Y44824487D01*
X28540000Y44810344D01*
X29020706Y45291050D01*
X29003276Y45323000D01*
X71323000Y45323000D01*
X71323000Y1554832D01*
D24*
G36*
X1512689Y-38988683D02*
G01*
X1602761Y-39206137D01*
X1866411Y-39280036D01*
X2396447Y-38750000D01*
X3131838Y-38750000D01*
X3014143Y-38867696D01*
X3000000Y-38853553D01*
X2219964Y-39633589D01*
X2293863Y-39897239D01*
X2580019Y-40008152D01*
X2882315Y-40061108D01*
X3189133Y-40054071D01*
X3488683Y-39987311D01*
X3706137Y-39897239D01*
X3750000Y-39740749D01*
X3750000Y-44700000D01*
X-1044750Y-44700000D01*
X-932050Y-44421504D01*
X-1750000Y-43603553D01*
X-1750000Y-43000000D01*
X-1646447Y-43000000D01*
X-578496Y-44067950D01*
X-274236Y-43944824D01*
X-123070Y-43589990D01*
X-44034Y-43212483D01*
X-40164Y-42826810D01*
X-111609Y-42447793D01*
X-255624Y-42089997D01*
X-274236Y-42055176D01*
X-578496Y-41932050D01*
X-1646447Y-43000000D01*
X-1750000Y-43000000D01*
X-1750000Y-42396447D01*
X-932050Y-41578496D01*
X-1055176Y-41274236D01*
X-1103993Y-41253439D01*
X-673354Y-41122807D01*
X-74009Y-40802450D01*
X451322Y-40371322D01*
X882450Y-39845991D01*
X1202807Y-39246646D01*
X1353462Y-38750000D01*
X1459494Y-38750000D01*
X1512689Y-38988683D01*
X1512689Y-38988683D01*
G37*
X1512689Y-38988683D02*
X1602761Y-39206137D01*
X1866411Y-39280036D01*
X2396447Y-38750000D01*
X3131838Y-38750000D01*
X3014143Y-38867696D01*
X3000000Y-38853553D01*
X2219964Y-39633589D01*
X2293863Y-39897239D01*
X2580019Y-40008152D01*
X2882315Y-40061108D01*
X3189133Y-40054071D01*
X3488683Y-39987311D01*
X3706137Y-39897239D01*
X3750000Y-39740749D01*
X3750000Y-44700000D01*
X-1044750Y-44700000D01*
X-932050Y-44421504D01*
X-1750000Y-43603553D01*
X-1750000Y-43000000D01*
X-1646447Y-43000000D01*
X-578496Y-44067950D01*
X-274236Y-43944824D01*
X-123070Y-43589990D01*
X-44034Y-43212483D01*
X-40164Y-42826810D01*
X-111609Y-42447793D01*
X-255624Y-42089997D01*
X-274236Y-42055176D01*
X-578496Y-41932050D01*
X-1646447Y-43000000D01*
X-1750000Y-43000000D01*
X-1750000Y-42396447D01*
X-932050Y-41578496D01*
X-1055176Y-41274236D01*
X-1103993Y-41253439D01*
X-673354Y-41122807D01*
X-74009Y-40802450D01*
X451322Y-40371322D01*
X882450Y-39845991D01*
X1202807Y-39246646D01*
X1353462Y-38750000D01*
X1459494Y-38750000D01*
X1512689Y-38988683D01*
G36*
X3750000Y39740749D02*
G01*
X3706137Y39897239D01*
X3419981Y40008152D01*
X3117685Y40061108D01*
X2810867Y40054071D01*
X2511317Y39987311D01*
X2293863Y39897239D01*
X2219964Y39633589D01*
X3000000Y38853553D01*
X3014143Y38867696D01*
X3131838Y38750000D01*
X2396447Y38750000D01*
X1866411Y39280036D01*
X1602761Y39206137D01*
X1491848Y38919981D01*
X1462071Y38750000D01*
X1353462Y38750000D01*
X1202807Y39246646D01*
X882450Y39845991D01*
X451322Y40371322D01*
X-74009Y40802450D01*
X-673354Y41122807D01*
X-1099107Y41251957D01*
X-1089997Y41255624D01*
X-1055176Y41274236D01*
X-932050Y41578496D01*
X-1750000Y42396447D01*
X-1750000Y43000000D01*
X-1646447Y43000000D01*
X-578496Y41932050D01*
X-274236Y42055176D01*
X-123070Y42410010D01*
X-44034Y42787517D01*
X-40164Y43173190D01*
X-111609Y43552207D01*
X-255624Y43910003D01*
X-274236Y43944824D01*
X-578496Y44067950D01*
X-1646447Y43000000D01*
X-1750000Y43000000D01*
X-1750000Y43603553D01*
X-932050Y44421504D01*
X-1044750Y44700000D01*
X3750000Y44700000D01*
X3750000Y39740749D01*
X3750000Y39740749D01*
G37*
X3750000Y39740749D02*
X3706137Y39897239D01*
X3419981Y40008152D01*
X3117685Y40061108D01*
X2810867Y40054071D01*
X2511317Y39987311D01*
X2293863Y39897239D01*
X2219964Y39633589D01*
X3000000Y38853553D01*
X3014143Y38867696D01*
X3131838Y38750000D01*
X2396447Y38750000D01*
X1866411Y39280036D01*
X1602761Y39206137D01*
X1491848Y38919981D01*
X1462071Y38750000D01*
X1353462Y38750000D01*
X1202807Y39246646D01*
X882450Y39845991D01*
X451322Y40371322D01*
X-74009Y40802450D01*
X-673354Y41122807D01*
X-1099107Y41251957D01*
X-1089997Y41255624D01*
X-1055176Y41274236D01*
X-932050Y41578496D01*
X-1750000Y42396447D01*
X-1750000Y43000000D01*
X-1646447Y43000000D01*
X-578496Y41932050D01*
X-274236Y42055176D01*
X-123070Y42410010D01*
X-44034Y42787517D01*
X-40164Y43173190D01*
X-111609Y43552207D01*
X-255624Y43910003D01*
X-274236Y43944824D01*
X-578496Y44067950D01*
X-1646447Y43000000D01*
X-1750000Y43000000D01*
X-1750000Y43603553D01*
X-932050Y44421504D01*
X-1044750Y44700000D01*
X3750000Y44700000D01*
X3750000Y39740749D01*
M02*
