M48
; DRILL file {KiCad (5.1.2)-1} date 7/12/2019 8:41:14 PM
; FORMAT={-:-/ absolute / metric / decimal}
; #@! TF.CreationDate,2019-07-12T20:41:14-07:00
; #@! TF.GenerationSoftware,Kicad,Pcbnew,(5.1.2)-1
; #@! TF.FileFunction,Plated,1,4,PTH
FMAT,2
METRIC
T1C0.800
T2C0.850
T3C1.000
T4C1.200
T5C1.400
T6C2.000
T7C2.500
%
G90
G05
T1
X3.0Y38.5
X8.0Y38.5
X-35.0Y38.5
X-30.0Y38.5
X-35.0Y-38.5
X-30.0Y-38.5
X3.0Y-38.5
X8.0Y-38.5
T2
X-19.05Y21.32
X-19.05Y15.99
X-19.05Y10.66
X-19.05Y5.33
X-19.05Y0.0
X-19.05Y-5.33
X-19.05Y-10.66
X-19.05Y-15.99
X-19.05Y-23.86
X19.05Y21.32
X19.05Y15.99
X19.05Y10.66
X19.05Y5.33
X19.05Y0.0
X19.05Y-5.33
X19.05Y-10.66
X19.05Y-15.99
X19.05Y-21.32
T3
X-31.0Y8.0
X-31.0Y3.0
X9.56Y-44.0
X12.1Y-44.0
X14.64Y-44.0
X23.46Y-44.0
X26.0Y-44.0
X28.54Y-44.0
X9.56Y44.0
X12.1Y44.0
X14.64Y44.0
X23.46Y44.0
X26.0Y44.0
X28.54Y44.0
X-28.59Y44.0
X-26.05Y44.0
X-23.51Y44.0
X-14.59Y44.0
X-12.05Y44.0
X-9.51Y44.0
X-28.59Y-44.0
X-26.05Y-44.0
X-23.51Y-44.0
X-14.59Y-44.0
X-12.05Y-44.0
X-9.51Y-44.0
T4
X-2.0Y-37.92
X-2.0Y-43.0
X-62.5Y28.75
X-62.5Y21.25
X-43.5Y9.75
X-43.5Y2.25
X-62.522Y9.625
X-62.522Y2.125
X-43.5Y28.75
X-43.5Y21.25
X-42.08Y-43.5
X-37.0Y-43.5
X30.5Y-0.05
X45.5Y-0.05
X-2.0Y43.0
X-2.0Y37.92
X-42.08Y43.5
X-37.0Y43.5
T5
X31.0Y-22.5
X68.5Y-22.5
X31.0Y22.5
X68.5Y22.5
T6
X-53.0Y20.5
X-53.0Y10.5
T7
X57.0Y0.0
X67.5Y0.0
X-64.25Y-35.5
X-53.57Y-35.587
X-59.5Y-24.75
X-48.75Y-24.75
T0
M30
