G04 #@! TF.GenerationSoftware,KiCad,Pcbnew,(5.1.2)-1*
G04 #@! TF.CreationDate,2019-07-12T20:41:11-07:00*
G04 #@! TF.ProjectId,1000WConverter_r1_pwr,31303030-5743-46f6-9e76-65727465725f,rev?*
G04 #@! TF.SameCoordinates,Original*
G04 #@! TF.FileFunction,Legend,Bot*
G04 #@! TF.FilePolarity,Positive*
%FSLAX46Y46*%
G04 Gerber Fmt 4.6, Leading zero omitted, Abs format (unit mm)*
G04 Created by KiCad (PCBNEW (5.1.2)-1) date 2019-07-12 20:41:11*
%MOMM*%
%LPD*%
G04 APERTURE LIST*
%ADD10C,0.120000*%
%ADD11C,0.150000*%
%ADD12C,1.000000*%
G04 APERTURE END LIST*
D10*
X-2000000Y-40690000D02*
X-2000000Y-39420000D01*
X310000Y-43000000D02*
G75*
G03X310000Y-43000000I-2310000J0D01*
G01*
X310000Y43000000D02*
G75*
G03X310000Y43000000I-2310000J0D01*
G01*
X-2000000Y40690000D02*
X-2000000Y39420000D01*
D11*
X-27300000Y-35550000D02*
X27300000Y-35550000D01*
X-27300000Y35550000D02*
X-27300000Y-35550000D01*
X27300000Y35550000D02*
X-27300000Y35550000D01*
X27300000Y-35550000D02*
X27300000Y35550000D01*
X-14597473Y-23650000D02*
G75*
G03X-14597473Y-23650000I-4452527J0D01*
G01*
D10*
X47060000Y4010000D02*
X28940000Y4010000D01*
X47060000Y-4110000D02*
X28940000Y-4110000D01*
X47060000Y4010000D02*
X47060000Y-4110000D01*
X28940000Y4010000D02*
X28940000Y-4110000D01*
X28940000Y-40060000D02*
X70560000Y-40060000D01*
X28940000Y-4940000D02*
X70560000Y-4940000D01*
X28940000Y-40060000D02*
X28940000Y-4940000D01*
X70560000Y-40060000D02*
X70560000Y-4940000D01*
X28940000Y4940000D02*
X70560000Y4940000D01*
X28940000Y40060000D02*
X70560000Y40060000D01*
X28940000Y4940000D02*
X28940000Y40060000D01*
X70560000Y4940000D02*
X70560000Y40060000D01*
D12*
X53190000Y-3810000D02*
X53190000Y3810000D01*
X53190000Y3810000D02*
X60810000Y3810000D01*
X60810000Y3810000D02*
X60810000Y-3810000D01*
X60810000Y-3810000D02*
X53190000Y-3810000D01*
X63690000Y-3810000D02*
X63690000Y3810000D01*
X63690000Y3810000D02*
X71310000Y3810000D01*
X71310000Y3810000D02*
X71310000Y-3810000D01*
X71310000Y-3810000D02*
X63690000Y-3810000D01*
D10*
X-59400000Y-9300000D02*
X-61700000Y-9300000D01*
X-61700000Y-9300000D02*
X-61700000Y-16700000D01*
X-61700000Y-16700000D02*
X-59400000Y-16700000D01*
X-56600000Y-16700000D02*
X-54300000Y-16700000D01*
X-54300000Y-16700000D02*
X-54300000Y-9300000D01*
X-54300000Y-9300000D02*
X-56600000Y-9300000D01*
X-51500000Y6800000D02*
X-54500000Y6800000D01*
X-53000000Y5300000D02*
X-53000000Y8300000D01*
X-52013000Y33060000D02*
X-53987000Y33060000D01*
X-51472000Y33020000D02*
X-54528000Y33020000D01*
X-51075000Y32980000D02*
X-54925000Y32980000D01*
X-50747000Y32940000D02*
X-55253000Y32940000D01*
X-50461000Y32900000D02*
X-55539000Y32900000D01*
X-50204000Y32860000D02*
X-55796000Y32860000D01*
X-49969000Y32820000D02*
X-56031000Y32820000D01*
X-49752000Y32780000D02*
X-56248000Y32780000D01*
X-49548000Y32740000D02*
X-56452000Y32740000D01*
X-49356000Y32700000D02*
X-56644000Y32700000D01*
X-49174000Y32660000D02*
X-56826000Y32660000D01*
X-49000000Y32620000D02*
X-57000000Y32620000D01*
X-48835000Y32580000D02*
X-57165000Y32580000D01*
X-48675000Y32540000D02*
X-57325000Y32540000D01*
X-48522000Y32500000D02*
X-57478000Y32500000D01*
X-48374000Y32460000D02*
X-57626000Y32460000D01*
X-48231000Y32420000D02*
X-57769000Y32420000D01*
X-48092000Y32380000D02*
X-57908000Y32380000D01*
X-47958000Y32340000D02*
X-58042000Y32340000D01*
X-47827000Y32300000D02*
X-58173000Y32300000D01*
X-47700000Y32260000D02*
X-58300000Y32260000D01*
X-47576000Y32220000D02*
X-58424000Y32220000D01*
X-47455000Y32180000D02*
X-58545000Y32180000D01*
X-47337000Y32140000D02*
X-58663000Y32140000D01*
X-47222000Y32100000D02*
X-58778000Y32100000D01*
X-47109000Y32060000D02*
X-58891000Y32060000D01*
X-46998000Y32020000D02*
X-59002000Y32020000D01*
X-46890000Y31980000D02*
X-59110000Y31980000D01*
X-46784000Y31940000D02*
X-59216000Y31940000D01*
X-46680000Y31900000D02*
X-59320000Y31900000D01*
X-46577000Y31860000D02*
X-59423000Y31860000D01*
X-46477000Y31820000D02*
X-59523000Y31820000D01*
X-46378000Y31780000D02*
X-59622000Y31780000D01*
X-46282000Y31740000D02*
X-59718000Y31740000D01*
X-46186000Y31700000D02*
X-59814000Y31700000D01*
X-46092000Y31660000D02*
X-59908000Y31660000D01*
X-46000000Y31620000D02*
X-60000000Y31620000D01*
X-45909000Y31580000D02*
X-60091000Y31580000D01*
X-45820000Y31540000D02*
X-60180000Y31540000D01*
X-45731000Y31500000D02*
X-60269000Y31500000D01*
X-45644000Y31460000D02*
X-60356000Y31460000D01*
X-45559000Y31420000D02*
X-60441000Y31420000D01*
X-45474000Y31380000D02*
X-60526000Y31380000D01*
X-45391000Y31340000D02*
X-60609000Y31340000D01*
X-45309000Y31300000D02*
X-60691000Y31300000D01*
X-45227000Y31260000D02*
X-60773000Y31260000D01*
X-45147000Y31220000D02*
X-60853000Y31220000D01*
X-45068000Y31180000D02*
X-60932000Y31180000D01*
X-44990000Y31140000D02*
X-61010000Y31140000D01*
X-44913000Y31100000D02*
X-61087000Y31100000D01*
X-44836000Y31060000D02*
X-61164000Y31060000D01*
X-44761000Y31020000D02*
X-61239000Y31020000D01*
X-44686000Y30980000D02*
X-61314000Y30980000D01*
X-44612000Y30940000D02*
X-61388000Y30940000D01*
X-44540000Y30900000D02*
X-61460000Y30900000D01*
X-44468000Y30860000D02*
X-61532000Y30860000D01*
X-44396000Y30820000D02*
X-61604000Y30820000D01*
X-44326000Y30780000D02*
X-61674000Y30780000D01*
X-44256000Y30740000D02*
X-61744000Y30740000D01*
X-44187000Y30700000D02*
X-61813000Y30700000D01*
X-44119000Y30660000D02*
X-61881000Y30660000D01*
X-44051000Y30620000D02*
X-61949000Y30620000D01*
X-43984000Y30580000D02*
X-62016000Y30580000D01*
X-43918000Y30540000D02*
X-62082000Y30540000D01*
X-43852000Y30500000D02*
X-62148000Y30500000D01*
X-43787000Y30460000D02*
X-62213000Y30460000D01*
X-43723000Y30420000D02*
X-62277000Y30420000D01*
X-43659000Y30380000D02*
X-62341000Y30380000D01*
X-43596000Y30340000D02*
X-62404000Y30340000D01*
X-43533000Y30300000D02*
X-62467000Y30300000D01*
X-43471000Y30260000D02*
X-62529000Y30260000D01*
X-43410000Y30220000D02*
X-62590000Y30220000D01*
X-43349000Y30180000D02*
X-62651000Y30180000D01*
X-43289000Y30140000D02*
X-62711000Y30140000D01*
X-43229000Y30100000D02*
X-62771000Y30100000D01*
X-43170000Y30060000D02*
X-62830000Y30060000D01*
X-43111000Y30020000D02*
X-62889000Y30020000D01*
X-43053000Y29980000D02*
X-62947000Y29980000D01*
X-42995000Y29940000D02*
X-63005000Y29940000D01*
X-42938000Y29900000D02*
X-63062000Y29900000D01*
X-42881000Y29860000D02*
X-63119000Y29860000D01*
X-42825000Y29820000D02*
X-63175000Y29820000D01*
X-42769000Y29780000D02*
X-63231000Y29780000D01*
X-42713000Y29740000D02*
X-63287000Y29740000D01*
X-42658000Y29700000D02*
X-63342000Y29700000D01*
X-42604000Y29660000D02*
X-63396000Y29660000D01*
X-42550000Y29620000D02*
X-63450000Y29620000D01*
X-42496000Y29580000D02*
X-63504000Y29580000D01*
X-42443000Y29540000D02*
X-63557000Y29540000D01*
X-42390000Y29500000D02*
X-63610000Y29500000D01*
X-42338000Y29460000D02*
X-63662000Y29460000D01*
X-42286000Y29420000D02*
X-63714000Y29420000D01*
X-42234000Y29380000D02*
X-63766000Y29380000D01*
X-42183000Y29340000D02*
X-63817000Y29340000D01*
X-42132000Y29300000D02*
X-63868000Y29300000D01*
X-42082000Y29260000D02*
X-63918000Y29260000D01*
X-42032000Y29220000D02*
X-63968000Y29220000D01*
X-41982000Y29180000D02*
X-64018000Y29180000D01*
X-41933000Y29140000D02*
X-64067000Y29140000D01*
X-41884000Y29100000D02*
X-64116000Y29100000D01*
X-41835000Y29060000D02*
X-64165000Y29060000D01*
X-41787000Y29020000D02*
X-64213000Y29020000D01*
X-41739000Y28980000D02*
X-64261000Y28980000D01*
X-41692000Y28940000D02*
X-64308000Y28940000D01*
X-41644000Y28900000D02*
X-64356000Y28900000D01*
X-41598000Y28860000D02*
X-64402000Y28860000D01*
X-41551000Y28820000D02*
X-64449000Y28820000D01*
X-41505000Y28780000D02*
X-64495000Y28780000D01*
X-41459000Y28740000D02*
X-64541000Y28740000D01*
X-41413000Y28700000D02*
X-64587000Y28700000D01*
X-41368000Y28660000D02*
X-64632000Y28660000D01*
X-41323000Y28620000D02*
X-64677000Y28620000D01*
X-41278000Y28580000D02*
X-64722000Y28580000D01*
X-41234000Y28540000D02*
X-64766000Y28540000D01*
X-41190000Y28500000D02*
X-64810000Y28500000D01*
X-41146000Y28460000D02*
X-64854000Y28460000D01*
X-41103000Y28420000D02*
X-64897000Y28420000D01*
X-41060000Y28380000D02*
X-64940000Y28380000D01*
X-41017000Y28340000D02*
X-64983000Y28340000D01*
X-40974000Y28300000D02*
X-65026000Y28300000D01*
X-40932000Y28260000D02*
X-65068000Y28260000D01*
X-40890000Y28220000D02*
X-65110000Y28220000D01*
X-40848000Y28180000D02*
X-65152000Y28180000D01*
X-40807000Y28140000D02*
X-65193000Y28140000D01*
X-40766000Y28100000D02*
X-65234000Y28100000D01*
X-40725000Y28060000D02*
X-65275000Y28060000D01*
X-40684000Y28020000D02*
X-65316000Y28020000D01*
X-40644000Y27980000D02*
X-65356000Y27980000D01*
X-40603000Y27940000D02*
X-65397000Y27940000D01*
X-40564000Y27900000D02*
X-65436000Y27900000D01*
X-40524000Y27860000D02*
X-65476000Y27860000D01*
X-40485000Y27820000D02*
X-65515000Y27820000D01*
X-40445000Y27780000D02*
X-65555000Y27780000D01*
X-40407000Y27740000D02*
X-65593000Y27740000D01*
X-40368000Y27700000D02*
X-65632000Y27700000D01*
X-40330000Y27660000D02*
X-65670000Y27660000D01*
X-40291000Y27620000D02*
X-65709000Y27620000D01*
X-40254000Y27580000D02*
X-65746000Y27580000D01*
X-40216000Y27540000D02*
X-65784000Y27540000D01*
X-40178000Y27500000D02*
X-65822000Y27500000D01*
X-40141000Y27460000D02*
X-65859000Y27460000D01*
X-40104000Y27420000D02*
X-65896000Y27420000D01*
X-40067000Y27380000D02*
X-65933000Y27380000D01*
X-40031000Y27340000D02*
X-65969000Y27340000D01*
X-39995000Y27300000D02*
X-66005000Y27300000D01*
X-39959000Y27260000D02*
X-66041000Y27260000D01*
X-39923000Y27220000D02*
X-66077000Y27220000D01*
X-39887000Y27180000D02*
X-66113000Y27180000D01*
X-39852000Y27140000D02*
X-66148000Y27140000D01*
X-39816000Y27100000D02*
X-66184000Y27100000D01*
X-39782000Y27060000D02*
X-66218000Y27060000D01*
X-39747000Y27020000D02*
X-66253000Y27020000D01*
X-39712000Y26980000D02*
X-66288000Y26980000D01*
X-39678000Y26940000D02*
X-66322000Y26940000D01*
X-39644000Y26900000D02*
X-66356000Y26900000D01*
X-39610000Y26860000D02*
X-66390000Y26860000D01*
X-39576000Y26820000D02*
X-66424000Y26820000D01*
X-39542000Y26780000D02*
X-66458000Y26780000D01*
X-39509000Y26740000D02*
X-66491000Y26740000D01*
X-39476000Y26700000D02*
X-66524000Y26700000D01*
X-39443000Y26660000D02*
X-66557000Y26660000D01*
X-39410000Y26620000D02*
X-66590000Y26620000D01*
X-39378000Y26580000D02*
X-66622000Y26580000D01*
X-39345000Y26540000D02*
X-66655000Y26540000D01*
X-39313000Y26500000D02*
X-66687000Y26500000D01*
X-39281000Y26460000D02*
X-66719000Y26460000D01*
X-39250000Y26420000D02*
X-66750000Y26420000D01*
X-39218000Y26380000D02*
X-66782000Y26380000D01*
X-39187000Y26340000D02*
X-66813000Y26340000D01*
X-39155000Y26300000D02*
X-66845000Y26300000D01*
X-39124000Y26260000D02*
X-66876000Y26260000D01*
X-39094000Y26220000D02*
X-66906000Y26220000D01*
X-39063000Y26180000D02*
X-66937000Y26180000D01*
X-39032000Y26140000D02*
X-66968000Y26140000D01*
X-39002000Y26100000D02*
X-66998000Y26100000D01*
X-38972000Y26060000D02*
X-67028000Y26060000D01*
X-38942000Y26020000D02*
X-67058000Y26020000D01*
X-38912000Y25980000D02*
X-67088000Y25980000D01*
X-38883000Y25940000D02*
X-67117000Y25940000D01*
X-38853000Y25900000D02*
X-67147000Y25900000D01*
X-38824000Y25860000D02*
X-67176000Y25860000D01*
X-38795000Y25820000D02*
X-67205000Y25820000D01*
X-38766000Y25780000D02*
X-67234000Y25780000D01*
X-38737000Y25740000D02*
X-67263000Y25740000D01*
X-38709000Y25700000D02*
X-67291000Y25700000D01*
X-38680000Y25660000D02*
X-67320000Y25660000D01*
X-38652000Y25620000D02*
X-67348000Y25620000D01*
X-38624000Y25580000D02*
X-67376000Y25580000D01*
X-38596000Y25540000D02*
X-67404000Y25540000D01*
X-38569000Y25500000D02*
X-67431000Y25500000D01*
X-38541000Y25460000D02*
X-67459000Y25460000D01*
X-38514000Y25420000D02*
X-67486000Y25420000D01*
X-38486000Y25380000D02*
X-67514000Y25380000D01*
X-38459000Y25340000D02*
X-67541000Y25340000D01*
X-38432000Y25300000D02*
X-67568000Y25300000D01*
X-38406000Y25260000D02*
X-67594000Y25260000D01*
X-38379000Y25220000D02*
X-67621000Y25220000D01*
X-38353000Y25180000D02*
X-67647000Y25180000D01*
X-38326000Y25140000D02*
X-67674000Y25140000D01*
X-38300000Y25100000D02*
X-67700000Y25100000D01*
X-38274000Y25060000D02*
X-67726000Y25060000D01*
X-38248000Y25020000D02*
X-67752000Y25020000D01*
X-38223000Y24980000D02*
X-67777000Y24980000D01*
X-38197000Y24940000D02*
X-67803000Y24940000D01*
X-38172000Y24900000D02*
X-67828000Y24900000D01*
X-38147000Y24860000D02*
X-67853000Y24860000D01*
X-38122000Y24820000D02*
X-67878000Y24820000D01*
X-38097000Y24780000D02*
X-67903000Y24780000D01*
X-38072000Y24740000D02*
X-67928000Y24740000D01*
X-38047000Y24700000D02*
X-67953000Y24700000D01*
X-38023000Y24660000D02*
X-67977000Y24660000D01*
X-37998000Y24620000D02*
X-68002000Y24620000D01*
X-37974000Y24580000D02*
X-68026000Y24580000D01*
X-37950000Y24540000D02*
X-68050000Y24540000D01*
X-37926000Y24500000D02*
X-68074000Y24500000D01*
X-37903000Y24460000D02*
X-68097000Y24460000D01*
X-37879000Y24420000D02*
X-68121000Y24420000D01*
X-37856000Y24380000D02*
X-68144000Y24380000D01*
X-37832000Y24340000D02*
X-68168000Y24340000D01*
X-37809000Y24300000D02*
X-68191000Y24300000D01*
X-37786000Y24260000D02*
X-68214000Y24260000D01*
X-37763000Y24220000D02*
X-68237000Y24220000D01*
X-37740000Y24180000D02*
X-68260000Y24180000D01*
X-37718000Y24140000D02*
X-68282000Y24140000D01*
X-37695000Y24100000D02*
X-68305000Y24100000D01*
X-37673000Y24060000D02*
X-68327000Y24060000D01*
X-37651000Y24020000D02*
X-68349000Y24020000D01*
X-37629000Y23980000D02*
X-68371000Y23980000D01*
X-37607000Y23940000D02*
X-68393000Y23940000D01*
X-37585000Y23900000D02*
X-68415000Y23900000D01*
X-37563000Y23860000D02*
X-68437000Y23860000D01*
X-37542000Y23820000D02*
X-68458000Y23820000D01*
X-37520000Y23780000D02*
X-68480000Y23780000D01*
X-37499000Y23740000D02*
X-68501000Y23740000D01*
X-37478000Y23700000D02*
X-68522000Y23700000D01*
X-37457000Y23661000D02*
X-68543000Y23661000D01*
X-37436000Y23621000D02*
X-68564000Y23621000D01*
X-37415000Y23581000D02*
X-68585000Y23581000D01*
X-37394000Y23541000D02*
X-68606000Y23541000D01*
X-37374000Y23501000D02*
X-68626000Y23501000D01*
X-37354000Y23461000D02*
X-68646000Y23461000D01*
X-37333000Y23421000D02*
X-68667000Y23421000D01*
X-37313000Y23381000D02*
X-68687000Y23381000D01*
X-37293000Y23341000D02*
X-68707000Y23341000D01*
X-37273000Y23301000D02*
X-68727000Y23301000D01*
X-37254000Y23261000D02*
X-68746000Y23261000D01*
X-37234000Y23221000D02*
X-68766000Y23221000D01*
X-37215000Y23181000D02*
X-68785000Y23181000D01*
X-37195000Y23141000D02*
X-68805000Y23141000D01*
X-37176000Y23101000D02*
X-68824000Y23101000D01*
X-37157000Y23061000D02*
X-68843000Y23061000D01*
X-37138000Y23021000D02*
X-68862000Y23021000D01*
X-37119000Y22981000D02*
X-68881000Y22981000D01*
X-37100000Y22941000D02*
X-68900000Y22941000D01*
X-37082000Y22901000D02*
X-68918000Y22901000D01*
X-37063000Y22861000D02*
X-68937000Y22861000D01*
X-37045000Y22821000D02*
X-68955000Y22821000D01*
X-37027000Y22781000D02*
X-68973000Y22781000D01*
X-37009000Y22741000D02*
X-68991000Y22741000D01*
X-36991000Y22701000D02*
X-69009000Y22701000D01*
X-55180000Y22661000D02*
X-69027000Y22661000D01*
X-36973000Y22661000D02*
X-50820000Y22661000D01*
X-55180000Y22621000D02*
X-69045000Y22621000D01*
X-36955000Y22621000D02*
X-50820000Y22621000D01*
X-55180000Y22581000D02*
X-69063000Y22581000D01*
X-36937000Y22581000D02*
X-50820000Y22581000D01*
X-55180000Y22541000D02*
X-69080000Y22541000D01*
X-36920000Y22541000D02*
X-50820000Y22541000D01*
X-55180000Y22501000D02*
X-69098000Y22501000D01*
X-36902000Y22501000D02*
X-50820000Y22501000D01*
X-55180000Y22461000D02*
X-69115000Y22461000D01*
X-36885000Y22461000D02*
X-50820000Y22461000D01*
X-55180000Y22421000D02*
X-69132000Y22421000D01*
X-36868000Y22421000D02*
X-50820000Y22421000D01*
X-55180000Y22381000D02*
X-69149000Y22381000D01*
X-36851000Y22381000D02*
X-50820000Y22381000D01*
X-55180000Y22341000D02*
X-69166000Y22341000D01*
X-36834000Y22341000D02*
X-50820000Y22341000D01*
X-55180000Y22301000D02*
X-69183000Y22301000D01*
X-36817000Y22301000D02*
X-50820000Y22301000D01*
X-55180000Y22261000D02*
X-69200000Y22261000D01*
X-36800000Y22261000D02*
X-50820000Y22261000D01*
X-55180000Y22221000D02*
X-69216000Y22221000D01*
X-36784000Y22221000D02*
X-50820000Y22221000D01*
X-55180000Y22181000D02*
X-69233000Y22181000D01*
X-36767000Y22181000D02*
X-50820000Y22181000D01*
X-55180000Y22141000D02*
X-69249000Y22141000D01*
X-36751000Y22141000D02*
X-50820000Y22141000D01*
X-55180000Y22101000D02*
X-69265000Y22101000D01*
X-36735000Y22101000D02*
X-50820000Y22101000D01*
X-55180000Y22061000D02*
X-69281000Y22061000D01*
X-36719000Y22061000D02*
X-50820000Y22061000D01*
X-55180000Y22021000D02*
X-69298000Y22021000D01*
X-36702000Y22021000D02*
X-50820000Y22021000D01*
X-55180000Y21981000D02*
X-69313000Y21981000D01*
X-36687000Y21981000D02*
X-50820000Y21981000D01*
X-55180000Y21941000D02*
X-69329000Y21941000D01*
X-36671000Y21941000D02*
X-50820000Y21941000D01*
X-55180000Y21901000D02*
X-69345000Y21901000D01*
X-36655000Y21901000D02*
X-50820000Y21901000D01*
X-55180000Y21861000D02*
X-69360000Y21861000D01*
X-36640000Y21861000D02*
X-50820000Y21861000D01*
X-55180000Y21821000D02*
X-69376000Y21821000D01*
X-36624000Y21821000D02*
X-50820000Y21821000D01*
X-55180000Y21781000D02*
X-69391000Y21781000D01*
X-36609000Y21781000D02*
X-50820000Y21781000D01*
X-55180000Y21741000D02*
X-69406000Y21741000D01*
X-36594000Y21741000D02*
X-50820000Y21741000D01*
X-55180000Y21701000D02*
X-69422000Y21701000D01*
X-36578000Y21701000D02*
X-50820000Y21701000D01*
X-55180000Y21661000D02*
X-69437000Y21661000D01*
X-36563000Y21661000D02*
X-50820000Y21661000D01*
X-55180000Y21621000D02*
X-69452000Y21621000D01*
X-36548000Y21621000D02*
X-50820000Y21621000D01*
X-55180000Y21581000D02*
X-69466000Y21581000D01*
X-36534000Y21581000D02*
X-50820000Y21581000D01*
X-55180000Y21541000D02*
X-69481000Y21541000D01*
X-36519000Y21541000D02*
X-50820000Y21541000D01*
X-55180000Y21501000D02*
X-69496000Y21501000D01*
X-36504000Y21501000D02*
X-50820000Y21501000D01*
X-55180000Y21461000D02*
X-69510000Y21461000D01*
X-36490000Y21461000D02*
X-50820000Y21461000D01*
X-55180000Y21421000D02*
X-69524000Y21421000D01*
X-36476000Y21421000D02*
X-50820000Y21421000D01*
X-55180000Y21381000D02*
X-69539000Y21381000D01*
X-36461000Y21381000D02*
X-50820000Y21381000D01*
X-55180000Y21341000D02*
X-69553000Y21341000D01*
X-36447000Y21341000D02*
X-50820000Y21341000D01*
X-55180000Y21301000D02*
X-69567000Y21301000D01*
X-36433000Y21301000D02*
X-50820000Y21301000D01*
X-55180000Y21261000D02*
X-69581000Y21261000D01*
X-36419000Y21261000D02*
X-50820000Y21261000D01*
X-55180000Y21221000D02*
X-69594000Y21221000D01*
X-36406000Y21221000D02*
X-50820000Y21221000D01*
X-55180000Y21181000D02*
X-69608000Y21181000D01*
X-36392000Y21181000D02*
X-50820000Y21181000D01*
X-55180000Y21141000D02*
X-69622000Y21141000D01*
X-36378000Y21141000D02*
X-50820000Y21141000D01*
X-55180000Y21101000D02*
X-69635000Y21101000D01*
X-36365000Y21101000D02*
X-50820000Y21101000D01*
X-55180000Y21061000D02*
X-69649000Y21061000D01*
X-36351000Y21061000D02*
X-50820000Y21061000D01*
X-55180000Y21021000D02*
X-69662000Y21021000D01*
X-36338000Y21021000D02*
X-50820000Y21021000D01*
X-55180000Y20981000D02*
X-69675000Y20981000D01*
X-36325000Y20981000D02*
X-50820000Y20981000D01*
X-55180000Y20941000D02*
X-69688000Y20941000D01*
X-36312000Y20941000D02*
X-50820000Y20941000D01*
X-55180000Y20901000D02*
X-69701000Y20901000D01*
X-36299000Y20901000D02*
X-50820000Y20901000D01*
X-55180000Y20861000D02*
X-69714000Y20861000D01*
X-36286000Y20861000D02*
X-50820000Y20861000D01*
X-55180000Y20821000D02*
X-69727000Y20821000D01*
X-36273000Y20821000D02*
X-50820000Y20821000D01*
X-55180000Y20781000D02*
X-69739000Y20781000D01*
X-36261000Y20781000D02*
X-50820000Y20781000D01*
X-55180000Y20741000D02*
X-69752000Y20741000D01*
X-36248000Y20741000D02*
X-50820000Y20741000D01*
X-55180000Y20701000D02*
X-69764000Y20701000D01*
X-36236000Y20701000D02*
X-50820000Y20701000D01*
X-55180000Y20661000D02*
X-69777000Y20661000D01*
X-36223000Y20661000D02*
X-50820000Y20661000D01*
X-55180000Y20621000D02*
X-69789000Y20621000D01*
X-36211000Y20621000D02*
X-50820000Y20621000D01*
X-55180000Y20581000D02*
X-69801000Y20581000D01*
X-36199000Y20581000D02*
X-50820000Y20581000D01*
X-55180000Y20541000D02*
X-69813000Y20541000D01*
X-36187000Y20541000D02*
X-50820000Y20541000D01*
X-55180000Y20501000D02*
X-69825000Y20501000D01*
X-36175000Y20501000D02*
X-50820000Y20501000D01*
X-55180000Y20461000D02*
X-69837000Y20461000D01*
X-36163000Y20461000D02*
X-50820000Y20461000D01*
X-55180000Y20421000D02*
X-69848000Y20421000D01*
X-36152000Y20421000D02*
X-50820000Y20421000D01*
X-55180000Y20381000D02*
X-69860000Y20381000D01*
X-36140000Y20381000D02*
X-50820000Y20381000D01*
X-55180000Y20341000D02*
X-69872000Y20341000D01*
X-36128000Y20341000D02*
X-50820000Y20341000D01*
X-55180000Y20301000D02*
X-69883000Y20301000D01*
X-36117000Y20301000D02*
X-50820000Y20301000D01*
X-55180000Y20261000D02*
X-69894000Y20261000D01*
X-36106000Y20261000D02*
X-50820000Y20261000D01*
X-55180000Y20221000D02*
X-69905000Y20221000D01*
X-36095000Y20221000D02*
X-50820000Y20221000D01*
X-55180000Y20181000D02*
X-69916000Y20181000D01*
X-36084000Y20181000D02*
X-50820000Y20181000D01*
X-55180000Y20141000D02*
X-69927000Y20141000D01*
X-36073000Y20141000D02*
X-50820000Y20141000D01*
X-55180000Y20101000D02*
X-69938000Y20101000D01*
X-36062000Y20101000D02*
X-50820000Y20101000D01*
X-55180000Y20061000D02*
X-69949000Y20061000D01*
X-36051000Y20061000D02*
X-50820000Y20061000D01*
X-55180000Y20021000D02*
X-69960000Y20021000D01*
X-36040000Y20021000D02*
X-50820000Y20021000D01*
X-55180000Y19981000D02*
X-69970000Y19981000D01*
X-36030000Y19981000D02*
X-50820000Y19981000D01*
X-55180000Y19941000D02*
X-69981000Y19941000D01*
X-36019000Y19941000D02*
X-50820000Y19941000D01*
X-55180000Y19901000D02*
X-69991000Y19901000D01*
X-36009000Y19901000D02*
X-50820000Y19901000D01*
X-55180000Y19861000D02*
X-70002000Y19861000D01*
X-35998000Y19861000D02*
X-50820000Y19861000D01*
X-55180000Y19821000D02*
X-70012000Y19821000D01*
X-35988000Y19821000D02*
X-50820000Y19821000D01*
X-55180000Y19781000D02*
X-70022000Y19781000D01*
X-35978000Y19781000D02*
X-50820000Y19781000D01*
X-55180000Y19741000D02*
X-70032000Y19741000D01*
X-35968000Y19741000D02*
X-50820000Y19741000D01*
X-55180000Y19701000D02*
X-70042000Y19701000D01*
X-35958000Y19701000D02*
X-50820000Y19701000D01*
X-55180000Y19661000D02*
X-70052000Y19661000D01*
X-35948000Y19661000D02*
X-50820000Y19661000D01*
X-55180000Y19621000D02*
X-70061000Y19621000D01*
X-35939000Y19621000D02*
X-50820000Y19621000D01*
X-55180000Y19581000D02*
X-70071000Y19581000D01*
X-35929000Y19581000D02*
X-50820000Y19581000D01*
X-55180000Y19541000D02*
X-70080000Y19541000D01*
X-35920000Y19541000D02*
X-50820000Y19541000D01*
X-55180000Y19501000D02*
X-70090000Y19501000D01*
X-35910000Y19501000D02*
X-50820000Y19501000D01*
X-55180000Y19461000D02*
X-70099000Y19461000D01*
X-35901000Y19461000D02*
X-50820000Y19461000D01*
X-55180000Y19421000D02*
X-70108000Y19421000D01*
X-35892000Y19421000D02*
X-50820000Y19421000D01*
X-55180000Y19381000D02*
X-70117000Y19381000D01*
X-35883000Y19381000D02*
X-50820000Y19381000D01*
X-55180000Y19341000D02*
X-70126000Y19341000D01*
X-35874000Y19341000D02*
X-50820000Y19341000D01*
X-55180000Y19301000D02*
X-70135000Y19301000D01*
X-35865000Y19301000D02*
X-50820000Y19301000D01*
X-55180000Y19261000D02*
X-70144000Y19261000D01*
X-35856000Y19261000D02*
X-50820000Y19261000D01*
X-55180000Y19221000D02*
X-70153000Y19221000D01*
X-35847000Y19221000D02*
X-50820000Y19221000D01*
X-55180000Y19181000D02*
X-70161000Y19181000D01*
X-35839000Y19181000D02*
X-50820000Y19181000D01*
X-55180000Y19141000D02*
X-70170000Y19141000D01*
X-35830000Y19141000D02*
X-50820000Y19141000D01*
X-55180000Y19101000D02*
X-70178000Y19101000D01*
X-35822000Y19101000D02*
X-50820000Y19101000D01*
X-55180000Y19061000D02*
X-70186000Y19061000D01*
X-35814000Y19061000D02*
X-50820000Y19061000D01*
X-55180000Y19021000D02*
X-70195000Y19021000D01*
X-35805000Y19021000D02*
X-50820000Y19021000D01*
X-55180000Y18981000D02*
X-70203000Y18981000D01*
X-35797000Y18981000D02*
X-50820000Y18981000D01*
X-55180000Y18941000D02*
X-70211000Y18941000D01*
X-35789000Y18941000D02*
X-50820000Y18941000D01*
X-55180000Y18901000D02*
X-70219000Y18901000D01*
X-35781000Y18901000D02*
X-50820000Y18901000D01*
X-55180000Y18861000D02*
X-70227000Y18861000D01*
X-35773000Y18861000D02*
X-50820000Y18861000D01*
X-55180000Y18821000D02*
X-70234000Y18821000D01*
X-35766000Y18821000D02*
X-50820000Y18821000D01*
X-55180000Y18781000D02*
X-70242000Y18781000D01*
X-35758000Y18781000D02*
X-50820000Y18781000D01*
X-55180000Y18741000D02*
X-70250000Y18741000D01*
X-35750000Y18741000D02*
X-50820000Y18741000D01*
X-55180000Y18701000D02*
X-70257000Y18701000D01*
X-35743000Y18701000D02*
X-50820000Y18701000D01*
X-55180000Y18661000D02*
X-70264000Y18661000D01*
X-35736000Y18661000D02*
X-50820000Y18661000D01*
X-55180000Y18621000D02*
X-70272000Y18621000D01*
X-35728000Y18621000D02*
X-50820000Y18621000D01*
X-55180000Y18581000D02*
X-70279000Y18581000D01*
X-35721000Y18581000D02*
X-50820000Y18581000D01*
X-55180000Y18541000D02*
X-70286000Y18541000D01*
X-35714000Y18541000D02*
X-50820000Y18541000D01*
X-55180000Y18501000D02*
X-70293000Y18501000D01*
X-35707000Y18501000D02*
X-50820000Y18501000D01*
X-55180000Y18461000D02*
X-70300000Y18461000D01*
X-35700000Y18461000D02*
X-50820000Y18461000D01*
X-55180000Y18421000D02*
X-70306000Y18421000D01*
X-35694000Y18421000D02*
X-50820000Y18421000D01*
X-55180000Y18381000D02*
X-70313000Y18381000D01*
X-35687000Y18381000D02*
X-50820000Y18381000D01*
X-55180000Y18341000D02*
X-70320000Y18341000D01*
X-35680000Y18341000D02*
X-50820000Y18341000D01*
X-35674000Y18301000D02*
X-70326000Y18301000D01*
X-35667000Y18261000D02*
X-70333000Y18261000D01*
X-35661000Y18221000D02*
X-70339000Y18221000D01*
X-35655000Y18181000D02*
X-70345000Y18181000D01*
X-35649000Y18141000D02*
X-70351000Y18141000D01*
X-35643000Y18101000D02*
X-70357000Y18101000D01*
X-35637000Y18061000D02*
X-70363000Y18061000D01*
X-35631000Y18021000D02*
X-70369000Y18021000D01*
X-35625000Y17981000D02*
X-70375000Y17981000D01*
X-35620000Y17941000D02*
X-70380000Y17941000D01*
X-35614000Y17901000D02*
X-70386000Y17901000D01*
X-35609000Y17861000D02*
X-70391000Y17861000D01*
X-35603000Y17821000D02*
X-70397000Y17821000D01*
X-35598000Y17781000D02*
X-70402000Y17781000D01*
X-35593000Y17741000D02*
X-70407000Y17741000D01*
X-35588000Y17701000D02*
X-70412000Y17701000D01*
X-35583000Y17661000D02*
X-70417000Y17661000D01*
X-35578000Y17621000D02*
X-70422000Y17621000D01*
X-35573000Y17581000D02*
X-70427000Y17581000D01*
X-35568000Y17541000D02*
X-70432000Y17541000D01*
X-35564000Y17501000D02*
X-70436000Y17501000D01*
X-35559000Y17461000D02*
X-70441000Y17461000D01*
X-35555000Y17421000D02*
X-70445000Y17421000D01*
X-35550000Y17381000D02*
X-70450000Y17381000D01*
X-35546000Y17341000D02*
X-70454000Y17341000D01*
X-35542000Y17301000D02*
X-70458000Y17301000D01*
X-35538000Y17261000D02*
X-70462000Y17261000D01*
X-35534000Y17221000D02*
X-70466000Y17221000D01*
X-35530000Y17181000D02*
X-70470000Y17181000D01*
X-35526000Y17141000D02*
X-70474000Y17141000D01*
X-35522000Y17101000D02*
X-70478000Y17101000D01*
X-35519000Y17061000D02*
X-70481000Y17061000D01*
X-35515000Y17021000D02*
X-70485000Y17021000D01*
X-35512000Y16981000D02*
X-70488000Y16981000D01*
X-35509000Y16941000D02*
X-70491000Y16941000D01*
X-35505000Y16901000D02*
X-70495000Y16901000D01*
X-35502000Y16861000D02*
X-70498000Y16861000D01*
X-35499000Y16821000D02*
X-70501000Y16821000D01*
X-35496000Y16781000D02*
X-70504000Y16781000D01*
X-35493000Y16741000D02*
X-70507000Y16741000D01*
X-35490000Y16701000D02*
X-70510000Y16701000D01*
X-35488000Y16661000D02*
X-70512000Y16661000D01*
X-35485000Y16621000D02*
X-70515000Y16621000D01*
X-35483000Y16581000D02*
X-70517000Y16581000D01*
X-35480000Y16541000D02*
X-70520000Y16541000D01*
X-35478000Y16501000D02*
X-70522000Y16501000D01*
X-35476000Y16461000D02*
X-70524000Y16461000D01*
X-35474000Y16421000D02*
X-70526000Y16421000D01*
X-35472000Y16381000D02*
X-70528000Y16381000D01*
X-35470000Y16341000D02*
X-70530000Y16341000D01*
X-35468000Y16301000D02*
X-70532000Y16301000D01*
X-35466000Y16261000D02*
X-70534000Y16261000D01*
X-35464000Y16221000D02*
X-70536000Y16221000D01*
X-35463000Y16180000D02*
X-70537000Y16180000D01*
X-35461000Y16140000D02*
X-70539000Y16140000D01*
X-35460000Y16100000D02*
X-70540000Y16100000D01*
X-35458000Y16060000D02*
X-70542000Y16060000D01*
X-35457000Y16020000D02*
X-70543000Y16020000D01*
X-35456000Y15980000D02*
X-70544000Y15980000D01*
X-35455000Y15940000D02*
X-70545000Y15940000D01*
X-35454000Y15900000D02*
X-70546000Y15900000D01*
X-35453000Y15860000D02*
X-70547000Y15860000D01*
X-35452000Y15820000D02*
X-70548000Y15820000D01*
X-35452000Y15780000D02*
X-70548000Y15780000D01*
X-35451000Y15740000D02*
X-70549000Y15740000D01*
X-35451000Y15700000D02*
X-70549000Y15700000D01*
X-35450000Y15660000D02*
X-70550000Y15660000D01*
X-35450000Y15620000D02*
X-70550000Y15620000D01*
X-35450000Y15580000D02*
X-70550000Y15580000D01*
X-35450000Y15540000D02*
X-70550000Y15540000D01*
X-35450000Y15500000D02*
X-70550000Y15500000D01*
X-35410000Y15500000D02*
G75*
G03X-35410000Y15500000I-17590000J0D01*
G01*
X-44300000Y-9300000D02*
X-46600000Y-9300000D01*
X-44300000Y-16700000D02*
X-44300000Y-9300000D01*
X-46600000Y-16700000D02*
X-44300000Y-16700000D01*
X-51700000Y-16700000D02*
X-49400000Y-16700000D01*
X-51700000Y-9300000D02*
X-51700000Y-16700000D01*
X-49400000Y-9300000D02*
X-51700000Y-9300000D01*
X-28940000Y39810000D02*
X-36060000Y39810000D01*
X-28940000Y37190000D02*
X-36060000Y37190000D01*
X-28940000Y39810000D02*
X-28940000Y37190000D01*
X-36060000Y39810000D02*
X-36060000Y37190000D01*
X-36060000Y-37190000D02*
X-36060000Y-39810000D01*
X-28940000Y-37190000D02*
X-28940000Y-39810000D01*
X-28940000Y-39810000D02*
X-36060000Y-39810000D01*
X-28940000Y-37190000D02*
X-36060000Y-37190000D01*
X9060000Y39810000D02*
X1940000Y39810000D01*
X9060000Y37190000D02*
X1940000Y37190000D01*
X9060000Y39810000D02*
X9060000Y37190000D01*
X1940000Y39810000D02*
X1940000Y37190000D01*
X1940000Y-37190000D02*
X1940000Y-39810000D01*
X9060000Y-37190000D02*
X9060000Y-39810000D01*
X9060000Y-39810000D02*
X1940000Y-39810000D01*
X9060000Y-37190000D02*
X1940000Y-37190000D01*
X-39310000Y-43500000D02*
X-40580000Y-43500000D01*
X-34690000Y-43500000D02*
G75*
G03X-34690000Y-43500000I-2310000J0D01*
G01*
X-39310000Y43500000D02*
X-40580000Y43500000D01*
X-34690000Y43500000D02*
G75*
G03X-34690000Y43500000I-2310000J0D01*
G01*
D12*
X-68060000Y-39310000D02*
X-68060000Y-31690000D01*
X-68060000Y-31690000D02*
X-60440000Y-31690000D01*
X-60440000Y-31690000D02*
X-60440000Y-39310000D01*
X-60440000Y-39310000D02*
X-68060000Y-39310000D01*
X-55690000Y-28560000D02*
X-63310000Y-28560000D01*
X-55690000Y-20940000D02*
X-55690000Y-28560000D01*
X-63310000Y-20940000D02*
X-55690000Y-20940000D01*
X-63310000Y-28560000D02*
X-63310000Y-20940000D01*
X-57379998Y-39397499D02*
X-57379998Y-31777499D01*
X-57379998Y-31777499D02*
X-49759998Y-31777499D01*
X-49759998Y-31777499D02*
X-49759998Y-39397499D01*
X-49759998Y-39397499D02*
X-57379998Y-39397499D01*
X-44940000Y-28560000D02*
X-52560000Y-28560000D01*
X-44940000Y-20940000D02*
X-44940000Y-28560000D01*
X-52560000Y-20940000D02*
X-44940000Y-20940000D01*
X-52560000Y-28560000D02*
X-52560000Y-20940000D01*
D11*
X1762380Y-40293333D02*
X1286190Y-39960000D01*
X1762380Y-39721904D02*
X762380Y-39721904D01*
X762380Y-40102857D01*
X810000Y-40198095D01*
X857619Y-40245714D01*
X952857Y-40293333D01*
X1095714Y-40293333D01*
X1190952Y-40245714D01*
X1238571Y-40198095D01*
X1286190Y-40102857D01*
X1286190Y-39721904D01*
X1095714Y-41150476D02*
X1762380Y-41150476D01*
X714761Y-40912380D02*
X1429047Y-40674285D01*
X1429047Y-41293333D01*
X-4857619Y40626666D02*
X-5333809Y40960000D01*
X-4857619Y41198095D02*
X-5857619Y41198095D01*
X-5857619Y40817142D01*
X-5810000Y40721904D01*
X-5762380Y40674285D01*
X-5667142Y40626666D01*
X-5524285Y40626666D01*
X-5429047Y40674285D01*
X-5381428Y40721904D01*
X-5333809Y40817142D01*
X-5333809Y41198095D01*
X-5857619Y40293333D02*
X-5857619Y39674285D01*
X-5476666Y40007619D01*
X-5476666Y39864761D01*
X-5429047Y39769523D01*
X-5381428Y39721904D01*
X-5286190Y39674285D01*
X-5048095Y39674285D01*
X-4952857Y39721904D01*
X-4905238Y39769523D01*
X-4857619Y39864761D01*
X-4857619Y40150476D01*
X-4905238Y40245714D01*
X-4952857Y40293333D01*
X761904Y-17380D02*
X190476Y-17380D01*
X476190Y-1017380D02*
X476190Y-17380D01*
X-666666Y-1017380D02*
X-95238Y-1017380D01*
X-380952Y-1017380D02*
X-380952Y-17380D01*
X-285714Y-160238D01*
X-190476Y-255476D01*
X-95238Y-303095D01*
X1404761Y-15517380D02*
X1976190Y-15517380D01*
X1690476Y-15517380D02*
X1690476Y-14517380D01*
X1785714Y-14660238D01*
X1880952Y-14755476D01*
X1976190Y-14803095D01*
X976190Y-15422142D02*
X928571Y-15469761D01*
X976190Y-15517380D01*
X1023809Y-15469761D01*
X976190Y-15422142D01*
X976190Y-15517380D01*
X976190Y-14898333D02*
X928571Y-14945952D01*
X976190Y-14993571D01*
X1023809Y-14945952D01*
X976190Y-14898333D01*
X976190Y-14993571D01*
X-23809Y-15517380D02*
X547619Y-15517380D01*
X261904Y-15517380D02*
X261904Y-14517380D01*
X357142Y-14660238D01*
X452380Y-14755476D01*
X547619Y-14803095D01*
X-357142Y-14517380D02*
X-1023809Y-14517380D01*
X-595238Y-15517380D01*
X1404761Y-15517380D02*
X1976190Y-15517380D01*
X1690476Y-15517380D02*
X1690476Y-14517380D01*
X1785714Y-14660238D01*
X1880952Y-14755476D01*
X1976190Y-14803095D01*
X976190Y-15422142D02*
X928571Y-15469761D01*
X976190Y-15517380D01*
X1023809Y-15469761D01*
X976190Y-15422142D01*
X976190Y-15517380D01*
X976190Y-14898333D02*
X928571Y-14945952D01*
X976190Y-14993571D01*
X1023809Y-14945952D01*
X976190Y-14898333D01*
X976190Y-14993571D01*
X-23809Y-15517380D02*
X547619Y-15517380D01*
X261904Y-15517380D02*
X261904Y-14517380D01*
X357142Y-14660238D01*
X452380Y-14755476D01*
X547619Y-14803095D01*
X-357142Y-14517380D02*
X-1023809Y-14517380D01*
X-595238Y-15517380D01*
X38619047Y4902857D02*
X38666666Y4855238D01*
X38809523Y4807619D01*
X38904761Y4807619D01*
X39047619Y4855238D01*
X39142857Y4950476D01*
X39190476Y5045714D01*
X39238095Y5236190D01*
X39238095Y5379047D01*
X39190476Y5569523D01*
X39142857Y5664761D01*
X39047619Y5760000D01*
X38904761Y5807619D01*
X38809523Y5807619D01*
X38666666Y5760000D01*
X38619047Y5712380D01*
X38047619Y4807619D02*
X38142857Y4855238D01*
X38190476Y4902857D01*
X38238095Y4998095D01*
X38238095Y5283809D01*
X38190476Y5379047D01*
X38142857Y5426666D01*
X38047619Y5474285D01*
X37904761Y5474285D01*
X37809523Y5426666D01*
X37761904Y5379047D01*
X37714285Y5283809D01*
X37714285Y4998095D01*
X37761904Y4902857D01*
X37809523Y4855238D01*
X37904761Y4807619D01*
X38047619Y4807619D01*
X36761904Y4807619D02*
X37333333Y4807619D01*
X37047619Y4807619D02*
X37047619Y5807619D01*
X37142857Y5664761D01*
X37238095Y5569523D01*
X37333333Y5521904D01*
X50369047Y-41667142D02*
X50416666Y-41714761D01*
X50559523Y-41762380D01*
X50654761Y-41762380D01*
X50797619Y-41714761D01*
X50892857Y-41619523D01*
X50940476Y-41524285D01*
X50988095Y-41333809D01*
X50988095Y-41190952D01*
X50940476Y-41000476D01*
X50892857Y-40905238D01*
X50797619Y-40810000D01*
X50654761Y-40762380D01*
X50559523Y-40762380D01*
X50416666Y-40810000D01*
X50369047Y-40857619D01*
X49797619Y-41762380D02*
X49892857Y-41714761D01*
X49940476Y-41667142D01*
X49988095Y-41571904D01*
X49988095Y-41286190D01*
X49940476Y-41190952D01*
X49892857Y-41143333D01*
X49797619Y-41095714D01*
X49654761Y-41095714D01*
X49559523Y-41143333D01*
X49511904Y-41190952D01*
X49464285Y-41286190D01*
X49464285Y-41571904D01*
X49511904Y-41667142D01*
X49559523Y-41714761D01*
X49654761Y-41762380D01*
X49797619Y-41762380D01*
X49083333Y-40857619D02*
X49035714Y-40810000D01*
X48940476Y-40762380D01*
X48702380Y-40762380D01*
X48607142Y-40810000D01*
X48559523Y-40857619D01*
X48511904Y-40952857D01*
X48511904Y-41048095D01*
X48559523Y-41190952D01*
X49130952Y-41762380D01*
X48511904Y-41762380D01*
X50369047Y3332857D02*
X50416666Y3285238D01*
X50559523Y3237619D01*
X50654761Y3237619D01*
X50797619Y3285238D01*
X50892857Y3380476D01*
X50940476Y3475714D01*
X50988095Y3666190D01*
X50988095Y3809047D01*
X50940476Y3999523D01*
X50892857Y4094761D01*
X50797619Y4190000D01*
X50654761Y4237619D01*
X50559523Y4237619D01*
X50416666Y4190000D01*
X50369047Y4142380D01*
X49797619Y3237619D02*
X49892857Y3285238D01*
X49940476Y3332857D01*
X49988095Y3428095D01*
X49988095Y3713809D01*
X49940476Y3809047D01*
X49892857Y3856666D01*
X49797619Y3904285D01*
X49654761Y3904285D01*
X49559523Y3856666D01*
X49511904Y3809047D01*
X49464285Y3713809D01*
X49464285Y3428095D01*
X49511904Y3332857D01*
X49559523Y3285238D01*
X49654761Y3237619D01*
X49797619Y3237619D01*
X48607142Y3904285D02*
X48607142Y3237619D01*
X48845238Y4285238D02*
X49083333Y3570952D01*
X48464285Y3570952D01*
X58190476Y-452380D02*
X58190476Y547619D01*
X57809523Y547619D01*
X57714285Y500000D01*
X57666666Y452380D01*
X57619047Y357142D01*
X57619047Y214285D01*
X57666666Y119047D01*
X57714285Y71428D01*
X57809523Y23809D01*
X58190476Y23809D01*
X57047619Y-452380D02*
X57142857Y-404761D01*
X57190476Y-357142D01*
X57238095Y-261904D01*
X57238095Y23809D01*
X57190476Y119047D01*
X57142857Y166666D01*
X57047619Y214285D01*
X56904761Y214285D01*
X56809523Y166666D01*
X56761904Y119047D01*
X56714285Y23809D01*
X56714285Y-261904D01*
X56761904Y-357142D01*
X56809523Y-404761D01*
X56904761Y-452380D01*
X57047619Y-452380D01*
X55761904Y-452380D02*
X56333333Y-452380D01*
X56047619Y-452380D02*
X56047619Y547619D01*
X56142857Y404761D01*
X56238095Y309523D01*
X56333333Y261904D01*
X68690476Y-452380D02*
X68690476Y547619D01*
X68309523Y547619D01*
X68214285Y500000D01*
X68166666Y452380D01*
X68119047Y357142D01*
X68119047Y214285D01*
X68166666Y119047D01*
X68214285Y71428D01*
X68309523Y23809D01*
X68690476Y23809D01*
X67547619Y-452380D02*
X67642857Y-404761D01*
X67690476Y-357142D01*
X67738095Y-261904D01*
X67738095Y23809D01*
X67690476Y119047D01*
X67642857Y166666D01*
X67547619Y214285D01*
X67404761Y214285D01*
X67309523Y166666D01*
X67261904Y119047D01*
X67214285Y23809D01*
X67214285Y-261904D01*
X67261904Y-357142D01*
X67309523Y-404761D01*
X67404761Y-452380D01*
X67547619Y-452380D01*
X66833333Y452380D02*
X66785714Y500000D01*
X66690476Y547619D01*
X66452380Y547619D01*
X66357142Y500000D01*
X66309523Y452380D01*
X66261904Y357142D01*
X66261904Y261904D01*
X66309523Y119047D01*
X66880952Y-452380D01*
X66261904Y-452380D01*
X-53097619Y-12833333D02*
X-53097619Y-12357142D01*
X-54097619Y-12357142D01*
X-53097619Y-13690476D02*
X-53097619Y-13119047D01*
X-53097619Y-13404761D02*
X-54097619Y-13404761D01*
X-53954761Y-13309523D01*
X-53859523Y-13214285D01*
X-53811904Y-13119047D01*
X-33832857Y15666666D02*
X-33785238Y15714285D01*
X-33737619Y15857142D01*
X-33737619Y15952380D01*
X-33785238Y16095238D01*
X-33880476Y16190476D01*
X-33975714Y16238095D01*
X-34166190Y16285714D01*
X-34309047Y16285714D01*
X-34499523Y16238095D01*
X-34594761Y16190476D01*
X-34690000Y16095238D01*
X-34737619Y15952380D01*
X-34737619Y15857142D01*
X-34690000Y15714285D01*
X-34642380Y15666666D01*
X-33737619Y14714285D02*
X-33737619Y15285714D01*
X-33737619Y15000000D02*
X-34737619Y15000000D01*
X-34594761Y15095238D01*
X-34499523Y15190476D01*
X-34451904Y15285714D01*
X-43097619Y-12833333D02*
X-43097619Y-12357142D01*
X-44097619Y-12357142D01*
X-44002380Y-13119047D02*
X-44050000Y-13166666D01*
X-44097619Y-13261904D01*
X-44097619Y-13500000D01*
X-44050000Y-13595238D01*
X-44002380Y-13642857D01*
X-43907142Y-13690476D01*
X-43811904Y-13690476D01*
X-43669047Y-13642857D01*
X-43097619Y-13071428D01*
X-43097619Y-13690476D01*
X-32333333Y40702857D02*
X-32285714Y40655238D01*
X-32142857Y40607619D01*
X-32047619Y40607619D01*
X-31904761Y40655238D01*
X-31809523Y40750476D01*
X-31761904Y40845714D01*
X-31714285Y41036190D01*
X-31714285Y41179047D01*
X-31761904Y41369523D01*
X-31809523Y41464761D01*
X-31904761Y41560000D01*
X-32047619Y41607619D01*
X-32142857Y41607619D01*
X-32285714Y41560000D01*
X-32333333Y41512380D01*
X-32666666Y41607619D02*
X-33285714Y41607619D01*
X-32952380Y41226666D01*
X-33095238Y41226666D01*
X-33190476Y41179047D01*
X-33238095Y41131428D01*
X-33285714Y41036190D01*
X-33285714Y40798095D01*
X-33238095Y40702857D01*
X-33190476Y40655238D01*
X-33095238Y40607619D01*
X-32809523Y40607619D01*
X-32714285Y40655238D01*
X-32666666Y40702857D01*
X-32333333Y-36297142D02*
X-32285714Y-36344761D01*
X-32142857Y-36392380D01*
X-32047619Y-36392380D01*
X-31904761Y-36344761D01*
X-31809523Y-36249523D01*
X-31761904Y-36154285D01*
X-31714285Y-35963809D01*
X-31714285Y-35820952D01*
X-31761904Y-35630476D01*
X-31809523Y-35535238D01*
X-31904761Y-35440000D01*
X-32047619Y-35392380D01*
X-32142857Y-35392380D01*
X-32285714Y-35440000D01*
X-32333333Y-35487619D01*
X-33190476Y-35725714D02*
X-33190476Y-36392380D01*
X-32952380Y-35344761D02*
X-32714285Y-36059047D01*
X-33333333Y-36059047D01*
X5666666Y40702857D02*
X5714285Y40655238D01*
X5857142Y40607619D01*
X5952380Y40607619D01*
X6095238Y40655238D01*
X6190476Y40750476D01*
X6238095Y40845714D01*
X6285714Y41036190D01*
X6285714Y41179047D01*
X6238095Y41369523D01*
X6190476Y41464761D01*
X6095238Y41560000D01*
X5952380Y41607619D01*
X5857142Y41607619D01*
X5714285Y41560000D01*
X5666666Y41512380D01*
X4761904Y41607619D02*
X5238095Y41607619D01*
X5285714Y41131428D01*
X5238095Y41179047D01*
X5142857Y41226666D01*
X4904761Y41226666D01*
X4809523Y41179047D01*
X4761904Y41131428D01*
X4714285Y41036190D01*
X4714285Y40798095D01*
X4761904Y40702857D01*
X4809523Y40655238D01*
X4904761Y40607619D01*
X5142857Y40607619D01*
X5238095Y40655238D01*
X5285714Y40702857D01*
X5666666Y-36297142D02*
X5714285Y-36344761D01*
X5857142Y-36392380D01*
X5952380Y-36392380D01*
X6095238Y-36344761D01*
X6190476Y-36249523D01*
X6238095Y-36154285D01*
X6285714Y-35963809D01*
X6285714Y-35820952D01*
X6238095Y-35630476D01*
X6190476Y-35535238D01*
X6095238Y-35440000D01*
X5952380Y-35392380D01*
X5857142Y-35392380D01*
X5714285Y-35440000D01*
X5666666Y-35487619D01*
X4809523Y-35392380D02*
X5000000Y-35392380D01*
X5095238Y-35440000D01*
X5142857Y-35487619D01*
X5238095Y-35630476D01*
X5285714Y-35820952D01*
X5285714Y-36201904D01*
X5238095Y-36297142D01*
X5190476Y-36344761D01*
X5095238Y-36392380D01*
X4904761Y-36392380D01*
X4809523Y-36344761D01*
X4761904Y-36297142D01*
X4714285Y-36201904D01*
X4714285Y-35963809D01*
X4761904Y-35868571D01*
X4809523Y-35820952D01*
X4904761Y-35773333D01*
X5095238Y-35773333D01*
X5190476Y-35820952D01*
X5238095Y-35868571D01*
X5285714Y-35963809D01*
X-39373333Y-40642380D02*
X-39040000Y-40166190D01*
X-38801904Y-40642380D02*
X-38801904Y-39642380D01*
X-39182857Y-39642380D01*
X-39278095Y-39690000D01*
X-39325714Y-39737619D01*
X-39373333Y-39832857D01*
X-39373333Y-39975714D01*
X-39325714Y-40070952D01*
X-39278095Y-40118571D01*
X-39182857Y-40166190D01*
X-38801904Y-40166190D01*
X-39754285Y-39737619D02*
X-39801904Y-39690000D01*
X-39897142Y-39642380D01*
X-40135238Y-39642380D01*
X-40230476Y-39690000D01*
X-40278095Y-39737619D01*
X-40325714Y-39832857D01*
X-40325714Y-39928095D01*
X-40278095Y-40070952D01*
X-39706666Y-40642380D01*
X-40325714Y-40642380D01*
X-39373333Y46357619D02*
X-39040000Y46833809D01*
X-38801904Y46357619D02*
X-38801904Y47357619D01*
X-39182857Y47357619D01*
X-39278095Y47310000D01*
X-39325714Y47262380D01*
X-39373333Y47167142D01*
X-39373333Y47024285D01*
X-39325714Y46929047D01*
X-39278095Y46881428D01*
X-39182857Y46833809D01*
X-38801904Y46833809D01*
X-40325714Y46357619D02*
X-39754285Y46357619D01*
X-40040000Y46357619D02*
X-40040000Y47357619D01*
X-39944761Y47214761D01*
X-39849523Y47119523D01*
X-39754285Y47071904D01*
X-62821428Y-35952380D02*
X-62821428Y-34952380D01*
X-63202380Y-34952380D01*
X-63297619Y-35000000D01*
X-63345238Y-35047619D01*
X-63392857Y-35142857D01*
X-63392857Y-35285714D01*
X-63345238Y-35380952D01*
X-63297619Y-35428571D01*
X-63202380Y-35476190D01*
X-62821428Y-35476190D01*
X-63821428Y-35952380D02*
X-63821428Y-35285714D01*
X-63821428Y-34952380D02*
X-63773809Y-35000000D01*
X-63821428Y-35047619D01*
X-63869047Y-35000000D01*
X-63821428Y-34952380D01*
X-63821428Y-35047619D01*
X-64726190Y-35952380D02*
X-64726190Y-35428571D01*
X-64678571Y-35333333D01*
X-64583333Y-35285714D01*
X-64392857Y-35285714D01*
X-64297619Y-35333333D01*
X-64726190Y-35904761D02*
X-64630952Y-35952380D01*
X-64392857Y-35952380D01*
X-64297619Y-35904761D01*
X-64250000Y-35809523D01*
X-64250000Y-35714285D01*
X-64297619Y-35619047D01*
X-64392857Y-35571428D01*
X-64630952Y-35571428D01*
X-64726190Y-35523809D01*
X-65726190Y-35952380D02*
X-65154761Y-35952380D01*
X-65440476Y-35952380D02*
X-65440476Y-34952380D01*
X-65345238Y-35095238D01*
X-65250000Y-35190476D01*
X-65154761Y-35238095D01*
X-58071428Y-25202380D02*
X-58071428Y-24202380D01*
X-58452380Y-24202380D01*
X-58547619Y-24250000D01*
X-58595238Y-24297619D01*
X-58642857Y-24392857D01*
X-58642857Y-24535714D01*
X-58595238Y-24630952D01*
X-58547619Y-24678571D01*
X-58452380Y-24726190D01*
X-58071428Y-24726190D01*
X-59071428Y-25202380D02*
X-59071428Y-24535714D01*
X-59071428Y-24202380D02*
X-59023809Y-24250000D01*
X-59071428Y-24297619D01*
X-59119047Y-24250000D01*
X-59071428Y-24202380D01*
X-59071428Y-24297619D01*
X-59976190Y-25202380D02*
X-59976190Y-24678571D01*
X-59928571Y-24583333D01*
X-59833333Y-24535714D01*
X-59642857Y-24535714D01*
X-59547619Y-24583333D01*
X-59976190Y-25154761D02*
X-59880952Y-25202380D01*
X-59642857Y-25202380D01*
X-59547619Y-25154761D01*
X-59500000Y-25059523D01*
X-59500000Y-24964285D01*
X-59547619Y-24869047D01*
X-59642857Y-24821428D01*
X-59880952Y-24821428D01*
X-59976190Y-24773809D01*
X-60404761Y-24297619D02*
X-60452380Y-24250000D01*
X-60547619Y-24202380D01*
X-60785714Y-24202380D01*
X-60880952Y-24250000D01*
X-60928571Y-24297619D01*
X-60976190Y-24392857D01*
X-60976190Y-24488095D01*
X-60928571Y-24630952D01*
X-60357142Y-25202380D01*
X-60976190Y-25202380D01*
X-52141426Y-36039879D02*
X-52141426Y-35039879D01*
X-52522378Y-35039879D01*
X-52617617Y-35087499D01*
X-52665236Y-35135118D01*
X-52712855Y-35230356D01*
X-52712855Y-35373213D01*
X-52665236Y-35468451D01*
X-52617617Y-35516070D01*
X-52522378Y-35563689D01*
X-52141426Y-35563689D01*
X-53141426Y-36039879D02*
X-53141426Y-35373213D01*
X-53141426Y-35039879D02*
X-53093807Y-35087499D01*
X-53141426Y-35135118D01*
X-53189045Y-35087499D01*
X-53141426Y-35039879D01*
X-53141426Y-35135118D01*
X-53617617Y-36039879D02*
X-53617617Y-35039879D01*
X-53617617Y-35420832D02*
X-53712855Y-35373213D01*
X-53903331Y-35373213D01*
X-53998569Y-35420832D01*
X-54046188Y-35468451D01*
X-54093807Y-35563689D01*
X-54093807Y-35849403D01*
X-54046188Y-35944641D01*
X-53998569Y-35992260D01*
X-53903331Y-36039879D01*
X-53712855Y-36039879D01*
X-53617617Y-35992260D01*
X-55046188Y-36039879D02*
X-54474759Y-36039879D01*
X-54760474Y-36039879D02*
X-54760474Y-35039879D01*
X-54665236Y-35182737D01*
X-54569998Y-35277975D01*
X-54474759Y-35325594D01*
X-47321428Y-25202380D02*
X-47321428Y-24202380D01*
X-47702380Y-24202380D01*
X-47797619Y-24250000D01*
X-47845238Y-24297619D01*
X-47892857Y-24392857D01*
X-47892857Y-24535714D01*
X-47845238Y-24630952D01*
X-47797619Y-24678571D01*
X-47702380Y-24726190D01*
X-47321428Y-24726190D01*
X-48321428Y-25202380D02*
X-48321428Y-24535714D01*
X-48321428Y-24202380D02*
X-48273809Y-24250000D01*
X-48321428Y-24297619D01*
X-48369047Y-24250000D01*
X-48321428Y-24202380D01*
X-48321428Y-24297619D01*
X-48797619Y-25202380D02*
X-48797619Y-24202380D01*
X-48797619Y-24583333D02*
X-48892857Y-24535714D01*
X-49083333Y-24535714D01*
X-49178571Y-24583333D01*
X-49226190Y-24630952D01*
X-49273809Y-24726190D01*
X-49273809Y-25011904D01*
X-49226190Y-25107142D01*
X-49178571Y-25154761D01*
X-49083333Y-25202380D01*
X-48892857Y-25202380D01*
X-48797619Y-25154761D01*
X-49654761Y-24297619D02*
X-49702380Y-24250000D01*
X-49797619Y-24202380D01*
X-50035714Y-24202380D01*
X-50130952Y-24250000D01*
X-50178571Y-24297619D01*
X-50226190Y-24392857D01*
X-50226190Y-24488095D01*
X-50178571Y-24630952D01*
X-49607142Y-25202380D01*
X-50226190Y-25202380D01*
M02*
