G04 #@! TF.GenerationSoftware,KiCad,Pcbnew,(5.1.2)-1*
G04 #@! TF.CreationDate,2019-07-12T20:41:11-07:00*
G04 #@! TF.ProjectId,1000WConverter_r1_pwr,31303030-5743-46f6-9e76-65727465725f,rev?*
G04 #@! TF.SameCoordinates,Original*
G04 #@! TF.FileFunction,Copper,L4,Bot*
G04 #@! TF.FilePolarity,Positive*
%FSLAX46Y46*%
G04 Gerber Fmt 4.6, Leading zero omitted, Abs format (unit mm)*
G04 Created by KiCad (PCBNEW (5.1.2)-1) date 2019-07-12 20:41:11*
%MOMM*%
%LPD*%
G04 APERTURE LIST*
%ADD10C,0.300000*%
%ADD11R,2.400000X2.400000*%
%ADD12C,2.400000*%
%ADD13O,2.400000X2.400000*%
%ADD14C,1.600000*%
%ADD15C,1.800000*%
%ADD16R,1.800000X1.800000*%
%ADD17C,2.000000*%
%ADD18C,2.800000*%
%ADD19C,5.000000*%
%ADD20R,2.200000X1.500000*%
%ADD21C,4.000000*%
%ADD22R,4.000000X4.000000*%
%ADD23C,2.540000*%
%ADD24C,0.863600*%
%ADD25C,0.254000*%
G04 APERTURE END LIST*
D10*
X-1771428Y-2000000D02*
X-1771428Y-2857142D01*
X-1771428Y-2428571D02*
X-3271428Y-2428571D01*
X-3057142Y-2571428D01*
X-2914285Y-2714285D01*
X-2842857Y-2857142D01*
X-3271428Y-1071428D02*
X-3271428Y-928571D01*
X-3200000Y-785714D01*
X-3128571Y-714285D01*
X-2985714Y-642857D01*
X-2700000Y-571428D01*
X-2342857Y-571428D01*
X-2057142Y-642857D01*
X-1914285Y-714285D01*
X-1842857Y-785714D01*
X-1771428Y-928571D01*
X-1771428Y-1071428D01*
X-1842857Y-1214285D01*
X-1914285Y-1285714D01*
X-2057142Y-1357142D01*
X-2342857Y-1428571D01*
X-2700000Y-1428571D01*
X-2985714Y-1357142D01*
X-3128571Y-1285714D01*
X-3200000Y-1214285D01*
X-3271428Y-1071428D01*
X-3271428Y357142D02*
X-3271428Y499999D01*
X-3200000Y642857D01*
X-3128571Y714285D01*
X-2985714Y785714D01*
X-2700000Y857142D01*
X-2342857Y857142D01*
X-2057142Y785714D01*
X-1914285Y714285D01*
X-1842857Y642857D01*
X-1771428Y499999D01*
X-1771428Y357142D01*
X-1842857Y214285D01*
X-1914285Y142857D01*
X-2057142Y71428D01*
X-2342857Y0D01*
X-2700000Y0D01*
X-2985714Y71428D01*
X-3128571Y142857D01*
X-3200000Y214285D01*
X-3271428Y357142D01*
X-3271428Y1785714D02*
X-3271428Y1928571D01*
X-3200000Y2071428D01*
X-3128571Y2142857D01*
X-2985714Y2214285D01*
X-2700000Y2285714D01*
X-2342857Y2285714D01*
X-2057142Y2214285D01*
X-1914285Y2142857D01*
X-1842857Y2071428D01*
X-1771428Y1928571D01*
X-1771428Y1785714D01*
X-1842857Y1642857D01*
X-1914285Y1571428D01*
X-2057142Y1499999D01*
X-2342857Y1428571D01*
X-2700000Y1428571D01*
X-2985714Y1499999D01*
X-3128571Y1571428D01*
X-3200000Y1642857D01*
X-3271428Y1785714D01*
X-3271428Y2785714D02*
X-1771428Y3142857D01*
X-2842857Y3428571D01*
X-1771428Y3714285D01*
X-3271428Y4071428D01*
X635714Y-4107142D02*
X707142Y-4178571D01*
X778571Y-4392857D01*
X778571Y-4535714D01*
X707142Y-4750000D01*
X564285Y-4892857D01*
X421428Y-4964285D01*
X135714Y-5035714D01*
X-78571Y-5035714D01*
X-364285Y-4964285D01*
X-507142Y-4892857D01*
X-650000Y-4750000D01*
X-721428Y-4535714D01*
X-721428Y-4392857D01*
X-650000Y-4178571D01*
X-578571Y-4107142D01*
X778571Y-3249999D02*
X707142Y-3392857D01*
X635714Y-3464285D01*
X492857Y-3535714D01*
X64285Y-3535714D01*
X-78571Y-3464285D01*
X-150000Y-3392857D01*
X-221428Y-3249999D01*
X-221428Y-3035714D01*
X-150000Y-2892857D01*
X-78571Y-2821428D01*
X64285Y-2749999D01*
X492857Y-2749999D01*
X635714Y-2821428D01*
X707142Y-2892857D01*
X778571Y-3035714D01*
X778571Y-3249999D01*
X-221428Y-2107142D02*
X778571Y-2107142D01*
X-78571Y-2107142D02*
X-150000Y-2035714D01*
X-221428Y-1892857D01*
X-221428Y-1678571D01*
X-150000Y-1535714D01*
X-7142Y-1464285D01*
X778571Y-1464285D01*
X-221428Y-892857D02*
X778571Y-535714D01*
X-221428Y-178571D01*
X707142Y964285D02*
X778571Y821428D01*
X778571Y535714D01*
X707142Y392857D01*
X564285Y321428D01*
X-7142Y321428D01*
X-149999Y392857D01*
X-221428Y535714D01*
X-221428Y821428D01*
X-149999Y964285D01*
X-7142Y1035714D01*
X135714Y1035714D01*
X278571Y321428D01*
X778571Y1678571D02*
X-221428Y1678571D01*
X64285Y1678571D02*
X-78571Y1750000D01*
X-149999Y1821428D01*
X-221428Y1964285D01*
X-221428Y2107142D01*
X-221428Y2392857D02*
X-221428Y2964285D01*
X-721428Y2607142D02*
X564285Y2607142D01*
X707142Y2678571D01*
X778571Y2821428D01*
X778571Y2964285D01*
X707142Y4035714D02*
X778571Y3892857D01*
X778571Y3607142D01*
X707142Y3464285D01*
X564285Y3392857D01*
X-7142Y3392857D01*
X-149999Y3464285D01*
X-221428Y3607142D01*
X-221428Y3892857D01*
X-149999Y4035714D01*
X-7142Y4107142D01*
X135714Y4107142D01*
X278571Y3392857D01*
X778571Y4749999D02*
X-221428Y4749999D01*
X64285Y4749999D02*
X-78571Y4821428D01*
X-149999Y4892857D01*
X-221428Y5035714D01*
X-221428Y5178571D01*
X3328571Y-821428D02*
X2328571Y-821428D01*
X2614285Y-821428D02*
X2471428Y-750000D01*
X2400000Y-678571D01*
X2328571Y-535714D01*
X2328571Y-392857D01*
X3328571Y892857D02*
X3328571Y35714D01*
X3328571Y464285D02*
X1828571Y464285D01*
X2042857Y321428D01*
X2185714Y178571D01*
X2257142Y35714D01*
D11*
X-43500000Y21250000D03*
D12*
X-43500000Y28750000D03*
X-62500000Y28750000D03*
D11*
X-62500000Y21250000D03*
X-43500000Y2250000D03*
D12*
X-43500000Y9750000D03*
X-62522499Y9625002D03*
D11*
X-62522499Y2125002D03*
D13*
X-2000000Y-37920000D03*
D12*
X-2000000Y-43000000D03*
X-2000000Y43000000D03*
D13*
X-2000000Y37920000D03*
D14*
X-19050000Y-23860000D03*
X19050000Y-21320000D03*
X19050000Y21320000D03*
X19050000Y15990000D03*
X19050000Y10660000D03*
X19050000Y5330000D03*
X19050000Y-15990000D03*
X19050000Y-10660000D03*
X19050000Y-5330000D03*
X19050000Y0D03*
X-19050000Y0D03*
X-19050000Y-5330000D03*
X-19050000Y-10660000D03*
X-19050000Y-15990000D03*
X-19050000Y5330000D03*
X-19050000Y10660000D03*
X-19050000Y15990000D03*
X-19050000Y21320000D03*
D15*
X28540000Y44000000D03*
D16*
X23460000Y44000000D03*
D15*
X26000000Y44000000D03*
X12100000Y44000000D03*
D16*
X9560000Y44000000D03*
D15*
X14640000Y44000000D03*
X9560000Y-44000000D03*
D16*
X14640000Y-44000000D03*
D15*
X12100000Y-44000000D03*
X26000000Y-44000000D03*
D16*
X28540000Y-44000000D03*
D15*
X23460000Y-44000000D03*
X-9510000Y44000000D03*
D16*
X-14590000Y44000000D03*
D15*
X-12050000Y44000000D03*
X-26050000Y44000000D03*
D16*
X-28590000Y44000000D03*
D15*
X-23510000Y44000000D03*
D17*
X-31000000Y3000000D03*
X-31000000Y8000000D03*
D12*
X45500000Y-50000D03*
X30500000Y-50000D03*
D18*
X31000000Y-22500000D03*
X68500000Y-22500000D03*
X31000000Y22500000D03*
X68500000Y22500000D03*
D19*
X57000000Y0D03*
X67500000Y0D03*
D20*
X-58000000Y-16200000D03*
X-58000000Y-9800000D03*
D21*
X-53000000Y20500000D03*
D22*
X-53000000Y10500000D03*
D15*
X-14590000Y-44000000D03*
D16*
X-9510000Y-44000000D03*
D15*
X-12050000Y-44000000D03*
X-26050000Y-44000000D03*
D16*
X-23510000Y-44000000D03*
D15*
X-28590000Y-44000000D03*
D20*
X-48000000Y-9800000D03*
X-48000000Y-16200000D03*
D14*
X-30000000Y38500000D03*
X-35000000Y38500000D03*
X-35000000Y-38500000D03*
X-30000000Y-38500000D03*
X8000000Y38500000D03*
X3000000Y38500000D03*
X3000000Y-38500000D03*
X8000000Y-38500000D03*
D13*
X-42080000Y-43500000D03*
D12*
X-37000000Y-43500000D03*
D13*
X-42080000Y43500000D03*
D12*
X-37000000Y43500000D03*
D19*
X-64250000Y-35500000D03*
X-59500000Y-24750000D03*
X-53569998Y-35587499D03*
X-48750000Y-24750000D03*
D23*
X-2000000Y-37920000D02*
X-2000000Y-33500000D01*
X-2000000Y-33500000D02*
X10000000Y-21500000D01*
X-2000000Y37920000D02*
X-2000000Y31500000D01*
X-2000000Y31500000D02*
X-2000000Y30500000D01*
X-2000000Y30500000D02*
X9000000Y19500000D01*
D24*
X-12050000Y44000000D02*
X-12800000Y43250000D01*
X-12800000Y43250000D02*
X-12800000Y42100000D01*
X-12800000Y42100000D02*
X-12800000Y40350000D01*
X-12050000Y44000000D02*
X-11300000Y43250000D01*
X-11300000Y43250000D02*
X-11300000Y42200000D01*
X-11300000Y42200000D02*
X-11300000Y40350000D01*
X-12800000Y42100000D02*
X-11300000Y42100000D01*
X-11400000Y42200000D02*
X-11300000Y42200000D01*
X-11300000Y42100000D02*
X-11400000Y42200000D01*
X-12800000Y42100000D02*
X-12000000Y41300000D01*
X26000000Y-44000000D02*
X26600000Y-43400000D01*
X26600000Y-43400000D02*
X26600000Y-40800000D01*
X26000000Y-44000000D02*
X25400000Y-43400000D01*
X25400000Y-43400000D02*
X25400000Y-41200000D01*
X12100000Y-44000000D02*
X11500000Y-43400000D01*
X11500000Y-43400000D02*
X11500000Y-41000000D01*
X12100000Y-44000000D02*
X12750000Y-43350000D01*
X12750000Y-43350000D02*
X12750000Y-41000000D01*
X12100000Y44000000D02*
X11500000Y43400000D01*
X11500000Y43400000D02*
X11500000Y40400000D01*
X12100000Y44000000D02*
X12600000Y43500000D01*
X12600000Y43500000D02*
X12600000Y40500000D01*
X26000000Y44000000D02*
X26500000Y43500000D01*
X26500000Y43500000D02*
X26500000Y41100000D01*
X26000000Y44000000D02*
X25500000Y43500000D01*
X25500000Y43500000D02*
X25500000Y40500000D01*
D23*
X-35000000Y38500000D02*
X-37000000Y43500000D01*
X-35000000Y-38500000D02*
X-37000000Y-43500000D01*
D25*
G36*
X-6577000Y14127000D02*
G01*
X-31373000Y14127000D01*
X-31373000Y14777735D01*
X-19451920Y14777735D01*
X-19359042Y14589794D01*
X-19079937Y14556407D01*
X-18799682Y14578114D01*
X-18740958Y14589794D01*
X-18648080Y14777735D01*
X-19050000Y15179656D01*
X-19451920Y14777735D01*
X-31373000Y14777735D01*
X-31373000Y16019937D01*
X-20483593Y16019937D01*
X-20461886Y15739682D01*
X-20450206Y15680958D01*
X-20262265Y15588080D01*
X-19860344Y15990000D01*
X-18239656Y15990000D01*
X-17837735Y15588080D01*
X-17649794Y15680958D01*
X-17616407Y15960063D01*
X-17638114Y16240318D01*
X-17649794Y16299042D01*
X-17837735Y16391920D01*
X-18239656Y15990000D01*
X-19860344Y15990000D01*
X-20262265Y16391920D01*
X-20450206Y16299042D01*
X-20483593Y16019937D01*
X-31373000Y16019937D01*
X-31373000Y17202265D01*
X-19451920Y17202265D01*
X-19050000Y16800344D01*
X-18648080Y17202265D01*
X-18740958Y17390206D01*
X-19020063Y17423593D01*
X-19300318Y17401886D01*
X-19359042Y17390206D01*
X-19451920Y17202265D01*
X-31373000Y17202265D01*
X-31373000Y20107735D01*
X-19451920Y20107735D01*
X-19359042Y19919794D01*
X-19079937Y19886407D01*
X-18799682Y19908114D01*
X-18740958Y19919794D01*
X-18648080Y20107735D01*
X-19050000Y20509656D01*
X-19451920Y20107735D01*
X-31373000Y20107735D01*
X-31373000Y21349937D01*
X-20483593Y21349937D01*
X-20461886Y21069682D01*
X-20450206Y21010958D01*
X-20262265Y20918080D01*
X-19860344Y21320000D01*
X-18239656Y21320000D01*
X-17837735Y20918080D01*
X-17649794Y21010958D01*
X-17616407Y21290063D01*
X-17638114Y21570318D01*
X-17649794Y21629042D01*
X-17837735Y21721920D01*
X-18239656Y21320000D01*
X-19860344Y21320000D01*
X-20262265Y21721920D01*
X-20450206Y21629042D01*
X-20483593Y21349937D01*
X-31373000Y21349937D01*
X-31373000Y22532265D01*
X-19451920Y22532265D01*
X-19050000Y22130344D01*
X-18648080Y22532265D01*
X-18740958Y22720206D01*
X-19020063Y22753593D01*
X-19300318Y22731886D01*
X-19359042Y22720206D01*
X-19451920Y22532265D01*
X-31373000Y22532265D01*
X-31373000Y37287735D01*
X-30401920Y37287735D01*
X-30309042Y37099794D01*
X-30029937Y37066407D01*
X-29749682Y37088114D01*
X-29690958Y37099794D01*
X-29598080Y37287735D01*
X-30000000Y37689656D01*
X-30401920Y37287735D01*
X-31373000Y37287735D01*
X-31373000Y38177513D01*
X-31212265Y38098080D01*
X-30810344Y38500000D01*
X-29189656Y38500000D01*
X-28787735Y38098080D01*
X-28599794Y38190958D01*
X-28566407Y38470063D01*
X-28588114Y38750318D01*
X-28599794Y38809042D01*
X-28787735Y38901920D01*
X-29189656Y38500000D01*
X-30810344Y38500000D01*
X-31212265Y38901920D01*
X-31373000Y38822487D01*
X-31373000Y39712265D01*
X-30401920Y39712265D01*
X-30000000Y39310344D01*
X-29598080Y39712265D01*
X-29690958Y39900206D01*
X-29970063Y39933593D01*
X-30250318Y39911886D01*
X-30309042Y39900206D01*
X-30401920Y39712265D01*
X-31373000Y39712265D01*
X-31373000Y44900000D01*
X-30019549Y44900000D01*
X-30019549Y43100000D01*
X-30009374Y42996690D01*
X-29979239Y42897350D01*
X-29930304Y42805798D01*
X-29864448Y42725552D01*
X-29784202Y42659696D01*
X-29692650Y42610761D01*
X-29593310Y42580626D01*
X-29490000Y42570451D01*
X-27690000Y42570451D01*
X-27586690Y42580626D01*
X-27487350Y42610761D01*
X-27395798Y42659696D01*
X-27335782Y42708950D01*
X-26530706Y42708950D01*
X-26423077Y42511657D01*
X-26125548Y42467471D01*
X-25825115Y42482180D01*
X-25676923Y42511657D01*
X-25569294Y42708950D01*
X-26050000Y43189656D01*
X-26530706Y42708950D01*
X-27335782Y42708950D01*
X-27315552Y42725552D01*
X-27249696Y42805798D01*
X-27200761Y42897350D01*
X-27170626Y42996690D01*
X-27160451Y43100000D01*
X-27160451Y43699893D01*
X-26860344Y44000000D01*
X-25239656Y44000000D01*
X-24896749Y43657093D01*
X-24882162Y43583759D01*
X-24774591Y43324062D01*
X-24618424Y43090340D01*
X-24419660Y42891576D01*
X-24185938Y42735409D01*
X-23926241Y42627838D01*
X-23650547Y42573000D01*
X-23369453Y42573000D01*
X-23093759Y42627838D01*
X-22834062Y42735409D01*
X-22600340Y42891576D01*
X-22401576Y43090340D01*
X-22245409Y43324062D01*
X-22137838Y43583759D01*
X-22083000Y43859453D01*
X-22083000Y44140547D01*
X-22137838Y44416241D01*
X-22245409Y44675938D01*
X-22395121Y44900000D01*
X-16019549Y44900000D01*
X-16019549Y43100000D01*
X-16009374Y42996690D01*
X-15979239Y42897350D01*
X-15930304Y42805798D01*
X-15864448Y42725552D01*
X-15784202Y42659696D01*
X-15692650Y42610761D01*
X-15593310Y42580626D01*
X-15490000Y42570451D01*
X-13690000Y42570451D01*
X-13586690Y42580626D01*
X-13487350Y42610761D01*
X-13395798Y42659696D01*
X-13335782Y42708950D01*
X-12530706Y42708950D01*
X-12423077Y42511657D01*
X-12125548Y42467471D01*
X-11825115Y42482180D01*
X-11676923Y42511657D01*
X-11569294Y42708950D01*
X-12050000Y43189656D01*
X-12530706Y42708950D01*
X-13335782Y42708950D01*
X-13315552Y42725552D01*
X-13249696Y42805798D01*
X-13200761Y42897350D01*
X-13170626Y42996690D01*
X-13160451Y43100000D01*
X-13160451Y43699893D01*
X-12860344Y44000000D01*
X-11239656Y44000000D01*
X-10896749Y43657093D01*
X-10882162Y43583759D01*
X-10774591Y43324062D01*
X-10618424Y43090340D01*
X-10419660Y42891576D01*
X-10185938Y42735409D01*
X-9926241Y42627838D01*
X-9650547Y42573000D01*
X-9369453Y42573000D01*
X-9093759Y42627838D01*
X-8834062Y42735409D01*
X-8600340Y42891576D01*
X-8401576Y43090340D01*
X-8245409Y43324062D01*
X-8137838Y43583759D01*
X-8083000Y43859453D01*
X-8083000Y44140547D01*
X-8137838Y44416241D01*
X-8245409Y44675938D01*
X-8401576Y44909660D01*
X-8600340Y45108424D01*
X-8834062Y45264591D01*
X-9093759Y45372162D01*
X-9369453Y45427000D01*
X-9650547Y45427000D01*
X-9926241Y45372162D01*
X-10185938Y45264591D01*
X-10419660Y45108424D01*
X-10618424Y44909660D01*
X-10774591Y44675938D01*
X-10882162Y44416241D01*
X-10896749Y44342907D01*
X-11239656Y44000000D01*
X-12860344Y44000000D01*
X-13160451Y44300107D01*
X-13160451Y44900000D01*
X-13170626Y45003310D01*
X-13200761Y45102650D01*
X-13249696Y45194202D01*
X-13315552Y45274448D01*
X-13335781Y45291050D01*
X-12530706Y45291050D01*
X-12050000Y44810344D01*
X-11569294Y45291050D01*
X-11676923Y45488343D01*
X-11974452Y45532529D01*
X-12274885Y45517820D01*
X-12423077Y45488343D01*
X-12530706Y45291050D01*
X-13335781Y45291050D01*
X-13395798Y45340304D01*
X-13487350Y45389239D01*
X-13586690Y45419374D01*
X-13690000Y45429549D01*
X-15490000Y45429549D01*
X-15593310Y45419374D01*
X-15692650Y45389239D01*
X-15784202Y45340304D01*
X-15864448Y45274448D01*
X-15930304Y45194202D01*
X-15979239Y45102650D01*
X-16009374Y45003310D01*
X-16019549Y44900000D01*
X-22395121Y44900000D01*
X-22401576Y44909660D01*
X-22600340Y45108424D01*
X-22834062Y45264591D01*
X-23093759Y45372162D01*
X-23369453Y45427000D01*
X-23650547Y45427000D01*
X-23926241Y45372162D01*
X-24185938Y45264591D01*
X-24419660Y45108424D01*
X-24618424Y44909660D01*
X-24774591Y44675938D01*
X-24882162Y44416241D01*
X-24896749Y44342907D01*
X-25239656Y44000000D01*
X-26860344Y44000000D01*
X-27160451Y44300107D01*
X-27160451Y44900000D01*
X-27170626Y45003310D01*
X-27200761Y45102650D01*
X-27249696Y45194202D01*
X-27315552Y45274448D01*
X-27335781Y45291050D01*
X-26530706Y45291050D01*
X-26050000Y44810344D01*
X-25569294Y45291050D01*
X-25676923Y45488343D01*
X-25974452Y45532529D01*
X-26274885Y45517820D01*
X-26423077Y45488343D01*
X-26530706Y45291050D01*
X-27335781Y45291050D01*
X-27395798Y45340304D01*
X-27487350Y45389239D01*
X-27586690Y45419374D01*
X-27690000Y45429549D01*
X-29490000Y45429549D01*
X-29593310Y45419374D01*
X-29692650Y45389239D01*
X-29784202Y45340304D01*
X-29864448Y45274448D01*
X-29930304Y45194202D01*
X-29979239Y45102650D01*
X-30009374Y45003310D01*
X-30019549Y44900000D01*
X-31373000Y44900000D01*
X-31373000Y46423000D01*
X-6577000Y46423000D01*
X-6577000Y14127000D01*
X-6577000Y14127000D01*
G37*
X-6577000Y14127000D02*
X-31373000Y14127000D01*
X-31373000Y14777735D01*
X-19451920Y14777735D01*
X-19359042Y14589794D01*
X-19079937Y14556407D01*
X-18799682Y14578114D01*
X-18740958Y14589794D01*
X-18648080Y14777735D01*
X-19050000Y15179656D01*
X-19451920Y14777735D01*
X-31373000Y14777735D01*
X-31373000Y16019937D01*
X-20483593Y16019937D01*
X-20461886Y15739682D01*
X-20450206Y15680958D01*
X-20262265Y15588080D01*
X-19860344Y15990000D01*
X-18239656Y15990000D01*
X-17837735Y15588080D01*
X-17649794Y15680958D01*
X-17616407Y15960063D01*
X-17638114Y16240318D01*
X-17649794Y16299042D01*
X-17837735Y16391920D01*
X-18239656Y15990000D01*
X-19860344Y15990000D01*
X-20262265Y16391920D01*
X-20450206Y16299042D01*
X-20483593Y16019937D01*
X-31373000Y16019937D01*
X-31373000Y17202265D01*
X-19451920Y17202265D01*
X-19050000Y16800344D01*
X-18648080Y17202265D01*
X-18740958Y17390206D01*
X-19020063Y17423593D01*
X-19300318Y17401886D01*
X-19359042Y17390206D01*
X-19451920Y17202265D01*
X-31373000Y17202265D01*
X-31373000Y20107735D01*
X-19451920Y20107735D01*
X-19359042Y19919794D01*
X-19079937Y19886407D01*
X-18799682Y19908114D01*
X-18740958Y19919794D01*
X-18648080Y20107735D01*
X-19050000Y20509656D01*
X-19451920Y20107735D01*
X-31373000Y20107735D01*
X-31373000Y21349937D01*
X-20483593Y21349937D01*
X-20461886Y21069682D01*
X-20450206Y21010958D01*
X-20262265Y20918080D01*
X-19860344Y21320000D01*
X-18239656Y21320000D01*
X-17837735Y20918080D01*
X-17649794Y21010958D01*
X-17616407Y21290063D01*
X-17638114Y21570318D01*
X-17649794Y21629042D01*
X-17837735Y21721920D01*
X-18239656Y21320000D01*
X-19860344Y21320000D01*
X-20262265Y21721920D01*
X-20450206Y21629042D01*
X-20483593Y21349937D01*
X-31373000Y21349937D01*
X-31373000Y22532265D01*
X-19451920Y22532265D01*
X-19050000Y22130344D01*
X-18648080Y22532265D01*
X-18740958Y22720206D01*
X-19020063Y22753593D01*
X-19300318Y22731886D01*
X-19359042Y22720206D01*
X-19451920Y22532265D01*
X-31373000Y22532265D01*
X-31373000Y37287735D01*
X-30401920Y37287735D01*
X-30309042Y37099794D01*
X-30029937Y37066407D01*
X-29749682Y37088114D01*
X-29690958Y37099794D01*
X-29598080Y37287735D01*
X-30000000Y37689656D01*
X-30401920Y37287735D01*
X-31373000Y37287735D01*
X-31373000Y38177513D01*
X-31212265Y38098080D01*
X-30810344Y38500000D01*
X-29189656Y38500000D01*
X-28787735Y38098080D01*
X-28599794Y38190958D01*
X-28566407Y38470063D01*
X-28588114Y38750318D01*
X-28599794Y38809042D01*
X-28787735Y38901920D01*
X-29189656Y38500000D01*
X-30810344Y38500000D01*
X-31212265Y38901920D01*
X-31373000Y38822487D01*
X-31373000Y39712265D01*
X-30401920Y39712265D01*
X-30000000Y39310344D01*
X-29598080Y39712265D01*
X-29690958Y39900206D01*
X-29970063Y39933593D01*
X-30250318Y39911886D01*
X-30309042Y39900206D01*
X-30401920Y39712265D01*
X-31373000Y39712265D01*
X-31373000Y44900000D01*
X-30019549Y44900000D01*
X-30019549Y43100000D01*
X-30009374Y42996690D01*
X-29979239Y42897350D01*
X-29930304Y42805798D01*
X-29864448Y42725552D01*
X-29784202Y42659696D01*
X-29692650Y42610761D01*
X-29593310Y42580626D01*
X-29490000Y42570451D01*
X-27690000Y42570451D01*
X-27586690Y42580626D01*
X-27487350Y42610761D01*
X-27395798Y42659696D01*
X-27335782Y42708950D01*
X-26530706Y42708950D01*
X-26423077Y42511657D01*
X-26125548Y42467471D01*
X-25825115Y42482180D01*
X-25676923Y42511657D01*
X-25569294Y42708950D01*
X-26050000Y43189656D01*
X-26530706Y42708950D01*
X-27335782Y42708950D01*
X-27315552Y42725552D01*
X-27249696Y42805798D01*
X-27200761Y42897350D01*
X-27170626Y42996690D01*
X-27160451Y43100000D01*
X-27160451Y43699893D01*
X-26860344Y44000000D01*
X-25239656Y44000000D01*
X-24896749Y43657093D01*
X-24882162Y43583759D01*
X-24774591Y43324062D01*
X-24618424Y43090340D01*
X-24419660Y42891576D01*
X-24185938Y42735409D01*
X-23926241Y42627838D01*
X-23650547Y42573000D01*
X-23369453Y42573000D01*
X-23093759Y42627838D01*
X-22834062Y42735409D01*
X-22600340Y42891576D01*
X-22401576Y43090340D01*
X-22245409Y43324062D01*
X-22137838Y43583759D01*
X-22083000Y43859453D01*
X-22083000Y44140547D01*
X-22137838Y44416241D01*
X-22245409Y44675938D01*
X-22395121Y44900000D01*
X-16019549Y44900000D01*
X-16019549Y43100000D01*
X-16009374Y42996690D01*
X-15979239Y42897350D01*
X-15930304Y42805798D01*
X-15864448Y42725552D01*
X-15784202Y42659696D01*
X-15692650Y42610761D01*
X-15593310Y42580626D01*
X-15490000Y42570451D01*
X-13690000Y42570451D01*
X-13586690Y42580626D01*
X-13487350Y42610761D01*
X-13395798Y42659696D01*
X-13335782Y42708950D01*
X-12530706Y42708950D01*
X-12423077Y42511657D01*
X-12125548Y42467471D01*
X-11825115Y42482180D01*
X-11676923Y42511657D01*
X-11569294Y42708950D01*
X-12050000Y43189656D01*
X-12530706Y42708950D01*
X-13335782Y42708950D01*
X-13315552Y42725552D01*
X-13249696Y42805798D01*
X-13200761Y42897350D01*
X-13170626Y42996690D01*
X-13160451Y43100000D01*
X-13160451Y43699893D01*
X-12860344Y44000000D01*
X-11239656Y44000000D01*
X-10896749Y43657093D01*
X-10882162Y43583759D01*
X-10774591Y43324062D01*
X-10618424Y43090340D01*
X-10419660Y42891576D01*
X-10185938Y42735409D01*
X-9926241Y42627838D01*
X-9650547Y42573000D01*
X-9369453Y42573000D01*
X-9093759Y42627838D01*
X-8834062Y42735409D01*
X-8600340Y42891576D01*
X-8401576Y43090340D01*
X-8245409Y43324062D01*
X-8137838Y43583759D01*
X-8083000Y43859453D01*
X-8083000Y44140547D01*
X-8137838Y44416241D01*
X-8245409Y44675938D01*
X-8401576Y44909660D01*
X-8600340Y45108424D01*
X-8834062Y45264591D01*
X-9093759Y45372162D01*
X-9369453Y45427000D01*
X-9650547Y45427000D01*
X-9926241Y45372162D01*
X-10185938Y45264591D01*
X-10419660Y45108424D01*
X-10618424Y44909660D01*
X-10774591Y44675938D01*
X-10882162Y44416241D01*
X-10896749Y44342907D01*
X-11239656Y44000000D01*
X-12860344Y44000000D01*
X-13160451Y44300107D01*
X-13160451Y44900000D01*
X-13170626Y45003310D01*
X-13200761Y45102650D01*
X-13249696Y45194202D01*
X-13315552Y45274448D01*
X-13335781Y45291050D01*
X-12530706Y45291050D01*
X-12050000Y44810344D01*
X-11569294Y45291050D01*
X-11676923Y45488343D01*
X-11974452Y45532529D01*
X-12274885Y45517820D01*
X-12423077Y45488343D01*
X-12530706Y45291050D01*
X-13335781Y45291050D01*
X-13395798Y45340304D01*
X-13487350Y45389239D01*
X-13586690Y45419374D01*
X-13690000Y45429549D01*
X-15490000Y45429549D01*
X-15593310Y45419374D01*
X-15692650Y45389239D01*
X-15784202Y45340304D01*
X-15864448Y45274448D01*
X-15930304Y45194202D01*
X-15979239Y45102650D01*
X-16009374Y45003310D01*
X-16019549Y44900000D01*
X-22395121Y44900000D01*
X-22401576Y44909660D01*
X-22600340Y45108424D01*
X-22834062Y45264591D01*
X-23093759Y45372162D01*
X-23369453Y45427000D01*
X-23650547Y45427000D01*
X-23926241Y45372162D01*
X-24185938Y45264591D01*
X-24419660Y45108424D01*
X-24618424Y44909660D01*
X-24774591Y44675938D01*
X-24882162Y44416241D01*
X-24896749Y44342907D01*
X-25239656Y44000000D01*
X-26860344Y44000000D01*
X-27160451Y44300107D01*
X-27160451Y44900000D01*
X-27170626Y45003310D01*
X-27200761Y45102650D01*
X-27249696Y45194202D01*
X-27315552Y45274448D01*
X-27335781Y45291050D01*
X-26530706Y45291050D01*
X-26050000Y44810344D01*
X-25569294Y45291050D01*
X-25676923Y45488343D01*
X-25974452Y45532529D01*
X-26274885Y45517820D01*
X-26423077Y45488343D01*
X-26530706Y45291050D01*
X-27335781Y45291050D01*
X-27395798Y45340304D01*
X-27487350Y45389239D01*
X-27586690Y45419374D01*
X-27690000Y45429549D01*
X-29490000Y45429549D01*
X-29593310Y45419374D01*
X-29692650Y45389239D01*
X-29784202Y45340304D01*
X-29864448Y45274448D01*
X-29930304Y45194202D01*
X-29979239Y45102650D01*
X-30009374Y45003310D01*
X-30019549Y44900000D01*
X-31373000Y44900000D01*
X-31373000Y46423000D01*
X-6577000Y46423000D01*
X-6577000Y14127000D01*
G36*
X-6627000Y-46423000D02*
G01*
X-31573000Y-46423000D01*
X-31573000Y-43859453D01*
X-30017000Y-43859453D01*
X-30017000Y-44140547D01*
X-29962162Y-44416241D01*
X-29854591Y-44675938D01*
X-29698424Y-44909660D01*
X-29499660Y-45108424D01*
X-29265938Y-45264591D01*
X-29006241Y-45372162D01*
X-28730547Y-45427000D01*
X-28449453Y-45427000D01*
X-28173759Y-45372162D01*
X-27977940Y-45291050D01*
X-26530706Y-45291050D01*
X-26423077Y-45488343D01*
X-26125548Y-45532529D01*
X-25825115Y-45517820D01*
X-25676923Y-45488343D01*
X-25569294Y-45291050D01*
X-26050000Y-44810344D01*
X-26530706Y-45291050D01*
X-27977940Y-45291050D01*
X-27914062Y-45264591D01*
X-27680340Y-45108424D01*
X-27481576Y-44909660D01*
X-27325409Y-44675938D01*
X-27217838Y-44416241D01*
X-27203251Y-44342907D01*
X-26860344Y-44000000D01*
X-25239656Y-44000000D01*
X-24939549Y-44300107D01*
X-24939549Y-44900000D01*
X-24929374Y-45003310D01*
X-24899239Y-45102650D01*
X-24850304Y-45194202D01*
X-24784448Y-45274448D01*
X-24704202Y-45340304D01*
X-24612650Y-45389239D01*
X-24513310Y-45419374D01*
X-24410000Y-45429549D01*
X-22610000Y-45429549D01*
X-22506690Y-45419374D01*
X-22407350Y-45389239D01*
X-22315798Y-45340304D01*
X-22235552Y-45274448D01*
X-22169696Y-45194202D01*
X-22120761Y-45102650D01*
X-22090626Y-45003310D01*
X-22080451Y-44900000D01*
X-22080451Y-43859453D01*
X-16017000Y-43859453D01*
X-16017000Y-44140547D01*
X-15962162Y-44416241D01*
X-15854591Y-44675938D01*
X-15698424Y-44909660D01*
X-15499660Y-45108424D01*
X-15265938Y-45264591D01*
X-15006241Y-45372162D01*
X-14730547Y-45427000D01*
X-14449453Y-45427000D01*
X-14173759Y-45372162D01*
X-13977940Y-45291050D01*
X-12530706Y-45291050D01*
X-12423077Y-45488343D01*
X-12125548Y-45532529D01*
X-11825115Y-45517820D01*
X-11676923Y-45488343D01*
X-11569294Y-45291050D01*
X-12050000Y-44810344D01*
X-12530706Y-45291050D01*
X-13977940Y-45291050D01*
X-13914062Y-45264591D01*
X-13680340Y-45108424D01*
X-13481576Y-44909660D01*
X-13325409Y-44675938D01*
X-13217838Y-44416241D01*
X-13203251Y-44342907D01*
X-12860344Y-44000000D01*
X-11239656Y-44000000D01*
X-10939549Y-44300107D01*
X-10939549Y-44900000D01*
X-10929374Y-45003310D01*
X-10899239Y-45102650D01*
X-10850304Y-45194202D01*
X-10784448Y-45274448D01*
X-10704202Y-45340304D01*
X-10612650Y-45389239D01*
X-10513310Y-45419374D01*
X-10410000Y-45429549D01*
X-8610000Y-45429549D01*
X-8506690Y-45419374D01*
X-8407350Y-45389239D01*
X-8315798Y-45340304D01*
X-8235552Y-45274448D01*
X-8169696Y-45194202D01*
X-8120761Y-45102650D01*
X-8090626Y-45003310D01*
X-8080451Y-44900000D01*
X-8080451Y-43100000D01*
X-8090626Y-42996690D01*
X-8120761Y-42897350D01*
X-8169696Y-42805798D01*
X-8235552Y-42725552D01*
X-8315798Y-42659696D01*
X-8407350Y-42610761D01*
X-8506690Y-42580626D01*
X-8610000Y-42570451D01*
X-10410000Y-42570451D01*
X-10513310Y-42580626D01*
X-10612650Y-42610761D01*
X-10704202Y-42659696D01*
X-10784448Y-42725552D01*
X-10850304Y-42805798D01*
X-10899239Y-42897350D01*
X-10929374Y-42996690D01*
X-10939549Y-43100000D01*
X-10939549Y-43699893D01*
X-11239656Y-44000000D01*
X-12860344Y-44000000D01*
X-13203251Y-43657093D01*
X-13217838Y-43583759D01*
X-13325409Y-43324062D01*
X-13481576Y-43090340D01*
X-13680340Y-42891576D01*
X-13914062Y-42735409D01*
X-13977939Y-42708950D01*
X-12530706Y-42708950D01*
X-12050000Y-43189656D01*
X-11569294Y-42708950D01*
X-11676923Y-42511657D01*
X-11974452Y-42467471D01*
X-12274885Y-42482180D01*
X-12423077Y-42511657D01*
X-12530706Y-42708950D01*
X-13977939Y-42708950D01*
X-14173759Y-42627838D01*
X-14449453Y-42573000D01*
X-14730547Y-42573000D01*
X-15006241Y-42627838D01*
X-15265938Y-42735409D01*
X-15499660Y-42891576D01*
X-15698424Y-43090340D01*
X-15854591Y-43324062D01*
X-15962162Y-43583759D01*
X-16017000Y-43859453D01*
X-22080451Y-43859453D01*
X-22080451Y-43100000D01*
X-22090626Y-42996690D01*
X-22120761Y-42897350D01*
X-22169696Y-42805798D01*
X-22235552Y-42725552D01*
X-22315798Y-42659696D01*
X-22407350Y-42610761D01*
X-22506690Y-42580626D01*
X-22610000Y-42570451D01*
X-24410000Y-42570451D01*
X-24513310Y-42580626D01*
X-24612650Y-42610761D01*
X-24704202Y-42659696D01*
X-24784448Y-42725552D01*
X-24850304Y-42805798D01*
X-24899239Y-42897350D01*
X-24929374Y-42996690D01*
X-24939549Y-43100000D01*
X-24939549Y-43699893D01*
X-25239656Y-44000000D01*
X-26860344Y-44000000D01*
X-27203251Y-43657093D01*
X-27217838Y-43583759D01*
X-27325409Y-43324062D01*
X-27481576Y-43090340D01*
X-27680340Y-42891576D01*
X-27914062Y-42735409D01*
X-27977939Y-42708950D01*
X-26530706Y-42708950D01*
X-26050000Y-43189656D01*
X-25569294Y-42708950D01*
X-25676923Y-42511657D01*
X-25974452Y-42467471D01*
X-26274885Y-42482180D01*
X-26423077Y-42511657D01*
X-26530706Y-42708950D01*
X-27977939Y-42708950D01*
X-28173759Y-42627838D01*
X-28449453Y-42573000D01*
X-28730547Y-42573000D01*
X-29006241Y-42627838D01*
X-29265938Y-42735409D01*
X-29499660Y-42891576D01*
X-29698424Y-43090340D01*
X-29854591Y-43324062D01*
X-29962162Y-43583759D01*
X-30017000Y-43859453D01*
X-31573000Y-43859453D01*
X-31573000Y-39712265D01*
X-30401920Y-39712265D01*
X-30309042Y-39900206D01*
X-30029937Y-39933593D01*
X-29749682Y-39911886D01*
X-29690958Y-39900206D01*
X-29598080Y-39712265D01*
X-30000000Y-39310344D01*
X-30401920Y-39712265D01*
X-31573000Y-39712265D01*
X-31573000Y-38470063D01*
X-31433593Y-38470063D01*
X-31411886Y-38750318D01*
X-31400206Y-38809042D01*
X-31212265Y-38901920D01*
X-30810344Y-38500000D01*
X-29189656Y-38500000D01*
X-28787735Y-38901920D01*
X-28599794Y-38809042D01*
X-28566407Y-38529937D01*
X-28588114Y-38249682D01*
X-28599794Y-38190958D01*
X-28787735Y-38098080D01*
X-29189656Y-38500000D01*
X-30810344Y-38500000D01*
X-31212265Y-38098080D01*
X-31400206Y-38190958D01*
X-31433593Y-38470063D01*
X-31573000Y-38470063D01*
X-31573000Y-37287735D01*
X-30401920Y-37287735D01*
X-30000000Y-37689656D01*
X-29598080Y-37287735D01*
X-29690958Y-37099794D01*
X-29970063Y-37066407D01*
X-30250318Y-37088114D01*
X-30309042Y-37099794D01*
X-30401920Y-37287735D01*
X-31573000Y-37287735D01*
X-31573000Y-25072265D01*
X-19451920Y-25072265D01*
X-19359042Y-25260206D01*
X-19079937Y-25293593D01*
X-18799682Y-25271886D01*
X-18740958Y-25260206D01*
X-18648080Y-25072265D01*
X-19050000Y-24670344D01*
X-19451920Y-25072265D01*
X-31573000Y-25072265D01*
X-31573000Y-23830063D01*
X-20483593Y-23830063D01*
X-20461886Y-24110318D01*
X-20450206Y-24169042D01*
X-20262265Y-24261920D01*
X-19860344Y-23860000D01*
X-18239656Y-23860000D01*
X-17837735Y-24261920D01*
X-17649794Y-24169042D01*
X-17616407Y-23889937D01*
X-17638114Y-23609682D01*
X-17649794Y-23550958D01*
X-17837735Y-23458080D01*
X-18239656Y-23860000D01*
X-19860344Y-23860000D01*
X-20262265Y-23458080D01*
X-20450206Y-23550958D01*
X-20483593Y-23830063D01*
X-31573000Y-23830063D01*
X-31573000Y-22647735D01*
X-19451920Y-22647735D01*
X-19050000Y-23049656D01*
X-18648080Y-22647735D01*
X-18740958Y-22459794D01*
X-19020063Y-22426407D01*
X-19300318Y-22448114D01*
X-19359042Y-22459794D01*
X-19451920Y-22647735D01*
X-31573000Y-22647735D01*
X-31573000Y-17202265D01*
X-19451920Y-17202265D01*
X-19359042Y-17390206D01*
X-19079937Y-17423593D01*
X-18799682Y-17401886D01*
X-18740958Y-17390206D01*
X-18648080Y-17202265D01*
X-19050000Y-16800344D01*
X-19451920Y-17202265D01*
X-31573000Y-17202265D01*
X-31573000Y-15960063D01*
X-20483593Y-15960063D01*
X-20461886Y-16240318D01*
X-20450206Y-16299042D01*
X-20262265Y-16391920D01*
X-19860344Y-15990000D01*
X-18239656Y-15990000D01*
X-17837735Y-16391920D01*
X-17649794Y-16299042D01*
X-17616407Y-16019937D01*
X-17638114Y-15739682D01*
X-17649794Y-15680958D01*
X-17837735Y-15588080D01*
X-18239656Y-15990000D01*
X-19860344Y-15990000D01*
X-20262265Y-15588080D01*
X-20450206Y-15680958D01*
X-20483593Y-15960063D01*
X-31573000Y-15960063D01*
X-31573000Y-14777735D01*
X-19451920Y-14777735D01*
X-19050000Y-15179656D01*
X-18648080Y-14777735D01*
X-18740958Y-14589794D01*
X-19020063Y-14556407D01*
X-19300318Y-14578114D01*
X-19359042Y-14589794D01*
X-19451920Y-14777735D01*
X-31573000Y-14777735D01*
X-31573000Y-14127000D01*
X-6627000Y-14127000D01*
X-6627000Y-46423000D01*
X-6627000Y-46423000D01*
G37*
X-6627000Y-46423000D02*
X-31573000Y-46423000D01*
X-31573000Y-43859453D01*
X-30017000Y-43859453D01*
X-30017000Y-44140547D01*
X-29962162Y-44416241D01*
X-29854591Y-44675938D01*
X-29698424Y-44909660D01*
X-29499660Y-45108424D01*
X-29265938Y-45264591D01*
X-29006241Y-45372162D01*
X-28730547Y-45427000D01*
X-28449453Y-45427000D01*
X-28173759Y-45372162D01*
X-27977940Y-45291050D01*
X-26530706Y-45291050D01*
X-26423077Y-45488343D01*
X-26125548Y-45532529D01*
X-25825115Y-45517820D01*
X-25676923Y-45488343D01*
X-25569294Y-45291050D01*
X-26050000Y-44810344D01*
X-26530706Y-45291050D01*
X-27977940Y-45291050D01*
X-27914062Y-45264591D01*
X-27680340Y-45108424D01*
X-27481576Y-44909660D01*
X-27325409Y-44675938D01*
X-27217838Y-44416241D01*
X-27203251Y-44342907D01*
X-26860344Y-44000000D01*
X-25239656Y-44000000D01*
X-24939549Y-44300107D01*
X-24939549Y-44900000D01*
X-24929374Y-45003310D01*
X-24899239Y-45102650D01*
X-24850304Y-45194202D01*
X-24784448Y-45274448D01*
X-24704202Y-45340304D01*
X-24612650Y-45389239D01*
X-24513310Y-45419374D01*
X-24410000Y-45429549D01*
X-22610000Y-45429549D01*
X-22506690Y-45419374D01*
X-22407350Y-45389239D01*
X-22315798Y-45340304D01*
X-22235552Y-45274448D01*
X-22169696Y-45194202D01*
X-22120761Y-45102650D01*
X-22090626Y-45003310D01*
X-22080451Y-44900000D01*
X-22080451Y-43859453D01*
X-16017000Y-43859453D01*
X-16017000Y-44140547D01*
X-15962162Y-44416241D01*
X-15854591Y-44675938D01*
X-15698424Y-44909660D01*
X-15499660Y-45108424D01*
X-15265938Y-45264591D01*
X-15006241Y-45372162D01*
X-14730547Y-45427000D01*
X-14449453Y-45427000D01*
X-14173759Y-45372162D01*
X-13977940Y-45291050D01*
X-12530706Y-45291050D01*
X-12423077Y-45488343D01*
X-12125548Y-45532529D01*
X-11825115Y-45517820D01*
X-11676923Y-45488343D01*
X-11569294Y-45291050D01*
X-12050000Y-44810344D01*
X-12530706Y-45291050D01*
X-13977940Y-45291050D01*
X-13914062Y-45264591D01*
X-13680340Y-45108424D01*
X-13481576Y-44909660D01*
X-13325409Y-44675938D01*
X-13217838Y-44416241D01*
X-13203251Y-44342907D01*
X-12860344Y-44000000D01*
X-11239656Y-44000000D01*
X-10939549Y-44300107D01*
X-10939549Y-44900000D01*
X-10929374Y-45003310D01*
X-10899239Y-45102650D01*
X-10850304Y-45194202D01*
X-10784448Y-45274448D01*
X-10704202Y-45340304D01*
X-10612650Y-45389239D01*
X-10513310Y-45419374D01*
X-10410000Y-45429549D01*
X-8610000Y-45429549D01*
X-8506690Y-45419374D01*
X-8407350Y-45389239D01*
X-8315798Y-45340304D01*
X-8235552Y-45274448D01*
X-8169696Y-45194202D01*
X-8120761Y-45102650D01*
X-8090626Y-45003310D01*
X-8080451Y-44900000D01*
X-8080451Y-43100000D01*
X-8090626Y-42996690D01*
X-8120761Y-42897350D01*
X-8169696Y-42805798D01*
X-8235552Y-42725552D01*
X-8315798Y-42659696D01*
X-8407350Y-42610761D01*
X-8506690Y-42580626D01*
X-8610000Y-42570451D01*
X-10410000Y-42570451D01*
X-10513310Y-42580626D01*
X-10612650Y-42610761D01*
X-10704202Y-42659696D01*
X-10784448Y-42725552D01*
X-10850304Y-42805798D01*
X-10899239Y-42897350D01*
X-10929374Y-42996690D01*
X-10939549Y-43100000D01*
X-10939549Y-43699893D01*
X-11239656Y-44000000D01*
X-12860344Y-44000000D01*
X-13203251Y-43657093D01*
X-13217838Y-43583759D01*
X-13325409Y-43324062D01*
X-13481576Y-43090340D01*
X-13680340Y-42891576D01*
X-13914062Y-42735409D01*
X-13977939Y-42708950D01*
X-12530706Y-42708950D01*
X-12050000Y-43189656D01*
X-11569294Y-42708950D01*
X-11676923Y-42511657D01*
X-11974452Y-42467471D01*
X-12274885Y-42482180D01*
X-12423077Y-42511657D01*
X-12530706Y-42708950D01*
X-13977939Y-42708950D01*
X-14173759Y-42627838D01*
X-14449453Y-42573000D01*
X-14730547Y-42573000D01*
X-15006241Y-42627838D01*
X-15265938Y-42735409D01*
X-15499660Y-42891576D01*
X-15698424Y-43090340D01*
X-15854591Y-43324062D01*
X-15962162Y-43583759D01*
X-16017000Y-43859453D01*
X-22080451Y-43859453D01*
X-22080451Y-43100000D01*
X-22090626Y-42996690D01*
X-22120761Y-42897350D01*
X-22169696Y-42805798D01*
X-22235552Y-42725552D01*
X-22315798Y-42659696D01*
X-22407350Y-42610761D01*
X-22506690Y-42580626D01*
X-22610000Y-42570451D01*
X-24410000Y-42570451D01*
X-24513310Y-42580626D01*
X-24612650Y-42610761D01*
X-24704202Y-42659696D01*
X-24784448Y-42725552D01*
X-24850304Y-42805798D01*
X-24899239Y-42897350D01*
X-24929374Y-42996690D01*
X-24939549Y-43100000D01*
X-24939549Y-43699893D01*
X-25239656Y-44000000D01*
X-26860344Y-44000000D01*
X-27203251Y-43657093D01*
X-27217838Y-43583759D01*
X-27325409Y-43324062D01*
X-27481576Y-43090340D01*
X-27680340Y-42891576D01*
X-27914062Y-42735409D01*
X-27977939Y-42708950D01*
X-26530706Y-42708950D01*
X-26050000Y-43189656D01*
X-25569294Y-42708950D01*
X-25676923Y-42511657D01*
X-25974452Y-42467471D01*
X-26274885Y-42482180D01*
X-26423077Y-42511657D01*
X-26530706Y-42708950D01*
X-27977939Y-42708950D01*
X-28173759Y-42627838D01*
X-28449453Y-42573000D01*
X-28730547Y-42573000D01*
X-29006241Y-42627838D01*
X-29265938Y-42735409D01*
X-29499660Y-42891576D01*
X-29698424Y-43090340D01*
X-29854591Y-43324062D01*
X-29962162Y-43583759D01*
X-30017000Y-43859453D01*
X-31573000Y-43859453D01*
X-31573000Y-39712265D01*
X-30401920Y-39712265D01*
X-30309042Y-39900206D01*
X-30029937Y-39933593D01*
X-29749682Y-39911886D01*
X-29690958Y-39900206D01*
X-29598080Y-39712265D01*
X-30000000Y-39310344D01*
X-30401920Y-39712265D01*
X-31573000Y-39712265D01*
X-31573000Y-38470063D01*
X-31433593Y-38470063D01*
X-31411886Y-38750318D01*
X-31400206Y-38809042D01*
X-31212265Y-38901920D01*
X-30810344Y-38500000D01*
X-29189656Y-38500000D01*
X-28787735Y-38901920D01*
X-28599794Y-38809042D01*
X-28566407Y-38529937D01*
X-28588114Y-38249682D01*
X-28599794Y-38190958D01*
X-28787735Y-38098080D01*
X-29189656Y-38500000D01*
X-30810344Y-38500000D01*
X-31212265Y-38098080D01*
X-31400206Y-38190958D01*
X-31433593Y-38470063D01*
X-31573000Y-38470063D01*
X-31573000Y-37287735D01*
X-30401920Y-37287735D01*
X-30000000Y-37689656D01*
X-29598080Y-37287735D01*
X-29690958Y-37099794D01*
X-29970063Y-37066407D01*
X-30250318Y-37088114D01*
X-30309042Y-37099794D01*
X-30401920Y-37287735D01*
X-31573000Y-37287735D01*
X-31573000Y-25072265D01*
X-19451920Y-25072265D01*
X-19359042Y-25260206D01*
X-19079937Y-25293593D01*
X-18799682Y-25271886D01*
X-18740958Y-25260206D01*
X-18648080Y-25072265D01*
X-19050000Y-24670344D01*
X-19451920Y-25072265D01*
X-31573000Y-25072265D01*
X-31573000Y-23830063D01*
X-20483593Y-23830063D01*
X-20461886Y-24110318D01*
X-20450206Y-24169042D01*
X-20262265Y-24261920D01*
X-19860344Y-23860000D01*
X-18239656Y-23860000D01*
X-17837735Y-24261920D01*
X-17649794Y-24169042D01*
X-17616407Y-23889937D01*
X-17638114Y-23609682D01*
X-17649794Y-23550958D01*
X-17837735Y-23458080D01*
X-18239656Y-23860000D01*
X-19860344Y-23860000D01*
X-20262265Y-23458080D01*
X-20450206Y-23550958D01*
X-20483593Y-23830063D01*
X-31573000Y-23830063D01*
X-31573000Y-22647735D01*
X-19451920Y-22647735D01*
X-19050000Y-23049656D01*
X-18648080Y-22647735D01*
X-18740958Y-22459794D01*
X-19020063Y-22426407D01*
X-19300318Y-22448114D01*
X-19359042Y-22459794D01*
X-19451920Y-22647735D01*
X-31573000Y-22647735D01*
X-31573000Y-17202265D01*
X-19451920Y-17202265D01*
X-19359042Y-17390206D01*
X-19079937Y-17423593D01*
X-18799682Y-17401886D01*
X-18740958Y-17390206D01*
X-18648080Y-17202265D01*
X-19050000Y-16800344D01*
X-19451920Y-17202265D01*
X-31573000Y-17202265D01*
X-31573000Y-15960063D01*
X-20483593Y-15960063D01*
X-20461886Y-16240318D01*
X-20450206Y-16299042D01*
X-20262265Y-16391920D01*
X-19860344Y-15990000D01*
X-18239656Y-15990000D01*
X-17837735Y-16391920D01*
X-17649794Y-16299042D01*
X-17616407Y-16019937D01*
X-17638114Y-15739682D01*
X-17649794Y-15680958D01*
X-17837735Y-15588080D01*
X-18239656Y-15990000D01*
X-19860344Y-15990000D01*
X-20262265Y-15588080D01*
X-20450206Y-15680958D01*
X-20483593Y-15960063D01*
X-31573000Y-15960063D01*
X-31573000Y-14777735D01*
X-19451920Y-14777735D01*
X-19050000Y-15179656D01*
X-18648080Y-14777735D01*
X-18740958Y-14589794D01*
X-19020063Y-14556407D01*
X-19300318Y-14578114D01*
X-19359042Y-14589794D01*
X-19451920Y-14777735D01*
X-31573000Y-14777735D01*
X-31573000Y-14127000D01*
X-6627000Y-14127000D01*
X-6627000Y-46423000D01*
G36*
X-34127000Y12400000D02*
G01*
X-34124560Y12375224D01*
X-34117333Y12351399D01*
X-34105597Y12329443D01*
X-34089803Y12310197D01*
X-34070557Y12294403D01*
X-34048601Y12282667D01*
X-34024776Y12275440D01*
X-34000000Y12273000D01*
X-6627000Y12273000D01*
X-6627000Y-11873000D01*
X-18648443Y-11873000D01*
X-18648080Y-11872265D01*
X-19050000Y-11470344D01*
X-19451920Y-11872265D01*
X-19451557Y-11873000D01*
X-71423000Y-11873000D01*
X-71423000Y-10550000D01*
X-59730034Y-10550000D01*
X-59717928Y-10672914D01*
X-59682076Y-10791104D01*
X-59623854Y-10900028D01*
X-59545501Y-10995501D01*
X-59450028Y-11073854D01*
X-59341104Y-11132076D01*
X-59222914Y-11167928D01*
X-59100000Y-11180034D01*
X-58729750Y-11177000D01*
X-58573000Y-11020250D01*
X-58573000Y-10373000D01*
X-57427000Y-10373000D01*
X-57427000Y-11020250D01*
X-57270250Y-11177000D01*
X-56900000Y-11180034D01*
X-56777086Y-11167928D01*
X-56658896Y-11132076D01*
X-56549972Y-11073854D01*
X-56454499Y-10995501D01*
X-56376146Y-10900028D01*
X-56317924Y-10791104D01*
X-56282072Y-10672914D01*
X-56269966Y-10550000D01*
X-49730034Y-10550000D01*
X-49717928Y-10672914D01*
X-49682076Y-10791104D01*
X-49623854Y-10900028D01*
X-49545501Y-10995501D01*
X-49450028Y-11073854D01*
X-49341104Y-11132076D01*
X-49222914Y-11167928D01*
X-49100000Y-11180034D01*
X-48729750Y-11177000D01*
X-48573000Y-11020250D01*
X-48573000Y-10373000D01*
X-47427000Y-10373000D01*
X-47427000Y-11020250D01*
X-47270250Y-11177000D01*
X-46900000Y-11180034D01*
X-46777086Y-11167928D01*
X-46658896Y-11132076D01*
X-46549972Y-11073854D01*
X-46454499Y-10995501D01*
X-46376146Y-10900028D01*
X-46317924Y-10791104D01*
X-46282072Y-10672914D01*
X-46277852Y-10630063D01*
X-20483593Y-10630063D01*
X-20461886Y-10910318D01*
X-20450206Y-10969042D01*
X-20262265Y-11061920D01*
X-19860344Y-10660000D01*
X-18239656Y-10660000D01*
X-17837735Y-11061920D01*
X-17649794Y-10969042D01*
X-17616407Y-10689937D01*
X-17638114Y-10409682D01*
X-17649794Y-10350958D01*
X-17837735Y-10258080D01*
X-18239656Y-10660000D01*
X-19860344Y-10660000D01*
X-20262265Y-10258080D01*
X-20450206Y-10350958D01*
X-20483593Y-10630063D01*
X-46277852Y-10630063D01*
X-46269966Y-10550000D01*
X-46273000Y-10529750D01*
X-46429750Y-10373000D01*
X-47427000Y-10373000D01*
X-48573000Y-10373000D01*
X-49570250Y-10373000D01*
X-49727000Y-10529750D01*
X-49730034Y-10550000D01*
X-56269966Y-10550000D01*
X-56273000Y-10529750D01*
X-56429750Y-10373000D01*
X-57427000Y-10373000D01*
X-58573000Y-10373000D01*
X-59570250Y-10373000D01*
X-59727000Y-10529750D01*
X-59730034Y-10550000D01*
X-71423000Y-10550000D01*
X-71423000Y-9447735D01*
X-19451920Y-9447735D01*
X-19050000Y-9849656D01*
X-18648080Y-9447735D01*
X-18740958Y-9259794D01*
X-19020063Y-9226407D01*
X-19300318Y-9248114D01*
X-19359042Y-9259794D01*
X-19451920Y-9447735D01*
X-71423000Y-9447735D01*
X-71423000Y-9050000D01*
X-59730034Y-9050000D01*
X-59727000Y-9070250D01*
X-59570250Y-9227000D01*
X-58573000Y-9227000D01*
X-58573000Y-8579750D01*
X-57427000Y-8579750D01*
X-57427000Y-9227000D01*
X-56429750Y-9227000D01*
X-56273000Y-9070250D01*
X-56269966Y-9050000D01*
X-49730034Y-9050000D01*
X-49727000Y-9070250D01*
X-49570250Y-9227000D01*
X-48573000Y-9227000D01*
X-48573000Y-8579750D01*
X-47427000Y-8579750D01*
X-47427000Y-9227000D01*
X-46429750Y-9227000D01*
X-46273000Y-9070250D01*
X-46269966Y-9050000D01*
X-46282072Y-8927086D01*
X-46317924Y-8808896D01*
X-46376146Y-8699972D01*
X-46454499Y-8604499D01*
X-46549972Y-8526146D01*
X-46658896Y-8467924D01*
X-46777086Y-8432072D01*
X-46900000Y-8419966D01*
X-47270250Y-8423000D01*
X-47427000Y-8579750D01*
X-48573000Y-8579750D01*
X-48729750Y-8423000D01*
X-49100000Y-8419966D01*
X-49222914Y-8432072D01*
X-49341104Y-8467924D01*
X-49450028Y-8526146D01*
X-49545501Y-8604499D01*
X-49623854Y-8699972D01*
X-49682076Y-8808896D01*
X-49717928Y-8927086D01*
X-49730034Y-9050000D01*
X-56269966Y-9050000D01*
X-56282072Y-8927086D01*
X-56317924Y-8808896D01*
X-56376146Y-8699972D01*
X-56454499Y-8604499D01*
X-56549972Y-8526146D01*
X-56658896Y-8467924D01*
X-56777086Y-8432072D01*
X-56900000Y-8419966D01*
X-57270250Y-8423000D01*
X-57427000Y-8579750D01*
X-58573000Y-8579750D01*
X-58729750Y-8423000D01*
X-59100000Y-8419966D01*
X-59222914Y-8432072D01*
X-59341104Y-8467924D01*
X-59450028Y-8526146D01*
X-59545501Y-8604499D01*
X-59623854Y-8699972D01*
X-59682076Y-8808896D01*
X-59717928Y-8927086D01*
X-59730034Y-9050000D01*
X-71423000Y-9050000D01*
X-71423000Y-6542265D01*
X-19451920Y-6542265D01*
X-19359042Y-6730206D01*
X-19079937Y-6763593D01*
X-18799682Y-6741886D01*
X-18740958Y-6730206D01*
X-18648080Y-6542265D01*
X-19050000Y-6140344D01*
X-19451920Y-6542265D01*
X-71423000Y-6542265D01*
X-71423000Y-5300063D01*
X-20483593Y-5300063D01*
X-20461886Y-5580318D01*
X-20450206Y-5639042D01*
X-20262265Y-5731920D01*
X-19860344Y-5330000D01*
X-18239656Y-5330000D01*
X-17837735Y-5731920D01*
X-17649794Y-5639042D01*
X-17616407Y-5359937D01*
X-17638114Y-5079682D01*
X-17649794Y-5020958D01*
X-17837735Y-4928080D01*
X-18239656Y-5330000D01*
X-19860344Y-5330000D01*
X-20262265Y-4928080D01*
X-20450206Y-5020958D01*
X-20483593Y-5300063D01*
X-71423000Y-5300063D01*
X-71423000Y-4117735D01*
X-19451920Y-4117735D01*
X-19050000Y-4519656D01*
X-18648080Y-4117735D01*
X-18740958Y-3929794D01*
X-19020063Y-3896407D01*
X-19300318Y-3918114D01*
X-19359042Y-3929794D01*
X-19451920Y-4117735D01*
X-71423000Y-4117735D01*
X-71423000Y-1212265D01*
X-19451920Y-1212265D01*
X-19359042Y-1400206D01*
X-19079937Y-1433593D01*
X-18799682Y-1411886D01*
X-18740958Y-1400206D01*
X-18648080Y-1212265D01*
X-19050000Y-810344D01*
X-19451920Y-1212265D01*
X-71423000Y-1212265D01*
X-71423000Y29937D01*
X-20483593Y29937D01*
X-20461886Y-250318D01*
X-20450206Y-309042D01*
X-20262265Y-401920D01*
X-19860344Y0D01*
X-18239656Y0D01*
X-17837735Y-401920D01*
X-17649794Y-309042D01*
X-17616407Y-29937D01*
X-17638114Y250318D01*
X-17649794Y309042D01*
X-17837735Y401920D01*
X-18239656Y0D01*
X-19860344Y0D01*
X-20262265Y401920D01*
X-20450206Y309042D01*
X-20483593Y29937D01*
X-71423000Y29937D01*
X-71423000Y925002D01*
X-64352533Y925002D01*
X-64340427Y802088D01*
X-64304575Y683898D01*
X-64246353Y574974D01*
X-64168000Y479501D01*
X-64072527Y401148D01*
X-63963603Y342926D01*
X-63845413Y307074D01*
X-63722499Y294968D01*
X-63252249Y298002D01*
X-63095499Y454752D01*
X-63095499Y1552002D01*
X-61949499Y1552002D01*
X-61949499Y454752D01*
X-61792749Y298002D01*
X-61322499Y294968D01*
X-61199585Y307074D01*
X-61081395Y342926D01*
X-60972471Y401148D01*
X-60876998Y479501D01*
X-60798645Y574974D01*
X-60740423Y683898D01*
X-60704571Y802088D01*
X-60692465Y925002D01*
X-60693271Y1050000D01*
X-45330034Y1050000D01*
X-45317928Y927086D01*
X-45282076Y808896D01*
X-45223854Y699972D01*
X-45145501Y604499D01*
X-45050028Y526146D01*
X-44941104Y467924D01*
X-44822914Y432072D01*
X-44700000Y419966D01*
X-44229750Y423000D01*
X-44073000Y579750D01*
X-44073000Y1677000D01*
X-42927000Y1677000D01*
X-42927000Y579750D01*
X-42770250Y423000D01*
X-42300000Y419966D01*
X-42177086Y432072D01*
X-42058896Y467924D01*
X-41949972Y526146D01*
X-41854499Y604499D01*
X-41776146Y699972D01*
X-41717924Y808896D01*
X-41682072Y927086D01*
X-41669966Y1050000D01*
X-41671012Y1212265D01*
X-19451920Y1212265D01*
X-19050000Y810344D01*
X-18648080Y1212265D01*
X-18740958Y1400206D01*
X-19020063Y1433593D01*
X-19300318Y1411886D01*
X-19359042Y1400206D01*
X-19451920Y1212265D01*
X-41671012Y1212265D01*
X-41673000Y1520250D01*
X-41784117Y1631367D01*
X-31558289Y1631367D01*
X-31436432Y1424457D01*
X-31120673Y1369587D01*
X-30800277Y1377373D01*
X-30563568Y1424457D01*
X-30441711Y1631367D01*
X-31000000Y2189656D01*
X-31558289Y1631367D01*
X-41784117Y1631367D01*
X-41829750Y1677000D01*
X-42927000Y1677000D01*
X-44073000Y1677000D01*
X-45170250Y1677000D01*
X-45327000Y1520250D01*
X-45330034Y1050000D01*
X-60693271Y1050000D01*
X-60695499Y1395252D01*
X-60852249Y1552002D01*
X-61949499Y1552002D01*
X-63095499Y1552002D01*
X-64192749Y1552002D01*
X-64349499Y1395252D01*
X-64352533Y925002D01*
X-71423000Y925002D01*
X-71423000Y3325002D01*
X-64352533Y3325002D01*
X-64349499Y2854752D01*
X-64192749Y2698002D01*
X-63095499Y2698002D01*
X-63095499Y3795252D01*
X-61949499Y3795252D01*
X-61949499Y2698002D01*
X-60852249Y2698002D01*
X-60695499Y2854752D01*
X-60692465Y3325002D01*
X-60704571Y3447916D01*
X-60705203Y3450000D01*
X-45330034Y3450000D01*
X-45327000Y2979750D01*
X-45170250Y2823000D01*
X-44073000Y2823000D01*
X-44073000Y3920250D01*
X-42927000Y3920250D01*
X-42927000Y2823000D01*
X-41829750Y2823000D01*
X-41673000Y2979750D01*
X-41672091Y3120673D01*
X-32630413Y3120673D01*
X-32622627Y2800277D01*
X-32575543Y2563568D01*
X-32368633Y2441711D01*
X-31810344Y3000000D01*
X-30189656Y3000000D01*
X-29631367Y2441711D01*
X-29424457Y2563568D01*
X-29369587Y2879327D01*
X-29377373Y3199723D01*
X-29424457Y3436432D01*
X-29631367Y3558289D01*
X-30189656Y3000000D01*
X-31810344Y3000000D01*
X-32368633Y3558289D01*
X-32575543Y3436432D01*
X-32630413Y3120673D01*
X-41672091Y3120673D01*
X-41669966Y3450000D01*
X-41682072Y3572914D01*
X-41717924Y3691104D01*
X-41776146Y3800028D01*
X-41854499Y3895501D01*
X-41949972Y3973854D01*
X-42058896Y4032076D01*
X-42177086Y4067928D01*
X-42300000Y4080034D01*
X-42770250Y4077000D01*
X-42927000Y3920250D01*
X-44073000Y3920250D01*
X-44229750Y4077000D01*
X-44700000Y4080034D01*
X-44822914Y4067928D01*
X-44941104Y4032076D01*
X-45050028Y3973854D01*
X-45145501Y3895501D01*
X-45223854Y3800028D01*
X-45282076Y3691104D01*
X-45317928Y3572914D01*
X-45330034Y3450000D01*
X-60705203Y3450000D01*
X-60740423Y3566106D01*
X-60798645Y3675030D01*
X-60876998Y3770503D01*
X-60972471Y3848856D01*
X-61081395Y3907078D01*
X-61199585Y3942930D01*
X-61322499Y3955036D01*
X-61792749Y3952002D01*
X-61949499Y3795252D01*
X-63095499Y3795252D01*
X-63252249Y3952002D01*
X-63722499Y3955036D01*
X-63845413Y3942930D01*
X-63963603Y3907078D01*
X-64072527Y3848856D01*
X-64168000Y3770503D01*
X-64246353Y3675030D01*
X-64304575Y3566106D01*
X-64340427Y3447916D01*
X-64352533Y3325002D01*
X-71423000Y3325002D01*
X-71423000Y4368633D01*
X-31558289Y4368633D01*
X-31000000Y3810344D01*
X-30692609Y4117735D01*
X-19451920Y4117735D01*
X-19359042Y3929794D01*
X-19079937Y3896407D01*
X-18799682Y3918114D01*
X-18740958Y3929794D01*
X-18648080Y4117735D01*
X-19050000Y4519656D01*
X-19451920Y4117735D01*
X-30692609Y4117735D01*
X-30441711Y4368633D01*
X-30563568Y4575543D01*
X-30879327Y4630413D01*
X-31199723Y4622627D01*
X-31436432Y4575543D01*
X-31558289Y4368633D01*
X-71423000Y4368633D01*
X-71423000Y5359937D01*
X-20483593Y5359937D01*
X-20461886Y5079682D01*
X-20450206Y5020958D01*
X-20262265Y4928080D01*
X-19860344Y5330000D01*
X-18239656Y5330000D01*
X-17837735Y4928080D01*
X-17649794Y5020958D01*
X-17616407Y5300063D01*
X-17638114Y5580318D01*
X-17649794Y5639042D01*
X-17837735Y5731920D01*
X-18239656Y5330000D01*
X-19860344Y5330000D01*
X-20262265Y5731920D01*
X-20450206Y5639042D01*
X-20483593Y5359937D01*
X-71423000Y5359937D01*
X-71423000Y9795097D01*
X-64249499Y9795097D01*
X-64249499Y9454907D01*
X-64183131Y9121255D01*
X-64052946Y8806961D01*
X-63863947Y8524104D01*
X-63623397Y8283554D01*
X-63340540Y8094555D01*
X-63026246Y7964370D01*
X-62692594Y7898002D01*
X-62352404Y7898002D01*
X-62018752Y7964370D01*
X-61704458Y8094555D01*
X-61421601Y8283554D01*
X-61205155Y8500000D01*
X-55630034Y8500000D01*
X-55617928Y8377086D01*
X-55582076Y8258896D01*
X-55523854Y8149972D01*
X-55445501Y8054499D01*
X-55350028Y7976146D01*
X-55241104Y7917924D01*
X-55122914Y7882072D01*
X-55000000Y7869966D01*
X-53729750Y7873000D01*
X-53573000Y8029750D01*
X-53573000Y9927000D01*
X-52427000Y9927000D01*
X-52427000Y8029750D01*
X-52270250Y7873000D01*
X-51000000Y7869966D01*
X-50877086Y7882072D01*
X-50758896Y7917924D01*
X-50649972Y7976146D01*
X-50554499Y8054499D01*
X-50476146Y8149972D01*
X-50417924Y8258896D01*
X-50382072Y8377086D01*
X-50369966Y8500000D01*
X-50373000Y9770250D01*
X-50522845Y9920095D01*
X-45227000Y9920095D01*
X-45227000Y9579905D01*
X-45160632Y9246253D01*
X-45030447Y8931959D01*
X-44841448Y8649102D01*
X-44600898Y8408552D01*
X-44318041Y8219553D01*
X-44003747Y8089368D01*
X-43670095Y8023000D01*
X-43329905Y8023000D01*
X-42996253Y8089368D01*
X-42848919Y8150396D01*
X-32527000Y8150396D01*
X-32527000Y7849604D01*
X-32468319Y7554590D01*
X-32353210Y7276694D01*
X-32186099Y7026594D01*
X-31973406Y6813901D01*
X-31723306Y6646790D01*
X-31445410Y6531681D01*
X-31150396Y6473000D01*
X-30849604Y6473000D01*
X-30554590Y6531681D01*
X-30529039Y6542265D01*
X-19451920Y6542265D01*
X-19050000Y6140344D01*
X-18648080Y6542265D01*
X-18740958Y6730206D01*
X-19020063Y6763593D01*
X-19300318Y6741886D01*
X-19359042Y6730206D01*
X-19451920Y6542265D01*
X-30529039Y6542265D01*
X-30276694Y6646790D01*
X-30026594Y6813901D01*
X-29813901Y7026594D01*
X-29646790Y7276694D01*
X-29531681Y7554590D01*
X-29473000Y7849604D01*
X-29473000Y8150396D01*
X-29531681Y8445410D01*
X-29646790Y8723306D01*
X-29813901Y8973406D01*
X-30026594Y9186099D01*
X-30276694Y9353210D01*
X-30504896Y9447735D01*
X-19451920Y9447735D01*
X-19359042Y9259794D01*
X-19079937Y9226407D01*
X-18799682Y9248114D01*
X-18740958Y9259794D01*
X-18648080Y9447735D01*
X-19050000Y9849656D01*
X-19451920Y9447735D01*
X-30504896Y9447735D01*
X-30554590Y9468319D01*
X-30849604Y9527000D01*
X-31150396Y9527000D01*
X-31445410Y9468319D01*
X-31723306Y9353210D01*
X-31973406Y9186099D01*
X-32186099Y8973406D01*
X-32353210Y8723306D01*
X-32468319Y8445410D01*
X-32527000Y8150396D01*
X-42848919Y8150396D01*
X-42681959Y8219553D01*
X-42399102Y8408552D01*
X-42158552Y8649102D01*
X-41969553Y8931959D01*
X-41839368Y9246253D01*
X-41773000Y9579905D01*
X-41773000Y9920095D01*
X-41839368Y10253747D01*
X-41969553Y10568041D01*
X-42051001Y10689937D01*
X-20483593Y10689937D01*
X-20461886Y10409682D01*
X-20450206Y10350958D01*
X-20262265Y10258080D01*
X-19860344Y10660000D01*
X-18239656Y10660000D01*
X-17837735Y10258080D01*
X-17649794Y10350958D01*
X-17616407Y10630063D01*
X-17638114Y10910318D01*
X-17649794Y10969042D01*
X-17837735Y11061920D01*
X-18239656Y10660000D01*
X-19860344Y10660000D01*
X-20262265Y11061920D01*
X-20450206Y10969042D01*
X-20483593Y10689937D01*
X-42051001Y10689937D01*
X-42158552Y10850898D01*
X-42399102Y11091448D01*
X-42681959Y11280447D01*
X-42996253Y11410632D01*
X-43329905Y11477000D01*
X-43670095Y11477000D01*
X-44003747Y11410632D01*
X-44318041Y11280447D01*
X-44600898Y11091448D01*
X-44841448Y10850898D01*
X-45030447Y10568041D01*
X-45160632Y10253747D01*
X-45227000Y9920095D01*
X-50522845Y9920095D01*
X-50529750Y9927000D01*
X-52427000Y9927000D01*
X-53573000Y9927000D01*
X-55470250Y9927000D01*
X-55627000Y9770250D01*
X-55630034Y8500000D01*
X-61205155Y8500000D01*
X-61181051Y8524104D01*
X-60992052Y8806961D01*
X-60861867Y9121255D01*
X-60795499Y9454907D01*
X-60795499Y9795097D01*
X-60861867Y10128749D01*
X-60992052Y10443043D01*
X-61181051Y10725900D01*
X-61421601Y10966450D01*
X-61704458Y11155449D01*
X-62018752Y11285634D01*
X-62352404Y11352002D01*
X-62692594Y11352002D01*
X-63026246Y11285634D01*
X-63340540Y11155449D01*
X-63623397Y10966450D01*
X-63863947Y10725900D01*
X-64052946Y10443043D01*
X-64183131Y10128749D01*
X-64249499Y9795097D01*
X-71423000Y9795097D01*
X-71423000Y12500000D01*
X-55630034Y12500000D01*
X-55627000Y11229750D01*
X-55470250Y11073000D01*
X-53573000Y11073000D01*
X-53573000Y12970250D01*
X-52427000Y12970250D01*
X-52427000Y11073000D01*
X-50529750Y11073000D01*
X-50373000Y11229750D01*
X-50371466Y11872265D01*
X-19451920Y11872265D01*
X-19050000Y11470344D01*
X-18648080Y11872265D01*
X-18740958Y12060206D01*
X-19020063Y12093593D01*
X-19300318Y12071886D01*
X-19359042Y12060206D01*
X-19451920Y11872265D01*
X-50371466Y11872265D01*
X-50369966Y12500000D01*
X-50382072Y12622914D01*
X-50417924Y12741104D01*
X-50476146Y12850028D01*
X-50554499Y12945501D01*
X-50649972Y13023854D01*
X-50758896Y13082076D01*
X-50877086Y13117928D01*
X-51000000Y13130034D01*
X-52270250Y13127000D01*
X-52427000Y12970250D01*
X-53573000Y12970250D01*
X-53729750Y13127000D01*
X-55000000Y13130034D01*
X-55122914Y13117928D01*
X-55241104Y13082076D01*
X-55350028Y13023854D01*
X-55445501Y12945501D01*
X-55523854Y12850028D01*
X-55582076Y12741104D01*
X-55617928Y12622914D01*
X-55630034Y12500000D01*
X-71423000Y12500000D01*
X-71423000Y20050000D01*
X-64330034Y20050000D01*
X-64317928Y19927086D01*
X-64282076Y19808896D01*
X-64223854Y19699972D01*
X-64145501Y19604499D01*
X-64050028Y19526146D01*
X-63941104Y19467924D01*
X-63822914Y19432072D01*
X-63700000Y19419966D01*
X-63229750Y19423000D01*
X-63073000Y19579750D01*
X-63073000Y20677000D01*
X-61927000Y20677000D01*
X-61927000Y19579750D01*
X-61770250Y19423000D01*
X-61300000Y19419966D01*
X-61177086Y19432072D01*
X-61058896Y19467924D01*
X-60949972Y19526146D01*
X-60854499Y19604499D01*
X-60776146Y19699972D01*
X-60717924Y19808896D01*
X-60682072Y19927086D01*
X-60669966Y20050000D01*
X-60673000Y20520250D01*
X-60829750Y20677000D01*
X-61927000Y20677000D01*
X-63073000Y20677000D01*
X-64170250Y20677000D01*
X-64327000Y20520250D01*
X-64330034Y20050000D01*
X-71423000Y20050000D01*
X-71423000Y20748888D01*
X-55527000Y20748888D01*
X-55527000Y20251112D01*
X-55429889Y19762901D01*
X-55239398Y19303017D01*
X-54962849Y18889131D01*
X-54610869Y18537151D01*
X-54196983Y18260602D01*
X-53737099Y18070111D01*
X-53248888Y17973000D01*
X-52751112Y17973000D01*
X-52262901Y18070111D01*
X-51803017Y18260602D01*
X-51389131Y18537151D01*
X-51037151Y18889131D01*
X-50760602Y19303017D01*
X-50570111Y19762901D01*
X-50513004Y20050000D01*
X-45330034Y20050000D01*
X-45317928Y19927086D01*
X-45282076Y19808896D01*
X-45223854Y19699972D01*
X-45145501Y19604499D01*
X-45050028Y19526146D01*
X-44941104Y19467924D01*
X-44822914Y19432072D01*
X-44700000Y19419966D01*
X-44229750Y19423000D01*
X-44073000Y19579750D01*
X-44073000Y20677000D01*
X-42927000Y20677000D01*
X-42927000Y19579750D01*
X-42770250Y19423000D01*
X-42300000Y19419966D01*
X-42177086Y19432072D01*
X-42058896Y19467924D01*
X-41949972Y19526146D01*
X-41854499Y19604499D01*
X-41776146Y19699972D01*
X-41717924Y19808896D01*
X-41682072Y19927086D01*
X-41669966Y20050000D01*
X-41673000Y20520250D01*
X-41829750Y20677000D01*
X-42927000Y20677000D01*
X-44073000Y20677000D01*
X-45170250Y20677000D01*
X-45327000Y20520250D01*
X-45330034Y20050000D01*
X-50513004Y20050000D01*
X-50473000Y20251112D01*
X-50473000Y20748888D01*
X-50570111Y21237099D01*
X-50760602Y21696983D01*
X-51037151Y22110869D01*
X-51376282Y22450000D01*
X-45330034Y22450000D01*
X-45327000Y21979750D01*
X-45170250Y21823000D01*
X-44073000Y21823000D01*
X-44073000Y22920250D01*
X-42927000Y22920250D01*
X-42927000Y21823000D01*
X-41829750Y21823000D01*
X-41673000Y21979750D01*
X-41669966Y22450000D01*
X-41682072Y22572914D01*
X-41717924Y22691104D01*
X-41776146Y22800028D01*
X-41854499Y22895501D01*
X-41949972Y22973854D01*
X-42058896Y23032076D01*
X-42177086Y23067928D01*
X-42300000Y23080034D01*
X-42770250Y23077000D01*
X-42927000Y22920250D01*
X-44073000Y22920250D01*
X-44229750Y23077000D01*
X-44700000Y23080034D01*
X-44822914Y23067928D01*
X-44941104Y23032076D01*
X-45050028Y22973854D01*
X-45145501Y22895501D01*
X-45223854Y22800028D01*
X-45282076Y22691104D01*
X-45317928Y22572914D01*
X-45330034Y22450000D01*
X-51376282Y22450000D01*
X-51389131Y22462849D01*
X-51803017Y22739398D01*
X-52262901Y22929889D01*
X-52751112Y23027000D01*
X-53248888Y23027000D01*
X-53737099Y22929889D01*
X-54196983Y22739398D01*
X-54610869Y22462849D01*
X-54962849Y22110869D01*
X-55239398Y21696983D01*
X-55429889Y21237099D01*
X-55527000Y20748888D01*
X-71423000Y20748888D01*
X-71423000Y22450000D01*
X-64330034Y22450000D01*
X-64327000Y21979750D01*
X-64170250Y21823000D01*
X-63073000Y21823000D01*
X-63073000Y22920250D01*
X-61927000Y22920250D01*
X-61927000Y21823000D01*
X-60829750Y21823000D01*
X-60673000Y21979750D01*
X-60669966Y22450000D01*
X-60682072Y22572914D01*
X-60717924Y22691104D01*
X-60776146Y22800028D01*
X-60854499Y22895501D01*
X-60949972Y22973854D01*
X-61058896Y23032076D01*
X-61177086Y23067928D01*
X-61300000Y23080034D01*
X-61770250Y23077000D01*
X-61927000Y22920250D01*
X-63073000Y22920250D01*
X-63229750Y23077000D01*
X-63700000Y23080034D01*
X-63822914Y23067928D01*
X-63941104Y23032076D01*
X-64050028Y22973854D01*
X-64145501Y22895501D01*
X-64223854Y22800028D01*
X-64282076Y22691104D01*
X-64317928Y22572914D01*
X-64330034Y22450000D01*
X-71423000Y22450000D01*
X-71423000Y28920095D01*
X-64227000Y28920095D01*
X-64227000Y28579905D01*
X-64160632Y28246253D01*
X-64030447Y27931959D01*
X-63841448Y27649102D01*
X-63600898Y27408552D01*
X-63318041Y27219553D01*
X-63003747Y27089368D01*
X-62670095Y27023000D01*
X-62329905Y27023000D01*
X-61996253Y27089368D01*
X-61681959Y27219553D01*
X-61399102Y27408552D01*
X-61158552Y27649102D01*
X-60969553Y27931959D01*
X-60839368Y28246253D01*
X-60773000Y28579905D01*
X-60773000Y28920095D01*
X-45227000Y28920095D01*
X-45227000Y28579905D01*
X-45160632Y28246253D01*
X-45030447Y27931959D01*
X-44841448Y27649102D01*
X-44600898Y27408552D01*
X-44318041Y27219553D01*
X-44003747Y27089368D01*
X-43670095Y27023000D01*
X-43329905Y27023000D01*
X-42996253Y27089368D01*
X-42681959Y27219553D01*
X-42399102Y27408552D01*
X-42158552Y27649102D01*
X-41969553Y27931959D01*
X-41839368Y28246253D01*
X-41773000Y28579905D01*
X-41773000Y28920095D01*
X-41839368Y29253747D01*
X-41969553Y29568041D01*
X-42158552Y29850898D01*
X-42399102Y30091448D01*
X-42681959Y30280447D01*
X-42996253Y30410632D01*
X-43329905Y30477000D01*
X-43670095Y30477000D01*
X-44003747Y30410632D01*
X-44318041Y30280447D01*
X-44600898Y30091448D01*
X-44841448Y29850898D01*
X-45030447Y29568041D01*
X-45160632Y29253747D01*
X-45227000Y28920095D01*
X-60773000Y28920095D01*
X-60839368Y29253747D01*
X-60969553Y29568041D01*
X-61158552Y29850898D01*
X-61399102Y30091448D01*
X-61681959Y30280447D01*
X-61996253Y30410632D01*
X-62329905Y30477000D01*
X-62670095Y30477000D01*
X-63003747Y30410632D01*
X-63318041Y30280447D01*
X-63600898Y30091448D01*
X-63841448Y29850898D01*
X-64030447Y29568041D01*
X-64160632Y29253747D01*
X-64227000Y28920095D01*
X-71423000Y28920095D01*
X-71423000Y34373000D01*
X-34127000Y34373000D01*
X-34127000Y12400000D01*
X-34127000Y12400000D01*
G37*
X-34127000Y12400000D02*
X-34124560Y12375224D01*
X-34117333Y12351399D01*
X-34105597Y12329443D01*
X-34089803Y12310197D01*
X-34070557Y12294403D01*
X-34048601Y12282667D01*
X-34024776Y12275440D01*
X-34000000Y12273000D01*
X-6627000Y12273000D01*
X-6627000Y-11873000D01*
X-18648443Y-11873000D01*
X-18648080Y-11872265D01*
X-19050000Y-11470344D01*
X-19451920Y-11872265D01*
X-19451557Y-11873000D01*
X-71423000Y-11873000D01*
X-71423000Y-10550000D01*
X-59730034Y-10550000D01*
X-59717928Y-10672914D01*
X-59682076Y-10791104D01*
X-59623854Y-10900028D01*
X-59545501Y-10995501D01*
X-59450028Y-11073854D01*
X-59341104Y-11132076D01*
X-59222914Y-11167928D01*
X-59100000Y-11180034D01*
X-58729750Y-11177000D01*
X-58573000Y-11020250D01*
X-58573000Y-10373000D01*
X-57427000Y-10373000D01*
X-57427000Y-11020250D01*
X-57270250Y-11177000D01*
X-56900000Y-11180034D01*
X-56777086Y-11167928D01*
X-56658896Y-11132076D01*
X-56549972Y-11073854D01*
X-56454499Y-10995501D01*
X-56376146Y-10900028D01*
X-56317924Y-10791104D01*
X-56282072Y-10672914D01*
X-56269966Y-10550000D01*
X-49730034Y-10550000D01*
X-49717928Y-10672914D01*
X-49682076Y-10791104D01*
X-49623854Y-10900028D01*
X-49545501Y-10995501D01*
X-49450028Y-11073854D01*
X-49341104Y-11132076D01*
X-49222914Y-11167928D01*
X-49100000Y-11180034D01*
X-48729750Y-11177000D01*
X-48573000Y-11020250D01*
X-48573000Y-10373000D01*
X-47427000Y-10373000D01*
X-47427000Y-11020250D01*
X-47270250Y-11177000D01*
X-46900000Y-11180034D01*
X-46777086Y-11167928D01*
X-46658896Y-11132076D01*
X-46549972Y-11073854D01*
X-46454499Y-10995501D01*
X-46376146Y-10900028D01*
X-46317924Y-10791104D01*
X-46282072Y-10672914D01*
X-46277852Y-10630063D01*
X-20483593Y-10630063D01*
X-20461886Y-10910318D01*
X-20450206Y-10969042D01*
X-20262265Y-11061920D01*
X-19860344Y-10660000D01*
X-18239656Y-10660000D01*
X-17837735Y-11061920D01*
X-17649794Y-10969042D01*
X-17616407Y-10689937D01*
X-17638114Y-10409682D01*
X-17649794Y-10350958D01*
X-17837735Y-10258080D01*
X-18239656Y-10660000D01*
X-19860344Y-10660000D01*
X-20262265Y-10258080D01*
X-20450206Y-10350958D01*
X-20483593Y-10630063D01*
X-46277852Y-10630063D01*
X-46269966Y-10550000D01*
X-46273000Y-10529750D01*
X-46429750Y-10373000D01*
X-47427000Y-10373000D01*
X-48573000Y-10373000D01*
X-49570250Y-10373000D01*
X-49727000Y-10529750D01*
X-49730034Y-10550000D01*
X-56269966Y-10550000D01*
X-56273000Y-10529750D01*
X-56429750Y-10373000D01*
X-57427000Y-10373000D01*
X-58573000Y-10373000D01*
X-59570250Y-10373000D01*
X-59727000Y-10529750D01*
X-59730034Y-10550000D01*
X-71423000Y-10550000D01*
X-71423000Y-9447735D01*
X-19451920Y-9447735D01*
X-19050000Y-9849656D01*
X-18648080Y-9447735D01*
X-18740958Y-9259794D01*
X-19020063Y-9226407D01*
X-19300318Y-9248114D01*
X-19359042Y-9259794D01*
X-19451920Y-9447735D01*
X-71423000Y-9447735D01*
X-71423000Y-9050000D01*
X-59730034Y-9050000D01*
X-59727000Y-9070250D01*
X-59570250Y-9227000D01*
X-58573000Y-9227000D01*
X-58573000Y-8579750D01*
X-57427000Y-8579750D01*
X-57427000Y-9227000D01*
X-56429750Y-9227000D01*
X-56273000Y-9070250D01*
X-56269966Y-9050000D01*
X-49730034Y-9050000D01*
X-49727000Y-9070250D01*
X-49570250Y-9227000D01*
X-48573000Y-9227000D01*
X-48573000Y-8579750D01*
X-47427000Y-8579750D01*
X-47427000Y-9227000D01*
X-46429750Y-9227000D01*
X-46273000Y-9070250D01*
X-46269966Y-9050000D01*
X-46282072Y-8927086D01*
X-46317924Y-8808896D01*
X-46376146Y-8699972D01*
X-46454499Y-8604499D01*
X-46549972Y-8526146D01*
X-46658896Y-8467924D01*
X-46777086Y-8432072D01*
X-46900000Y-8419966D01*
X-47270250Y-8423000D01*
X-47427000Y-8579750D01*
X-48573000Y-8579750D01*
X-48729750Y-8423000D01*
X-49100000Y-8419966D01*
X-49222914Y-8432072D01*
X-49341104Y-8467924D01*
X-49450028Y-8526146D01*
X-49545501Y-8604499D01*
X-49623854Y-8699972D01*
X-49682076Y-8808896D01*
X-49717928Y-8927086D01*
X-49730034Y-9050000D01*
X-56269966Y-9050000D01*
X-56282072Y-8927086D01*
X-56317924Y-8808896D01*
X-56376146Y-8699972D01*
X-56454499Y-8604499D01*
X-56549972Y-8526146D01*
X-56658896Y-8467924D01*
X-56777086Y-8432072D01*
X-56900000Y-8419966D01*
X-57270250Y-8423000D01*
X-57427000Y-8579750D01*
X-58573000Y-8579750D01*
X-58729750Y-8423000D01*
X-59100000Y-8419966D01*
X-59222914Y-8432072D01*
X-59341104Y-8467924D01*
X-59450028Y-8526146D01*
X-59545501Y-8604499D01*
X-59623854Y-8699972D01*
X-59682076Y-8808896D01*
X-59717928Y-8927086D01*
X-59730034Y-9050000D01*
X-71423000Y-9050000D01*
X-71423000Y-6542265D01*
X-19451920Y-6542265D01*
X-19359042Y-6730206D01*
X-19079937Y-6763593D01*
X-18799682Y-6741886D01*
X-18740958Y-6730206D01*
X-18648080Y-6542265D01*
X-19050000Y-6140344D01*
X-19451920Y-6542265D01*
X-71423000Y-6542265D01*
X-71423000Y-5300063D01*
X-20483593Y-5300063D01*
X-20461886Y-5580318D01*
X-20450206Y-5639042D01*
X-20262265Y-5731920D01*
X-19860344Y-5330000D01*
X-18239656Y-5330000D01*
X-17837735Y-5731920D01*
X-17649794Y-5639042D01*
X-17616407Y-5359937D01*
X-17638114Y-5079682D01*
X-17649794Y-5020958D01*
X-17837735Y-4928080D01*
X-18239656Y-5330000D01*
X-19860344Y-5330000D01*
X-20262265Y-4928080D01*
X-20450206Y-5020958D01*
X-20483593Y-5300063D01*
X-71423000Y-5300063D01*
X-71423000Y-4117735D01*
X-19451920Y-4117735D01*
X-19050000Y-4519656D01*
X-18648080Y-4117735D01*
X-18740958Y-3929794D01*
X-19020063Y-3896407D01*
X-19300318Y-3918114D01*
X-19359042Y-3929794D01*
X-19451920Y-4117735D01*
X-71423000Y-4117735D01*
X-71423000Y-1212265D01*
X-19451920Y-1212265D01*
X-19359042Y-1400206D01*
X-19079937Y-1433593D01*
X-18799682Y-1411886D01*
X-18740958Y-1400206D01*
X-18648080Y-1212265D01*
X-19050000Y-810344D01*
X-19451920Y-1212265D01*
X-71423000Y-1212265D01*
X-71423000Y29937D01*
X-20483593Y29937D01*
X-20461886Y-250318D01*
X-20450206Y-309042D01*
X-20262265Y-401920D01*
X-19860344Y0D01*
X-18239656Y0D01*
X-17837735Y-401920D01*
X-17649794Y-309042D01*
X-17616407Y-29937D01*
X-17638114Y250318D01*
X-17649794Y309042D01*
X-17837735Y401920D01*
X-18239656Y0D01*
X-19860344Y0D01*
X-20262265Y401920D01*
X-20450206Y309042D01*
X-20483593Y29937D01*
X-71423000Y29937D01*
X-71423000Y925002D01*
X-64352533Y925002D01*
X-64340427Y802088D01*
X-64304575Y683898D01*
X-64246353Y574974D01*
X-64168000Y479501D01*
X-64072527Y401148D01*
X-63963603Y342926D01*
X-63845413Y307074D01*
X-63722499Y294968D01*
X-63252249Y298002D01*
X-63095499Y454752D01*
X-63095499Y1552002D01*
X-61949499Y1552002D01*
X-61949499Y454752D01*
X-61792749Y298002D01*
X-61322499Y294968D01*
X-61199585Y307074D01*
X-61081395Y342926D01*
X-60972471Y401148D01*
X-60876998Y479501D01*
X-60798645Y574974D01*
X-60740423Y683898D01*
X-60704571Y802088D01*
X-60692465Y925002D01*
X-60693271Y1050000D01*
X-45330034Y1050000D01*
X-45317928Y927086D01*
X-45282076Y808896D01*
X-45223854Y699972D01*
X-45145501Y604499D01*
X-45050028Y526146D01*
X-44941104Y467924D01*
X-44822914Y432072D01*
X-44700000Y419966D01*
X-44229750Y423000D01*
X-44073000Y579750D01*
X-44073000Y1677000D01*
X-42927000Y1677000D01*
X-42927000Y579750D01*
X-42770250Y423000D01*
X-42300000Y419966D01*
X-42177086Y432072D01*
X-42058896Y467924D01*
X-41949972Y526146D01*
X-41854499Y604499D01*
X-41776146Y699972D01*
X-41717924Y808896D01*
X-41682072Y927086D01*
X-41669966Y1050000D01*
X-41671012Y1212265D01*
X-19451920Y1212265D01*
X-19050000Y810344D01*
X-18648080Y1212265D01*
X-18740958Y1400206D01*
X-19020063Y1433593D01*
X-19300318Y1411886D01*
X-19359042Y1400206D01*
X-19451920Y1212265D01*
X-41671012Y1212265D01*
X-41673000Y1520250D01*
X-41784117Y1631367D01*
X-31558289Y1631367D01*
X-31436432Y1424457D01*
X-31120673Y1369587D01*
X-30800277Y1377373D01*
X-30563568Y1424457D01*
X-30441711Y1631367D01*
X-31000000Y2189656D01*
X-31558289Y1631367D01*
X-41784117Y1631367D01*
X-41829750Y1677000D01*
X-42927000Y1677000D01*
X-44073000Y1677000D01*
X-45170250Y1677000D01*
X-45327000Y1520250D01*
X-45330034Y1050000D01*
X-60693271Y1050000D01*
X-60695499Y1395252D01*
X-60852249Y1552002D01*
X-61949499Y1552002D01*
X-63095499Y1552002D01*
X-64192749Y1552002D01*
X-64349499Y1395252D01*
X-64352533Y925002D01*
X-71423000Y925002D01*
X-71423000Y3325002D01*
X-64352533Y3325002D01*
X-64349499Y2854752D01*
X-64192749Y2698002D01*
X-63095499Y2698002D01*
X-63095499Y3795252D01*
X-61949499Y3795252D01*
X-61949499Y2698002D01*
X-60852249Y2698002D01*
X-60695499Y2854752D01*
X-60692465Y3325002D01*
X-60704571Y3447916D01*
X-60705203Y3450000D01*
X-45330034Y3450000D01*
X-45327000Y2979750D01*
X-45170250Y2823000D01*
X-44073000Y2823000D01*
X-44073000Y3920250D01*
X-42927000Y3920250D01*
X-42927000Y2823000D01*
X-41829750Y2823000D01*
X-41673000Y2979750D01*
X-41672091Y3120673D01*
X-32630413Y3120673D01*
X-32622627Y2800277D01*
X-32575543Y2563568D01*
X-32368633Y2441711D01*
X-31810344Y3000000D01*
X-30189656Y3000000D01*
X-29631367Y2441711D01*
X-29424457Y2563568D01*
X-29369587Y2879327D01*
X-29377373Y3199723D01*
X-29424457Y3436432D01*
X-29631367Y3558289D01*
X-30189656Y3000000D01*
X-31810344Y3000000D01*
X-32368633Y3558289D01*
X-32575543Y3436432D01*
X-32630413Y3120673D01*
X-41672091Y3120673D01*
X-41669966Y3450000D01*
X-41682072Y3572914D01*
X-41717924Y3691104D01*
X-41776146Y3800028D01*
X-41854499Y3895501D01*
X-41949972Y3973854D01*
X-42058896Y4032076D01*
X-42177086Y4067928D01*
X-42300000Y4080034D01*
X-42770250Y4077000D01*
X-42927000Y3920250D01*
X-44073000Y3920250D01*
X-44229750Y4077000D01*
X-44700000Y4080034D01*
X-44822914Y4067928D01*
X-44941104Y4032076D01*
X-45050028Y3973854D01*
X-45145501Y3895501D01*
X-45223854Y3800028D01*
X-45282076Y3691104D01*
X-45317928Y3572914D01*
X-45330034Y3450000D01*
X-60705203Y3450000D01*
X-60740423Y3566106D01*
X-60798645Y3675030D01*
X-60876998Y3770503D01*
X-60972471Y3848856D01*
X-61081395Y3907078D01*
X-61199585Y3942930D01*
X-61322499Y3955036D01*
X-61792749Y3952002D01*
X-61949499Y3795252D01*
X-63095499Y3795252D01*
X-63252249Y3952002D01*
X-63722499Y3955036D01*
X-63845413Y3942930D01*
X-63963603Y3907078D01*
X-64072527Y3848856D01*
X-64168000Y3770503D01*
X-64246353Y3675030D01*
X-64304575Y3566106D01*
X-64340427Y3447916D01*
X-64352533Y3325002D01*
X-71423000Y3325002D01*
X-71423000Y4368633D01*
X-31558289Y4368633D01*
X-31000000Y3810344D01*
X-30692609Y4117735D01*
X-19451920Y4117735D01*
X-19359042Y3929794D01*
X-19079937Y3896407D01*
X-18799682Y3918114D01*
X-18740958Y3929794D01*
X-18648080Y4117735D01*
X-19050000Y4519656D01*
X-19451920Y4117735D01*
X-30692609Y4117735D01*
X-30441711Y4368633D01*
X-30563568Y4575543D01*
X-30879327Y4630413D01*
X-31199723Y4622627D01*
X-31436432Y4575543D01*
X-31558289Y4368633D01*
X-71423000Y4368633D01*
X-71423000Y5359937D01*
X-20483593Y5359937D01*
X-20461886Y5079682D01*
X-20450206Y5020958D01*
X-20262265Y4928080D01*
X-19860344Y5330000D01*
X-18239656Y5330000D01*
X-17837735Y4928080D01*
X-17649794Y5020958D01*
X-17616407Y5300063D01*
X-17638114Y5580318D01*
X-17649794Y5639042D01*
X-17837735Y5731920D01*
X-18239656Y5330000D01*
X-19860344Y5330000D01*
X-20262265Y5731920D01*
X-20450206Y5639042D01*
X-20483593Y5359937D01*
X-71423000Y5359937D01*
X-71423000Y9795097D01*
X-64249499Y9795097D01*
X-64249499Y9454907D01*
X-64183131Y9121255D01*
X-64052946Y8806961D01*
X-63863947Y8524104D01*
X-63623397Y8283554D01*
X-63340540Y8094555D01*
X-63026246Y7964370D01*
X-62692594Y7898002D01*
X-62352404Y7898002D01*
X-62018752Y7964370D01*
X-61704458Y8094555D01*
X-61421601Y8283554D01*
X-61205155Y8500000D01*
X-55630034Y8500000D01*
X-55617928Y8377086D01*
X-55582076Y8258896D01*
X-55523854Y8149972D01*
X-55445501Y8054499D01*
X-55350028Y7976146D01*
X-55241104Y7917924D01*
X-55122914Y7882072D01*
X-55000000Y7869966D01*
X-53729750Y7873000D01*
X-53573000Y8029750D01*
X-53573000Y9927000D01*
X-52427000Y9927000D01*
X-52427000Y8029750D01*
X-52270250Y7873000D01*
X-51000000Y7869966D01*
X-50877086Y7882072D01*
X-50758896Y7917924D01*
X-50649972Y7976146D01*
X-50554499Y8054499D01*
X-50476146Y8149972D01*
X-50417924Y8258896D01*
X-50382072Y8377086D01*
X-50369966Y8500000D01*
X-50373000Y9770250D01*
X-50522845Y9920095D01*
X-45227000Y9920095D01*
X-45227000Y9579905D01*
X-45160632Y9246253D01*
X-45030447Y8931959D01*
X-44841448Y8649102D01*
X-44600898Y8408552D01*
X-44318041Y8219553D01*
X-44003747Y8089368D01*
X-43670095Y8023000D01*
X-43329905Y8023000D01*
X-42996253Y8089368D01*
X-42848919Y8150396D01*
X-32527000Y8150396D01*
X-32527000Y7849604D01*
X-32468319Y7554590D01*
X-32353210Y7276694D01*
X-32186099Y7026594D01*
X-31973406Y6813901D01*
X-31723306Y6646790D01*
X-31445410Y6531681D01*
X-31150396Y6473000D01*
X-30849604Y6473000D01*
X-30554590Y6531681D01*
X-30529039Y6542265D01*
X-19451920Y6542265D01*
X-19050000Y6140344D01*
X-18648080Y6542265D01*
X-18740958Y6730206D01*
X-19020063Y6763593D01*
X-19300318Y6741886D01*
X-19359042Y6730206D01*
X-19451920Y6542265D01*
X-30529039Y6542265D01*
X-30276694Y6646790D01*
X-30026594Y6813901D01*
X-29813901Y7026594D01*
X-29646790Y7276694D01*
X-29531681Y7554590D01*
X-29473000Y7849604D01*
X-29473000Y8150396D01*
X-29531681Y8445410D01*
X-29646790Y8723306D01*
X-29813901Y8973406D01*
X-30026594Y9186099D01*
X-30276694Y9353210D01*
X-30504896Y9447735D01*
X-19451920Y9447735D01*
X-19359042Y9259794D01*
X-19079937Y9226407D01*
X-18799682Y9248114D01*
X-18740958Y9259794D01*
X-18648080Y9447735D01*
X-19050000Y9849656D01*
X-19451920Y9447735D01*
X-30504896Y9447735D01*
X-30554590Y9468319D01*
X-30849604Y9527000D01*
X-31150396Y9527000D01*
X-31445410Y9468319D01*
X-31723306Y9353210D01*
X-31973406Y9186099D01*
X-32186099Y8973406D01*
X-32353210Y8723306D01*
X-32468319Y8445410D01*
X-32527000Y8150396D01*
X-42848919Y8150396D01*
X-42681959Y8219553D01*
X-42399102Y8408552D01*
X-42158552Y8649102D01*
X-41969553Y8931959D01*
X-41839368Y9246253D01*
X-41773000Y9579905D01*
X-41773000Y9920095D01*
X-41839368Y10253747D01*
X-41969553Y10568041D01*
X-42051001Y10689937D01*
X-20483593Y10689937D01*
X-20461886Y10409682D01*
X-20450206Y10350958D01*
X-20262265Y10258080D01*
X-19860344Y10660000D01*
X-18239656Y10660000D01*
X-17837735Y10258080D01*
X-17649794Y10350958D01*
X-17616407Y10630063D01*
X-17638114Y10910318D01*
X-17649794Y10969042D01*
X-17837735Y11061920D01*
X-18239656Y10660000D01*
X-19860344Y10660000D01*
X-20262265Y11061920D01*
X-20450206Y10969042D01*
X-20483593Y10689937D01*
X-42051001Y10689937D01*
X-42158552Y10850898D01*
X-42399102Y11091448D01*
X-42681959Y11280447D01*
X-42996253Y11410632D01*
X-43329905Y11477000D01*
X-43670095Y11477000D01*
X-44003747Y11410632D01*
X-44318041Y11280447D01*
X-44600898Y11091448D01*
X-44841448Y10850898D01*
X-45030447Y10568041D01*
X-45160632Y10253747D01*
X-45227000Y9920095D01*
X-50522845Y9920095D01*
X-50529750Y9927000D01*
X-52427000Y9927000D01*
X-53573000Y9927000D01*
X-55470250Y9927000D01*
X-55627000Y9770250D01*
X-55630034Y8500000D01*
X-61205155Y8500000D01*
X-61181051Y8524104D01*
X-60992052Y8806961D01*
X-60861867Y9121255D01*
X-60795499Y9454907D01*
X-60795499Y9795097D01*
X-60861867Y10128749D01*
X-60992052Y10443043D01*
X-61181051Y10725900D01*
X-61421601Y10966450D01*
X-61704458Y11155449D01*
X-62018752Y11285634D01*
X-62352404Y11352002D01*
X-62692594Y11352002D01*
X-63026246Y11285634D01*
X-63340540Y11155449D01*
X-63623397Y10966450D01*
X-63863947Y10725900D01*
X-64052946Y10443043D01*
X-64183131Y10128749D01*
X-64249499Y9795097D01*
X-71423000Y9795097D01*
X-71423000Y12500000D01*
X-55630034Y12500000D01*
X-55627000Y11229750D01*
X-55470250Y11073000D01*
X-53573000Y11073000D01*
X-53573000Y12970250D01*
X-52427000Y12970250D01*
X-52427000Y11073000D01*
X-50529750Y11073000D01*
X-50373000Y11229750D01*
X-50371466Y11872265D01*
X-19451920Y11872265D01*
X-19050000Y11470344D01*
X-18648080Y11872265D01*
X-18740958Y12060206D01*
X-19020063Y12093593D01*
X-19300318Y12071886D01*
X-19359042Y12060206D01*
X-19451920Y11872265D01*
X-50371466Y11872265D01*
X-50369966Y12500000D01*
X-50382072Y12622914D01*
X-50417924Y12741104D01*
X-50476146Y12850028D01*
X-50554499Y12945501D01*
X-50649972Y13023854D01*
X-50758896Y13082076D01*
X-50877086Y13117928D01*
X-51000000Y13130034D01*
X-52270250Y13127000D01*
X-52427000Y12970250D01*
X-53573000Y12970250D01*
X-53729750Y13127000D01*
X-55000000Y13130034D01*
X-55122914Y13117928D01*
X-55241104Y13082076D01*
X-55350028Y13023854D01*
X-55445501Y12945501D01*
X-55523854Y12850028D01*
X-55582076Y12741104D01*
X-55617928Y12622914D01*
X-55630034Y12500000D01*
X-71423000Y12500000D01*
X-71423000Y20050000D01*
X-64330034Y20050000D01*
X-64317928Y19927086D01*
X-64282076Y19808896D01*
X-64223854Y19699972D01*
X-64145501Y19604499D01*
X-64050028Y19526146D01*
X-63941104Y19467924D01*
X-63822914Y19432072D01*
X-63700000Y19419966D01*
X-63229750Y19423000D01*
X-63073000Y19579750D01*
X-63073000Y20677000D01*
X-61927000Y20677000D01*
X-61927000Y19579750D01*
X-61770250Y19423000D01*
X-61300000Y19419966D01*
X-61177086Y19432072D01*
X-61058896Y19467924D01*
X-60949972Y19526146D01*
X-60854499Y19604499D01*
X-60776146Y19699972D01*
X-60717924Y19808896D01*
X-60682072Y19927086D01*
X-60669966Y20050000D01*
X-60673000Y20520250D01*
X-60829750Y20677000D01*
X-61927000Y20677000D01*
X-63073000Y20677000D01*
X-64170250Y20677000D01*
X-64327000Y20520250D01*
X-64330034Y20050000D01*
X-71423000Y20050000D01*
X-71423000Y20748888D01*
X-55527000Y20748888D01*
X-55527000Y20251112D01*
X-55429889Y19762901D01*
X-55239398Y19303017D01*
X-54962849Y18889131D01*
X-54610869Y18537151D01*
X-54196983Y18260602D01*
X-53737099Y18070111D01*
X-53248888Y17973000D01*
X-52751112Y17973000D01*
X-52262901Y18070111D01*
X-51803017Y18260602D01*
X-51389131Y18537151D01*
X-51037151Y18889131D01*
X-50760602Y19303017D01*
X-50570111Y19762901D01*
X-50513004Y20050000D01*
X-45330034Y20050000D01*
X-45317928Y19927086D01*
X-45282076Y19808896D01*
X-45223854Y19699972D01*
X-45145501Y19604499D01*
X-45050028Y19526146D01*
X-44941104Y19467924D01*
X-44822914Y19432072D01*
X-44700000Y19419966D01*
X-44229750Y19423000D01*
X-44073000Y19579750D01*
X-44073000Y20677000D01*
X-42927000Y20677000D01*
X-42927000Y19579750D01*
X-42770250Y19423000D01*
X-42300000Y19419966D01*
X-42177086Y19432072D01*
X-42058896Y19467924D01*
X-41949972Y19526146D01*
X-41854499Y19604499D01*
X-41776146Y19699972D01*
X-41717924Y19808896D01*
X-41682072Y19927086D01*
X-41669966Y20050000D01*
X-41673000Y20520250D01*
X-41829750Y20677000D01*
X-42927000Y20677000D01*
X-44073000Y20677000D01*
X-45170250Y20677000D01*
X-45327000Y20520250D01*
X-45330034Y20050000D01*
X-50513004Y20050000D01*
X-50473000Y20251112D01*
X-50473000Y20748888D01*
X-50570111Y21237099D01*
X-50760602Y21696983D01*
X-51037151Y22110869D01*
X-51376282Y22450000D01*
X-45330034Y22450000D01*
X-45327000Y21979750D01*
X-45170250Y21823000D01*
X-44073000Y21823000D01*
X-44073000Y22920250D01*
X-42927000Y22920250D01*
X-42927000Y21823000D01*
X-41829750Y21823000D01*
X-41673000Y21979750D01*
X-41669966Y22450000D01*
X-41682072Y22572914D01*
X-41717924Y22691104D01*
X-41776146Y22800028D01*
X-41854499Y22895501D01*
X-41949972Y22973854D01*
X-42058896Y23032076D01*
X-42177086Y23067928D01*
X-42300000Y23080034D01*
X-42770250Y23077000D01*
X-42927000Y22920250D01*
X-44073000Y22920250D01*
X-44229750Y23077000D01*
X-44700000Y23080034D01*
X-44822914Y23067928D01*
X-44941104Y23032076D01*
X-45050028Y22973854D01*
X-45145501Y22895501D01*
X-45223854Y22800028D01*
X-45282076Y22691104D01*
X-45317928Y22572914D01*
X-45330034Y22450000D01*
X-51376282Y22450000D01*
X-51389131Y22462849D01*
X-51803017Y22739398D01*
X-52262901Y22929889D01*
X-52751112Y23027000D01*
X-53248888Y23027000D01*
X-53737099Y22929889D01*
X-54196983Y22739398D01*
X-54610869Y22462849D01*
X-54962849Y22110869D01*
X-55239398Y21696983D01*
X-55429889Y21237099D01*
X-55527000Y20748888D01*
X-71423000Y20748888D01*
X-71423000Y22450000D01*
X-64330034Y22450000D01*
X-64327000Y21979750D01*
X-64170250Y21823000D01*
X-63073000Y21823000D01*
X-63073000Y22920250D01*
X-61927000Y22920250D01*
X-61927000Y21823000D01*
X-60829750Y21823000D01*
X-60673000Y21979750D01*
X-60669966Y22450000D01*
X-60682072Y22572914D01*
X-60717924Y22691104D01*
X-60776146Y22800028D01*
X-60854499Y22895501D01*
X-60949972Y22973854D01*
X-61058896Y23032076D01*
X-61177086Y23067928D01*
X-61300000Y23080034D01*
X-61770250Y23077000D01*
X-61927000Y22920250D01*
X-63073000Y22920250D01*
X-63229750Y23077000D01*
X-63700000Y23080034D01*
X-63822914Y23067928D01*
X-63941104Y23032076D01*
X-64050028Y22973854D01*
X-64145501Y22895501D01*
X-64223854Y22800028D01*
X-64282076Y22691104D01*
X-64317928Y22572914D01*
X-64330034Y22450000D01*
X-71423000Y22450000D01*
X-71423000Y28920095D01*
X-64227000Y28920095D01*
X-64227000Y28579905D01*
X-64160632Y28246253D01*
X-64030447Y27931959D01*
X-63841448Y27649102D01*
X-63600898Y27408552D01*
X-63318041Y27219553D01*
X-63003747Y27089368D01*
X-62670095Y27023000D01*
X-62329905Y27023000D01*
X-61996253Y27089368D01*
X-61681959Y27219553D01*
X-61399102Y27408552D01*
X-61158552Y27649102D01*
X-60969553Y27931959D01*
X-60839368Y28246253D01*
X-60773000Y28579905D01*
X-60773000Y28920095D01*
X-45227000Y28920095D01*
X-45227000Y28579905D01*
X-45160632Y28246253D01*
X-45030447Y27931959D01*
X-44841448Y27649102D01*
X-44600898Y27408552D01*
X-44318041Y27219553D01*
X-44003747Y27089368D01*
X-43670095Y27023000D01*
X-43329905Y27023000D01*
X-42996253Y27089368D01*
X-42681959Y27219553D01*
X-42399102Y27408552D01*
X-42158552Y27649102D01*
X-41969553Y27931959D01*
X-41839368Y28246253D01*
X-41773000Y28579905D01*
X-41773000Y28920095D01*
X-41839368Y29253747D01*
X-41969553Y29568041D01*
X-42158552Y29850898D01*
X-42399102Y30091448D01*
X-42681959Y30280447D01*
X-42996253Y30410632D01*
X-43329905Y30477000D01*
X-43670095Y30477000D01*
X-44003747Y30410632D01*
X-44318041Y30280447D01*
X-44600898Y30091448D01*
X-44841448Y29850898D01*
X-45030447Y29568041D01*
X-45160632Y29253747D01*
X-45227000Y28920095D01*
X-60773000Y28920095D01*
X-60839368Y29253747D01*
X-60969553Y29568041D01*
X-61158552Y29850898D01*
X-61399102Y30091448D01*
X-61681959Y30280447D01*
X-61996253Y30410632D01*
X-62329905Y30477000D01*
X-62670095Y30477000D01*
X-63003747Y30410632D01*
X-63318041Y30280447D01*
X-63600898Y30091448D01*
X-63841448Y29850898D01*
X-64030447Y29568041D01*
X-64160632Y29253747D01*
X-64227000Y28920095D01*
X-71423000Y28920095D01*
X-71423000Y34373000D01*
X-34127000Y34373000D01*
X-34127000Y12400000D01*
G36*
X70823000Y25164932D02*
G01*
X70748332Y25239600D01*
X70170661Y25625587D01*
X69528788Y25891460D01*
X68847379Y26027000D01*
X68152621Y26027000D01*
X67471212Y25891460D01*
X66829339Y25625587D01*
X66251668Y25239600D01*
X65760400Y24748332D01*
X65374413Y24170661D01*
X65108540Y23528788D01*
X64973000Y22847379D01*
X64973000Y22152621D01*
X65108540Y21471212D01*
X65374413Y20829339D01*
X65760400Y20251668D01*
X66251668Y19760400D01*
X66829339Y19374413D01*
X67471212Y19108540D01*
X68152621Y18973000D01*
X68847379Y18973000D01*
X69528788Y19108540D01*
X70170661Y19374413D01*
X70748332Y19760400D01*
X70823000Y19835068D01*
X70823001Y-19835069D01*
X70748332Y-19760400D01*
X70170661Y-19374413D01*
X69528788Y-19108540D01*
X68847379Y-18973000D01*
X68152621Y-18973000D01*
X67471212Y-19108540D01*
X66829339Y-19374413D01*
X66251668Y-19760400D01*
X65760400Y-20251668D01*
X65374413Y-20829339D01*
X65108540Y-21471212D01*
X64973000Y-22152621D01*
X64973000Y-22847379D01*
X65108540Y-23528788D01*
X65374413Y-24170661D01*
X65760400Y-24748332D01*
X66251668Y-25239600D01*
X66829339Y-25625587D01*
X67471212Y-25891460D01*
X68152621Y-26027000D01*
X68847379Y-26027000D01*
X69528788Y-25891460D01*
X70170661Y-25625587D01*
X70748332Y-25239600D01*
X70823001Y-25164931D01*
X70823001Y-44823000D01*
X37127000Y-44823000D01*
X37127000Y-35500000D01*
X37124560Y-35475224D01*
X37117333Y-35451399D01*
X37105597Y-35429443D01*
X37089803Y-35410197D01*
X37070557Y-35394403D01*
X37048601Y-35382667D01*
X37024776Y-35375440D01*
X37000000Y-35373000D01*
X7127000Y-35373000D01*
X7127000Y-15701716D01*
X16123000Y-15701716D01*
X16123000Y-16278284D01*
X16235482Y-16843775D01*
X16456126Y-17376455D01*
X16776450Y-17855854D01*
X17184146Y-18263550D01*
X17663545Y-18583874D01*
X17835258Y-18655000D01*
X17663545Y-18726126D01*
X17184146Y-19046450D01*
X16776450Y-19454146D01*
X16456126Y-19933545D01*
X16235482Y-20466225D01*
X16123000Y-21031716D01*
X16123000Y-21608284D01*
X16235482Y-22173775D01*
X16456126Y-22706455D01*
X16776450Y-23185854D01*
X17184146Y-23593550D01*
X17663545Y-23913874D01*
X18196225Y-24134518D01*
X18761716Y-24247000D01*
X19338284Y-24247000D01*
X19718731Y-24171325D01*
X30139019Y-24171325D01*
X30314712Y-24418063D01*
X30702075Y-24514901D01*
X31100887Y-24534308D01*
X31495823Y-24475537D01*
X31685288Y-24418063D01*
X31860981Y-24171325D01*
X31000000Y-23310344D01*
X30139019Y-24171325D01*
X19718731Y-24171325D01*
X19903775Y-24134518D01*
X20436455Y-23913874D01*
X20915854Y-23593550D01*
X21323550Y-23185854D01*
X21643874Y-22706455D01*
X21687601Y-22600887D01*
X28965692Y-22600887D01*
X29024463Y-22995823D01*
X29081937Y-23185288D01*
X29328675Y-23360981D01*
X30189656Y-22500000D01*
X31810344Y-22500000D01*
X32671325Y-23360981D01*
X32918063Y-23185288D01*
X33014901Y-22797925D01*
X33034308Y-22399113D01*
X32975537Y-22004177D01*
X32918063Y-21814712D01*
X32671325Y-21639019D01*
X31810344Y-22500000D01*
X30189656Y-22500000D01*
X29328675Y-21639019D01*
X29081937Y-21814712D01*
X28985099Y-22202075D01*
X28965692Y-22600887D01*
X21687601Y-22600887D01*
X21864518Y-22173775D01*
X21977000Y-21608284D01*
X21977000Y-21031716D01*
X21936614Y-20828675D01*
X30139019Y-20828675D01*
X31000000Y-21689656D01*
X31860981Y-20828675D01*
X31685288Y-20581937D01*
X31297925Y-20485099D01*
X30899113Y-20465692D01*
X30504177Y-20524463D01*
X30314712Y-20581937D01*
X30139019Y-20828675D01*
X21936614Y-20828675D01*
X21864518Y-20466225D01*
X21643874Y-19933545D01*
X21323550Y-19454146D01*
X20915854Y-19046450D01*
X20436455Y-18726126D01*
X20264742Y-18655000D01*
X20436455Y-18583874D01*
X20915854Y-18263550D01*
X21323550Y-17855854D01*
X21643874Y-17376455D01*
X21864518Y-16843775D01*
X21977000Y-16278284D01*
X21977000Y-15701716D01*
X21864518Y-15136225D01*
X21643874Y-14603545D01*
X21323550Y-14124146D01*
X20915854Y-13716450D01*
X20436455Y-13396126D01*
X19903775Y-13175482D01*
X19338284Y-13063000D01*
X18761716Y-13063000D01*
X18196225Y-13175482D01*
X17663545Y-13396126D01*
X17184146Y-13716450D01*
X16776450Y-14124146D01*
X16456126Y-14603545D01*
X16235482Y-15136225D01*
X16123000Y-15701716D01*
X7127000Y-15701716D01*
X7127000Y-11872265D01*
X18648080Y-11872265D01*
X18740958Y-12060206D01*
X19020063Y-12093593D01*
X19300318Y-12071886D01*
X19359042Y-12060206D01*
X19451920Y-11872265D01*
X19050000Y-11470344D01*
X18648080Y-11872265D01*
X7127000Y-11872265D01*
X7127000Y-10630063D01*
X17616407Y-10630063D01*
X17638114Y-10910318D01*
X17649794Y-10969042D01*
X17837735Y-11061920D01*
X18239656Y-10660000D01*
X19860344Y-10660000D01*
X20262265Y-11061920D01*
X20450206Y-10969042D01*
X20483593Y-10689937D01*
X20461886Y-10409682D01*
X20450206Y-10350958D01*
X20262265Y-10258080D01*
X19860344Y-10660000D01*
X18239656Y-10660000D01*
X17837735Y-10258080D01*
X17649794Y-10350958D01*
X17616407Y-10630063D01*
X7127000Y-10630063D01*
X7127000Y-9447735D01*
X18648080Y-9447735D01*
X19050000Y-9849656D01*
X19451920Y-9447735D01*
X19359042Y-9259794D01*
X19079937Y-9226407D01*
X18799682Y-9248114D01*
X18740958Y-9259794D01*
X18648080Y-9447735D01*
X7127000Y-9447735D01*
X7127000Y-6542265D01*
X18648080Y-6542265D01*
X18740958Y-6730206D01*
X19020063Y-6763593D01*
X19300318Y-6741886D01*
X19359042Y-6730206D01*
X19451920Y-6542265D01*
X19050000Y-6140344D01*
X18648080Y-6542265D01*
X7127000Y-6542265D01*
X7127000Y-5300063D01*
X17616407Y-5300063D01*
X17638114Y-5580318D01*
X17649794Y-5639042D01*
X17837735Y-5731920D01*
X18239656Y-5330000D01*
X19860344Y-5330000D01*
X20262265Y-5731920D01*
X20450206Y-5639042D01*
X20483593Y-5359937D01*
X20461886Y-5079682D01*
X20450206Y-5020958D01*
X20262265Y-4928080D01*
X19860344Y-5330000D01*
X18239656Y-5330000D01*
X17837735Y-4928080D01*
X17649794Y-5020958D01*
X17616407Y-5300063D01*
X7127000Y-5300063D01*
X7127000Y-4117735D01*
X18648080Y-4117735D01*
X19050000Y-4519656D01*
X19451920Y-4117735D01*
X19359042Y-3929794D01*
X19079937Y-3896407D01*
X18799682Y-3918114D01*
X18740958Y-3929794D01*
X18648080Y-4117735D01*
X7127000Y-4117735D01*
X7127000Y-1571195D01*
X29789149Y-1571195D01*
X29938395Y-1797829D01*
X30290170Y-1873809D01*
X30650010Y-1879701D01*
X31004084Y-1815279D01*
X31061605Y-1797829D01*
X31210851Y-1571195D01*
X30500000Y-860344D01*
X29789149Y-1571195D01*
X7127000Y-1571195D01*
X7127000Y-1212265D01*
X18648080Y-1212265D01*
X18740958Y-1400206D01*
X19020063Y-1433593D01*
X19300318Y-1411886D01*
X19359042Y-1400206D01*
X19451920Y-1212265D01*
X19050000Y-810344D01*
X18648080Y-1212265D01*
X7127000Y-1212265D01*
X7127000Y29937D01*
X17616407Y29937D01*
X17638114Y-250318D01*
X17649794Y-309042D01*
X17837735Y-401920D01*
X18239656Y0D01*
X19860344Y0D01*
X20262265Y-401920D01*
X20450206Y-309042D01*
X20463248Y-200010D01*
X28670299Y-200010D01*
X28734721Y-554084D01*
X28752171Y-611605D01*
X28978805Y-760851D01*
X29689656Y-50000D01*
X31310344Y-50000D01*
X32021195Y-760851D01*
X32247829Y-611605D01*
X32323809Y-259830D01*
X32329701Y100010D01*
X32297375Y277681D01*
X42173000Y277681D01*
X42173000Y-377681D01*
X42300855Y-1020450D01*
X42551651Y-1625925D01*
X42915750Y-2170839D01*
X43379161Y-2634250D01*
X43924075Y-2998349D01*
X44529550Y-3249145D01*
X45172319Y-3377000D01*
X45827681Y-3377000D01*
X46470450Y-3249145D01*
X47075925Y-2998349D01*
X47620839Y-2634250D01*
X48084250Y-2170839D01*
X48448349Y-1625925D01*
X48699145Y-1020450D01*
X48827000Y-377681D01*
X48827000Y277681D01*
X48791586Y455720D01*
X52373000Y455720D01*
X52373000Y-455720D01*
X52550813Y-1349646D01*
X52899606Y-2191706D01*
X53405974Y-2949541D01*
X54050459Y-3594026D01*
X54808294Y-4100394D01*
X55650354Y-4449187D01*
X56544280Y-4627000D01*
X57455720Y-4627000D01*
X58349646Y-4449187D01*
X59191706Y-4100394D01*
X59949541Y-3594026D01*
X60594026Y-2949541D01*
X60909829Y-2476907D01*
X65833438Y-2476907D01*
X66147638Y-2836212D01*
X66726941Y-3045549D01*
X67335953Y-3137846D01*
X67951268Y-3109557D01*
X68549243Y-2961770D01*
X68852362Y-2836212D01*
X69166562Y-2476907D01*
X67500000Y-810344D01*
X65833438Y-2476907D01*
X60909829Y-2476907D01*
X61100394Y-2191706D01*
X61449187Y-1349646D01*
X61627000Y-455720D01*
X61627000Y164047D01*
X64362154Y164047D01*
X64390443Y-451268D01*
X64538230Y-1049243D01*
X64663788Y-1352362D01*
X65023093Y-1666562D01*
X66689656Y0D01*
X68310344Y0D01*
X69976907Y-1666562D01*
X70336212Y-1352362D01*
X70545549Y-773059D01*
X70637846Y-164047D01*
X70609557Y451268D01*
X70461770Y1049243D01*
X70336212Y1352362D01*
X69976907Y1666562D01*
X68310344Y0D01*
X66689656Y0D01*
X65023093Y1666562D01*
X64663788Y1352362D01*
X64454451Y773059D01*
X64362154Y164047D01*
X61627000Y164047D01*
X61627000Y455720D01*
X61449187Y1349646D01*
X61100394Y2191706D01*
X60909830Y2476907D01*
X65833438Y2476907D01*
X67500000Y810344D01*
X69166562Y2476907D01*
X68852362Y2836212D01*
X68273059Y3045549D01*
X67664047Y3137846D01*
X67048732Y3109557D01*
X66450757Y2961770D01*
X66147638Y2836212D01*
X65833438Y2476907D01*
X60909830Y2476907D01*
X60594026Y2949541D01*
X59949541Y3594026D01*
X59191706Y4100394D01*
X58349646Y4449187D01*
X57455720Y4627000D01*
X56544280Y4627000D01*
X55650354Y4449187D01*
X54808294Y4100394D01*
X54050459Y3594026D01*
X53405974Y2949541D01*
X52899606Y2191706D01*
X52550813Y1349646D01*
X52373000Y455720D01*
X48791586Y455720D01*
X48699145Y920450D01*
X48448349Y1525925D01*
X48084250Y2070839D01*
X47620839Y2534250D01*
X47075925Y2898349D01*
X46470450Y3149145D01*
X45827681Y3277000D01*
X45172319Y3277000D01*
X44529550Y3149145D01*
X43924075Y2898349D01*
X43379161Y2534250D01*
X42915750Y2070839D01*
X42551651Y1525925D01*
X42300855Y920450D01*
X42173000Y277681D01*
X32297375Y277681D01*
X32265279Y454084D01*
X32247829Y511605D01*
X32021195Y660851D01*
X31310344Y-50000D01*
X29689656Y-50000D01*
X28978805Y660851D01*
X28752171Y511605D01*
X28676191Y159830D01*
X28670299Y-200010D01*
X20463248Y-200010D01*
X20483593Y-29937D01*
X20461886Y250318D01*
X20450206Y309042D01*
X20262265Y401920D01*
X19860344Y0D01*
X18239656Y0D01*
X17837735Y401920D01*
X17649794Y309042D01*
X17616407Y29937D01*
X7127000Y29937D01*
X7127000Y1212265D01*
X18648080Y1212265D01*
X19050000Y810344D01*
X19451920Y1212265D01*
X19359042Y1400206D01*
X19079937Y1433593D01*
X18799682Y1411886D01*
X18740958Y1400206D01*
X18648080Y1212265D01*
X7127000Y1212265D01*
X7127000Y1471195D01*
X29789149Y1471195D01*
X30500000Y760344D01*
X31210851Y1471195D01*
X31061605Y1697829D01*
X30709830Y1773809D01*
X30349990Y1779701D01*
X29995916Y1715279D01*
X29938395Y1697829D01*
X29789149Y1471195D01*
X7127000Y1471195D01*
X7127000Y4117735D01*
X18648080Y4117735D01*
X18740958Y3929794D01*
X19020063Y3896407D01*
X19300318Y3918114D01*
X19359042Y3929794D01*
X19451920Y4117735D01*
X19050000Y4519656D01*
X18648080Y4117735D01*
X7127000Y4117735D01*
X7127000Y5359937D01*
X17616407Y5359937D01*
X17638114Y5079682D01*
X17649794Y5020958D01*
X17837735Y4928080D01*
X18239656Y5330000D01*
X19860344Y5330000D01*
X20262265Y4928080D01*
X20450206Y5020958D01*
X20483593Y5300063D01*
X20461886Y5580318D01*
X20450206Y5639042D01*
X20262265Y5731920D01*
X19860344Y5330000D01*
X18239656Y5330000D01*
X17837735Y5731920D01*
X17649794Y5639042D01*
X17616407Y5359937D01*
X7127000Y5359937D01*
X7127000Y6542265D01*
X18648080Y6542265D01*
X19050000Y6140344D01*
X19451920Y6542265D01*
X19359042Y6730206D01*
X19079937Y6763593D01*
X18799682Y6741886D01*
X18740958Y6730206D01*
X18648080Y6542265D01*
X7127000Y6542265D01*
X7127000Y9447735D01*
X18648080Y9447735D01*
X18740958Y9259794D01*
X19020063Y9226407D01*
X19300318Y9248114D01*
X19359042Y9259794D01*
X19451920Y9447735D01*
X19050000Y9849656D01*
X18648080Y9447735D01*
X7127000Y9447735D01*
X7127000Y10689937D01*
X17616407Y10689937D01*
X17638114Y10409682D01*
X17649794Y10350958D01*
X17837735Y10258080D01*
X18239656Y10660000D01*
X19860344Y10660000D01*
X20262265Y10258080D01*
X20450206Y10350958D01*
X20483593Y10630063D01*
X20461886Y10910318D01*
X20450206Y10969042D01*
X20262265Y11061920D01*
X19860344Y10660000D01*
X18239656Y10660000D01*
X17837735Y11061920D01*
X17649794Y10969042D01*
X17616407Y10689937D01*
X7127000Y10689937D01*
X7127000Y11872265D01*
X18648080Y11872265D01*
X19050000Y11470344D01*
X19451920Y11872265D01*
X19359042Y12060206D01*
X19079937Y12093593D01*
X18799682Y12071886D01*
X18740958Y12060206D01*
X18648080Y11872265D01*
X7127000Y11872265D01*
X7127000Y21608284D01*
X16123000Y21608284D01*
X16123000Y21031716D01*
X16235482Y20466225D01*
X16456126Y19933545D01*
X16776450Y19454146D01*
X17184146Y19046450D01*
X17663545Y18726126D01*
X17835258Y18655000D01*
X17663545Y18583874D01*
X17184146Y18263550D01*
X16776450Y17855854D01*
X16456126Y17376455D01*
X16235482Y16843775D01*
X16123000Y16278284D01*
X16123000Y15701716D01*
X16235482Y15136225D01*
X16456126Y14603545D01*
X16776450Y14124146D01*
X17184146Y13716450D01*
X17663545Y13396126D01*
X18196225Y13175482D01*
X18761716Y13063000D01*
X19338284Y13063000D01*
X19903775Y13175482D01*
X20436455Y13396126D01*
X20915854Y13716450D01*
X21323550Y14124146D01*
X21643874Y14603545D01*
X21864518Y15136225D01*
X21977000Y15701716D01*
X21977000Y16278284D01*
X21864518Y16843775D01*
X21643874Y17376455D01*
X21323550Y17855854D01*
X20915854Y18263550D01*
X20436455Y18583874D01*
X20264742Y18655000D01*
X20436455Y18726126D01*
X20915854Y19046450D01*
X21323550Y19454146D01*
X21643874Y19933545D01*
X21864518Y20466225D01*
X21936613Y20828675D01*
X30139019Y20828675D01*
X30314712Y20581937D01*
X30702075Y20485099D01*
X31100887Y20465692D01*
X31495823Y20524463D01*
X31685288Y20581937D01*
X31860981Y20828675D01*
X31000000Y21689656D01*
X30139019Y20828675D01*
X21936613Y20828675D01*
X21977000Y21031716D01*
X21977000Y21608284D01*
X21864518Y22173775D01*
X21771180Y22399113D01*
X28965692Y22399113D01*
X29024463Y22004177D01*
X29081937Y21814712D01*
X29328675Y21639019D01*
X30189656Y22500000D01*
X31810344Y22500000D01*
X32671325Y21639019D01*
X32918063Y21814712D01*
X33014901Y22202075D01*
X33034308Y22600887D01*
X32975537Y22995823D01*
X32918063Y23185288D01*
X32671325Y23360981D01*
X31810344Y22500000D01*
X30189656Y22500000D01*
X29328675Y23360981D01*
X29081937Y23185288D01*
X28985099Y22797925D01*
X28965692Y22399113D01*
X21771180Y22399113D01*
X21643874Y22706455D01*
X21323550Y23185854D01*
X20915854Y23593550D01*
X20436455Y23913874D01*
X19903775Y24134518D01*
X19718732Y24171325D01*
X30139019Y24171325D01*
X31000000Y23310344D01*
X31860981Y24171325D01*
X31685288Y24418063D01*
X31297925Y24514901D01*
X30899113Y24534308D01*
X30504177Y24475537D01*
X30314712Y24418063D01*
X30139019Y24171325D01*
X19718732Y24171325D01*
X19338284Y24247000D01*
X18761716Y24247000D01*
X18196225Y24134518D01*
X17663545Y23913874D01*
X17184146Y23593550D01*
X16776450Y23185854D01*
X16456126Y22706455D01*
X16235482Y22173775D01*
X16123000Y21608284D01*
X7127000Y21608284D01*
X7127000Y35693445D01*
X7146225Y35685482D01*
X7711716Y35573000D01*
X8288284Y35573000D01*
X8853775Y35685482D01*
X9306482Y35873000D01*
X37000000Y35873000D01*
X37024776Y35875440D01*
X37048601Y35882667D01*
X37070557Y35894403D01*
X37089803Y35910197D01*
X37105597Y35929443D01*
X37117333Y35951399D01*
X37124560Y35975224D01*
X37127000Y36000000D01*
X37127000Y44823000D01*
X70823000Y44823000D01*
X70823000Y25164932D01*
X70823000Y25164932D01*
G37*
X70823000Y25164932D02*
X70748332Y25239600D01*
X70170661Y25625587D01*
X69528788Y25891460D01*
X68847379Y26027000D01*
X68152621Y26027000D01*
X67471212Y25891460D01*
X66829339Y25625587D01*
X66251668Y25239600D01*
X65760400Y24748332D01*
X65374413Y24170661D01*
X65108540Y23528788D01*
X64973000Y22847379D01*
X64973000Y22152621D01*
X65108540Y21471212D01*
X65374413Y20829339D01*
X65760400Y20251668D01*
X66251668Y19760400D01*
X66829339Y19374413D01*
X67471212Y19108540D01*
X68152621Y18973000D01*
X68847379Y18973000D01*
X69528788Y19108540D01*
X70170661Y19374413D01*
X70748332Y19760400D01*
X70823000Y19835068D01*
X70823001Y-19835069D01*
X70748332Y-19760400D01*
X70170661Y-19374413D01*
X69528788Y-19108540D01*
X68847379Y-18973000D01*
X68152621Y-18973000D01*
X67471212Y-19108540D01*
X66829339Y-19374413D01*
X66251668Y-19760400D01*
X65760400Y-20251668D01*
X65374413Y-20829339D01*
X65108540Y-21471212D01*
X64973000Y-22152621D01*
X64973000Y-22847379D01*
X65108540Y-23528788D01*
X65374413Y-24170661D01*
X65760400Y-24748332D01*
X66251668Y-25239600D01*
X66829339Y-25625587D01*
X67471212Y-25891460D01*
X68152621Y-26027000D01*
X68847379Y-26027000D01*
X69528788Y-25891460D01*
X70170661Y-25625587D01*
X70748332Y-25239600D01*
X70823001Y-25164931D01*
X70823001Y-44823000D01*
X37127000Y-44823000D01*
X37127000Y-35500000D01*
X37124560Y-35475224D01*
X37117333Y-35451399D01*
X37105597Y-35429443D01*
X37089803Y-35410197D01*
X37070557Y-35394403D01*
X37048601Y-35382667D01*
X37024776Y-35375440D01*
X37000000Y-35373000D01*
X7127000Y-35373000D01*
X7127000Y-15701716D01*
X16123000Y-15701716D01*
X16123000Y-16278284D01*
X16235482Y-16843775D01*
X16456126Y-17376455D01*
X16776450Y-17855854D01*
X17184146Y-18263550D01*
X17663545Y-18583874D01*
X17835258Y-18655000D01*
X17663545Y-18726126D01*
X17184146Y-19046450D01*
X16776450Y-19454146D01*
X16456126Y-19933545D01*
X16235482Y-20466225D01*
X16123000Y-21031716D01*
X16123000Y-21608284D01*
X16235482Y-22173775D01*
X16456126Y-22706455D01*
X16776450Y-23185854D01*
X17184146Y-23593550D01*
X17663545Y-23913874D01*
X18196225Y-24134518D01*
X18761716Y-24247000D01*
X19338284Y-24247000D01*
X19718731Y-24171325D01*
X30139019Y-24171325D01*
X30314712Y-24418063D01*
X30702075Y-24514901D01*
X31100887Y-24534308D01*
X31495823Y-24475537D01*
X31685288Y-24418063D01*
X31860981Y-24171325D01*
X31000000Y-23310344D01*
X30139019Y-24171325D01*
X19718731Y-24171325D01*
X19903775Y-24134518D01*
X20436455Y-23913874D01*
X20915854Y-23593550D01*
X21323550Y-23185854D01*
X21643874Y-22706455D01*
X21687601Y-22600887D01*
X28965692Y-22600887D01*
X29024463Y-22995823D01*
X29081937Y-23185288D01*
X29328675Y-23360981D01*
X30189656Y-22500000D01*
X31810344Y-22500000D01*
X32671325Y-23360981D01*
X32918063Y-23185288D01*
X33014901Y-22797925D01*
X33034308Y-22399113D01*
X32975537Y-22004177D01*
X32918063Y-21814712D01*
X32671325Y-21639019D01*
X31810344Y-22500000D01*
X30189656Y-22500000D01*
X29328675Y-21639019D01*
X29081937Y-21814712D01*
X28985099Y-22202075D01*
X28965692Y-22600887D01*
X21687601Y-22600887D01*
X21864518Y-22173775D01*
X21977000Y-21608284D01*
X21977000Y-21031716D01*
X21936614Y-20828675D01*
X30139019Y-20828675D01*
X31000000Y-21689656D01*
X31860981Y-20828675D01*
X31685288Y-20581937D01*
X31297925Y-20485099D01*
X30899113Y-20465692D01*
X30504177Y-20524463D01*
X30314712Y-20581937D01*
X30139019Y-20828675D01*
X21936614Y-20828675D01*
X21864518Y-20466225D01*
X21643874Y-19933545D01*
X21323550Y-19454146D01*
X20915854Y-19046450D01*
X20436455Y-18726126D01*
X20264742Y-18655000D01*
X20436455Y-18583874D01*
X20915854Y-18263550D01*
X21323550Y-17855854D01*
X21643874Y-17376455D01*
X21864518Y-16843775D01*
X21977000Y-16278284D01*
X21977000Y-15701716D01*
X21864518Y-15136225D01*
X21643874Y-14603545D01*
X21323550Y-14124146D01*
X20915854Y-13716450D01*
X20436455Y-13396126D01*
X19903775Y-13175482D01*
X19338284Y-13063000D01*
X18761716Y-13063000D01*
X18196225Y-13175482D01*
X17663545Y-13396126D01*
X17184146Y-13716450D01*
X16776450Y-14124146D01*
X16456126Y-14603545D01*
X16235482Y-15136225D01*
X16123000Y-15701716D01*
X7127000Y-15701716D01*
X7127000Y-11872265D01*
X18648080Y-11872265D01*
X18740958Y-12060206D01*
X19020063Y-12093593D01*
X19300318Y-12071886D01*
X19359042Y-12060206D01*
X19451920Y-11872265D01*
X19050000Y-11470344D01*
X18648080Y-11872265D01*
X7127000Y-11872265D01*
X7127000Y-10630063D01*
X17616407Y-10630063D01*
X17638114Y-10910318D01*
X17649794Y-10969042D01*
X17837735Y-11061920D01*
X18239656Y-10660000D01*
X19860344Y-10660000D01*
X20262265Y-11061920D01*
X20450206Y-10969042D01*
X20483593Y-10689937D01*
X20461886Y-10409682D01*
X20450206Y-10350958D01*
X20262265Y-10258080D01*
X19860344Y-10660000D01*
X18239656Y-10660000D01*
X17837735Y-10258080D01*
X17649794Y-10350958D01*
X17616407Y-10630063D01*
X7127000Y-10630063D01*
X7127000Y-9447735D01*
X18648080Y-9447735D01*
X19050000Y-9849656D01*
X19451920Y-9447735D01*
X19359042Y-9259794D01*
X19079937Y-9226407D01*
X18799682Y-9248114D01*
X18740958Y-9259794D01*
X18648080Y-9447735D01*
X7127000Y-9447735D01*
X7127000Y-6542265D01*
X18648080Y-6542265D01*
X18740958Y-6730206D01*
X19020063Y-6763593D01*
X19300318Y-6741886D01*
X19359042Y-6730206D01*
X19451920Y-6542265D01*
X19050000Y-6140344D01*
X18648080Y-6542265D01*
X7127000Y-6542265D01*
X7127000Y-5300063D01*
X17616407Y-5300063D01*
X17638114Y-5580318D01*
X17649794Y-5639042D01*
X17837735Y-5731920D01*
X18239656Y-5330000D01*
X19860344Y-5330000D01*
X20262265Y-5731920D01*
X20450206Y-5639042D01*
X20483593Y-5359937D01*
X20461886Y-5079682D01*
X20450206Y-5020958D01*
X20262265Y-4928080D01*
X19860344Y-5330000D01*
X18239656Y-5330000D01*
X17837735Y-4928080D01*
X17649794Y-5020958D01*
X17616407Y-5300063D01*
X7127000Y-5300063D01*
X7127000Y-4117735D01*
X18648080Y-4117735D01*
X19050000Y-4519656D01*
X19451920Y-4117735D01*
X19359042Y-3929794D01*
X19079937Y-3896407D01*
X18799682Y-3918114D01*
X18740958Y-3929794D01*
X18648080Y-4117735D01*
X7127000Y-4117735D01*
X7127000Y-1571195D01*
X29789149Y-1571195D01*
X29938395Y-1797829D01*
X30290170Y-1873809D01*
X30650010Y-1879701D01*
X31004084Y-1815279D01*
X31061605Y-1797829D01*
X31210851Y-1571195D01*
X30500000Y-860344D01*
X29789149Y-1571195D01*
X7127000Y-1571195D01*
X7127000Y-1212265D01*
X18648080Y-1212265D01*
X18740958Y-1400206D01*
X19020063Y-1433593D01*
X19300318Y-1411886D01*
X19359042Y-1400206D01*
X19451920Y-1212265D01*
X19050000Y-810344D01*
X18648080Y-1212265D01*
X7127000Y-1212265D01*
X7127000Y29937D01*
X17616407Y29937D01*
X17638114Y-250318D01*
X17649794Y-309042D01*
X17837735Y-401920D01*
X18239656Y0D01*
X19860344Y0D01*
X20262265Y-401920D01*
X20450206Y-309042D01*
X20463248Y-200010D01*
X28670299Y-200010D01*
X28734721Y-554084D01*
X28752171Y-611605D01*
X28978805Y-760851D01*
X29689656Y-50000D01*
X31310344Y-50000D01*
X32021195Y-760851D01*
X32247829Y-611605D01*
X32323809Y-259830D01*
X32329701Y100010D01*
X32297375Y277681D01*
X42173000Y277681D01*
X42173000Y-377681D01*
X42300855Y-1020450D01*
X42551651Y-1625925D01*
X42915750Y-2170839D01*
X43379161Y-2634250D01*
X43924075Y-2998349D01*
X44529550Y-3249145D01*
X45172319Y-3377000D01*
X45827681Y-3377000D01*
X46470450Y-3249145D01*
X47075925Y-2998349D01*
X47620839Y-2634250D01*
X48084250Y-2170839D01*
X48448349Y-1625925D01*
X48699145Y-1020450D01*
X48827000Y-377681D01*
X48827000Y277681D01*
X48791586Y455720D01*
X52373000Y455720D01*
X52373000Y-455720D01*
X52550813Y-1349646D01*
X52899606Y-2191706D01*
X53405974Y-2949541D01*
X54050459Y-3594026D01*
X54808294Y-4100394D01*
X55650354Y-4449187D01*
X56544280Y-4627000D01*
X57455720Y-4627000D01*
X58349646Y-4449187D01*
X59191706Y-4100394D01*
X59949541Y-3594026D01*
X60594026Y-2949541D01*
X60909829Y-2476907D01*
X65833438Y-2476907D01*
X66147638Y-2836212D01*
X66726941Y-3045549D01*
X67335953Y-3137846D01*
X67951268Y-3109557D01*
X68549243Y-2961770D01*
X68852362Y-2836212D01*
X69166562Y-2476907D01*
X67500000Y-810344D01*
X65833438Y-2476907D01*
X60909829Y-2476907D01*
X61100394Y-2191706D01*
X61449187Y-1349646D01*
X61627000Y-455720D01*
X61627000Y164047D01*
X64362154Y164047D01*
X64390443Y-451268D01*
X64538230Y-1049243D01*
X64663788Y-1352362D01*
X65023093Y-1666562D01*
X66689656Y0D01*
X68310344Y0D01*
X69976907Y-1666562D01*
X70336212Y-1352362D01*
X70545549Y-773059D01*
X70637846Y-164047D01*
X70609557Y451268D01*
X70461770Y1049243D01*
X70336212Y1352362D01*
X69976907Y1666562D01*
X68310344Y0D01*
X66689656Y0D01*
X65023093Y1666562D01*
X64663788Y1352362D01*
X64454451Y773059D01*
X64362154Y164047D01*
X61627000Y164047D01*
X61627000Y455720D01*
X61449187Y1349646D01*
X61100394Y2191706D01*
X60909830Y2476907D01*
X65833438Y2476907D01*
X67500000Y810344D01*
X69166562Y2476907D01*
X68852362Y2836212D01*
X68273059Y3045549D01*
X67664047Y3137846D01*
X67048732Y3109557D01*
X66450757Y2961770D01*
X66147638Y2836212D01*
X65833438Y2476907D01*
X60909830Y2476907D01*
X60594026Y2949541D01*
X59949541Y3594026D01*
X59191706Y4100394D01*
X58349646Y4449187D01*
X57455720Y4627000D01*
X56544280Y4627000D01*
X55650354Y4449187D01*
X54808294Y4100394D01*
X54050459Y3594026D01*
X53405974Y2949541D01*
X52899606Y2191706D01*
X52550813Y1349646D01*
X52373000Y455720D01*
X48791586Y455720D01*
X48699145Y920450D01*
X48448349Y1525925D01*
X48084250Y2070839D01*
X47620839Y2534250D01*
X47075925Y2898349D01*
X46470450Y3149145D01*
X45827681Y3277000D01*
X45172319Y3277000D01*
X44529550Y3149145D01*
X43924075Y2898349D01*
X43379161Y2534250D01*
X42915750Y2070839D01*
X42551651Y1525925D01*
X42300855Y920450D01*
X42173000Y277681D01*
X32297375Y277681D01*
X32265279Y454084D01*
X32247829Y511605D01*
X32021195Y660851D01*
X31310344Y-50000D01*
X29689656Y-50000D01*
X28978805Y660851D01*
X28752171Y511605D01*
X28676191Y159830D01*
X28670299Y-200010D01*
X20463248Y-200010D01*
X20483593Y-29937D01*
X20461886Y250318D01*
X20450206Y309042D01*
X20262265Y401920D01*
X19860344Y0D01*
X18239656Y0D01*
X17837735Y401920D01*
X17649794Y309042D01*
X17616407Y29937D01*
X7127000Y29937D01*
X7127000Y1212265D01*
X18648080Y1212265D01*
X19050000Y810344D01*
X19451920Y1212265D01*
X19359042Y1400206D01*
X19079937Y1433593D01*
X18799682Y1411886D01*
X18740958Y1400206D01*
X18648080Y1212265D01*
X7127000Y1212265D01*
X7127000Y1471195D01*
X29789149Y1471195D01*
X30500000Y760344D01*
X31210851Y1471195D01*
X31061605Y1697829D01*
X30709830Y1773809D01*
X30349990Y1779701D01*
X29995916Y1715279D01*
X29938395Y1697829D01*
X29789149Y1471195D01*
X7127000Y1471195D01*
X7127000Y4117735D01*
X18648080Y4117735D01*
X18740958Y3929794D01*
X19020063Y3896407D01*
X19300318Y3918114D01*
X19359042Y3929794D01*
X19451920Y4117735D01*
X19050000Y4519656D01*
X18648080Y4117735D01*
X7127000Y4117735D01*
X7127000Y5359937D01*
X17616407Y5359937D01*
X17638114Y5079682D01*
X17649794Y5020958D01*
X17837735Y4928080D01*
X18239656Y5330000D01*
X19860344Y5330000D01*
X20262265Y4928080D01*
X20450206Y5020958D01*
X20483593Y5300063D01*
X20461886Y5580318D01*
X20450206Y5639042D01*
X20262265Y5731920D01*
X19860344Y5330000D01*
X18239656Y5330000D01*
X17837735Y5731920D01*
X17649794Y5639042D01*
X17616407Y5359937D01*
X7127000Y5359937D01*
X7127000Y6542265D01*
X18648080Y6542265D01*
X19050000Y6140344D01*
X19451920Y6542265D01*
X19359042Y6730206D01*
X19079937Y6763593D01*
X18799682Y6741886D01*
X18740958Y6730206D01*
X18648080Y6542265D01*
X7127000Y6542265D01*
X7127000Y9447735D01*
X18648080Y9447735D01*
X18740958Y9259794D01*
X19020063Y9226407D01*
X19300318Y9248114D01*
X19359042Y9259794D01*
X19451920Y9447735D01*
X19050000Y9849656D01*
X18648080Y9447735D01*
X7127000Y9447735D01*
X7127000Y10689937D01*
X17616407Y10689937D01*
X17638114Y10409682D01*
X17649794Y10350958D01*
X17837735Y10258080D01*
X18239656Y10660000D01*
X19860344Y10660000D01*
X20262265Y10258080D01*
X20450206Y10350958D01*
X20483593Y10630063D01*
X20461886Y10910318D01*
X20450206Y10969042D01*
X20262265Y11061920D01*
X19860344Y10660000D01*
X18239656Y10660000D01*
X17837735Y11061920D01*
X17649794Y10969042D01*
X17616407Y10689937D01*
X7127000Y10689937D01*
X7127000Y11872265D01*
X18648080Y11872265D01*
X19050000Y11470344D01*
X19451920Y11872265D01*
X19359042Y12060206D01*
X19079937Y12093593D01*
X18799682Y12071886D01*
X18740958Y12060206D01*
X18648080Y11872265D01*
X7127000Y11872265D01*
X7127000Y21608284D01*
X16123000Y21608284D01*
X16123000Y21031716D01*
X16235482Y20466225D01*
X16456126Y19933545D01*
X16776450Y19454146D01*
X17184146Y19046450D01*
X17663545Y18726126D01*
X17835258Y18655000D01*
X17663545Y18583874D01*
X17184146Y18263550D01*
X16776450Y17855854D01*
X16456126Y17376455D01*
X16235482Y16843775D01*
X16123000Y16278284D01*
X16123000Y15701716D01*
X16235482Y15136225D01*
X16456126Y14603545D01*
X16776450Y14124146D01*
X17184146Y13716450D01*
X17663545Y13396126D01*
X18196225Y13175482D01*
X18761716Y13063000D01*
X19338284Y13063000D01*
X19903775Y13175482D01*
X20436455Y13396126D01*
X20915854Y13716450D01*
X21323550Y14124146D01*
X21643874Y14603545D01*
X21864518Y15136225D01*
X21977000Y15701716D01*
X21977000Y16278284D01*
X21864518Y16843775D01*
X21643874Y17376455D01*
X21323550Y17855854D01*
X20915854Y18263550D01*
X20436455Y18583874D01*
X20264742Y18655000D01*
X20436455Y18726126D01*
X20915854Y19046450D01*
X21323550Y19454146D01*
X21643874Y19933545D01*
X21864518Y20466225D01*
X21936613Y20828675D01*
X30139019Y20828675D01*
X30314712Y20581937D01*
X30702075Y20485099D01*
X31100887Y20465692D01*
X31495823Y20524463D01*
X31685288Y20581937D01*
X31860981Y20828675D01*
X31000000Y21689656D01*
X30139019Y20828675D01*
X21936613Y20828675D01*
X21977000Y21031716D01*
X21977000Y21608284D01*
X21864518Y22173775D01*
X21771180Y22399113D01*
X28965692Y22399113D01*
X29024463Y22004177D01*
X29081937Y21814712D01*
X29328675Y21639019D01*
X30189656Y22500000D01*
X31810344Y22500000D01*
X32671325Y21639019D01*
X32918063Y21814712D01*
X33014901Y22202075D01*
X33034308Y22600887D01*
X32975537Y22995823D01*
X32918063Y23185288D01*
X32671325Y23360981D01*
X31810344Y22500000D01*
X30189656Y22500000D01*
X29328675Y23360981D01*
X29081937Y23185288D01*
X28985099Y22797925D01*
X28965692Y22399113D01*
X21771180Y22399113D01*
X21643874Y22706455D01*
X21323550Y23185854D01*
X20915854Y23593550D01*
X20436455Y23913874D01*
X19903775Y24134518D01*
X19718732Y24171325D01*
X30139019Y24171325D01*
X31000000Y23310344D01*
X31860981Y24171325D01*
X31685288Y24418063D01*
X31297925Y24514901D01*
X30899113Y24534308D01*
X30504177Y24475537D01*
X30314712Y24418063D01*
X30139019Y24171325D01*
X19718732Y24171325D01*
X19338284Y24247000D01*
X18761716Y24247000D01*
X18196225Y24134518D01*
X17663545Y23913874D01*
X17184146Y23593550D01*
X16776450Y23185854D01*
X16456126Y22706455D01*
X16235482Y22173775D01*
X16123000Y21608284D01*
X7127000Y21608284D01*
X7127000Y35693445D01*
X7146225Y35685482D01*
X7711716Y35573000D01*
X8288284Y35573000D01*
X8853775Y35685482D01*
X9306482Y35873000D01*
X37000000Y35873000D01*
X37024776Y35875440D01*
X37048601Y35882667D01*
X37070557Y35894403D01*
X37089803Y35910197D01*
X37105597Y35929443D01*
X37117333Y35951399D01*
X37124560Y35975224D01*
X37127000Y36000000D01*
X37127000Y44823000D01*
X70823000Y44823000D01*
X70823000Y25164932D01*
G36*
X26873000Y-41665135D02*
G01*
X26731714Y-41740654D01*
X26483971Y-41943971D01*
X26280654Y-42191714D01*
X26129575Y-42474362D01*
X26129246Y-42475446D01*
X26075548Y-42467471D01*
X25775115Y-42482180D01*
X25626923Y-42511657D01*
X25571995Y-42612345D01*
X25422849Y-42389131D01*
X25070869Y-42037151D01*
X24656983Y-41760602D01*
X24197099Y-41570111D01*
X23708888Y-41473000D01*
X23211112Y-41473000D01*
X22722901Y-41570111D01*
X22263017Y-41760602D01*
X21849131Y-42037151D01*
X21497151Y-42389131D01*
X21220602Y-42803017D01*
X21030111Y-43262901D01*
X20933000Y-43751112D01*
X20933000Y-44248888D01*
X21030111Y-44737099D01*
X21220602Y-45196983D01*
X21304804Y-45323000D01*
X17111894Y-45323000D01*
X17143458Y-45218948D01*
X17174872Y-44900000D01*
X17174872Y-43100000D01*
X17143458Y-42781052D01*
X17050425Y-42474362D01*
X16899346Y-42191714D01*
X16696029Y-41943971D01*
X16448286Y-41740654D01*
X16165638Y-41589575D01*
X15858948Y-41496542D01*
X15540000Y-41465128D01*
X13740000Y-41465128D01*
X13421052Y-41496542D01*
X13114362Y-41589575D01*
X12831714Y-41740654D01*
X12583971Y-41943971D01*
X12380654Y-42191714D01*
X12229575Y-42474362D01*
X12229246Y-42475446D01*
X12175548Y-42467471D01*
X11875115Y-42482180D01*
X11726923Y-42511657D01*
X11671995Y-42612345D01*
X11522849Y-42389131D01*
X11170869Y-42037151D01*
X11127000Y-42007839D01*
X11127000Y-38627000D01*
X26873000Y-38627000D01*
X26873000Y-41665135D01*
X26873000Y-41665135D01*
G37*
X26873000Y-41665135D02*
X26731714Y-41740654D01*
X26483971Y-41943971D01*
X26280654Y-42191714D01*
X26129575Y-42474362D01*
X26129246Y-42475446D01*
X26075548Y-42467471D01*
X25775115Y-42482180D01*
X25626923Y-42511657D01*
X25571995Y-42612345D01*
X25422849Y-42389131D01*
X25070869Y-42037151D01*
X24656983Y-41760602D01*
X24197099Y-41570111D01*
X23708888Y-41473000D01*
X23211112Y-41473000D01*
X22722901Y-41570111D01*
X22263017Y-41760602D01*
X21849131Y-42037151D01*
X21497151Y-42389131D01*
X21220602Y-42803017D01*
X21030111Y-43262901D01*
X20933000Y-43751112D01*
X20933000Y-44248888D01*
X21030111Y-44737099D01*
X21220602Y-45196983D01*
X21304804Y-45323000D01*
X17111894Y-45323000D01*
X17143458Y-45218948D01*
X17174872Y-44900000D01*
X17174872Y-43100000D01*
X17143458Y-42781052D01*
X17050425Y-42474362D01*
X16899346Y-42191714D01*
X16696029Y-41943971D01*
X16448286Y-41740654D01*
X16165638Y-41589575D01*
X15858948Y-41496542D01*
X15540000Y-41465128D01*
X13740000Y-41465128D01*
X13421052Y-41496542D01*
X13114362Y-41589575D01*
X12831714Y-41740654D01*
X12583971Y-41943971D01*
X12380654Y-42191714D01*
X12229575Y-42474362D01*
X12229246Y-42475446D01*
X12175548Y-42467471D01*
X11875115Y-42482180D01*
X11726923Y-42511657D01*
X11671995Y-42612345D01*
X11522849Y-42389131D01*
X11170869Y-42037151D01*
X11127000Y-42007839D01*
X11127000Y-38627000D01*
X26873000Y-38627000D01*
X26873000Y-41665135D01*
G36*
X12100000Y-43189656D02*
G01*
X12105128Y-43184528D01*
X12105128Y-44815472D01*
X12100000Y-44810344D01*
X12085858Y-44824487D01*
X11991313Y-44729942D01*
X12087000Y-44248888D01*
X12087000Y-43751112D01*
X11991313Y-43270058D01*
X12085858Y-43175514D01*
X12100000Y-43189656D01*
X12100000Y-43189656D01*
G37*
X12100000Y-43189656D02*
X12105128Y-43184528D01*
X12105128Y-44815472D01*
X12100000Y-44810344D01*
X12085858Y-44824487D01*
X11991313Y-44729942D01*
X12087000Y-44248888D01*
X12087000Y-43751112D01*
X11991313Y-43270058D01*
X12085858Y-43175514D01*
X12100000Y-43189656D01*
G36*
X26000000Y-43189656D02*
G01*
X26005128Y-43184528D01*
X26005128Y-44815472D01*
X26000000Y-44810344D01*
X25985858Y-44824487D01*
X25891313Y-44729942D01*
X25987000Y-44248888D01*
X25987000Y-43751112D01*
X25891313Y-43270058D01*
X25985858Y-43175514D01*
X26000000Y-43189656D01*
X26000000Y-43189656D01*
G37*
X26000000Y-43189656D02*
X26005128Y-43184528D01*
X26005128Y-44815472D01*
X26000000Y-44810344D01*
X25985858Y-44824487D01*
X25891313Y-44729942D01*
X25987000Y-44248888D01*
X25987000Y-43751112D01*
X25891313Y-43270058D01*
X25985858Y-43175514D01*
X26000000Y-43189656D01*
G36*
X20956542Y45218948D02*
G01*
X20925128Y44900000D01*
X20925128Y43100000D01*
X20956542Y42781052D01*
X21049575Y42474362D01*
X21200654Y42191714D01*
X21403971Y41943971D01*
X21651714Y41740654D01*
X21934362Y41589575D01*
X22241052Y41496542D01*
X22560000Y41465128D01*
X24360000Y41465128D01*
X24678948Y41496542D01*
X24985638Y41589575D01*
X25268286Y41740654D01*
X25516029Y41943971D01*
X25719346Y42191714D01*
X25870425Y42474362D01*
X25870754Y42475446D01*
X25924452Y42467471D01*
X26224885Y42482180D01*
X26373077Y42511657D01*
X26428005Y42612345D01*
X26577151Y42389131D01*
X26873000Y42093282D01*
X26873000Y38627000D01*
X11127000Y38627000D01*
X11127000Y41611684D01*
X11368286Y41740654D01*
X11616029Y41943971D01*
X11819346Y42191714D01*
X11970425Y42474362D01*
X11970754Y42475446D01*
X12024452Y42467471D01*
X12324885Y42482180D01*
X12473077Y42511657D01*
X12528005Y42612345D01*
X12677151Y42389131D01*
X13029131Y42037151D01*
X13443017Y41760602D01*
X13902901Y41570111D01*
X14391112Y41473000D01*
X14888888Y41473000D01*
X15377099Y41570111D01*
X15836983Y41760602D01*
X16250869Y42037151D01*
X16602849Y42389131D01*
X16879398Y42803017D01*
X17069889Y43262901D01*
X17167000Y43751112D01*
X17167000Y44248888D01*
X17069889Y44737099D01*
X16879398Y45196983D01*
X16795196Y45323000D01*
X20988106Y45323000D01*
X20956542Y45218948D01*
X20956542Y45218948D01*
G37*
X20956542Y45218948D02*
X20925128Y44900000D01*
X20925128Y43100000D01*
X20956542Y42781052D01*
X21049575Y42474362D01*
X21200654Y42191714D01*
X21403971Y41943971D01*
X21651714Y41740654D01*
X21934362Y41589575D01*
X22241052Y41496542D01*
X22560000Y41465128D01*
X24360000Y41465128D01*
X24678948Y41496542D01*
X24985638Y41589575D01*
X25268286Y41740654D01*
X25516029Y41943971D01*
X25719346Y42191714D01*
X25870425Y42474362D01*
X25870754Y42475446D01*
X25924452Y42467471D01*
X26224885Y42482180D01*
X26373077Y42511657D01*
X26428005Y42612345D01*
X26577151Y42389131D01*
X26873000Y42093282D01*
X26873000Y38627000D01*
X11127000Y38627000D01*
X11127000Y41611684D01*
X11368286Y41740654D01*
X11616029Y41943971D01*
X11819346Y42191714D01*
X11970425Y42474362D01*
X11970754Y42475446D01*
X12024452Y42467471D01*
X12324885Y42482180D01*
X12473077Y42511657D01*
X12528005Y42612345D01*
X12677151Y42389131D01*
X13029131Y42037151D01*
X13443017Y41760602D01*
X13902901Y41570111D01*
X14391112Y41473000D01*
X14888888Y41473000D01*
X15377099Y41570111D01*
X15836983Y41760602D01*
X16250869Y42037151D01*
X16602849Y42389131D01*
X16879398Y42803017D01*
X17069889Y43262901D01*
X17167000Y43751112D01*
X17167000Y44248888D01*
X17069889Y44737099D01*
X16879398Y45196983D01*
X16795196Y45323000D01*
X20988106Y45323000D01*
X20956542Y45218948D01*
G36*
X12208687Y44729942D02*
G01*
X12113000Y44248888D01*
X12113000Y43751112D01*
X12208687Y43270058D01*
X12114143Y43175514D01*
X12100000Y43189656D01*
X12094872Y43184528D01*
X12094872Y44815472D01*
X12100000Y44810344D01*
X12114143Y44824487D01*
X12208687Y44729942D01*
X12208687Y44729942D01*
G37*
X12208687Y44729942D02*
X12113000Y44248888D01*
X12113000Y43751112D01*
X12208687Y43270058D01*
X12114143Y43175514D01*
X12100000Y43189656D01*
X12094872Y43184528D01*
X12094872Y44815472D01*
X12100000Y44810344D01*
X12114143Y44824487D01*
X12208687Y44729942D01*
G36*
X26108687Y44729942D02*
G01*
X26013000Y44248888D01*
X26013000Y43751112D01*
X26108687Y43270058D01*
X26014143Y43175514D01*
X26000000Y43189656D01*
X25994872Y43184528D01*
X25994872Y44815472D01*
X26000000Y44810344D01*
X26014143Y44824487D01*
X26108687Y44729942D01*
X26108687Y44729942D01*
G37*
X26108687Y44729942D02*
X26013000Y44248888D01*
X26013000Y43751112D01*
X26108687Y43270058D01*
X26014143Y43175514D01*
X26000000Y43189656D01*
X25994872Y43184528D01*
X25994872Y44815472D01*
X26000000Y44810344D01*
X26014143Y44824487D01*
X26108687Y44729942D01*
G36*
X-40127000Y-40798834D02*
G01*
X-40222675Y-40720316D01*
X-40800652Y-40411381D01*
X-41427794Y-40221140D01*
X-41916565Y-40173000D01*
X-42243435Y-40173000D01*
X-42732206Y-40221140D01*
X-43359348Y-40411381D01*
X-43937325Y-40720316D01*
X-44443927Y-41136073D01*
X-44859684Y-41642675D01*
X-45168619Y-42220652D01*
X-45358860Y-42847794D01*
X-45423097Y-43500000D01*
X-45358860Y-44152206D01*
X-45168619Y-44779348D01*
X-45145287Y-44823000D01*
X-69823000Y-44823000D01*
X-69823000Y-37976907D01*
X-65916562Y-37976907D01*
X-65602362Y-38336212D01*
X-65023059Y-38545549D01*
X-64414047Y-38637846D01*
X-63798732Y-38609557D01*
X-63200757Y-38461770D01*
X-62897638Y-38336212D01*
X-62659953Y-38064406D01*
X-55236560Y-38064406D01*
X-54922360Y-38423711D01*
X-54343057Y-38633048D01*
X-53734045Y-38725345D01*
X-53118730Y-38697056D01*
X-52520755Y-38549269D01*
X-52217636Y-38423711D01*
X-51903436Y-38064406D01*
X-53569998Y-36397843D01*
X-55236560Y-38064406D01*
X-62659953Y-38064406D01*
X-62583438Y-37976907D01*
X-64250000Y-36310344D01*
X-65916562Y-37976907D01*
X-69823000Y-37976907D01*
X-69823000Y-35335953D01*
X-67387846Y-35335953D01*
X-67359557Y-35951268D01*
X-67211770Y-36549243D01*
X-67086212Y-36852362D01*
X-66726907Y-37166562D01*
X-65060344Y-35500000D01*
X-63439656Y-35500000D01*
X-61773093Y-37166562D01*
X-61413788Y-36852362D01*
X-61204451Y-36273059D01*
X-61112154Y-35664047D01*
X-61123215Y-35423452D01*
X-56707844Y-35423452D01*
X-56679555Y-36038767D01*
X-56531768Y-36636742D01*
X-56406210Y-36939861D01*
X-56046905Y-37254061D01*
X-54380342Y-35587499D01*
X-52759654Y-35587499D01*
X-51093091Y-37254061D01*
X-50733786Y-36939861D01*
X-50524449Y-36360558D01*
X-50432152Y-35751546D01*
X-50460441Y-35136231D01*
X-50608228Y-34538256D01*
X-50733786Y-34235137D01*
X-51093091Y-33920937D01*
X-52759654Y-35587499D01*
X-54380342Y-35587499D01*
X-56046905Y-33920937D01*
X-56406210Y-34235137D01*
X-56615547Y-34814440D01*
X-56707844Y-35423452D01*
X-61123215Y-35423452D01*
X-61140443Y-35048732D01*
X-61288230Y-34450757D01*
X-61413788Y-34147638D01*
X-61773093Y-33833438D01*
X-63439656Y-35500000D01*
X-65060344Y-35500000D01*
X-66726907Y-33833438D01*
X-67086212Y-34147638D01*
X-67295549Y-34726941D01*
X-67387846Y-35335953D01*
X-69823000Y-35335953D01*
X-69823000Y-33023093D01*
X-65916562Y-33023093D01*
X-64250000Y-34689656D01*
X-62670937Y-33110592D01*
X-55236560Y-33110592D01*
X-53569998Y-34777155D01*
X-51903436Y-33110592D01*
X-52217636Y-32751287D01*
X-52796939Y-32541950D01*
X-53405951Y-32449653D01*
X-54021266Y-32477942D01*
X-54619241Y-32625729D01*
X-54922360Y-32751287D01*
X-55236560Y-33110592D01*
X-62670937Y-33110592D01*
X-62583438Y-33023093D01*
X-62897638Y-32663788D01*
X-63476941Y-32454451D01*
X-64085953Y-32362154D01*
X-64701268Y-32390443D01*
X-65299243Y-32538230D01*
X-65602362Y-32663788D01*
X-65916562Y-33023093D01*
X-69823000Y-33023093D01*
X-69823000Y-24294280D01*
X-64127000Y-24294280D01*
X-64127000Y-25205720D01*
X-63949187Y-26099646D01*
X-63600394Y-26941706D01*
X-63094026Y-27699541D01*
X-62449541Y-28344026D01*
X-61691706Y-28850394D01*
X-60849646Y-29199187D01*
X-59955720Y-29377000D01*
X-59044280Y-29377000D01*
X-58150354Y-29199187D01*
X-57308294Y-28850394D01*
X-56550459Y-28344026D01*
X-55905974Y-27699541D01*
X-55399606Y-26941706D01*
X-55050813Y-26099646D01*
X-54873000Y-25205720D01*
X-54873000Y-24294280D01*
X-53377000Y-24294280D01*
X-53377000Y-25205720D01*
X-53199187Y-26099646D01*
X-52850394Y-26941706D01*
X-52344026Y-27699541D01*
X-51699541Y-28344026D01*
X-50941706Y-28850394D01*
X-50099646Y-29199187D01*
X-49205720Y-29377000D01*
X-48294280Y-29377000D01*
X-47400354Y-29199187D01*
X-46558294Y-28850394D01*
X-45800459Y-28344026D01*
X-45155974Y-27699541D01*
X-44649606Y-26941706D01*
X-44300813Y-26099646D01*
X-44123000Y-25205720D01*
X-44123000Y-24294280D01*
X-44300813Y-23400354D01*
X-44649606Y-22558294D01*
X-45155974Y-21800459D01*
X-45800459Y-21155974D01*
X-46558294Y-20649606D01*
X-47400354Y-20300813D01*
X-48294280Y-20123000D01*
X-49205720Y-20123000D01*
X-50099646Y-20300813D01*
X-50941706Y-20649606D01*
X-51699541Y-21155974D01*
X-52344026Y-21800459D01*
X-52850394Y-22558294D01*
X-53199187Y-23400354D01*
X-53377000Y-24294280D01*
X-54873000Y-24294280D01*
X-55050813Y-23400354D01*
X-55399606Y-22558294D01*
X-55905974Y-21800459D01*
X-56550459Y-21155974D01*
X-57308294Y-20649606D01*
X-58150354Y-20300813D01*
X-59044280Y-20123000D01*
X-59955720Y-20123000D01*
X-60849646Y-20300813D01*
X-61691706Y-20649606D01*
X-62449541Y-21155974D01*
X-63094026Y-21800459D01*
X-63600394Y-22558294D01*
X-63949187Y-23400354D01*
X-64127000Y-24294280D01*
X-69823000Y-24294280D01*
X-69823000Y-16950000D01*
X-59730034Y-16950000D01*
X-59717928Y-17072914D01*
X-59682076Y-17191104D01*
X-59623854Y-17300028D01*
X-59545501Y-17395501D01*
X-59450028Y-17473854D01*
X-59341104Y-17532076D01*
X-59222914Y-17567928D01*
X-59100000Y-17580034D01*
X-58729750Y-17577000D01*
X-58573000Y-17420250D01*
X-58573000Y-16773000D01*
X-57427000Y-16773000D01*
X-57427000Y-17420250D01*
X-57270250Y-17577000D01*
X-56900000Y-17580034D01*
X-56777086Y-17567928D01*
X-56658896Y-17532076D01*
X-56549972Y-17473854D01*
X-56454499Y-17395501D01*
X-56376146Y-17300028D01*
X-56317924Y-17191104D01*
X-56282072Y-17072914D01*
X-56269966Y-16950000D01*
X-49730034Y-16950000D01*
X-49717928Y-17072914D01*
X-49682076Y-17191104D01*
X-49623854Y-17300028D01*
X-49545501Y-17395501D01*
X-49450028Y-17473854D01*
X-49341104Y-17532076D01*
X-49222914Y-17567928D01*
X-49100000Y-17580034D01*
X-48729750Y-17577000D01*
X-48573000Y-17420250D01*
X-48573000Y-16773000D01*
X-47427000Y-16773000D01*
X-47427000Y-17420250D01*
X-47270250Y-17577000D01*
X-46900000Y-17580034D01*
X-46777086Y-17567928D01*
X-46658896Y-17532076D01*
X-46549972Y-17473854D01*
X-46454499Y-17395501D01*
X-46376146Y-17300028D01*
X-46317924Y-17191104D01*
X-46282072Y-17072914D01*
X-46269966Y-16950000D01*
X-46273000Y-16929750D01*
X-46429750Y-16773000D01*
X-47427000Y-16773000D01*
X-48573000Y-16773000D01*
X-49570250Y-16773000D01*
X-49727000Y-16929750D01*
X-49730034Y-16950000D01*
X-56269966Y-16950000D01*
X-56273000Y-16929750D01*
X-56429750Y-16773000D01*
X-57427000Y-16773000D01*
X-58573000Y-16773000D01*
X-59570250Y-16773000D01*
X-59727000Y-16929750D01*
X-59730034Y-16950000D01*
X-69823000Y-16950000D01*
X-69823000Y-15450000D01*
X-59730034Y-15450000D01*
X-59727000Y-15470250D01*
X-59570250Y-15627000D01*
X-58573000Y-15627000D01*
X-58573000Y-14979750D01*
X-57427000Y-14979750D01*
X-57427000Y-15627000D01*
X-56429750Y-15627000D01*
X-56273000Y-15470250D01*
X-56269966Y-15450000D01*
X-49730034Y-15450000D01*
X-49727000Y-15470250D01*
X-49570250Y-15627000D01*
X-48573000Y-15627000D01*
X-48573000Y-14979750D01*
X-47427000Y-14979750D01*
X-47427000Y-15627000D01*
X-46429750Y-15627000D01*
X-46273000Y-15470250D01*
X-46269966Y-15450000D01*
X-46282072Y-15327086D01*
X-46317924Y-15208896D01*
X-46376146Y-15099972D01*
X-46454499Y-15004499D01*
X-46549972Y-14926146D01*
X-46658896Y-14867924D01*
X-46777086Y-14832072D01*
X-46900000Y-14819966D01*
X-47270250Y-14823000D01*
X-47427000Y-14979750D01*
X-48573000Y-14979750D01*
X-48729750Y-14823000D01*
X-49100000Y-14819966D01*
X-49222914Y-14832072D01*
X-49341104Y-14867924D01*
X-49450028Y-14926146D01*
X-49545501Y-15004499D01*
X-49623854Y-15099972D01*
X-49682076Y-15208896D01*
X-49717928Y-15327086D01*
X-49730034Y-15450000D01*
X-56269966Y-15450000D01*
X-56282072Y-15327086D01*
X-56317924Y-15208896D01*
X-56376146Y-15099972D01*
X-56454499Y-15004499D01*
X-56549972Y-14926146D01*
X-56658896Y-14867924D01*
X-56777086Y-14832072D01*
X-56900000Y-14819966D01*
X-57270250Y-14823000D01*
X-57427000Y-14979750D01*
X-58573000Y-14979750D01*
X-58729750Y-14823000D01*
X-59100000Y-14819966D01*
X-59222914Y-14832072D01*
X-59341104Y-14867924D01*
X-59450028Y-14926146D01*
X-59545501Y-15004499D01*
X-59623854Y-15099972D01*
X-59682076Y-15208896D01*
X-59717928Y-15327086D01*
X-59730034Y-15450000D01*
X-69823000Y-15450000D01*
X-69823000Y-14527000D01*
X-40127000Y-14527000D01*
X-40127000Y-40798834D01*
X-40127000Y-40798834D01*
G37*
X-40127000Y-40798834D02*
X-40222675Y-40720316D01*
X-40800652Y-40411381D01*
X-41427794Y-40221140D01*
X-41916565Y-40173000D01*
X-42243435Y-40173000D01*
X-42732206Y-40221140D01*
X-43359348Y-40411381D01*
X-43937325Y-40720316D01*
X-44443927Y-41136073D01*
X-44859684Y-41642675D01*
X-45168619Y-42220652D01*
X-45358860Y-42847794D01*
X-45423097Y-43500000D01*
X-45358860Y-44152206D01*
X-45168619Y-44779348D01*
X-45145287Y-44823000D01*
X-69823000Y-44823000D01*
X-69823000Y-37976907D01*
X-65916562Y-37976907D01*
X-65602362Y-38336212D01*
X-65023059Y-38545549D01*
X-64414047Y-38637846D01*
X-63798732Y-38609557D01*
X-63200757Y-38461770D01*
X-62897638Y-38336212D01*
X-62659953Y-38064406D01*
X-55236560Y-38064406D01*
X-54922360Y-38423711D01*
X-54343057Y-38633048D01*
X-53734045Y-38725345D01*
X-53118730Y-38697056D01*
X-52520755Y-38549269D01*
X-52217636Y-38423711D01*
X-51903436Y-38064406D01*
X-53569998Y-36397843D01*
X-55236560Y-38064406D01*
X-62659953Y-38064406D01*
X-62583438Y-37976907D01*
X-64250000Y-36310344D01*
X-65916562Y-37976907D01*
X-69823000Y-37976907D01*
X-69823000Y-35335953D01*
X-67387846Y-35335953D01*
X-67359557Y-35951268D01*
X-67211770Y-36549243D01*
X-67086212Y-36852362D01*
X-66726907Y-37166562D01*
X-65060344Y-35500000D01*
X-63439656Y-35500000D01*
X-61773093Y-37166562D01*
X-61413788Y-36852362D01*
X-61204451Y-36273059D01*
X-61112154Y-35664047D01*
X-61123215Y-35423452D01*
X-56707844Y-35423452D01*
X-56679555Y-36038767D01*
X-56531768Y-36636742D01*
X-56406210Y-36939861D01*
X-56046905Y-37254061D01*
X-54380342Y-35587499D01*
X-52759654Y-35587499D01*
X-51093091Y-37254061D01*
X-50733786Y-36939861D01*
X-50524449Y-36360558D01*
X-50432152Y-35751546D01*
X-50460441Y-35136231D01*
X-50608228Y-34538256D01*
X-50733786Y-34235137D01*
X-51093091Y-33920937D01*
X-52759654Y-35587499D01*
X-54380342Y-35587499D01*
X-56046905Y-33920937D01*
X-56406210Y-34235137D01*
X-56615547Y-34814440D01*
X-56707844Y-35423452D01*
X-61123215Y-35423452D01*
X-61140443Y-35048732D01*
X-61288230Y-34450757D01*
X-61413788Y-34147638D01*
X-61773093Y-33833438D01*
X-63439656Y-35500000D01*
X-65060344Y-35500000D01*
X-66726907Y-33833438D01*
X-67086212Y-34147638D01*
X-67295549Y-34726941D01*
X-67387846Y-35335953D01*
X-69823000Y-35335953D01*
X-69823000Y-33023093D01*
X-65916562Y-33023093D01*
X-64250000Y-34689656D01*
X-62670937Y-33110592D01*
X-55236560Y-33110592D01*
X-53569998Y-34777155D01*
X-51903436Y-33110592D01*
X-52217636Y-32751287D01*
X-52796939Y-32541950D01*
X-53405951Y-32449653D01*
X-54021266Y-32477942D01*
X-54619241Y-32625729D01*
X-54922360Y-32751287D01*
X-55236560Y-33110592D01*
X-62670937Y-33110592D01*
X-62583438Y-33023093D01*
X-62897638Y-32663788D01*
X-63476941Y-32454451D01*
X-64085953Y-32362154D01*
X-64701268Y-32390443D01*
X-65299243Y-32538230D01*
X-65602362Y-32663788D01*
X-65916562Y-33023093D01*
X-69823000Y-33023093D01*
X-69823000Y-24294280D01*
X-64127000Y-24294280D01*
X-64127000Y-25205720D01*
X-63949187Y-26099646D01*
X-63600394Y-26941706D01*
X-63094026Y-27699541D01*
X-62449541Y-28344026D01*
X-61691706Y-28850394D01*
X-60849646Y-29199187D01*
X-59955720Y-29377000D01*
X-59044280Y-29377000D01*
X-58150354Y-29199187D01*
X-57308294Y-28850394D01*
X-56550459Y-28344026D01*
X-55905974Y-27699541D01*
X-55399606Y-26941706D01*
X-55050813Y-26099646D01*
X-54873000Y-25205720D01*
X-54873000Y-24294280D01*
X-53377000Y-24294280D01*
X-53377000Y-25205720D01*
X-53199187Y-26099646D01*
X-52850394Y-26941706D01*
X-52344026Y-27699541D01*
X-51699541Y-28344026D01*
X-50941706Y-28850394D01*
X-50099646Y-29199187D01*
X-49205720Y-29377000D01*
X-48294280Y-29377000D01*
X-47400354Y-29199187D01*
X-46558294Y-28850394D01*
X-45800459Y-28344026D01*
X-45155974Y-27699541D01*
X-44649606Y-26941706D01*
X-44300813Y-26099646D01*
X-44123000Y-25205720D01*
X-44123000Y-24294280D01*
X-44300813Y-23400354D01*
X-44649606Y-22558294D01*
X-45155974Y-21800459D01*
X-45800459Y-21155974D01*
X-46558294Y-20649606D01*
X-47400354Y-20300813D01*
X-48294280Y-20123000D01*
X-49205720Y-20123000D01*
X-50099646Y-20300813D01*
X-50941706Y-20649606D01*
X-51699541Y-21155974D01*
X-52344026Y-21800459D01*
X-52850394Y-22558294D01*
X-53199187Y-23400354D01*
X-53377000Y-24294280D01*
X-54873000Y-24294280D01*
X-55050813Y-23400354D01*
X-55399606Y-22558294D01*
X-55905974Y-21800459D01*
X-56550459Y-21155974D01*
X-57308294Y-20649606D01*
X-58150354Y-20300813D01*
X-59044280Y-20123000D01*
X-59955720Y-20123000D01*
X-60849646Y-20300813D01*
X-61691706Y-20649606D01*
X-62449541Y-21155974D01*
X-63094026Y-21800459D01*
X-63600394Y-22558294D01*
X-63949187Y-23400354D01*
X-64127000Y-24294280D01*
X-69823000Y-24294280D01*
X-69823000Y-16950000D01*
X-59730034Y-16950000D01*
X-59717928Y-17072914D01*
X-59682076Y-17191104D01*
X-59623854Y-17300028D01*
X-59545501Y-17395501D01*
X-59450028Y-17473854D01*
X-59341104Y-17532076D01*
X-59222914Y-17567928D01*
X-59100000Y-17580034D01*
X-58729750Y-17577000D01*
X-58573000Y-17420250D01*
X-58573000Y-16773000D01*
X-57427000Y-16773000D01*
X-57427000Y-17420250D01*
X-57270250Y-17577000D01*
X-56900000Y-17580034D01*
X-56777086Y-17567928D01*
X-56658896Y-17532076D01*
X-56549972Y-17473854D01*
X-56454499Y-17395501D01*
X-56376146Y-17300028D01*
X-56317924Y-17191104D01*
X-56282072Y-17072914D01*
X-56269966Y-16950000D01*
X-49730034Y-16950000D01*
X-49717928Y-17072914D01*
X-49682076Y-17191104D01*
X-49623854Y-17300028D01*
X-49545501Y-17395501D01*
X-49450028Y-17473854D01*
X-49341104Y-17532076D01*
X-49222914Y-17567928D01*
X-49100000Y-17580034D01*
X-48729750Y-17577000D01*
X-48573000Y-17420250D01*
X-48573000Y-16773000D01*
X-47427000Y-16773000D01*
X-47427000Y-17420250D01*
X-47270250Y-17577000D01*
X-46900000Y-17580034D01*
X-46777086Y-17567928D01*
X-46658896Y-17532076D01*
X-46549972Y-17473854D01*
X-46454499Y-17395501D01*
X-46376146Y-17300028D01*
X-46317924Y-17191104D01*
X-46282072Y-17072914D01*
X-46269966Y-16950000D01*
X-46273000Y-16929750D01*
X-46429750Y-16773000D01*
X-47427000Y-16773000D01*
X-48573000Y-16773000D01*
X-49570250Y-16773000D01*
X-49727000Y-16929750D01*
X-49730034Y-16950000D01*
X-56269966Y-16950000D01*
X-56273000Y-16929750D01*
X-56429750Y-16773000D01*
X-57427000Y-16773000D01*
X-58573000Y-16773000D01*
X-59570250Y-16773000D01*
X-59727000Y-16929750D01*
X-59730034Y-16950000D01*
X-69823000Y-16950000D01*
X-69823000Y-15450000D01*
X-59730034Y-15450000D01*
X-59727000Y-15470250D01*
X-59570250Y-15627000D01*
X-58573000Y-15627000D01*
X-58573000Y-14979750D01*
X-57427000Y-14979750D01*
X-57427000Y-15627000D01*
X-56429750Y-15627000D01*
X-56273000Y-15470250D01*
X-56269966Y-15450000D01*
X-49730034Y-15450000D01*
X-49727000Y-15470250D01*
X-49570250Y-15627000D01*
X-48573000Y-15627000D01*
X-48573000Y-14979750D01*
X-47427000Y-14979750D01*
X-47427000Y-15627000D01*
X-46429750Y-15627000D01*
X-46273000Y-15470250D01*
X-46269966Y-15450000D01*
X-46282072Y-15327086D01*
X-46317924Y-15208896D01*
X-46376146Y-15099972D01*
X-46454499Y-15004499D01*
X-46549972Y-14926146D01*
X-46658896Y-14867924D01*
X-46777086Y-14832072D01*
X-46900000Y-14819966D01*
X-47270250Y-14823000D01*
X-47427000Y-14979750D01*
X-48573000Y-14979750D01*
X-48729750Y-14823000D01*
X-49100000Y-14819966D01*
X-49222914Y-14832072D01*
X-49341104Y-14867924D01*
X-49450028Y-14926146D01*
X-49545501Y-15004499D01*
X-49623854Y-15099972D01*
X-49682076Y-15208896D01*
X-49717928Y-15327086D01*
X-49730034Y-15450000D01*
X-56269966Y-15450000D01*
X-56282072Y-15327086D01*
X-56317924Y-15208896D01*
X-56376146Y-15099972D01*
X-56454499Y-15004499D01*
X-56549972Y-14926146D01*
X-56658896Y-14867924D01*
X-56777086Y-14832072D01*
X-56900000Y-14819966D01*
X-57270250Y-14823000D01*
X-57427000Y-14979750D01*
X-58573000Y-14979750D01*
X-58729750Y-14823000D01*
X-59100000Y-14819966D01*
X-59222914Y-14832072D01*
X-59341104Y-14867924D01*
X-59450028Y-14926146D01*
X-59545501Y-15004499D01*
X-59623854Y-15099972D01*
X-59682076Y-15208896D01*
X-59717928Y-15327086D01*
X-59730034Y-15450000D01*
X-69823000Y-15450000D01*
X-69823000Y-14527000D01*
X-40127000Y-14527000D01*
X-40127000Y-40798834D01*
M02*
