G04 #@! TF.GenerationSoftware,KiCad,Pcbnew,(5.1.2)-1*
G04 #@! TF.CreationDate,2019-05-29T22:51:05-07:00*
G04 #@! TF.ProjectId,1000WConverter_r1_ctrl,31303030-5743-46f6-9e76-65727465725f,rev?*
G04 #@! TF.SameCoordinates,Original*
G04 #@! TF.FileFunction,Copper,L1,Top*
G04 #@! TF.FilePolarity,Positive*
%FSLAX46Y46*%
G04 Gerber Fmt 4.6, Leading zero omitted, Abs format (unit mm)*
G04 Created by KiCad (PCBNEW (5.1.2)-1) date 2019-05-29 22:51:05*
%MOMM*%
%LPD*%
G04 APERTURE LIST*
%ADD10C,0.300000*%
%ADD11C,0.609600*%
%ADD12C,0.711200*%
%ADD13C,0.812800*%
%ADD14C,0.100000*%
%ADD15C,0.914400*%
%ADD16C,1.117600*%
%ADD17C,1.016000*%
%ADD18C,0.508000*%
%ADD19C,0.762000*%
%ADD20C,0.457200*%
%ADD21C,0.609600*%
%ADD22C,1.800000*%
%ADD23R,1.800000X1.800000*%
%ADD24R,1.200000X1.500000*%
%ADD25R,1.300000X0.700000*%
%ADD26R,0.700000X1.300000*%
%ADD27R,0.508000X1.143000*%
%ADD28R,1.016000X1.016000*%
%ADD29C,1.600000*%
%ADD30R,1.600000X1.600000*%
%ADD31R,0.600000X0.750000*%
%ADD32R,0.750000X0.600000*%
%ADD33R,1.000000X1.250000*%
%ADD34R,1.250000X1.000000*%
%ADD35C,1.524000*%
%ADD36R,1.750000X0.450000*%
%ADD37C,3.000000*%
%ADD38C,0.600000*%
%ADD39C,0.250000*%
%ADD40C,1.270000*%
%ADD41C,0.406400*%
%ADD42C,0.304800*%
%ADD43C,0.254000*%
G04 APERTURE END LIST*
D10*
X-35662142Y-52178571D02*
X-36519285Y-52178571D01*
X-36090714Y-52178571D02*
X-36090714Y-50678571D01*
X-36233571Y-50892857D01*
X-36376428Y-51035714D01*
X-36519285Y-51107142D01*
X-34733571Y-50678571D02*
X-34590714Y-50678571D01*
X-34447857Y-50750000D01*
X-34376428Y-50821428D01*
X-34305000Y-50964285D01*
X-34233571Y-51250000D01*
X-34233571Y-51607142D01*
X-34305000Y-51892857D01*
X-34376428Y-52035714D01*
X-34447857Y-52107142D01*
X-34590714Y-52178571D01*
X-34733571Y-52178571D01*
X-34876428Y-52107142D01*
X-34947857Y-52035714D01*
X-35019285Y-51892857D01*
X-35090714Y-51607142D01*
X-35090714Y-51250000D01*
X-35019285Y-50964285D01*
X-34947857Y-50821428D01*
X-34876428Y-50750000D01*
X-34733571Y-50678571D01*
X-33305000Y-50678571D02*
X-33162142Y-50678571D01*
X-33019285Y-50750000D01*
X-32947857Y-50821428D01*
X-32876428Y-50964285D01*
X-32805000Y-51250000D01*
X-32805000Y-51607142D01*
X-32876428Y-51892857D01*
X-32947857Y-52035714D01*
X-33019285Y-52107142D01*
X-33162142Y-52178571D01*
X-33305000Y-52178571D01*
X-33447857Y-52107142D01*
X-33519285Y-52035714D01*
X-33590714Y-51892857D01*
X-33662142Y-51607142D01*
X-33662142Y-51250000D01*
X-33590714Y-50964285D01*
X-33519285Y-50821428D01*
X-33447857Y-50750000D01*
X-33305000Y-50678571D01*
X-31876428Y-50678571D02*
X-31733571Y-50678571D01*
X-31590714Y-50750000D01*
X-31519285Y-50821428D01*
X-31447857Y-50964285D01*
X-31376428Y-51250000D01*
X-31376428Y-51607142D01*
X-31447857Y-51892857D01*
X-31519285Y-52035714D01*
X-31590714Y-52107142D01*
X-31733571Y-52178571D01*
X-31876428Y-52178571D01*
X-32019285Y-52107142D01*
X-32090714Y-52035714D01*
X-32162142Y-51892857D01*
X-32233571Y-51607142D01*
X-32233571Y-51250000D01*
X-32162142Y-50964285D01*
X-32090714Y-50821428D01*
X-32019285Y-50750000D01*
X-31876428Y-50678571D01*
X-30876428Y-50678571D02*
X-30519285Y-52178571D01*
X-30233571Y-51107142D01*
X-29947857Y-52178571D01*
X-29590714Y-50678571D01*
X-27019285Y-52035714D02*
X-27090714Y-52107142D01*
X-27305000Y-52178571D01*
X-27447857Y-52178571D01*
X-27662142Y-52107142D01*
X-27805000Y-51964285D01*
X-27876428Y-51821428D01*
X-27947857Y-51535714D01*
X-27947857Y-51321428D01*
X-27876428Y-51035714D01*
X-27805000Y-50892857D01*
X-27662142Y-50750000D01*
X-27447857Y-50678571D01*
X-27305000Y-50678571D01*
X-27090714Y-50750000D01*
X-27019285Y-50821428D01*
X-26162142Y-52178571D02*
X-26305000Y-52107142D01*
X-26376428Y-52035714D01*
X-26447857Y-51892857D01*
X-26447857Y-51464285D01*
X-26376428Y-51321428D01*
X-26305000Y-51250000D01*
X-26162142Y-51178571D01*
X-25947857Y-51178571D01*
X-25805000Y-51250000D01*
X-25733571Y-51321428D01*
X-25662142Y-51464285D01*
X-25662142Y-51892857D01*
X-25733571Y-52035714D01*
X-25805000Y-52107142D01*
X-25947857Y-52178571D01*
X-26162142Y-52178571D01*
X-25019285Y-51178571D02*
X-25019285Y-52178571D01*
X-25019285Y-51321428D02*
X-24947857Y-51250000D01*
X-24805000Y-51178571D01*
X-24590714Y-51178571D01*
X-24447857Y-51250000D01*
X-24376428Y-51392857D01*
X-24376428Y-52178571D01*
X-23805000Y-51178571D02*
X-23447857Y-52178571D01*
X-23090714Y-51178571D01*
X-21947857Y-52107142D02*
X-22090714Y-52178571D01*
X-22376428Y-52178571D01*
X-22519285Y-52107142D01*
X-22590714Y-51964285D01*
X-22590714Y-51392857D01*
X-22519285Y-51250000D01*
X-22376428Y-51178571D01*
X-22090714Y-51178571D01*
X-21947857Y-51250000D01*
X-21876428Y-51392857D01*
X-21876428Y-51535714D01*
X-22590714Y-51678571D01*
X-21233571Y-52178571D02*
X-21233571Y-51178571D01*
X-21233571Y-51464285D02*
X-21162142Y-51321428D01*
X-21090714Y-51250000D01*
X-20947857Y-51178571D01*
X-20805000Y-51178571D01*
X-20519285Y-51178571D02*
X-19947857Y-51178571D01*
X-20305000Y-50678571D02*
X-20305000Y-51964285D01*
X-20233571Y-52107142D01*
X-20090714Y-52178571D01*
X-19947857Y-52178571D01*
X-18876428Y-52107142D02*
X-19019285Y-52178571D01*
X-19305000Y-52178571D01*
X-19447857Y-52107142D01*
X-19519285Y-51964285D01*
X-19519285Y-51392857D01*
X-19447857Y-51250000D01*
X-19305000Y-51178571D01*
X-19019285Y-51178571D01*
X-18876428Y-51250000D01*
X-18805000Y-51392857D01*
X-18805000Y-51535714D01*
X-19519285Y-51678571D01*
X-18162142Y-52178571D02*
X-18162142Y-51178571D01*
X-18162142Y-51464285D02*
X-18090714Y-51321428D01*
X-18019285Y-51250000D01*
X-17876428Y-51178571D01*
X-17733571Y-51178571D01*
X-16090714Y-52178571D02*
X-16090714Y-51178571D01*
X-16090714Y-51464285D02*
X-16019285Y-51321428D01*
X-15947857Y-51250000D01*
X-15805000Y-51178571D01*
X-15662142Y-51178571D01*
X-14376428Y-52178571D02*
X-15233571Y-52178571D01*
X-14805000Y-52178571D02*
X-14805000Y-50678571D01*
X-14947857Y-50892857D01*
X-15090714Y-51035714D01*
X-15233571Y-51107142D01*
X-12805000Y-50678571D02*
X-11947857Y-50678571D01*
X-12376428Y-52178571D02*
X-12376428Y-50678571D01*
X-11233571Y-52178571D02*
X-11376428Y-52107142D01*
X-11447857Y-52035714D01*
X-11519285Y-51892857D01*
X-11519285Y-51464285D01*
X-11447857Y-51321428D01*
X-11376428Y-51250000D01*
X-11233571Y-51178571D01*
X-11019285Y-51178571D01*
X-10876428Y-51250000D01*
X-10805000Y-51321428D01*
X-10733571Y-51464285D01*
X-10733571Y-51892857D01*
X-10805000Y-52035714D01*
X-10876428Y-52107142D01*
X-11019285Y-52178571D01*
X-11233571Y-52178571D01*
X-10090714Y-51178571D02*
X-10090714Y-52678571D01*
X-10090714Y-51250000D02*
X-9947857Y-51178571D01*
X-9662142Y-51178571D01*
X-9519285Y-51250000D01*
X-9447857Y-51321428D01*
X-9376428Y-51464285D01*
X-9376428Y-51892857D01*
X-9447857Y-52035714D01*
X-9519285Y-52107142D01*
X-9662142Y-52178571D01*
X-9947857Y-52178571D01*
X-10090714Y-52107142D01*
X38128571Y-13571428D02*
X38128571Y-14428571D01*
X38128571Y-14000000D02*
X36628571Y-14000000D01*
X36842857Y-14142857D01*
X36985714Y-14285714D01*
X37057142Y-14428571D01*
X36628571Y-12642857D02*
X36628571Y-12500000D01*
X36700000Y-12357142D01*
X36771428Y-12285714D01*
X36914285Y-12214285D01*
X37200000Y-12142857D01*
X37557142Y-12142857D01*
X37842857Y-12214285D01*
X37985714Y-12285714D01*
X38057142Y-12357142D01*
X38128571Y-12500000D01*
X38128571Y-12642857D01*
X38057142Y-12785714D01*
X37985714Y-12857142D01*
X37842857Y-12928571D01*
X37557142Y-13000000D01*
X37200000Y-13000000D01*
X36914285Y-12928571D01*
X36771428Y-12857142D01*
X36700000Y-12785714D01*
X36628571Y-12642857D01*
X36628571Y-11214285D02*
X36628571Y-11071428D01*
X36700000Y-10928571D01*
X36771428Y-10857142D01*
X36914285Y-10785714D01*
X37200000Y-10714285D01*
X37557142Y-10714285D01*
X37842857Y-10785714D01*
X37985714Y-10857142D01*
X38057142Y-10928571D01*
X38128571Y-11071428D01*
X38128571Y-11214285D01*
X38057142Y-11357142D01*
X37985714Y-11428571D01*
X37842857Y-11500000D01*
X37557142Y-11571428D01*
X37200000Y-11571428D01*
X36914285Y-11500000D01*
X36771428Y-11428571D01*
X36700000Y-11357142D01*
X36628571Y-11214285D01*
X36628571Y-9785714D02*
X36628571Y-9642857D01*
X36700000Y-9500000D01*
X36771428Y-9428571D01*
X36914285Y-9357142D01*
X37200000Y-9285714D01*
X37557142Y-9285714D01*
X37842857Y-9357142D01*
X37985714Y-9428571D01*
X38057142Y-9500000D01*
X38128571Y-9642857D01*
X38128571Y-9785714D01*
X38057142Y-9928571D01*
X37985714Y-10000000D01*
X37842857Y-10071428D01*
X37557142Y-10142857D01*
X37200000Y-10142857D01*
X36914285Y-10071428D01*
X36771428Y-10000000D01*
X36700000Y-9928571D01*
X36628571Y-9785714D01*
X36628571Y-8785714D02*
X38128571Y-8428571D01*
X37057142Y-8142857D01*
X38128571Y-7857142D01*
X36628571Y-7500000D01*
X40535714Y-15107142D02*
X40607142Y-15178571D01*
X40678571Y-15392857D01*
X40678571Y-15535714D01*
X40607142Y-15749999D01*
X40464285Y-15892857D01*
X40321428Y-15964285D01*
X40035714Y-16035714D01*
X39821428Y-16035714D01*
X39535714Y-15964285D01*
X39392857Y-15892857D01*
X39250000Y-15749999D01*
X39178571Y-15535714D01*
X39178571Y-15392857D01*
X39250000Y-15178571D01*
X39321428Y-15107142D01*
X40678571Y-14249999D02*
X40607142Y-14392857D01*
X40535714Y-14464285D01*
X40392857Y-14535714D01*
X39964285Y-14535714D01*
X39821428Y-14464285D01*
X39750000Y-14392857D01*
X39678571Y-14249999D01*
X39678571Y-14035714D01*
X39750000Y-13892857D01*
X39821428Y-13821428D01*
X39964285Y-13749999D01*
X40392857Y-13749999D01*
X40535714Y-13821428D01*
X40607142Y-13892857D01*
X40678571Y-14035714D01*
X40678571Y-14249999D01*
X39678571Y-13107142D02*
X40678571Y-13107142D01*
X39821428Y-13107142D02*
X39750000Y-13035714D01*
X39678571Y-12892857D01*
X39678571Y-12678571D01*
X39750000Y-12535714D01*
X39892857Y-12464285D01*
X40678571Y-12464285D01*
X39678571Y-11892857D02*
X40678571Y-11535714D01*
X39678571Y-11178571D01*
X40607142Y-10035714D02*
X40678571Y-10178571D01*
X40678571Y-10464285D01*
X40607142Y-10607142D01*
X40464285Y-10678571D01*
X39892857Y-10678571D01*
X39750000Y-10607142D01*
X39678571Y-10464285D01*
X39678571Y-10178571D01*
X39750000Y-10035714D01*
X39892857Y-9964285D01*
X40035714Y-9964285D01*
X40178571Y-10678571D01*
X40678571Y-9321428D02*
X39678571Y-9321428D01*
X39964285Y-9321428D02*
X39821428Y-9250000D01*
X39750000Y-9178571D01*
X39678571Y-9035714D01*
X39678571Y-8892857D01*
X39678571Y-8607142D02*
X39678571Y-8035714D01*
X39178571Y-8392857D02*
X40464285Y-8392857D01*
X40607142Y-8321428D01*
X40678571Y-8178571D01*
X40678571Y-8035714D01*
X40607142Y-6964285D02*
X40678571Y-7107142D01*
X40678571Y-7392857D01*
X40607142Y-7535714D01*
X40464285Y-7607142D01*
X39892857Y-7607142D01*
X39750000Y-7535714D01*
X39678571Y-7392857D01*
X39678571Y-7107142D01*
X39750000Y-6964285D01*
X39892857Y-6892857D01*
X40035714Y-6892857D01*
X40178571Y-7607142D01*
X40678571Y-6250000D02*
X39678571Y-6250000D01*
X39964285Y-6250000D02*
X39821428Y-6178571D01*
X39750000Y-6107142D01*
X39678571Y-5964285D01*
X39678571Y-5821428D01*
X43228571Y-11821428D02*
X42228571Y-11821428D01*
X42514285Y-11821428D02*
X42371428Y-11750000D01*
X42300000Y-11678571D01*
X42228571Y-11535714D01*
X42228571Y-11392857D01*
X43228571Y-10107142D02*
X43228571Y-10964285D01*
X43228571Y-10535714D02*
X41728571Y-10535714D01*
X41942857Y-10678571D01*
X42085714Y-10821428D01*
X42157142Y-10964285D01*
D11*
X17462500Y-22000000D02*
X17462500Y-21200000D01*
X17462500Y-21200000D02*
X17767500Y-20540000D01*
X20002500Y-22000000D02*
X20002500Y-21200000D01*
X20002500Y-21200000D02*
X19667500Y-20540000D01*
X26040000Y-39725000D02*
X27550000Y-39000000D01*
X28540000Y-39000000D02*
X27540000Y-39000000D01*
X12140000Y-39725000D02*
X13640000Y-39000000D01*
X14640000Y-39000000D02*
X13640000Y-39000000D01*
D12*
X24140000Y-40660000D02*
X24140000Y-40177400D01*
X10240000Y-40177400D02*
X10240000Y-40660000D01*
X10940000Y-36602600D02*
X10940000Y-36120000D01*
X10940000Y-29302600D02*
X10940000Y-28788400D01*
D11*
X17412600Y-27532500D02*
X16930000Y-27532500D01*
D12*
X24840000Y-36602600D02*
X24840000Y-36120000D01*
X24840000Y-29302600D02*
X24840000Y-28820000D01*
D11*
X22867500Y-29497400D02*
X22867500Y-29980000D01*
X17767500Y-20092600D02*
X17767500Y-19610000D01*
D12*
X31792500Y-25635800D02*
X31792500Y-26118400D01*
D11*
X21950000Y-20500000D02*
X21950000Y-21300000D01*
X21950000Y-21300000D02*
X21350000Y-22000000D01*
D12*
X21950000Y-17500000D02*
X21950000Y-18400000D01*
D13*
X27450000Y-23550000D02*
X23550000Y-23550000D01*
X23550000Y-23550000D02*
X23100000Y-24000000D01*
D11*
X23100000Y-24000000D02*
X23100000Y-24300000D01*
X23050000Y-26200000D02*
X23050000Y-26950000D01*
X23050000Y-26950000D02*
X22850000Y-27400000D01*
X22900000Y-27400000D02*
X21400000Y-27400000D01*
D13*
X27500000Y-23550000D02*
X30900000Y-23550000D01*
D11*
X30900000Y-23550000D02*
X31800000Y-23550000D01*
X20002500Y-27400000D02*
X20002500Y-28400000D01*
X18367500Y-28900400D02*
X18732500Y-28400400D01*
X18732500Y-27400000D02*
X18732500Y-28400000D01*
X20350000Y-28900000D02*
X20002500Y-28400000D01*
D14*
G36*
X20300000Y-30750000D02*
G01*
X18300000Y-30750000D01*
X17800000Y-32000000D01*
X21300000Y-32000000D01*
X20300000Y-30750000D01*
G37*
X20300000Y-30750000D02*
X18300000Y-30750000D01*
X17800000Y-32000000D01*
X21300000Y-32000000D01*
X20300000Y-30750000D01*
D13*
X16550000Y-32000000D02*
X15550000Y-32000000D01*
X15550000Y-32000000D02*
X14550000Y-31000000D01*
X14550000Y-31000000D02*
X14550000Y-30000000D01*
X26550000Y-32000000D02*
X27050000Y-32000000D01*
X27050000Y-32000000D02*
X27550000Y-32000000D01*
X27550000Y-32000000D02*
X28550000Y-31000000D01*
X28550000Y-31000000D02*
X28550000Y-30000000D01*
X16550000Y-32000000D02*
X26550000Y-32000000D01*
X14650000Y-41100000D02*
X14650000Y-44000000D01*
X14650000Y-37300000D02*
X14650000Y-38700000D01*
X28550000Y-38750000D02*
X28550000Y-37250000D01*
D12*
X28550000Y-39000000D02*
X28550000Y-38500000D01*
D13*
X28550000Y-41000000D02*
X28550000Y-44000000D01*
D11*
X20637500Y22000000D02*
X20637500Y21200000D01*
X20637500Y21200000D02*
X20332500Y20540000D01*
X18097500Y22000000D02*
X18097500Y21200000D01*
X18097500Y21200000D02*
X18432500Y20540000D01*
X12060000Y39725000D02*
X10550000Y39000000D01*
X9560000Y39000000D02*
X10560000Y39000000D01*
X25960000Y39725000D02*
X24460000Y39000000D01*
X23460000Y39000000D02*
X24460000Y39000000D01*
D12*
X13960000Y40660000D02*
X13960000Y40177400D01*
X27860000Y40177400D02*
X27860000Y40660000D01*
X27160000Y36602600D02*
X27160000Y36120000D01*
X27160000Y29302600D02*
X27160000Y28788400D01*
D11*
X20687400Y27532500D02*
X21170000Y27532500D01*
D12*
X13260000Y36602600D02*
X13260000Y36120000D01*
X13260000Y29302600D02*
X13260000Y28820000D01*
D11*
X15232500Y29497400D02*
X15232500Y29980000D01*
X20332500Y20092600D02*
X20332500Y19610000D01*
D12*
X6307500Y25635800D02*
X6307500Y26118400D01*
D11*
X16150000Y20500000D02*
X16150000Y21300000D01*
X16150000Y21300000D02*
X16750000Y22000000D01*
D12*
X16150000Y17500000D02*
X16150000Y18400000D01*
D13*
X10650000Y23550000D02*
X14550000Y23550000D01*
X14550000Y23550000D02*
X15000000Y24000000D01*
D11*
X15000000Y24000000D02*
X15000000Y24300000D01*
X15050000Y26200000D02*
X15050000Y26950000D01*
X15050000Y26950000D02*
X15250000Y27400000D01*
X15200000Y27400000D02*
X16700000Y27400000D01*
D13*
X10600000Y23550000D02*
X7200000Y23550000D01*
D11*
X7200000Y23550000D02*
X6300000Y23550000D01*
X18097500Y27400000D02*
X18097500Y28400000D01*
X19732500Y28900400D02*
X19367500Y28400400D01*
X19367500Y27400000D02*
X19367500Y28400000D01*
X17750000Y28900000D02*
X18097500Y28400000D01*
D14*
G36*
X17800000Y30750000D02*
G01*
X19800000Y30750000D01*
X20300000Y32000000D01*
X16800000Y32000000D01*
X17800000Y30750000D01*
G37*
X17800000Y30750000D02*
X19800000Y30750000D01*
X20300000Y32000000D01*
X16800000Y32000000D01*
X17800000Y30750000D01*
D13*
X21550000Y32000000D02*
X22550000Y32000000D01*
X22550000Y32000000D02*
X23550000Y31000000D01*
X23550000Y31000000D02*
X23550000Y30000000D01*
X11550000Y32000000D02*
X11050000Y32000000D01*
X11050000Y32000000D02*
X10550000Y32000000D01*
X10550000Y32000000D02*
X9550000Y31000000D01*
X9550000Y31000000D02*
X9550000Y30000000D01*
X21550000Y32000000D02*
X11550000Y32000000D01*
X23450000Y41100000D02*
X23450000Y44000000D01*
X23450000Y37300000D02*
X23450000Y38700000D01*
X9550000Y38750000D02*
X9550000Y37250000D01*
D12*
X9550000Y39000000D02*
X9550000Y38500000D01*
D13*
X9550000Y41000000D02*
X9550000Y44000000D01*
D11*
X-22125000Y22000000D02*
X-22125000Y21200000D01*
X-22125000Y21200000D02*
X-21840000Y20540000D01*
X-19585000Y22000000D02*
X-19585000Y21200000D01*
X-19585000Y21200000D02*
X-19940000Y20540000D01*
D15*
X-29450000Y30100000D02*
X-32450000Y30100000D01*
D11*
X-32450000Y30100000D02*
X-33350000Y30100000D01*
D16*
X-14590000Y44000000D02*
X-14590000Y41170000D01*
D17*
X-28600000Y44050000D02*
X-28600000Y41150000D01*
D11*
X-14550000Y39000000D02*
X-13550000Y39000000D01*
X-13550000Y39000000D02*
X-12050000Y39750000D01*
X-14590000Y39000000D02*
X-14590000Y38500000D01*
X-27550000Y39000000D02*
X-26050000Y39750000D01*
X-28550000Y39000000D02*
X-27550000Y39000000D01*
D18*
X-23850000Y27100000D02*
X-23400000Y27400000D01*
D19*
X-24650000Y27100000D02*
X-23850000Y27100000D01*
D11*
X-24650000Y28100000D02*
X-24950000Y28600000D01*
X-24650000Y27000000D02*
X-24650000Y28100000D01*
X-25850000Y30300000D02*
X-24950000Y30300000D01*
D13*
X-28350000Y30300000D02*
X-25850000Y30300000D01*
X-29450000Y30100000D02*
X-28350000Y30300000D01*
D18*
X-20855000Y28125000D02*
X-20474000Y28760000D01*
X-20855000Y27490000D02*
X-20855000Y28125000D01*
X-22125000Y28125000D02*
X-22506000Y28760000D01*
X-22125000Y27490000D02*
X-22125000Y28125000D01*
D14*
G36*
X-21490000Y32525000D02*
G01*
X-22490000Y30525000D01*
X-20490000Y30525000D01*
X-21490000Y32525000D01*
G37*
X-21490000Y32525000D02*
X-22490000Y30525000D01*
X-20490000Y30525000D01*
X-21490000Y32525000D01*
G36*
X-21490000Y39500000D02*
G01*
X-22490000Y37500000D01*
X-20490000Y37500000D01*
X-21490000Y40000000D01*
X-22490000Y37500000D01*
X-21490000Y39500000D01*
G37*
X-21490000Y39500000D02*
X-22490000Y37500000D01*
X-20490000Y37500000D01*
X-21490000Y40000000D01*
X-22490000Y37500000D01*
X-21490000Y39500000D01*
D11*
X-14590000Y39000000D02*
X-14590000Y38500000D01*
X-15590000Y37500000D02*
X-14590000Y38500000D01*
X-27590000Y37500000D02*
X-15590000Y37500000D01*
X-28590000Y38500000D02*
X-27590000Y37500000D01*
X-28590000Y39000000D02*
X-28590000Y38500000D01*
D20*
X-24090000Y20490000D02*
X-24090000Y20990000D01*
X-24090000Y20990000D02*
X-23390000Y21390000D01*
X-23390000Y21390000D02*
X-23390000Y21990000D01*
D18*
X-24090000Y17490000D02*
X-24090000Y18590000D01*
D11*
X-15975000Y-22000000D02*
X-15975000Y-21200000D01*
X-15975000Y-21200000D02*
X-16260000Y-20540000D01*
X-18515000Y-22000000D02*
X-18515000Y-21200000D01*
X-18515000Y-21200000D02*
X-18160000Y-20540000D01*
D15*
X-8650000Y-30100000D02*
X-5650000Y-30100000D01*
D11*
X-5650000Y-30100000D02*
X-4750000Y-30100000D01*
D16*
X-23510000Y-44000000D02*
X-23510000Y-41170000D01*
D17*
X-9500000Y-44050000D02*
X-9500000Y-41150000D01*
D11*
X-23550000Y-39000000D02*
X-24550000Y-39000000D01*
X-24550000Y-39000000D02*
X-26050000Y-39750000D01*
X-23510000Y-39000000D02*
X-23510000Y-38500000D01*
X-10550000Y-39000000D02*
X-12050000Y-39750000D01*
X-9550000Y-39000000D02*
X-10550000Y-39000000D01*
D18*
X-14250000Y-27100000D02*
X-14700000Y-27400000D01*
D19*
X-13450000Y-27100000D02*
X-14250000Y-27100000D01*
D11*
X-13450000Y-28100000D02*
X-13150000Y-28600000D01*
X-13450000Y-27000000D02*
X-13450000Y-28100000D01*
X-12250000Y-30300000D02*
X-13150000Y-30300000D01*
D13*
X-9750000Y-30300000D02*
X-12250000Y-30300000D01*
X-8650000Y-30100000D02*
X-9750000Y-30300000D01*
D18*
X-17245000Y-28125000D02*
X-17626000Y-28760000D01*
X-17245000Y-27490000D02*
X-17245000Y-28125000D01*
X-15975000Y-28125000D02*
X-15594000Y-28760000D01*
X-15975000Y-27490000D02*
X-15975000Y-28125000D01*
D14*
G36*
X-16610000Y-32525000D02*
G01*
X-15610000Y-30525000D01*
X-17610000Y-30525000D01*
X-16610000Y-32525000D01*
G37*
X-16610000Y-32525000D02*
X-15610000Y-30525000D01*
X-17610000Y-30525000D01*
X-16610000Y-32525000D01*
G36*
X-16610000Y-39500000D02*
G01*
X-15610000Y-37500000D01*
X-17610000Y-37500000D01*
X-16610000Y-40000000D01*
X-15610000Y-37500000D01*
X-16610000Y-39500000D01*
G37*
X-16610000Y-39500000D02*
X-15610000Y-37500000D01*
X-17610000Y-37500000D01*
X-16610000Y-40000000D01*
X-15610000Y-37500000D01*
X-16610000Y-39500000D01*
D11*
X-23510000Y-39000000D02*
X-23510000Y-38500000D01*
X-22510000Y-37500000D02*
X-23510000Y-38500000D01*
X-10510000Y-37500000D02*
X-22510000Y-37500000D01*
X-9510000Y-38500000D02*
X-10510000Y-37500000D01*
X-9510000Y-39000000D02*
X-9510000Y-38500000D01*
D20*
X-14010000Y-20490000D02*
X-14010000Y-20990000D01*
X-14010000Y-20990000D02*
X-14710000Y-21390000D01*
X-14710000Y-21390000D02*
X-14710000Y-21990000D01*
D18*
X-14010000Y-17490000D02*
X-14010000Y-18590000D01*
D21*
X24140000Y-40691600D03*
X10240000Y-40691600D03*
X10940000Y-36088400D03*
X10940000Y-28788400D03*
X16898400Y-27532500D03*
X24840000Y-36088400D03*
X24840000Y-28788400D03*
X22867500Y-30011600D03*
X17767500Y-19578400D03*
D22*
X9560000Y-44000000D03*
D23*
X14640000Y-44000000D03*
D22*
X12100000Y-44000000D03*
D24*
X14640000Y-29850000D03*
X12790000Y-37150000D03*
X12790000Y-29850000D03*
X10940000Y-29850000D03*
X10940000Y-37150000D03*
X14640000Y-37150000D03*
D25*
X14640000Y-40900000D03*
X14640000Y-39000000D03*
D26*
X12140000Y-39725000D03*
X10240000Y-39725000D03*
X24140000Y-39725000D03*
X26040000Y-39725000D03*
D25*
X28540000Y-39000000D03*
X28540000Y-40900000D03*
D24*
X28540000Y-37150000D03*
X24840000Y-37150000D03*
X24840000Y-29850000D03*
X26690000Y-29850000D03*
X26690000Y-37150000D03*
X28540000Y-29850000D03*
D22*
X26000000Y-44000000D03*
D23*
X28540000Y-44000000D03*
D22*
X23460000Y-44000000D03*
D25*
X31792500Y-25435000D03*
X31792500Y-23535000D03*
X22877500Y-27400000D03*
X22867500Y-29340000D03*
X21942500Y-18615000D03*
X21942500Y-20515000D03*
D26*
X17767500Y-20540000D03*
X19667500Y-20540000D03*
D25*
X23067500Y-26200000D03*
X23117500Y-24460000D03*
X18367500Y-30790000D03*
X20367500Y-30790000D03*
D27*
X21272500Y-27365000D03*
X20002500Y-27365000D03*
X18732500Y-27365000D03*
X17462500Y-27365000D03*
X17462500Y-22015000D03*
X18732500Y-22015000D03*
X20002500Y-22015000D03*
X21272500Y-22015000D03*
D25*
X20367500Y-28890000D03*
X18367500Y-28890000D03*
D28*
X21917500Y-17500000D03*
D29*
X27467500Y-26060000D03*
D30*
X27467500Y-23560000D03*
D21*
X31792500Y-26150000D03*
X13960000Y40691600D03*
X27860000Y40691600D03*
X27160000Y36088400D03*
X27160000Y28788400D03*
X21201600Y27532500D03*
X13260000Y36088400D03*
X13260000Y28788400D03*
X15232500Y30011600D03*
X20332500Y19578400D03*
D22*
X28540000Y44000000D03*
D23*
X23460000Y44000000D03*
D22*
X26000000Y44000000D03*
D24*
X23460000Y29850000D03*
X25310000Y37150000D03*
X25310000Y29850000D03*
X27160000Y29850000D03*
X27160000Y37150000D03*
X23460000Y37150000D03*
D25*
X23460000Y40900000D03*
X23460000Y39000000D03*
D26*
X25960000Y39725000D03*
X27860000Y39725000D03*
X13960000Y39725000D03*
X12060000Y39725000D03*
D25*
X9560000Y39000000D03*
X9560000Y40900000D03*
D24*
X9560000Y37150000D03*
X13260000Y37150000D03*
X13260000Y29850000D03*
X11410000Y29850000D03*
X11410000Y37150000D03*
X9560000Y29850000D03*
D22*
X12100000Y44000000D03*
D23*
X9560000Y44000000D03*
D22*
X14640000Y44000000D03*
D25*
X6307500Y25435000D03*
X6307500Y23535000D03*
X15222500Y27400000D03*
X15232500Y29340000D03*
X16157500Y18615000D03*
X16157500Y20515000D03*
D26*
X20332500Y20540000D03*
X18432500Y20540000D03*
D25*
X15032500Y26200000D03*
X14982500Y24460000D03*
X19732500Y30790000D03*
X17732500Y30790000D03*
D27*
X16827500Y27365000D03*
X18097500Y27365000D03*
X19367500Y27365000D03*
X20637500Y27365000D03*
X20637500Y22015000D03*
X19367500Y22015000D03*
X18097500Y22015000D03*
X16827500Y22015000D03*
D25*
X17732500Y28890000D03*
X19732500Y28890000D03*
D28*
X16182500Y17500000D03*
D29*
X10632500Y26060000D03*
D30*
X10632500Y23560000D03*
D21*
X6307500Y26150000D03*
D31*
X-17810000Y40615000D03*
D21*
X-17810000Y40725000D03*
X-10185000Y40700000D03*
D31*
X-10185000Y40590000D03*
X-24185000Y40540000D03*
D21*
X-24185000Y40700000D03*
X-17765000Y31235000D03*
D31*
X-17765000Y31385000D03*
D32*
X-19135000Y27485000D03*
D21*
X-19940000Y19550000D03*
X-18985000Y27485000D03*
D31*
X-19940000Y19700000D03*
D32*
X-27150000Y27025000D03*
D26*
X-12090000Y39725000D03*
D25*
X-14590000Y39000000D03*
D30*
X-29490000Y30100000D03*
D29*
X-29490000Y32640000D03*
D22*
X-9510000Y44000000D03*
D23*
X-14590000Y44000000D03*
D22*
X-12050000Y44000000D03*
D28*
X-24090000Y17500000D03*
D25*
X-20490000Y28890000D03*
X-22490000Y28890000D03*
D27*
X-23395000Y22015000D03*
X-22125000Y22015000D03*
X-20855000Y22015000D03*
X-19585000Y22015000D03*
X-19585000Y27365000D03*
X-20855000Y27365000D03*
X-22125000Y27365000D03*
X-23395000Y27365000D03*
D25*
X-22490000Y30790000D03*
X-20490000Y30790000D03*
X-24950000Y28560000D03*
X-24950000Y30300000D03*
D26*
X-21840000Y20540000D03*
X-19940000Y20540000D03*
D25*
X-24065000Y20515000D03*
X-24065000Y18615000D03*
D26*
X-26575000Y27025000D03*
X-24675000Y27025000D03*
D25*
X-33375000Y30100000D03*
X-33375000Y32000000D03*
X-14590000Y40900000D03*
D26*
X-10190000Y39725000D03*
X-24190000Y39725000D03*
X-26090000Y39725000D03*
D25*
X-28590000Y39000000D03*
X-28590000Y40900000D03*
D24*
X-21490000Y39600000D03*
X-17790000Y39650000D03*
X-17790000Y32350000D03*
X-19640000Y32350000D03*
X-19640000Y39650000D03*
X-21490000Y32350000D03*
D22*
X-26050000Y44000000D03*
D23*
X-28590000Y44000000D03*
D22*
X-23510000Y44000000D03*
D21*
X-33375000Y32725000D03*
X-27300000Y27025000D03*
D31*
X-33375000Y32575000D03*
X-20290000Y-40615000D03*
D21*
X-20290000Y-40725000D03*
X-27915000Y-40700000D03*
D31*
X-27915000Y-40590000D03*
X-13915000Y-40540000D03*
D21*
X-13915000Y-40700000D03*
X-20335000Y-31235000D03*
D31*
X-20335000Y-31385000D03*
D32*
X-18965000Y-27485000D03*
D21*
X-18160000Y-19550000D03*
X-19115000Y-27485000D03*
D31*
X-18160000Y-19700000D03*
D32*
X-10950000Y-27025000D03*
D26*
X-26010000Y-39725000D03*
D25*
X-23510000Y-39000000D03*
D30*
X-8610000Y-30100000D03*
D29*
X-8610000Y-32640000D03*
D22*
X-28590000Y-44000000D03*
D23*
X-23510000Y-44000000D03*
D22*
X-26050000Y-44000000D03*
D28*
X-14010000Y-17500000D03*
D25*
X-17610000Y-28890000D03*
X-15610000Y-28890000D03*
D27*
X-14705000Y-22015000D03*
X-15975000Y-22015000D03*
X-17245000Y-22015000D03*
X-18515000Y-22015000D03*
X-18515000Y-27365000D03*
X-17245000Y-27365000D03*
X-15975000Y-27365000D03*
X-14705000Y-27365000D03*
D25*
X-15610000Y-30790000D03*
X-17610000Y-30790000D03*
X-13150000Y-28560000D03*
X-13150000Y-30300000D03*
D26*
X-16260000Y-20540000D03*
X-18160000Y-20540000D03*
D25*
X-14035000Y-20515000D03*
X-14035000Y-18615000D03*
D26*
X-11525000Y-27025000D03*
X-13425000Y-27025000D03*
D25*
X-4725000Y-30100000D03*
X-4725000Y-32000000D03*
X-23510000Y-40900000D03*
D26*
X-27910000Y-39725000D03*
X-13910000Y-39725000D03*
X-12010000Y-39725000D03*
D25*
X-9510000Y-39000000D03*
X-9510000Y-40900000D03*
D24*
X-16610000Y-39600000D03*
X-20310000Y-39650000D03*
X-20310000Y-32350000D03*
X-18460000Y-32350000D03*
X-18460000Y-39650000D03*
X-16610000Y-32350000D03*
D22*
X-12050000Y-44000000D03*
D23*
X-9510000Y-44000000D03*
D22*
X-14590000Y-44000000D03*
D21*
X-4725000Y-32725000D03*
X-10800000Y-27025000D03*
D31*
X-4725000Y-32575000D03*
D33*
X22250000Y500000D03*
X20250000Y500000D03*
D34*
X19700000Y8000000D03*
X19700000Y6000000D03*
D35*
X26000000Y-4000000D03*
X26000000Y-8000000D03*
D34*
X-2250000Y-2650000D03*
X-2250000Y-4650000D03*
X-40600000Y-2200000D03*
X-40600000Y-200000D03*
D33*
X-25100000Y-5700000D03*
X-27100000Y-5700000D03*
D35*
X-30000000Y-2540000D03*
X-24920000Y-2540000D03*
X-35080000Y-2540000D03*
X-37620000Y-2540000D03*
D26*
X-16650000Y-3000000D03*
X-18550000Y-3000000D03*
D34*
X22500000Y-6000000D03*
X22500000Y-8000000D03*
D25*
X18250000Y3450000D03*
X18250000Y1550000D03*
X14275000Y3425000D03*
X14275000Y5325000D03*
X18250000Y-2450000D03*
X18250000Y-550000D03*
X14250000Y-550000D03*
X14250000Y-2450000D03*
D33*
X11000000Y5550000D03*
X9000000Y5550000D03*
D34*
X-2200000Y4250000D03*
X-2200000Y2250000D03*
D36*
X7100000Y-2269200D03*
X7100000Y-1619200D03*
X7100000Y-969200D03*
X7100000Y-319200D03*
X7100000Y330800D03*
X7100000Y980800D03*
X7100000Y1630800D03*
X7100000Y2280800D03*
X7100000Y2930800D03*
X7100000Y3580800D03*
X7100000Y4230800D03*
X7100000Y4880800D03*
X7100000Y5530800D03*
X7100000Y6180800D03*
X-100000Y6180800D03*
X-100000Y5530800D03*
X-100000Y4880800D03*
X-100000Y4230800D03*
X-100000Y3580800D03*
X-100000Y2930800D03*
X-100000Y2280800D03*
X-100000Y1630800D03*
X-100000Y980800D03*
X-100000Y330800D03*
X-100000Y-319200D03*
X-100000Y-969200D03*
X-100000Y-1619200D03*
X-100000Y-2269200D03*
D35*
X45906000Y14540000D03*
X45906000Y19620000D03*
X45906000Y9460000D03*
X45906000Y4380000D03*
X26094000Y19620000D03*
X26094000Y14540000D03*
X26094000Y9460000D03*
X26094000Y4380000D03*
D37*
X-47000000Y-3000000D03*
X-53000000Y-3000000D03*
X52500000Y6100000D03*
X52500000Y18000000D03*
D29*
X-20000000Y-9500000D03*
D30*
X-20000000Y-7000000D03*
D38*
X-10250000Y8200000D03*
X-12300000Y6175000D03*
X-6650000Y-13600000D03*
X-8550000Y-11700000D03*
X16400000Y-6600000D03*
X17600000Y-5400000D03*
X19100000Y-3900000D03*
X20250000Y-2750000D03*
X8500000Y12000000D03*
X5500000Y12000000D03*
X5500000Y9000000D03*
X2500000Y9000000D03*
X-40600000Y850000D03*
X-28100000Y-5700000D03*
X-1500000Y-1619200D03*
X-2250000Y-5750000D03*
X-3300000Y4250000D03*
X5600000Y2250000D03*
X12000000Y5550000D03*
X14275000Y6225000D03*
X13050000Y-2450000D03*
X23250000Y500000D03*
D39*
X27860000Y39725000D02*
X27860000Y40691600D01*
X27160000Y36088400D02*
X27160000Y37150000D01*
X24140000Y-39725000D02*
X24140000Y-40691600D01*
D18*
X27160000Y36088400D02*
X27160000Y37360000D01*
X27271600Y36200000D02*
X27160000Y36088400D01*
X24840000Y-36088400D02*
X24840000Y-37150000D01*
D40*
X-8550000Y-11700000D02*
X-14000000Y-4650000D01*
D13*
X-14000000Y-2000000D02*
X-14000000Y-4650000D01*
D18*
X-2250000Y-2600000D02*
X-3383000Y-2600000D01*
X-3383000Y-2600000D02*
X-4400000Y-2600000D01*
D41*
X-430800Y-2600000D02*
X-2250000Y-2600000D01*
X-100000Y-2269200D02*
X-430800Y-2600000D01*
X8980800Y5530800D02*
X9000000Y5550000D01*
X7100000Y5530800D02*
X8980800Y5530800D01*
X18250000Y1550000D02*
X18250000Y793600D01*
X18543600Y500000D02*
X20250000Y500000D01*
X18250000Y793600D02*
X18543600Y500000D01*
X18250000Y206400D02*
X18543600Y500000D01*
X18250000Y-550000D02*
X18250000Y206400D01*
D11*
X20250000Y500000D02*
X20250000Y-2750000D01*
X16400000Y-6600000D02*
X13000000Y-10000000D01*
X13000000Y-10000000D02*
X-3050000Y-10000000D01*
X-3050000Y-10000000D02*
X-6650000Y-13600000D01*
X19100000Y-3900000D02*
X17600000Y-5400000D01*
D15*
X-2250000Y-2650000D02*
X-4850000Y-2650000D01*
X-4850000Y-2650000D02*
X-5000000Y-2500000D01*
D19*
X13503900Y-13600000D02*
X13400000Y-13600000D01*
D13*
X13400000Y-13600000D02*
X10850000Y-13600000D01*
X10850000Y-13600000D02*
X-6650000Y-13600000D01*
D42*
X-22125000Y22015000D02*
X-22125000Y20975000D01*
D39*
X-15975000Y-22015000D02*
X-15975000Y-20925000D01*
D13*
X13400000Y-13600000D02*
X13900000Y-13600000D01*
X17732500Y14332500D02*
X15400000Y12000000D01*
X15400000Y12000000D02*
X10150000Y12000000D01*
X8500000Y12000000D02*
X10150000Y12000000D01*
X5500000Y12000000D02*
X-6450000Y12000000D01*
X17750000Y14350000D02*
X17732500Y14332500D01*
X-10250000Y8200000D02*
X-6450000Y12000000D01*
D18*
X-6800000Y8200000D02*
X-10250000Y8200000D01*
X-6000000Y9000000D02*
X-6800000Y8200000D01*
X2500000Y9000000D02*
X-6000000Y9000000D01*
X9000000Y8000000D02*
X9000000Y5550000D01*
X8000000Y9000000D02*
X9000000Y8000000D01*
X5500000Y9000000D02*
X8000000Y9000000D01*
D39*
X-22125000Y22015000D02*
X-22125000Y20825000D01*
X-22125000Y20825000D02*
X-21840000Y20540000D01*
X-15975000Y-22015000D02*
X-15975000Y-20825000D01*
X-15975000Y-20825000D02*
X-16260000Y-20540000D01*
D11*
X-16260000Y-20540000D02*
X-16260000Y-19800000D01*
D13*
X-16260000Y-19800000D02*
X-16260000Y-4540000D01*
X-16260000Y-4540000D02*
X-16300000Y-4500000D01*
X-10250000Y8200000D02*
X-21840000Y19790000D01*
D11*
X-21840000Y19790000D02*
X-21840000Y20540000D01*
D39*
X-14705000Y-22015000D02*
X-14705000Y-21505000D01*
X-14035000Y-20935000D02*
X-14035000Y-20515000D01*
X-14200000Y-21100000D02*
X-14035000Y-20935000D01*
X-14300000Y-21100000D02*
X-14200000Y-21100000D01*
X-14705000Y-21505000D02*
X-14300000Y-21100000D01*
X-15975000Y-27365000D02*
X-16000000Y-27390000D01*
X-16000000Y-27390000D02*
X-16000000Y-28250000D01*
X-16000000Y-28250000D02*
X-16000000Y-28500000D01*
X-16000000Y-28500000D02*
X-16000000Y-28000000D01*
X-16000000Y-28000000D02*
X-16000000Y-28250000D01*
X-16000000Y-28250000D02*
X-15750000Y-28500000D01*
X-15750000Y-28500000D02*
X-15750000Y-28750000D01*
X-15750000Y-28750000D02*
X-15610000Y-28890000D01*
X-17610000Y-28890000D02*
X-17500000Y-28780000D01*
X-17250000Y-27370000D02*
X-17245000Y-27365000D01*
X-17250000Y-28250000D02*
X-17250000Y-27370000D01*
X-17500000Y-28500000D02*
X-17250000Y-28250000D01*
X-17500000Y-28780000D02*
X-17500000Y-28500000D01*
D42*
X-23395000Y22015000D02*
X-23395000Y21405000D01*
X-24065000Y20935000D02*
X-24065000Y20515000D01*
X-23800000Y21200000D02*
X-24065000Y20935000D01*
X-23600000Y21200000D02*
X-23800000Y21200000D01*
X-23395000Y21405000D02*
X-23600000Y21200000D01*
X-22125000Y27365000D02*
X-22125000Y28225000D01*
X-22490000Y28590000D02*
X-22490000Y28890000D01*
X-22125000Y28225000D02*
X-22490000Y28590000D01*
X-20490000Y28890000D02*
X-20490000Y28610000D01*
X-20855000Y28245000D02*
X-20855000Y27365000D01*
X-20490000Y28610000D02*
X-20855000Y28245000D01*
D39*
X10240000Y-40691600D02*
X10240000Y-39725000D01*
X10940000Y-37150000D02*
X10940000Y-36088400D01*
X13960000Y40691600D02*
X13960000Y39725000D01*
X13260000Y37150000D02*
X13260000Y36088400D01*
D18*
X-40600000Y-2200000D02*
X-40260000Y-2540000D01*
X-40260000Y-2540000D02*
X-37620000Y-2540000D01*
D40*
X-47000000Y-3000000D02*
X-47000000Y-9000000D01*
D15*
X-37620000Y-2540000D02*
X-46540000Y-2540000D01*
X-46540000Y-2540000D02*
X-47000000Y-3000000D01*
D40*
X-39900000Y35100000D02*
X-45400000Y29600000D01*
X-26100000Y35100000D02*
X-37100000Y35100000D01*
X-26100000Y35100000D02*
X-16100000Y35100000D01*
X-16100000Y35100000D02*
X-15375000Y34375000D01*
X-37400000Y35100000D02*
X-39900000Y35100000D01*
X-37100000Y35100000D02*
X-37400000Y35100000D01*
X-45400000Y29600000D02*
X-47000000Y28000000D01*
X-47000000Y3000000D02*
X-47000000Y-9000000D01*
D19*
X-47000000Y-3000000D02*
X-47000000Y3000000D01*
D40*
X-47000000Y28000000D02*
X-47000000Y27000000D01*
X-47000000Y27000000D02*
X-47000000Y3000000D01*
X-47000000Y28000000D02*
X-47000000Y27000000D01*
X-15375000Y34375000D02*
X-15775000Y34775000D01*
X-10000000Y-35250000D02*
X-8125000Y-35250000D01*
X-42750000Y-35250000D02*
X-10000000Y-35250000D01*
X-2750000Y-35250000D02*
X-8125000Y-35250000D01*
X-47000000Y-31000000D02*
X-47000000Y-9000000D01*
X-47000000Y-31000000D02*
X-42750000Y-35250000D01*
D42*
X-33375000Y30100000D02*
X-29490000Y30100000D01*
X-29490000Y30100000D02*
X-28700000Y30100000D01*
X-28500000Y30300000D02*
X-24950000Y30300000D01*
X-28700000Y30100000D02*
X-28500000Y30300000D01*
D39*
X-13150000Y-30300000D02*
X-8810000Y-30300000D01*
X-8810000Y-30300000D02*
X-8610000Y-30100000D01*
D13*
X-2750000Y-35250000D02*
X-2750000Y-30750000D01*
D41*
X-2750000Y-30750000D02*
X-3400000Y-30100000D01*
D40*
X-3400000Y-30100000D02*
X-2750000Y-30750000D01*
X-2750000Y-30750000D02*
X-2750000Y-35250000D01*
X-2750000Y-35250000D02*
X-8125000Y-35250000D01*
X-5750000Y24750000D02*
X-7125000Y26125000D01*
D11*
X6307500Y23535000D02*
X6272500Y23500000D01*
X5100000Y23500000D02*
X6272500Y23500000D01*
D40*
X-4500000Y23500000D02*
X5100000Y23500000D01*
X-5435000Y24435000D02*
X-4500000Y23500000D01*
X-7125000Y26125000D02*
X-15375000Y34375000D01*
X-5435000Y24435000D02*
X-5750000Y24750000D01*
D39*
X23117500Y-24460000D02*
X23117500Y-24082500D01*
X23640000Y-23560000D02*
X27467500Y-23560000D01*
X23117500Y-24082500D02*
X23640000Y-23560000D01*
X27467500Y-23560000D02*
X31767500Y-23560000D01*
D11*
X31767500Y-23560000D02*
X31792500Y-23535000D01*
D39*
X14982500Y24460000D02*
X14982500Y23982500D01*
X6332500Y23560000D02*
X6307500Y23535000D01*
X14560000Y23560000D02*
X6332500Y23560000D01*
X14982500Y23982500D02*
X14560000Y23560000D01*
D40*
X34750000Y-25150000D02*
X33200000Y-23600000D01*
D11*
X31792500Y-23535000D02*
X32500000Y-23535000D01*
D40*
X32450000Y-34000000D02*
X600000Y-34000000D01*
X34750000Y-25150000D02*
X34750000Y-31700000D01*
X32450000Y-34000000D02*
X34750000Y-31700000D01*
X-250000Y-35250000D02*
X-2750000Y-35250000D01*
X600000Y-34000000D02*
X-250000Y-35250000D01*
D13*
X34750000Y-25750000D02*
X34750000Y-25150000D01*
D11*
X-33375000Y30100000D02*
X-34600000Y30100000D01*
D40*
X-44900000Y30100000D02*
X-45400000Y29600000D01*
X-34600000Y30100000D02*
X-44900000Y30100000D01*
X32500000Y-23535000D02*
X33135000Y-23535000D01*
D11*
X33135000Y-23535000D02*
X33200000Y-23600000D01*
D41*
X-4725000Y-30100000D02*
X-4100000Y-30100000D01*
D40*
X-4100000Y-30100000D02*
X-3400000Y-30100000D01*
D39*
X-4725000Y-30100000D02*
X-8610000Y-30100000D01*
D15*
X-40600000Y-200000D02*
X-40600000Y850000D01*
D42*
X-24190000Y39725000D02*
X-24190000Y40535000D01*
X-24190000Y40535000D02*
X-24185000Y40540000D01*
X-17790000Y39650000D02*
X-17790000Y40595000D01*
X-17790000Y40595000D02*
X-17810000Y40615000D01*
X-10185000Y40700000D02*
X-10185000Y39730000D01*
X-10185000Y39730000D02*
X-10190000Y39725000D01*
X-26575000Y27025000D02*
X-27150000Y27025000D01*
X-19135000Y27485000D02*
X-19465000Y27485000D01*
X-17790000Y32350000D02*
X-17790000Y31260000D01*
X-17790000Y31260000D02*
X-17765000Y31235000D01*
X-19135000Y27485000D02*
X-19465000Y27485000D01*
X-19465000Y27485000D02*
X-19585000Y27365000D01*
D39*
X-27910000Y-40585000D02*
X-27915000Y-40590000D01*
X-27910000Y-39725000D02*
X-27910000Y-40585000D01*
X-20290000Y-39670000D02*
X-20310000Y-39650000D01*
X-20290000Y-40725000D02*
X-20290000Y-39670000D01*
X-13915000Y-39730000D02*
X-13910000Y-39725000D01*
X-13915000Y-40540000D02*
X-13915000Y-39730000D01*
X-20310000Y-32350000D02*
X-20335000Y-32325000D01*
X-20335000Y-32325000D02*
X-20335000Y-31235000D01*
X27160000Y28788400D02*
X27160000Y29850000D01*
X24840000Y-29850000D02*
X24840000Y-28788400D01*
X22867500Y-30011600D02*
X22867500Y-29340000D01*
X10940000Y-28788400D02*
X10940000Y-29850000D01*
X17295000Y-27532500D02*
X17462500Y-27365000D01*
X31792500Y-26150000D02*
X31792500Y-25435000D01*
X16898400Y-27532500D02*
X17295000Y-27532500D01*
X17295000Y-27532500D02*
X17462500Y-27365000D01*
X15232500Y30011600D02*
X15232500Y29340000D01*
X13260000Y29850000D02*
X13260000Y28788400D01*
X21201600Y27532500D02*
X20805000Y27532500D01*
X20805000Y27532500D02*
X20637500Y27365000D01*
X6307500Y26150000D02*
X6307500Y25435000D01*
D11*
X18432500Y20540000D02*
X18432500Y19832500D01*
D13*
X18432500Y15032500D02*
X17732500Y14332500D01*
X18432500Y19832500D02*
X18432500Y15032500D01*
D39*
X18097500Y22015000D02*
X18097500Y20875000D01*
X18097500Y20875000D02*
X18432500Y20540000D01*
X20002500Y-22015000D02*
X20002500Y-20875000D01*
X20002500Y-20875000D02*
X19667500Y-20540000D01*
D11*
X19667500Y-20540000D02*
X19667500Y-19867500D01*
D13*
X19667500Y-19367500D02*
X13900000Y-13600000D01*
X19667500Y-19867500D02*
X19667500Y-19367500D01*
D11*
X-33375000Y32725000D02*
X-33375000Y32000000D01*
D41*
X-18965000Y-27485000D02*
X-18635000Y-27485000D01*
X-18635000Y-27485000D02*
X-18515000Y-27365000D01*
X-18515000Y-27365000D02*
X-18845000Y-27365000D01*
X-18845000Y-27365000D02*
X-18965000Y-27485000D01*
D15*
X-27100000Y-5700000D02*
X-28100000Y-5700000D01*
D42*
X-100000Y-1619200D02*
X-1500000Y-1619200D01*
D18*
X-2250000Y-4650000D02*
X-2250000Y-5500000D01*
X-2250000Y-5500000D02*
X-2250000Y-5750000D01*
D41*
X-2000000Y4250000D02*
X-3031400Y4250000D01*
X-3031400Y4250000D02*
X-3300000Y4250000D01*
X7100000Y2280800D02*
X5719200Y2280800D01*
X5719200Y2280800D02*
X5600000Y2161600D01*
X11000000Y5550000D02*
X12000000Y5550000D01*
D18*
X14275000Y5325000D02*
X14275000Y6225000D01*
X13050000Y-2450000D02*
X14250000Y-2450000D01*
D41*
X23250000Y500000D02*
X22250000Y500000D01*
X-100000Y3580800D02*
X-1530800Y3580800D01*
X-1530800Y3580800D02*
X-2200000Y4250000D01*
D39*
X-10950000Y-27025000D02*
X-11525000Y-27025000D01*
X-4725000Y-32000000D02*
X-4725000Y-32725000D01*
X-19585000Y22015000D02*
X-19585000Y20895000D01*
X-19585000Y20895000D02*
X-19940000Y20540000D01*
X-19940000Y19550000D02*
X-19940000Y20540000D01*
X-18515000Y-22015000D02*
X-18515000Y-20895000D01*
X-18515000Y-20895000D02*
X-18160000Y-20540000D01*
X-18160000Y-20540000D02*
X-18160000Y-19550000D01*
D18*
X-25200000Y-4100000D02*
X-25200000Y-2820000D01*
X-25200000Y-2820000D02*
X-24920000Y-2540000D01*
X-24920000Y-2540000D02*
X-24920000Y-1270000D01*
X-24920000Y-1270000D02*
X-24900000Y-1250000D01*
D39*
X-13150000Y-28560000D02*
X-13425000Y-28285000D01*
X-13425000Y-28285000D02*
X-13425000Y-27025000D01*
X-13425000Y-27025000D02*
X-14365000Y-27025000D01*
X-14365000Y-27025000D02*
X-14705000Y-27365000D01*
D42*
X-24950000Y28560000D02*
X-24675000Y28285000D01*
X-24675000Y28285000D02*
X-24675000Y27025000D01*
X-24675000Y27025000D02*
X-23735000Y27025000D01*
X-23735000Y27025000D02*
X-23395000Y27365000D01*
D41*
X-5000000Y-10000000D02*
X-11050000Y-16000000D01*
X-14010000Y-17500000D02*
X-12550000Y-17500000D01*
X-11050000Y-16000000D02*
X-12550000Y-17500000D01*
X1181400Y-969200D02*
X2000000Y-1787800D01*
X1181400Y-969200D02*
X-100000Y-969200D01*
X2000000Y-1787800D02*
X2000000Y-3000000D01*
X2000000Y-3000000D02*
X-5000000Y-10000000D01*
D39*
X-14035000Y-18615000D02*
X-14035000Y-17525000D01*
X-14035000Y-17525000D02*
X-14010000Y-17500000D01*
D41*
X-14000000Y10000000D02*
X-19000000Y10000000D01*
X-24090000Y15090000D02*
X-23840000Y14840000D01*
X-24090000Y17500000D02*
X-24090000Y15090000D01*
X-23500000Y14500000D02*
X-23840000Y14840000D01*
X-19000000Y10000000D02*
X-23500000Y14500000D01*
X-3680800Y-319200D02*
X-100000Y-319200D01*
X-3680800Y-319200D02*
X-14000000Y10000000D01*
D18*
X-24090000Y17500000D02*
X-24090000Y18590000D01*
X-24090000Y18590000D02*
X-24065000Y18615000D01*
D41*
X-100000Y330800D02*
X1669200Y330800D01*
X1669200Y330800D02*
X3000000Y-1000000D01*
X4000000Y-4000000D02*
X15000000Y-4000000D01*
X3000000Y-3000000D02*
X4000000Y-4000000D01*
X3000000Y-1000000D02*
X3000000Y-3000000D01*
X21917500Y-10917500D02*
X21375000Y-10375000D01*
X21917500Y-16500000D02*
X21917500Y-16100000D01*
X21917500Y-16100000D02*
X21917500Y-10917500D01*
X15000000Y-4000000D02*
X21375000Y-10375000D01*
D39*
X21942500Y-18615000D02*
X21942500Y-17525000D01*
X21942500Y-17525000D02*
X21917500Y-17500000D01*
D41*
X21917500Y-17500000D02*
X21917500Y-16217500D01*
X2000000Y1799400D02*
X2000000Y7000000D01*
X1181400Y980800D02*
X2000000Y1799400D01*
X-100000Y980800D02*
X1181400Y980800D01*
X2000000Y7000000D02*
X11000000Y16000000D01*
X11000000Y16000000D02*
X11050000Y16000000D01*
D39*
X16157500Y18615000D02*
X16157500Y17525000D01*
X16157500Y17525000D02*
X16182500Y17500000D01*
D41*
X11000000Y16000000D02*
X14682500Y16000000D01*
X14682500Y16000000D02*
X16182500Y17500000D01*
D39*
X26040000Y-39725000D02*
X26475000Y-39725000D01*
X27400000Y-39000000D02*
X28540000Y-39000000D01*
X27000000Y-39400000D02*
X27400000Y-39000000D01*
X26800000Y-39400000D02*
X27000000Y-39400000D01*
X26475000Y-39725000D02*
X26800000Y-39400000D01*
X28540000Y-39000000D02*
X28540000Y-37150000D01*
X28540000Y-40900000D02*
X28540000Y-44000000D01*
X23067500Y-26200000D02*
X23067500Y-27210000D01*
X23067500Y-27210000D02*
X22877500Y-27400000D01*
X21272500Y-27365000D02*
X22842500Y-27365000D01*
X22842500Y-27365000D02*
X22877500Y-27400000D01*
X21272500Y-22015000D02*
X21385000Y-22015000D01*
X21942500Y-21457500D02*
X21942500Y-20515000D01*
X21385000Y-22015000D02*
X21942500Y-21457500D01*
X20637500Y22015000D02*
X20637500Y20845000D01*
X20637500Y20845000D02*
X20332500Y20540000D01*
X20332500Y20540000D02*
X20332500Y19578400D01*
X17462500Y-22015000D02*
X17462500Y-20845000D01*
X17462500Y-20845000D02*
X17767500Y-20540000D01*
X17767500Y-20540000D02*
X17767500Y-19578400D01*
X20002500Y-27365000D02*
X20002500Y-28525000D01*
X20002500Y-28525000D02*
X20367500Y-28890000D01*
X18732500Y-27365000D02*
X18732500Y-28525000D01*
X18732500Y-28525000D02*
X18367500Y-28890000D01*
X9560000Y39000000D02*
X10750000Y39000000D01*
X11835000Y39500000D02*
X12060000Y39725000D01*
X11500000Y39500000D02*
X11835000Y39500000D01*
X11250000Y39250000D02*
X11500000Y39500000D01*
X11000000Y39250000D02*
X11250000Y39250000D01*
X10750000Y39000000D02*
X11000000Y39250000D01*
X9560000Y37150000D02*
X9560000Y39000000D01*
X9560000Y40900000D02*
X9560000Y44000000D01*
X15032500Y26200000D02*
X15032500Y27210000D01*
X15032500Y27210000D02*
X15222500Y27400000D01*
X15222500Y27400000D02*
X16792500Y27400000D01*
X16792500Y27400000D02*
X16827500Y27365000D01*
X16157500Y20515000D02*
X16157500Y21345000D01*
X16157500Y21345000D02*
X16827500Y22015000D01*
X17732500Y28890000D02*
X18097500Y28525000D01*
X18097500Y28525000D02*
X18097500Y27365000D01*
X19732500Y28890000D02*
X19367500Y28525000D01*
X19367500Y28525000D02*
X19367500Y27365000D01*
X-9510000Y-44000000D02*
X-9510000Y-40900000D01*
X-23510000Y-40900000D02*
X-23510000Y-44000000D01*
D42*
X-28590000Y44000000D02*
X-28590000Y40900000D01*
X-14590000Y40900000D02*
X-14590000Y44000000D01*
D39*
X14640000Y-29850000D02*
X14640000Y-31240000D01*
X28540000Y-31060000D02*
X28540000Y-29850000D01*
X27600000Y-32000000D02*
X28540000Y-31060000D01*
X15400000Y-32000000D02*
X19600000Y-32000000D01*
X19600000Y-32000000D02*
X27600000Y-32000000D01*
X14640000Y-31240000D02*
X15400000Y-32000000D01*
X18367500Y-30790000D02*
X18390000Y-30790000D01*
X18390000Y-30790000D02*
X19600000Y-32000000D01*
X20367500Y-30790000D02*
X20367500Y-31232500D01*
X20367500Y-31232500D02*
X19600000Y-32000000D01*
X23460000Y29850000D02*
X23460000Y31040000D01*
X9560000Y31060000D02*
X9560000Y29850000D01*
X10500000Y32000000D02*
X9560000Y31060000D01*
X22500000Y32000000D02*
X18750000Y32000000D01*
X18750000Y32000000D02*
X10500000Y32000000D01*
X23460000Y31040000D02*
X22500000Y32000000D01*
X17732500Y30790000D02*
X17732500Y30982500D01*
X17732500Y30982500D02*
X18750000Y32000000D01*
X19732500Y30790000D02*
X19732500Y31017500D01*
X19732500Y31017500D02*
X18750000Y32000000D01*
X-17610000Y-30790000D02*
X-17210000Y-30790000D01*
X-16610000Y-31390000D02*
X-16610000Y-32350000D01*
X-17210000Y-30790000D02*
X-16610000Y-31390000D01*
X-15610000Y-30790000D02*
X-16010000Y-30790000D01*
X-16010000Y-30790000D02*
X-16610000Y-31390000D01*
D42*
X-21490000Y32350000D02*
X-21490000Y31310000D01*
X-22010000Y30790000D02*
X-22490000Y30790000D01*
X-21490000Y31310000D02*
X-22010000Y30790000D01*
X-21490000Y32350000D02*
X-21490000Y31390000D01*
X-20890000Y30790000D02*
X-20490000Y30790000D01*
X-21490000Y31390000D02*
X-20890000Y30790000D01*
D39*
X-16610000Y-38890000D02*
X-16500000Y-38780000D01*
X-16610000Y-39600000D02*
X-16610000Y-38890000D01*
X-9510000Y-39000000D02*
X-9510000Y-38490000D01*
X-16610000Y-37860000D02*
X-16610000Y-39600000D01*
X-16250000Y-37500000D02*
X-16610000Y-37860000D01*
X-10500000Y-37500000D02*
X-16250000Y-37500000D01*
X-9510000Y-38490000D02*
X-10500000Y-37500000D01*
X-16610000Y-39600000D02*
X-16610000Y-38140000D01*
X-23510000Y-38510000D02*
X-23510000Y-39000000D01*
X-22500000Y-37500000D02*
X-23510000Y-38510000D01*
X-17250000Y-37500000D02*
X-22500000Y-37500000D01*
X-16610000Y-38140000D02*
X-17250000Y-37500000D01*
X-23510000Y-39000000D02*
X-24750000Y-39000000D01*
X-25785000Y-39500000D02*
X-26010000Y-39725000D01*
X-25250000Y-39500000D02*
X-25785000Y-39500000D01*
X-24750000Y-39000000D02*
X-25250000Y-39500000D01*
X-9510000Y-39000000D02*
X-10750000Y-39000000D01*
X-11785000Y-39500000D02*
X-12010000Y-39725000D01*
X-11250000Y-39500000D02*
X-11785000Y-39500000D01*
X-10750000Y-39000000D02*
X-11250000Y-39500000D01*
D42*
X-28590000Y39000000D02*
X-27500000Y39000000D01*
X-26415000Y39400000D02*
X-26090000Y39725000D01*
X-27000000Y39400000D02*
X-26415000Y39400000D01*
X-27400000Y39000000D02*
X-27000000Y39400000D01*
X-27500000Y39000000D02*
X-27400000Y39000000D01*
X-28590000Y39000000D02*
X-28590000Y38590000D01*
X-28590000Y38590000D02*
X-27500000Y37500000D01*
X-27500000Y37500000D02*
X-21800000Y37500000D01*
X-21800000Y37500000D02*
X-15600000Y37500000D01*
X-14590000Y38510000D02*
X-14590000Y39000000D01*
X-15600000Y37500000D02*
X-14590000Y38510000D01*
X-14590000Y39000000D02*
X-14490000Y39100000D01*
X-14490000Y39100000D02*
X-13100000Y39100000D01*
X-13100000Y39100000D02*
X-12700000Y39500000D01*
X-12700000Y39500000D02*
X-12315000Y39500000D01*
X-12315000Y39500000D02*
X-12090000Y39725000D01*
X-21490000Y39600000D02*
X-21490000Y38310000D01*
X-21490000Y38310000D02*
X-21500000Y38300000D01*
X-21490000Y39600000D02*
X-21490000Y37500000D01*
X-21490000Y37500000D02*
X-21800000Y37500000D01*
D41*
X14275000Y2668600D02*
X14275000Y3425000D01*
X13237200Y1630800D02*
X14275000Y2668600D01*
X7100000Y1630800D02*
X13237200Y1630800D01*
X19700000Y4700000D02*
X19700000Y6000000D01*
X18425000Y3425000D02*
X19700000Y4700000D01*
X14275000Y3425000D02*
X18425000Y3425000D01*
X14250000Y206400D02*
X14250000Y-550000D01*
X13475600Y980800D02*
X14250000Y206400D01*
X7100000Y980800D02*
X13475600Y980800D01*
X15050000Y-550000D02*
X14250000Y-550000D01*
X18250000Y-2450000D02*
X16950000Y-2450000D01*
X16950000Y-2450000D02*
X15050000Y-550000D01*
D18*
X18825000Y-2450000D02*
X18250000Y-2450000D01*
X22375000Y-6000000D02*
X18825000Y-2450000D01*
X22500000Y-6000000D02*
X22375000Y-6000000D01*
D41*
X-100000Y2930800D02*
X-1519200Y2930800D01*
X-1519200Y2930800D02*
X-2200000Y2250000D01*
D40*
X25016370Y14540000D02*
X23000000Y12523630D01*
X26094000Y14540000D02*
X25016370Y14540000D01*
X25016370Y4380000D02*
X23000000Y6396370D01*
X26094000Y4380000D02*
X25016370Y4380000D01*
X23000000Y6396370D02*
X23000000Y9500000D01*
X23000000Y9500000D02*
X23000000Y12523630D01*
D19*
X20415909Y8590909D02*
X20409091Y8590909D01*
X21325000Y9500000D02*
X20415909Y8590909D01*
X23000000Y9500000D02*
X21325000Y9500000D01*
X19818182Y8000000D02*
X20409091Y8590909D01*
X19700000Y8000000D02*
X19818182Y8000000D01*
X26000000Y-8000000D02*
X22500000Y-8000000D01*
D39*
X23460000Y39000000D02*
X24500000Y39000000D01*
X25725000Y39725000D02*
X25960000Y39725000D01*
X25250000Y39250000D02*
X25725000Y39725000D01*
X24750000Y39250000D02*
X25250000Y39250000D01*
X24500000Y39000000D02*
X24750000Y39250000D01*
X23460000Y37150000D02*
X23460000Y39000000D01*
X23460000Y40900000D02*
X23460000Y44000000D01*
X14640000Y-39000000D02*
X13200000Y-39000000D01*
X12465000Y-39400000D02*
X12140000Y-39725000D01*
X12800000Y-39400000D02*
X12465000Y-39400000D01*
X13200000Y-39000000D02*
X12800000Y-39400000D01*
X14640000Y-37150000D02*
X14640000Y-39000000D01*
X14640000Y-40900000D02*
X14640000Y-44000000D01*
D43*
G36*
X-18327000Y-7373000D02*
G01*
X-25373000Y-7373000D01*
X-25373000Y-6198000D01*
X-24727000Y-6198000D01*
X-24727000Y-6795250D01*
X-24570250Y-6952000D01*
X-24467309Y-6940903D01*
X-24349702Y-6903181D01*
X-24241714Y-6843241D01*
X-24147494Y-6763385D01*
X-24070664Y-6666682D01*
X-24014177Y-6556849D01*
X-23980202Y-6438105D01*
X-23973000Y-6354750D01*
X-24127750Y-6200000D01*
X-21430034Y-6200000D01*
X-21427000Y-6270250D01*
X-21270250Y-6427000D01*
X-20573000Y-6427000D01*
X-20573000Y-5729750D01*
X-19427000Y-5729750D01*
X-19427000Y-6427000D01*
X-18729750Y-6427000D01*
X-18573000Y-6270250D01*
X-18569966Y-6200000D01*
X-18582072Y-6077086D01*
X-18617924Y-5958896D01*
X-18676146Y-5849972D01*
X-18754499Y-5754499D01*
X-18849972Y-5676146D01*
X-18958896Y-5617924D01*
X-19077086Y-5582072D01*
X-19200000Y-5569966D01*
X-19270250Y-5573000D01*
X-19427000Y-5729750D01*
X-20573000Y-5729750D01*
X-20729750Y-5573000D01*
X-20800000Y-5569966D01*
X-20922914Y-5582072D01*
X-21041104Y-5617924D01*
X-21150028Y-5676146D01*
X-21245501Y-5754499D01*
X-21323854Y-5849972D01*
X-21382076Y-5958896D01*
X-21417928Y-6077086D01*
X-21430034Y-6200000D01*
X-24127750Y-6200000D01*
X-24129750Y-6198000D01*
X-24727000Y-6198000D01*
X-25373000Y-6198000D01*
X-25373000Y-4604750D01*
X-24727000Y-4604750D01*
X-24727000Y-5202000D01*
X-24129750Y-5202000D01*
X-23973000Y-5045250D01*
X-23980202Y-4961895D01*
X-24014177Y-4843151D01*
X-24070664Y-4733318D01*
X-24147494Y-4636615D01*
X-24241714Y-4556759D01*
X-24349702Y-4496819D01*
X-24467309Y-4459097D01*
X-24570250Y-4448000D01*
X-24727000Y-4604750D01*
X-25373000Y-4604750D01*
X-25373000Y-3803348D01*
X-25291589Y-3721937D01*
X-25204495Y-3906419D01*
X-24932453Y-3935665D01*
X-24659932Y-3911277D01*
X-24635505Y-3906419D01*
X-24548410Y-3721935D01*
X-24590594Y-3679750D01*
X-19527000Y-3679750D01*
X-19519752Y-3763360D01*
X-19485728Y-3882090D01*
X-19429195Y-3991900D01*
X-19352325Y-4088571D01*
X-19258073Y-4168388D01*
X-19150060Y-4228284D01*
X-19032438Y-4265957D01*
X-18929750Y-4277000D01*
X-18773000Y-4120250D01*
X-18773000Y-3523000D01*
X-19370250Y-3523000D01*
X-19527000Y-3679750D01*
X-24590594Y-3679750D01*
X-24920000Y-3350344D01*
X-24934142Y-3364487D01*
X-25373000Y-2925629D01*
X-25373000Y-2540000D01*
X-24109656Y-2540000D01*
X-23738065Y-2911590D01*
X-23553581Y-2824495D01*
X-23524335Y-2552453D01*
X-23545114Y-2320250D01*
X-19527000Y-2320250D01*
X-19370250Y-2477000D01*
X-18773000Y-2477000D01*
X-18773000Y-1879750D01*
X-18929750Y-1723000D01*
X-19032438Y-1734043D01*
X-19150060Y-1771716D01*
X-19258073Y-1831612D01*
X-19352325Y-1911429D01*
X-19429195Y-2008100D01*
X-19485728Y-2117910D01*
X-19519752Y-2236640D01*
X-19527000Y-2320250D01*
X-23545114Y-2320250D01*
X-23548723Y-2279932D01*
X-23553581Y-2255505D01*
X-23738065Y-2168410D01*
X-24109656Y-2540000D01*
X-25373000Y-2540000D01*
X-25373000Y-2154371D01*
X-24934142Y-1715513D01*
X-24920000Y-1729656D01*
X-24548410Y-1358065D01*
X-24635505Y-1173581D01*
X-24907547Y-1144335D01*
X-25180068Y-1168723D01*
X-25204495Y-1173581D01*
X-25291589Y-1358063D01*
X-25373000Y-1276652D01*
X-25373000Y-1127000D01*
X-18327000Y-1127000D01*
X-18327000Y-7373000D01*
X-18327000Y-7373000D01*
G37*
X-18327000Y-7373000D02*
X-25373000Y-7373000D01*
X-25373000Y-6198000D01*
X-24727000Y-6198000D01*
X-24727000Y-6795250D01*
X-24570250Y-6952000D01*
X-24467309Y-6940903D01*
X-24349702Y-6903181D01*
X-24241714Y-6843241D01*
X-24147494Y-6763385D01*
X-24070664Y-6666682D01*
X-24014177Y-6556849D01*
X-23980202Y-6438105D01*
X-23973000Y-6354750D01*
X-24127750Y-6200000D01*
X-21430034Y-6200000D01*
X-21427000Y-6270250D01*
X-21270250Y-6427000D01*
X-20573000Y-6427000D01*
X-20573000Y-5729750D01*
X-19427000Y-5729750D01*
X-19427000Y-6427000D01*
X-18729750Y-6427000D01*
X-18573000Y-6270250D01*
X-18569966Y-6200000D01*
X-18582072Y-6077086D01*
X-18617924Y-5958896D01*
X-18676146Y-5849972D01*
X-18754499Y-5754499D01*
X-18849972Y-5676146D01*
X-18958896Y-5617924D01*
X-19077086Y-5582072D01*
X-19200000Y-5569966D01*
X-19270250Y-5573000D01*
X-19427000Y-5729750D01*
X-20573000Y-5729750D01*
X-20729750Y-5573000D01*
X-20800000Y-5569966D01*
X-20922914Y-5582072D01*
X-21041104Y-5617924D01*
X-21150028Y-5676146D01*
X-21245501Y-5754499D01*
X-21323854Y-5849972D01*
X-21382076Y-5958896D01*
X-21417928Y-6077086D01*
X-21430034Y-6200000D01*
X-24127750Y-6200000D01*
X-24129750Y-6198000D01*
X-24727000Y-6198000D01*
X-25373000Y-6198000D01*
X-25373000Y-4604750D01*
X-24727000Y-4604750D01*
X-24727000Y-5202000D01*
X-24129750Y-5202000D01*
X-23973000Y-5045250D01*
X-23980202Y-4961895D01*
X-24014177Y-4843151D01*
X-24070664Y-4733318D01*
X-24147494Y-4636615D01*
X-24241714Y-4556759D01*
X-24349702Y-4496819D01*
X-24467309Y-4459097D01*
X-24570250Y-4448000D01*
X-24727000Y-4604750D01*
X-25373000Y-4604750D01*
X-25373000Y-3803348D01*
X-25291589Y-3721937D01*
X-25204495Y-3906419D01*
X-24932453Y-3935665D01*
X-24659932Y-3911277D01*
X-24635505Y-3906419D01*
X-24548410Y-3721935D01*
X-24590594Y-3679750D01*
X-19527000Y-3679750D01*
X-19519752Y-3763360D01*
X-19485728Y-3882090D01*
X-19429195Y-3991900D01*
X-19352325Y-4088571D01*
X-19258073Y-4168388D01*
X-19150060Y-4228284D01*
X-19032438Y-4265957D01*
X-18929750Y-4277000D01*
X-18773000Y-4120250D01*
X-18773000Y-3523000D01*
X-19370250Y-3523000D01*
X-19527000Y-3679750D01*
X-24590594Y-3679750D01*
X-24920000Y-3350344D01*
X-24934142Y-3364487D01*
X-25373000Y-2925629D01*
X-25373000Y-2540000D01*
X-24109656Y-2540000D01*
X-23738065Y-2911590D01*
X-23553581Y-2824495D01*
X-23524335Y-2552453D01*
X-23545114Y-2320250D01*
X-19527000Y-2320250D01*
X-19370250Y-2477000D01*
X-18773000Y-2477000D01*
X-18773000Y-1879750D01*
X-18929750Y-1723000D01*
X-19032438Y-1734043D01*
X-19150060Y-1771716D01*
X-19258073Y-1831612D01*
X-19352325Y-1911429D01*
X-19429195Y-2008100D01*
X-19485728Y-2117910D01*
X-19519752Y-2236640D01*
X-19527000Y-2320250D01*
X-23545114Y-2320250D01*
X-23548723Y-2279932D01*
X-23553581Y-2255505D01*
X-23738065Y-2168410D01*
X-24109656Y-2540000D01*
X-25373000Y-2540000D01*
X-25373000Y-2154371D01*
X-24934142Y-1715513D01*
X-24920000Y-1729656D01*
X-24548410Y-1358065D01*
X-24635505Y-1173581D01*
X-24907547Y-1144335D01*
X-25180068Y-1168723D01*
X-25204495Y-1173581D01*
X-25291589Y-1358063D01*
X-25373000Y-1276652D01*
X-25373000Y-1127000D01*
X-18327000Y-1127000D01*
X-18327000Y-7373000D01*
G36*
X-8777000Y2895813D02*
G01*
X-8777000Y-2000000D01*
X-8774560Y-2024776D01*
X-8767333Y-2048601D01*
X-8755597Y-2070557D01*
X-8739803Y-2089803D01*
X-8720557Y-2105597D01*
X-8698601Y-2117333D01*
X-8674776Y-2124560D01*
X-8650000Y-2127000D01*
X-4377000Y-2127000D01*
X-4377000Y-4873000D01*
X-16873000Y-4873000D01*
X-16873000Y-3523000D01*
X-16427000Y-3523000D01*
X-16427000Y-4120250D01*
X-16270250Y-4277000D01*
X-16167562Y-4265957D01*
X-16049940Y-4228284D01*
X-15941927Y-4168388D01*
X-15847675Y-4088571D01*
X-15770805Y-3991900D01*
X-15714272Y-3882090D01*
X-15680248Y-3763360D01*
X-15673000Y-3679750D01*
X-15829750Y-3523000D01*
X-16427000Y-3523000D01*
X-16873000Y-3523000D01*
X-16873000Y-1879750D01*
X-16427000Y-1879750D01*
X-16427000Y-2477000D01*
X-15829750Y-2477000D01*
X-15673000Y-2320250D01*
X-15680248Y-2236640D01*
X-15714272Y-2117910D01*
X-15770805Y-2008100D01*
X-15847675Y-1911429D01*
X-15941927Y-1831612D01*
X-16049940Y-1771716D01*
X-16167562Y-1734043D01*
X-16270250Y-1723000D01*
X-16427000Y-1879750D01*
X-16873000Y-1879750D01*
X-16873000Y7873000D01*
X-13754186Y7873000D01*
X-8777000Y2895813D01*
X-8777000Y2895813D01*
G37*
X-8777000Y2895813D02*
X-8777000Y-2000000D01*
X-8774560Y-2024776D01*
X-8767333Y-2048601D01*
X-8755597Y-2070557D01*
X-8739803Y-2089803D01*
X-8720557Y-2105597D01*
X-8698601Y-2117333D01*
X-8674776Y-2124560D01*
X-8650000Y-2127000D01*
X-4377000Y-2127000D01*
X-4377000Y-4873000D01*
X-16873000Y-4873000D01*
X-16873000Y-3523000D01*
X-16427000Y-3523000D01*
X-16427000Y-4120250D01*
X-16270250Y-4277000D01*
X-16167562Y-4265957D01*
X-16049940Y-4228284D01*
X-15941927Y-4168388D01*
X-15847675Y-4088571D01*
X-15770805Y-3991900D01*
X-15714272Y-3882090D01*
X-15680248Y-3763360D01*
X-15673000Y-3679750D01*
X-15829750Y-3523000D01*
X-16427000Y-3523000D01*
X-16873000Y-3523000D01*
X-16873000Y-1879750D01*
X-16427000Y-1879750D01*
X-16427000Y-2477000D01*
X-15829750Y-2477000D01*
X-15673000Y-2320250D01*
X-15680248Y-2236640D01*
X-15714272Y-2117910D01*
X-15770805Y-2008100D01*
X-15847675Y-1911429D01*
X-15941927Y-1831612D01*
X-16049940Y-1771716D01*
X-16167562Y-1734043D01*
X-16270250Y-1723000D01*
X-16427000Y-1879750D01*
X-16873000Y-1879750D01*
X-16873000Y7873000D01*
X-13754186Y7873000D01*
X-8777000Y2895813D01*
G36*
X54823000Y7351859D02*
G01*
X54540524Y7774615D01*
X54174615Y8140524D01*
X53744351Y8428017D01*
X53266268Y8626046D01*
X52758737Y8727000D01*
X52241263Y8727000D01*
X51733732Y8626046D01*
X51255649Y8428017D01*
X50825385Y8140524D01*
X50459476Y7774615D01*
X50171983Y7344351D01*
X49973954Y6866268D01*
X49873000Y6358737D01*
X49873000Y5841263D01*
X49973954Y5333732D01*
X50171983Y4855649D01*
X50459476Y4425385D01*
X50825385Y4059476D01*
X51255649Y3771983D01*
X51733732Y3573954D01*
X52241263Y3473000D01*
X52758737Y3473000D01*
X53266268Y3573954D01*
X53744351Y3771983D01*
X54174615Y4059476D01*
X54540524Y4425385D01*
X54823000Y4848141D01*
X54823000Y627000D01*
X43127000Y627000D01*
X43127000Y4566050D01*
X44017000Y4566050D01*
X44017000Y4193950D01*
X44089593Y3828999D01*
X44231990Y3485223D01*
X44438718Y3175833D01*
X44701833Y2912718D01*
X45011223Y2705990D01*
X45354999Y2563593D01*
X45719950Y2491000D01*
X46092050Y2491000D01*
X46457001Y2563593D01*
X46800777Y2705990D01*
X47110167Y2912718D01*
X47373282Y3175833D01*
X47580010Y3485223D01*
X47722407Y3828999D01*
X47795000Y4193950D01*
X47795000Y4566050D01*
X47722407Y4931001D01*
X47580010Y5274777D01*
X47373282Y5584167D01*
X47110167Y5847282D01*
X46800777Y6054010D01*
X46457001Y6196407D01*
X46092050Y6269000D01*
X45719950Y6269000D01*
X45354999Y6196407D01*
X45011223Y6054010D01*
X44701833Y5847282D01*
X44438718Y5584167D01*
X44231990Y5274777D01*
X44089593Y4931001D01*
X44017000Y4566050D01*
X43127000Y4566050D01*
X43127000Y8356333D01*
X45329835Y8356333D01*
X45412316Y8145916D01*
X45678167Y8074853D01*
X45952773Y8057020D01*
X46225583Y8093103D01*
X46399684Y8145916D01*
X46482165Y8356333D01*
X45906000Y8932498D01*
X45329835Y8356333D01*
X43127000Y8356333D01*
X43127000Y9413227D01*
X44503020Y9413227D01*
X44539103Y9140417D01*
X44591916Y8966316D01*
X44802333Y8883835D01*
X45378498Y9460000D01*
X46433502Y9460000D01*
X47009667Y8883835D01*
X47220084Y8966316D01*
X47291147Y9232167D01*
X47308980Y9506773D01*
X47272897Y9779583D01*
X47220084Y9953684D01*
X47009667Y10036165D01*
X46433502Y9460000D01*
X45378498Y9460000D01*
X44802333Y10036165D01*
X44591916Y9953684D01*
X44520853Y9687833D01*
X44503020Y9413227D01*
X43127000Y9413227D01*
X43127000Y10563667D01*
X45329835Y10563667D01*
X45906000Y9987502D01*
X46482165Y10563667D01*
X46399684Y10774084D01*
X46133833Y10845147D01*
X45859227Y10862980D01*
X45586417Y10826897D01*
X45412316Y10774084D01*
X45329835Y10563667D01*
X43127000Y10563667D01*
X43127000Y14726050D01*
X44017000Y14726050D01*
X44017000Y14353950D01*
X44089593Y13988999D01*
X44231990Y13645223D01*
X44438718Y13335833D01*
X44701833Y13072718D01*
X45011223Y12865990D01*
X45354999Y12723593D01*
X45719950Y12651000D01*
X46092050Y12651000D01*
X46457001Y12723593D01*
X46800777Y12865990D01*
X47110167Y13072718D01*
X47373282Y13335833D01*
X47580010Y13645223D01*
X47722407Y13988999D01*
X47795000Y14353950D01*
X47795000Y14726050D01*
X47722407Y15091001D01*
X47580010Y15434777D01*
X47373282Y15744167D01*
X47110167Y16007282D01*
X46800777Y16214010D01*
X46457001Y16356407D01*
X46456494Y16356508D01*
X51384009Y16356508D01*
X51559976Y16071582D01*
X51954254Y15925246D01*
X52369506Y15858642D01*
X52789771Y15874330D01*
X53198901Y15971705D01*
X53440024Y16071582D01*
X53615991Y16356508D01*
X52500000Y17472498D01*
X51384009Y16356508D01*
X46456494Y16356508D01*
X46092050Y16429000D01*
X45719950Y16429000D01*
X45354999Y16356407D01*
X45011223Y16214010D01*
X44701833Y16007282D01*
X44438718Y15744167D01*
X44231990Y15434777D01*
X44089593Y15091001D01*
X44017000Y14726050D01*
X43127000Y14726050D01*
X43127000Y18130494D01*
X50358642Y18130494D01*
X50374330Y17710229D01*
X50471705Y17301099D01*
X50571582Y17059976D01*
X50856508Y16884009D01*
X51972498Y18000000D01*
X53027502Y18000000D01*
X54143492Y16884009D01*
X54428418Y17059976D01*
X54574754Y17454254D01*
X54641358Y17869506D01*
X54625670Y18289771D01*
X54528295Y18698901D01*
X54428418Y18940024D01*
X54143492Y19115991D01*
X53027502Y18000000D01*
X51972498Y18000000D01*
X50856508Y19115991D01*
X50571582Y18940024D01*
X50425246Y18545746D01*
X50358642Y18130494D01*
X43127000Y18130494D01*
X43127000Y18516333D01*
X45329835Y18516333D01*
X45412316Y18305916D01*
X45678167Y18234853D01*
X45952773Y18217020D01*
X46225583Y18253103D01*
X46399684Y18305916D01*
X46482165Y18516333D01*
X45906000Y19092498D01*
X45329835Y18516333D01*
X43127000Y18516333D01*
X43127000Y19573227D01*
X44503020Y19573227D01*
X44539103Y19300417D01*
X44591916Y19126316D01*
X44802333Y19043835D01*
X45378498Y19620000D01*
X46433502Y19620000D01*
X47009667Y19043835D01*
X47220084Y19126316D01*
X47291147Y19392167D01*
X47307468Y19643492D01*
X51384009Y19643492D01*
X52500000Y18527502D01*
X53615991Y19643492D01*
X53440024Y19928418D01*
X53045746Y20074754D01*
X52630494Y20141358D01*
X52210229Y20125670D01*
X51801099Y20028295D01*
X51559976Y19928418D01*
X51384009Y19643492D01*
X47307468Y19643492D01*
X47308980Y19666773D01*
X47272897Y19939583D01*
X47220084Y20113684D01*
X47009667Y20196165D01*
X46433502Y19620000D01*
X45378498Y19620000D01*
X44802333Y20196165D01*
X44591916Y20113684D01*
X44520853Y19847833D01*
X44503020Y19573227D01*
X43127000Y19573227D01*
X43127000Y20723667D01*
X45329835Y20723667D01*
X45906000Y20147502D01*
X46482165Y20723667D01*
X46399684Y20934084D01*
X46133833Y21005147D01*
X45859227Y21022980D01*
X45586417Y20986897D01*
X45412316Y20934084D01*
X45329835Y20723667D01*
X43127000Y20723667D01*
X43127000Y22873000D01*
X54823000Y22873000D01*
X54823000Y7351859D01*
X54823000Y7351859D01*
G37*
X54823000Y7351859D02*
X54540524Y7774615D01*
X54174615Y8140524D01*
X53744351Y8428017D01*
X53266268Y8626046D01*
X52758737Y8727000D01*
X52241263Y8727000D01*
X51733732Y8626046D01*
X51255649Y8428017D01*
X50825385Y8140524D01*
X50459476Y7774615D01*
X50171983Y7344351D01*
X49973954Y6866268D01*
X49873000Y6358737D01*
X49873000Y5841263D01*
X49973954Y5333732D01*
X50171983Y4855649D01*
X50459476Y4425385D01*
X50825385Y4059476D01*
X51255649Y3771983D01*
X51733732Y3573954D01*
X52241263Y3473000D01*
X52758737Y3473000D01*
X53266268Y3573954D01*
X53744351Y3771983D01*
X54174615Y4059476D01*
X54540524Y4425385D01*
X54823000Y4848141D01*
X54823000Y627000D01*
X43127000Y627000D01*
X43127000Y4566050D01*
X44017000Y4566050D01*
X44017000Y4193950D01*
X44089593Y3828999D01*
X44231990Y3485223D01*
X44438718Y3175833D01*
X44701833Y2912718D01*
X45011223Y2705990D01*
X45354999Y2563593D01*
X45719950Y2491000D01*
X46092050Y2491000D01*
X46457001Y2563593D01*
X46800777Y2705990D01*
X47110167Y2912718D01*
X47373282Y3175833D01*
X47580010Y3485223D01*
X47722407Y3828999D01*
X47795000Y4193950D01*
X47795000Y4566050D01*
X47722407Y4931001D01*
X47580010Y5274777D01*
X47373282Y5584167D01*
X47110167Y5847282D01*
X46800777Y6054010D01*
X46457001Y6196407D01*
X46092050Y6269000D01*
X45719950Y6269000D01*
X45354999Y6196407D01*
X45011223Y6054010D01*
X44701833Y5847282D01*
X44438718Y5584167D01*
X44231990Y5274777D01*
X44089593Y4931001D01*
X44017000Y4566050D01*
X43127000Y4566050D01*
X43127000Y8356333D01*
X45329835Y8356333D01*
X45412316Y8145916D01*
X45678167Y8074853D01*
X45952773Y8057020D01*
X46225583Y8093103D01*
X46399684Y8145916D01*
X46482165Y8356333D01*
X45906000Y8932498D01*
X45329835Y8356333D01*
X43127000Y8356333D01*
X43127000Y9413227D01*
X44503020Y9413227D01*
X44539103Y9140417D01*
X44591916Y8966316D01*
X44802333Y8883835D01*
X45378498Y9460000D01*
X46433502Y9460000D01*
X47009667Y8883835D01*
X47220084Y8966316D01*
X47291147Y9232167D01*
X47308980Y9506773D01*
X47272897Y9779583D01*
X47220084Y9953684D01*
X47009667Y10036165D01*
X46433502Y9460000D01*
X45378498Y9460000D01*
X44802333Y10036165D01*
X44591916Y9953684D01*
X44520853Y9687833D01*
X44503020Y9413227D01*
X43127000Y9413227D01*
X43127000Y10563667D01*
X45329835Y10563667D01*
X45906000Y9987502D01*
X46482165Y10563667D01*
X46399684Y10774084D01*
X46133833Y10845147D01*
X45859227Y10862980D01*
X45586417Y10826897D01*
X45412316Y10774084D01*
X45329835Y10563667D01*
X43127000Y10563667D01*
X43127000Y14726050D01*
X44017000Y14726050D01*
X44017000Y14353950D01*
X44089593Y13988999D01*
X44231990Y13645223D01*
X44438718Y13335833D01*
X44701833Y13072718D01*
X45011223Y12865990D01*
X45354999Y12723593D01*
X45719950Y12651000D01*
X46092050Y12651000D01*
X46457001Y12723593D01*
X46800777Y12865990D01*
X47110167Y13072718D01*
X47373282Y13335833D01*
X47580010Y13645223D01*
X47722407Y13988999D01*
X47795000Y14353950D01*
X47795000Y14726050D01*
X47722407Y15091001D01*
X47580010Y15434777D01*
X47373282Y15744167D01*
X47110167Y16007282D01*
X46800777Y16214010D01*
X46457001Y16356407D01*
X46456494Y16356508D01*
X51384009Y16356508D01*
X51559976Y16071582D01*
X51954254Y15925246D01*
X52369506Y15858642D01*
X52789771Y15874330D01*
X53198901Y15971705D01*
X53440024Y16071582D01*
X53615991Y16356508D01*
X52500000Y17472498D01*
X51384009Y16356508D01*
X46456494Y16356508D01*
X46092050Y16429000D01*
X45719950Y16429000D01*
X45354999Y16356407D01*
X45011223Y16214010D01*
X44701833Y16007282D01*
X44438718Y15744167D01*
X44231990Y15434777D01*
X44089593Y15091001D01*
X44017000Y14726050D01*
X43127000Y14726050D01*
X43127000Y18130494D01*
X50358642Y18130494D01*
X50374330Y17710229D01*
X50471705Y17301099D01*
X50571582Y17059976D01*
X50856508Y16884009D01*
X51972498Y18000000D01*
X53027502Y18000000D01*
X54143492Y16884009D01*
X54428418Y17059976D01*
X54574754Y17454254D01*
X54641358Y17869506D01*
X54625670Y18289771D01*
X54528295Y18698901D01*
X54428418Y18940024D01*
X54143492Y19115991D01*
X53027502Y18000000D01*
X51972498Y18000000D01*
X50856508Y19115991D01*
X50571582Y18940024D01*
X50425246Y18545746D01*
X50358642Y18130494D01*
X43127000Y18130494D01*
X43127000Y18516333D01*
X45329835Y18516333D01*
X45412316Y18305916D01*
X45678167Y18234853D01*
X45952773Y18217020D01*
X46225583Y18253103D01*
X46399684Y18305916D01*
X46482165Y18516333D01*
X45906000Y19092498D01*
X45329835Y18516333D01*
X43127000Y18516333D01*
X43127000Y19573227D01*
X44503020Y19573227D01*
X44539103Y19300417D01*
X44591916Y19126316D01*
X44802333Y19043835D01*
X45378498Y19620000D01*
X46433502Y19620000D01*
X47009667Y19043835D01*
X47220084Y19126316D01*
X47291147Y19392167D01*
X47307468Y19643492D01*
X51384009Y19643492D01*
X52500000Y18527502D01*
X53615991Y19643492D01*
X53440024Y19928418D01*
X53045746Y20074754D01*
X52630494Y20141358D01*
X52210229Y20125670D01*
X51801099Y20028295D01*
X51559976Y19928418D01*
X51384009Y19643492D01*
X47307468Y19643492D01*
X47308980Y19666773D01*
X47272897Y19939583D01*
X47220084Y20113684D01*
X47009667Y20196165D01*
X46433502Y19620000D01*
X45378498Y19620000D01*
X44802333Y20196165D01*
X44591916Y20113684D01*
X44520853Y19847833D01*
X44503020Y19573227D01*
X43127000Y19573227D01*
X43127000Y20723667D01*
X45329835Y20723667D01*
X45906000Y20147502D01*
X46482165Y20723667D01*
X46399684Y20934084D01*
X46133833Y21005147D01*
X45859227Y21022980D01*
X45586417Y20986897D01*
X45412316Y20934084D01*
X45329835Y20723667D01*
X43127000Y20723667D01*
X43127000Y22873000D01*
X54823000Y22873000D01*
X54823000Y7351859D01*
M02*
