G04 #@! TF.GenerationSoftware,KiCad,Pcbnew,(5.1.2)-1*
G04 #@! TF.CreationDate,2019-05-29T22:51:05-07:00*
G04 #@! TF.ProjectId,1000WConverter_r1_ctrl,31303030-5743-46f6-9e76-65727465725f,rev?*
G04 #@! TF.SameCoordinates,Original*
G04 #@! TF.FileFunction,Soldermask,Top*
G04 #@! TF.FilePolarity,Negative*
%FSLAX46Y46*%
G04 Gerber Fmt 4.6, Leading zero omitted, Abs format (unit mm)*
G04 Created by KiCad (PCBNEW (5.1.2)-1) date 2019-05-29 22:51:05*
%MOMM*%
%LPD*%
G04 APERTURE LIST*
%ADD10C,0.609600*%
%ADD11C,1.800000*%
%ADD12R,1.800000X1.800000*%
%ADD13R,1.200000X1.500000*%
%ADD14R,1.300000X0.700000*%
%ADD15R,0.700000X1.300000*%
%ADD16R,0.508000X1.143000*%
%ADD17R,1.016000X1.016000*%
%ADD18C,1.600000*%
%ADD19R,1.600000X1.600000*%
%ADD20R,0.600000X0.750000*%
%ADD21R,0.750000X0.600000*%
%ADD22R,1.000000X1.250000*%
%ADD23R,1.250000X1.000000*%
%ADD24C,1.524000*%
%ADD25R,1.750000X0.450000*%
%ADD26C,3.000000*%
G04 APERTURE END LIST*
D10*
X24140000Y-40691600D03*
X10240000Y-40691600D03*
X10940000Y-36088400D03*
X10940000Y-28788400D03*
X16898400Y-27532500D03*
X24840000Y-36088400D03*
X24840000Y-28788400D03*
X22867500Y-30011600D03*
X17767500Y-19578400D03*
D11*
X9560000Y-44000000D03*
D12*
X14640000Y-44000000D03*
D11*
X12100000Y-44000000D03*
D13*
X14640000Y-29850000D03*
X12790000Y-37150000D03*
X12790000Y-29850000D03*
X10940000Y-29850000D03*
X10940000Y-37150000D03*
X14640000Y-37150000D03*
D14*
X14640000Y-40900000D03*
X14640000Y-39000000D03*
D15*
X12140000Y-39725000D03*
X10240000Y-39725000D03*
X24140000Y-39725000D03*
X26040000Y-39725000D03*
D14*
X28540000Y-39000000D03*
X28540000Y-40900000D03*
D13*
X28540000Y-37150000D03*
X24840000Y-37150000D03*
X24840000Y-29850000D03*
X26690000Y-29850000D03*
X26690000Y-37150000D03*
X28540000Y-29850000D03*
D11*
X26000000Y-44000000D03*
D12*
X28540000Y-44000000D03*
D11*
X23460000Y-44000000D03*
D14*
X31792500Y-25435000D03*
X31792500Y-23535000D03*
X22877500Y-27400000D03*
X22867500Y-29340000D03*
X21942500Y-18615000D03*
X21942500Y-20515000D03*
D15*
X17767500Y-20540000D03*
X19667500Y-20540000D03*
D14*
X23067500Y-26200000D03*
X23117500Y-24460000D03*
X18367500Y-30790000D03*
X20367500Y-30790000D03*
D16*
X21272500Y-27365000D03*
X20002500Y-27365000D03*
X18732500Y-27365000D03*
X17462500Y-27365000D03*
X17462500Y-22015000D03*
X18732500Y-22015000D03*
X20002500Y-22015000D03*
X21272500Y-22015000D03*
D14*
X20367500Y-28890000D03*
X18367500Y-28890000D03*
D17*
X21917500Y-17500000D03*
D18*
X27467500Y-26060000D03*
D19*
X27467500Y-23560000D03*
D10*
X31792500Y-26150000D03*
X13960000Y40691600D03*
X27860000Y40691600D03*
X27160000Y36088400D03*
X27160000Y28788400D03*
X21201600Y27532500D03*
X13260000Y36088400D03*
X13260000Y28788400D03*
X15232500Y30011600D03*
X20332500Y19578400D03*
D11*
X28540000Y44000000D03*
D12*
X23460000Y44000000D03*
D11*
X26000000Y44000000D03*
D13*
X23460000Y29850000D03*
X25310000Y37150000D03*
X25310000Y29850000D03*
X27160000Y29850000D03*
X27160000Y37150000D03*
X23460000Y37150000D03*
D14*
X23460000Y40900000D03*
X23460000Y39000000D03*
D15*
X25960000Y39725000D03*
X27860000Y39725000D03*
X13960000Y39725000D03*
X12060000Y39725000D03*
D14*
X9560000Y39000000D03*
X9560000Y40900000D03*
D13*
X9560000Y37150000D03*
X13260000Y37150000D03*
X13260000Y29850000D03*
X11410000Y29850000D03*
X11410000Y37150000D03*
X9560000Y29850000D03*
D11*
X12100000Y44000000D03*
D12*
X9560000Y44000000D03*
D11*
X14640000Y44000000D03*
D14*
X6307500Y25435000D03*
X6307500Y23535000D03*
X15222500Y27400000D03*
X15232500Y29340000D03*
X16157500Y18615000D03*
X16157500Y20515000D03*
D15*
X20332500Y20540000D03*
X18432500Y20540000D03*
D14*
X15032500Y26200000D03*
X14982500Y24460000D03*
X19732500Y30790000D03*
X17732500Y30790000D03*
D16*
X16827500Y27365000D03*
X18097500Y27365000D03*
X19367500Y27365000D03*
X20637500Y27365000D03*
X20637500Y22015000D03*
X19367500Y22015000D03*
X18097500Y22015000D03*
X16827500Y22015000D03*
D14*
X17732500Y28890000D03*
X19732500Y28890000D03*
D17*
X16182500Y17500000D03*
D18*
X10632500Y26060000D03*
D19*
X10632500Y23560000D03*
D10*
X6307500Y26150000D03*
D20*
X-17810000Y40615000D03*
D10*
X-17810000Y40725000D03*
X-10185000Y40700000D03*
D20*
X-10185000Y40590000D03*
X-24185000Y40540000D03*
D10*
X-24185000Y40700000D03*
X-17765000Y31235000D03*
D20*
X-17765000Y31385000D03*
D21*
X-19135000Y27485000D03*
D10*
X-19940000Y19550000D03*
X-18985000Y27485000D03*
D20*
X-19940000Y19700000D03*
D21*
X-27150000Y27025000D03*
D15*
X-12090000Y39725000D03*
D14*
X-14590000Y39000000D03*
D19*
X-29490000Y30100000D03*
D18*
X-29490000Y32640000D03*
D11*
X-9510000Y44000000D03*
D12*
X-14590000Y44000000D03*
D11*
X-12050000Y44000000D03*
D17*
X-24090000Y17500000D03*
D14*
X-20490000Y28890000D03*
X-22490000Y28890000D03*
D16*
X-23395000Y22015000D03*
X-22125000Y22015000D03*
X-20855000Y22015000D03*
X-19585000Y22015000D03*
X-19585000Y27365000D03*
X-20855000Y27365000D03*
X-22125000Y27365000D03*
X-23395000Y27365000D03*
D14*
X-22490000Y30790000D03*
X-20490000Y30790000D03*
X-24950000Y28560000D03*
X-24950000Y30300000D03*
D15*
X-21840000Y20540000D03*
X-19940000Y20540000D03*
D14*
X-24065000Y20515000D03*
X-24065000Y18615000D03*
D15*
X-26575000Y27025000D03*
X-24675000Y27025000D03*
D14*
X-33375000Y30100000D03*
X-33375000Y32000000D03*
X-14590000Y40900000D03*
D15*
X-10190000Y39725000D03*
X-24190000Y39725000D03*
X-26090000Y39725000D03*
D14*
X-28590000Y39000000D03*
X-28590000Y40900000D03*
D13*
X-21490000Y39600000D03*
X-17790000Y39650000D03*
X-17790000Y32350000D03*
X-19640000Y32350000D03*
X-19640000Y39650000D03*
X-21490000Y32350000D03*
D11*
X-26050000Y44000000D03*
D12*
X-28590000Y44000000D03*
D11*
X-23510000Y44000000D03*
D10*
X-33375000Y32725000D03*
X-27300000Y27025000D03*
D20*
X-33375000Y32575000D03*
X-20290000Y-40615000D03*
D10*
X-20290000Y-40725000D03*
X-27915000Y-40700000D03*
D20*
X-27915000Y-40590000D03*
X-13915000Y-40540000D03*
D10*
X-13915000Y-40700000D03*
X-20335000Y-31235000D03*
D20*
X-20335000Y-31385000D03*
D21*
X-18965000Y-27485000D03*
D10*
X-18160000Y-19550000D03*
X-19115000Y-27485000D03*
D20*
X-18160000Y-19700000D03*
D21*
X-10950000Y-27025000D03*
D15*
X-26010000Y-39725000D03*
D14*
X-23510000Y-39000000D03*
D19*
X-8610000Y-30100000D03*
D18*
X-8610000Y-32640000D03*
D11*
X-28590000Y-44000000D03*
D12*
X-23510000Y-44000000D03*
D11*
X-26050000Y-44000000D03*
D17*
X-14010000Y-17500000D03*
D14*
X-17610000Y-28890000D03*
X-15610000Y-28890000D03*
D16*
X-14705000Y-22015000D03*
X-15975000Y-22015000D03*
X-17245000Y-22015000D03*
X-18515000Y-22015000D03*
X-18515000Y-27365000D03*
X-17245000Y-27365000D03*
X-15975000Y-27365000D03*
X-14705000Y-27365000D03*
D14*
X-15610000Y-30790000D03*
X-17610000Y-30790000D03*
X-13150000Y-28560000D03*
X-13150000Y-30300000D03*
D15*
X-16260000Y-20540000D03*
X-18160000Y-20540000D03*
D14*
X-14035000Y-20515000D03*
X-14035000Y-18615000D03*
D15*
X-11525000Y-27025000D03*
X-13425000Y-27025000D03*
D14*
X-4725000Y-30100000D03*
X-4725000Y-32000000D03*
X-23510000Y-40900000D03*
D15*
X-27910000Y-39725000D03*
X-13910000Y-39725000D03*
X-12010000Y-39725000D03*
D14*
X-9510000Y-39000000D03*
X-9510000Y-40900000D03*
D13*
X-16610000Y-39600000D03*
X-20310000Y-39650000D03*
X-20310000Y-32350000D03*
X-18460000Y-32350000D03*
X-18460000Y-39650000D03*
X-16610000Y-32350000D03*
D11*
X-12050000Y-44000000D03*
D12*
X-9510000Y-44000000D03*
D11*
X-14590000Y-44000000D03*
D10*
X-4725000Y-32725000D03*
X-10800000Y-27025000D03*
D20*
X-4725000Y-32575000D03*
D22*
X22250000Y500000D03*
X20250000Y500000D03*
D23*
X19700000Y8000000D03*
X19700000Y6000000D03*
D24*
X26000000Y-4000000D03*
X26000000Y-8000000D03*
D23*
X-2250000Y-2650000D03*
X-2250000Y-4650000D03*
X-40600000Y-2200000D03*
X-40600000Y-200000D03*
D22*
X-25100000Y-5700000D03*
X-27100000Y-5700000D03*
D24*
X-30000000Y-2540000D03*
X-24920000Y-2540000D03*
X-35080000Y-2540000D03*
X-37620000Y-2540000D03*
D15*
X-16650000Y-3000000D03*
X-18550000Y-3000000D03*
D23*
X22500000Y-6000000D03*
X22500000Y-8000000D03*
D14*
X18250000Y3450000D03*
X18250000Y1550000D03*
X14275000Y3425000D03*
X14275000Y5325000D03*
X18250000Y-2450000D03*
X18250000Y-550000D03*
X14250000Y-550000D03*
X14250000Y-2450000D03*
D22*
X11000000Y5550000D03*
X9000000Y5550000D03*
D23*
X-2200000Y4250000D03*
X-2200000Y2250000D03*
D25*
X7100000Y-2269200D03*
X7100000Y-1619200D03*
X7100000Y-969200D03*
X7100000Y-319200D03*
X7100000Y330800D03*
X7100000Y980800D03*
X7100000Y1630800D03*
X7100000Y2280800D03*
X7100000Y2930800D03*
X7100000Y3580800D03*
X7100000Y4230800D03*
X7100000Y4880800D03*
X7100000Y5530800D03*
X7100000Y6180800D03*
X-100000Y6180800D03*
X-100000Y5530800D03*
X-100000Y4880800D03*
X-100000Y4230800D03*
X-100000Y3580800D03*
X-100000Y2930800D03*
X-100000Y2280800D03*
X-100000Y1630800D03*
X-100000Y980800D03*
X-100000Y330800D03*
X-100000Y-319200D03*
X-100000Y-969200D03*
X-100000Y-1619200D03*
X-100000Y-2269200D03*
D24*
X45906000Y14540000D03*
X45906000Y19620000D03*
X45906000Y9460000D03*
X45906000Y4380000D03*
X26094000Y19620000D03*
X26094000Y14540000D03*
X26094000Y9460000D03*
X26094000Y4380000D03*
D26*
X-47000000Y-3000000D03*
X-53000000Y-3000000D03*
X52500000Y6100000D03*
X52500000Y18000000D03*
D18*
X-20000000Y-9500000D03*
D19*
X-20000000Y-7000000D03*
M02*
