M48
; DRILL file {KiCad (5.1.2)-1} date 5/29/2019 10:51:08 PM
; FORMAT={-:-/ absolute / inch / decimal}
; #@! TF.CreationDate,2019-05-29T22:51:08-07:00
; #@! TF.GenerationSoftware,Kicad,Pcbnew,(5.1.2)-1
; #@! TF.FileFunction,Plated,1,4,PTH
FMAT,2
INCH
T1C0.0157
T2C0.0160
T3C0.0236
T4C0.0280
T5C0.0300
T6C0.0315
T7C0.0394
T8C0.0591
%
G90
G05
T1
X-1.5984Y0.0335
X-1.1063Y-0.2244
X-0.4843Y0.2431
X-0.4035Y0.3228
X-0.3366Y-0.4606
X-0.2618Y-0.5354
X-0.1299Y0.1673
X-0.0886Y-0.2264
X-0.0591Y-0.0637
X0.0984Y0.3543
X0.2165Y0.4724
X0.2165Y0.3543
X0.2205Y0.0886
X0.3346Y0.4724
X0.4724Y0.2185
X0.5138Y-0.0965
X0.562Y0.2451
X0.6457Y-0.2598
X0.6929Y-0.2126
X0.752Y-0.1535
X0.7972Y-0.1083
X0.9154Y0.0197
T2
X0.2483Y1.0295
X0.522Y1.4208
X0.522Y1.1334
X0.5496Y1.602
X0.5997Y1.1816
X0.8005Y0.7708
X0.8347Y1.084
X1.0693Y1.4208
X1.0693Y1.1334
X1.0969Y1.602
X-1.099Y-1.6024
X-0.8006Y-1.2297
X-0.7988Y-1.6033
X-0.7526Y-1.0821
X-0.715Y-0.7697
X-0.5478Y-1.6024
X-0.4252Y-1.064
X-0.186Y-1.2884
X0.4031Y-1.602
X0.4307Y-1.1334
X0.4307Y-1.4208
X0.6653Y-1.084
X0.6995Y-0.7708
X0.9003Y-1.1816
X0.9504Y-1.602
X0.978Y-1.1334
X0.978Y-1.4208
X1.2517Y-1.0295
X-1.314Y1.2884
X-1.0748Y1.064
X-0.9522Y1.6024
X-0.785Y0.7697
X-0.7474Y1.0821
X-0.7012Y1.6033
X-0.6994Y1.2297
X-0.401Y1.6024
T3
X-1.4811Y-0.1
X-1.3811Y-0.1
X-1.1811Y-0.1
X-0.9811Y-0.1
T4
X0.8629Y-0.689
X-0.9484Y0.689
X0.6371Y0.689
X-0.5516Y-0.689
T5
X1.0273Y0.7724
X1.0273Y0.5724
X1.0273Y0.3724
X1.0273Y0.1724
X1.8073Y0.7724
X1.8073Y0.5724
X1.8073Y0.3724
X1.8073Y0.1724
X1.0236Y-0.1575
X1.0236Y-0.315
T6
X-0.339Y-1.185
X-0.339Y-1.285
X-0.7874Y-0.2756
X-0.7874Y-0.374
X1.0814Y-0.9276
X1.0814Y-1.026
X-1.161Y1.285
X-1.161Y1.185
X0.4186Y1.026
X0.4186Y0.9276
T7
X-1.1256Y-1.7323
X-1.0256Y-1.7323
X-0.9256Y-1.7323
X-0.5744Y-1.7323
X-0.4744Y-1.7323
X-0.3744Y-1.7323
X0.3764Y-1.7323
X0.4764Y-1.7323
X0.5764Y-1.7323
X0.9236Y-1.7323
X1.0236Y-1.7323
X1.1236Y-1.7323
X-1.1256Y1.7323
X-1.0256Y1.7323
X-0.9256Y1.7323
X-0.5744Y1.7323
X-0.4744Y1.7323
X-0.3744Y1.7323
X0.3764Y1.7323
X0.4764Y1.7323
X0.5764Y1.7323
X0.9236Y1.7323
X1.0236Y1.7323
X1.1236Y1.7323
T8
X-2.0866Y-0.1181
X2.0669Y0.2402
X2.0669Y0.7087
X-1.8504Y-0.1181
T0
M30
