G04 #@! TF.GenerationSoftware,KiCad,Pcbnew,(5.1.2)-1*
G04 #@! TF.CreationDate,2019-05-29T22:51:05-07:00*
G04 #@! TF.ProjectId,1000WConverter_r1_ctrl,31303030-5743-46f6-9e76-65727465725f,rev?*
G04 #@! TF.SameCoordinates,Original*
G04 #@! TF.FileFunction,Legend,Top*
G04 #@! TF.FilePolarity,Positive*
%FSLAX46Y46*%
G04 Gerber Fmt 4.6, Leading zero omitted, Abs format (unit mm)*
G04 Created by KiCad (PCBNEW (5.1.2)-1) date 2019-05-29 22:51:05*
%MOMM*%
%LPD*%
G04 APERTURE LIST*
%ADD10C,0.120000*%
%ADD11C,0.750000*%
%ADD12C,0.150000*%
%ADD13C,0.480000*%
%ADD14C,0.500000*%
%ADD15C,0.100000*%
G04 APERTURE END LIST*
D10*
X6980000Y-46620000D02*
X6980000Y-41979000D01*
D11*
X17170000Y-46620000D02*
X6980000Y-46620000D01*
D12*
X17260000Y-46620000D02*
X17260000Y-41979000D01*
D10*
X17220000Y-41979000D02*
X6980000Y-41979000D01*
D12*
X15497107Y-31500000D02*
G75*
G03X15497107Y-31500000I-707107J0D01*
G01*
X16290000Y-30000000D02*
X16290000Y-38000000D01*
X16290000Y-38000000D02*
X9290000Y-38000000D01*
X9290000Y-38000000D02*
X9290000Y-30000000D01*
X9290000Y-30000000D02*
X16290000Y-30000000D01*
X23190000Y-30000000D02*
X30190000Y-30000000D01*
X23190000Y-38000000D02*
X23190000Y-30000000D01*
X30190000Y-38000000D02*
X23190000Y-38000000D01*
X30190000Y-30000000D02*
X30190000Y-38000000D01*
X29397107Y-31500000D02*
G75*
G03X29397107Y-31500000I-707107J0D01*
G01*
D10*
X31120000Y-41979000D02*
X20880000Y-41979000D01*
D12*
X31160000Y-46620000D02*
X31160000Y-41979000D01*
D11*
X31070000Y-46620000D02*
X20880000Y-46620000D01*
D10*
X20880000Y-46620000D02*
X20880000Y-41979000D01*
D12*
X30323945Y-25310000D02*
G75*
G03X30323945Y-25310000I-3106445J0D01*
G01*
X21907500Y-26976000D02*
X16827500Y-26976000D01*
X16827500Y-26976000D02*
X16827500Y-22404000D01*
X16827500Y-22404000D02*
X21907500Y-22404000D01*
X21907500Y-22404000D02*
X21907500Y-26976000D01*
X21907500Y-25452000D02*
X21399500Y-25452000D01*
X21399500Y-25452000D02*
X21399500Y-24182000D01*
X21399500Y-24182000D02*
X21907500Y-24182000D01*
D10*
X31120000Y46620000D02*
X31120000Y41979000D01*
D11*
X20930000Y46620000D02*
X31120000Y46620000D01*
D12*
X20840000Y46620000D02*
X20840000Y41979000D01*
D10*
X20880000Y41979000D02*
X31120000Y41979000D01*
D12*
X24017107Y31500000D02*
G75*
G03X24017107Y31500000I-707107J0D01*
G01*
X21810000Y30000000D02*
X21810000Y38000000D01*
X21810000Y38000000D02*
X28810000Y38000000D01*
X28810000Y38000000D02*
X28810000Y30000000D01*
X28810000Y30000000D02*
X21810000Y30000000D01*
X14910000Y30000000D02*
X7910000Y30000000D01*
X14910000Y38000000D02*
X14910000Y30000000D01*
X7910000Y38000000D02*
X14910000Y38000000D01*
X7910000Y30000000D02*
X7910000Y38000000D01*
X10117107Y31500000D02*
G75*
G03X10117107Y31500000I-707107J0D01*
G01*
D10*
X6980000Y41979000D02*
X17220000Y41979000D01*
D12*
X6940000Y46620000D02*
X6940000Y41979000D01*
D11*
X7030000Y46620000D02*
X17220000Y46620000D01*
D10*
X17220000Y46620000D02*
X17220000Y41979000D01*
D12*
X13988945Y25310000D02*
G75*
G03X13988945Y25310000I-3106445J0D01*
G01*
X16192500Y26976000D02*
X21272500Y26976000D01*
X21272500Y26976000D02*
X21272500Y22404000D01*
X21272500Y22404000D02*
X16192500Y22404000D01*
X16192500Y22404000D02*
X16192500Y26976000D01*
X16192500Y25452000D02*
X16700500Y25452000D01*
X16700500Y25452000D02*
X16700500Y24182000D01*
X16700500Y24182000D02*
X16192500Y24182000D01*
X-23522000Y24182000D02*
X-24030000Y24182000D01*
X-23522000Y25452000D02*
X-23522000Y24182000D01*
X-24030000Y25452000D02*
X-23522000Y25452000D01*
X-24030000Y22404000D02*
X-24030000Y26976000D01*
X-18950000Y22404000D02*
X-24030000Y22404000D01*
X-18950000Y26976000D02*
X-18950000Y22404000D01*
X-24030000Y26976000D02*
X-18950000Y26976000D01*
D13*
X-17170000Y46620000D02*
X-6930000Y46620000D01*
D12*
X-17210000Y46620000D02*
X-17210000Y41979000D01*
D10*
X-17170000Y41979000D02*
X-6930000Y41979000D01*
D12*
X-25993555Y31350000D02*
G75*
G03X-25993555Y31350000I-3106445J0D01*
G01*
X-16140000Y32500000D02*
X-23140000Y32500000D01*
X-16140000Y40500000D02*
X-16140000Y32500000D01*
X-23140000Y40500000D02*
X-16140000Y40500000D01*
X-23140000Y32500000D02*
X-23140000Y40500000D01*
X-20932893Y34000000D02*
G75*
G03X-20932893Y34000000I-707107J0D01*
G01*
X-6930000Y46620000D02*
X-6930000Y41979000D01*
X-20930000Y46620000D02*
X-20930000Y41979000D01*
D10*
X-31170000Y41979000D02*
X-20930000Y41979000D01*
D12*
X-31210000Y46620000D02*
X-31210000Y41979000D01*
D13*
X-31170000Y46620000D02*
X-20930000Y46620000D01*
D12*
X-14578000Y-24182000D02*
X-14070000Y-24182000D01*
X-14578000Y-25452000D02*
X-14578000Y-24182000D01*
X-14070000Y-25452000D02*
X-14578000Y-25452000D01*
X-14070000Y-22404000D02*
X-14070000Y-26976000D01*
X-19150000Y-22404000D02*
X-14070000Y-22404000D01*
X-19150000Y-26976000D02*
X-19150000Y-22404000D01*
X-14070000Y-26976000D02*
X-19150000Y-26976000D01*
D13*
X-20930000Y-46620000D02*
X-31170000Y-46620000D01*
D12*
X-20890000Y-46620000D02*
X-20890000Y-41979000D01*
D10*
X-20930000Y-41979000D02*
X-31170000Y-41979000D01*
D12*
X-5893555Y-31350000D02*
G75*
G03X-5893555Y-31350000I-3106445J0D01*
G01*
X-21960000Y-32500000D02*
X-14960000Y-32500000D01*
X-21960000Y-40500000D02*
X-21960000Y-32500000D01*
X-14960000Y-40500000D02*
X-21960000Y-40500000D01*
X-14960000Y-32500000D02*
X-14960000Y-40500000D01*
X-15752893Y-34000000D02*
G75*
G03X-15752893Y-34000000I-707107J0D01*
G01*
X-31170000Y-46620000D02*
X-31170000Y-41979000D01*
X-17170000Y-46620000D02*
X-17170000Y-41979000D01*
D10*
X-6930000Y-41979000D02*
X-17170000Y-41979000D01*
D12*
X-6890000Y-46620000D02*
X-6890000Y-41979000D01*
D13*
X-6930000Y-46620000D02*
X-17170000Y-46620000D01*
D10*
X20750000Y-350000D02*
X21750000Y-350000D01*
X21750000Y1350000D02*
X20750000Y1350000D01*
X20550000Y6500000D02*
X20550000Y7500000D01*
X18850000Y7500000D02*
X18850000Y6500000D01*
D12*
X26000000Y-8000000D02*
X31000000Y-8000000D01*
X26000000Y-4000000D02*
X31000000Y-4000000D01*
X33236068Y-6000000D02*
G75*
G03X33236068Y-6000000I-2236068J0D01*
G01*
X31000000Y-4000000D02*
X31000000Y-8000000D01*
X31000000Y-8000000D02*
X30000000Y-7000000D01*
X32000000Y-7000000D02*
X31000000Y-8000000D01*
D10*
X-1400000Y-4150000D02*
X-1400000Y-3150000D01*
X-3100000Y-3150000D02*
X-3100000Y-4150000D01*
X-41450000Y-700000D02*
X-41450000Y-1700000D01*
X-39750000Y-1700000D02*
X-39750000Y-700000D01*
X-26600000Y-6550000D02*
X-25600000Y-6550000D01*
X-25600000Y-4850000D02*
X-26600000Y-4850000D01*
D12*
X-20600000Y2860000D02*
X-20600000Y-4340000D01*
X-39400000Y2860000D02*
X-39400000Y-4340000D01*
X-39400000Y-4340000D02*
X-20600000Y-4340000D01*
X-39400000Y2860000D02*
X-20600000Y2860000D01*
D10*
X-18200000Y-2120000D02*
X-17000000Y-2120000D01*
X-17000000Y-3880000D02*
X-18200000Y-3880000D01*
X23350000Y-7500000D02*
X23350000Y-6500000D01*
X21650000Y-6500000D02*
X21650000Y-7500000D01*
X17370000Y1900000D02*
X17370000Y3100000D01*
X19130000Y3100000D02*
X19130000Y1900000D01*
X15155000Y4975000D02*
X15155000Y3775000D01*
X13395000Y3775000D02*
X13395000Y4975000D01*
X19130000Y-900000D02*
X19130000Y-2100000D01*
X17370000Y-2100000D02*
X17370000Y-900000D01*
X13370000Y-2100000D02*
X13370000Y-900000D01*
X15130000Y-900000D02*
X15130000Y-2100000D01*
X9500000Y4700000D02*
X10500000Y4700000D01*
X10500000Y6400000D02*
X9500000Y6400000D01*
X-1350000Y2750000D02*
X-1350000Y3750000D01*
X-3050000Y3750000D02*
X-3050000Y2750000D01*
D12*
X6375000Y-3369200D02*
X6375000Y-2794200D01*
X625000Y-3369200D02*
X625000Y-2719200D01*
X625000Y7280800D02*
X625000Y6630800D01*
X6375000Y7280800D02*
X6375000Y6630800D01*
X6375000Y-3369200D02*
X625000Y-3369200D01*
X6375000Y7280800D02*
X625000Y7280800D01*
X6375000Y-2794200D02*
X7975000Y-2794200D01*
X47938000Y24700000D02*
X47938000Y-700000D01*
X47938000Y-700000D02*
X24062000Y-700000D01*
X24062000Y-700000D02*
X24062000Y24700000D01*
X24062000Y24700000D02*
X47938000Y24700000D01*
X41000000Y4000000D02*
G75*
G02X41000000Y7000000I0J1500000D01*
G01*
X41000000Y7000000D02*
G75*
G02X41000000Y10000000I0J1500000D01*
G01*
X41000000Y14000000D02*
G75*
G02X41000000Y17000000I0J1500000D01*
G01*
X41000000Y17000000D02*
G75*
G02X41000000Y20000000I0J1500000D01*
G01*
X31000000Y4000000D02*
G75*
G03X31000000Y7000000I0J1500000D01*
G01*
X31000000Y7000000D02*
G75*
G03X31000000Y10000000I0J1500000D01*
G01*
X31000000Y14000000D02*
G75*
G03X31000000Y17000000I0J1500000D01*
G01*
X31000000Y17000000D02*
G75*
G03X31000000Y20000000I0J1500000D01*
G01*
X43000000Y4000000D02*
X41000000Y4000000D01*
X31000000Y4000000D02*
X29000000Y4000000D01*
X31000000Y10000000D02*
X29000000Y10000000D01*
X43000000Y10000000D02*
X41000000Y10000000D01*
X43000000Y14000000D02*
X41000000Y14000000D01*
X31000000Y14000000D02*
X29000000Y14000000D01*
X43000000Y20000000D02*
X41000000Y20000000D01*
X29000000Y20000000D02*
X31000000Y20000000D01*
X44500000Y1500000D02*
G75*
G03X44500000Y1500000I-1000000J0D01*
G01*
D14*
X-49540000Y-5540000D02*
X-49540000Y-460000D01*
X-44460000Y-5540000D02*
X-49540000Y-5540000D01*
X-44460000Y-460000D02*
X-44460000Y-5540000D01*
X-49540000Y-460000D02*
X-44460000Y-460000D01*
X-55540000Y-5540000D02*
X-55540000Y-460000D01*
X-50460000Y-5540000D02*
X-55540000Y-5540000D01*
X-50460000Y-460000D02*
X-50460000Y-5540000D01*
X-55540000Y-460000D02*
X-50460000Y-460000D01*
X49960000Y8640000D02*
X55040000Y8640000D01*
X55040000Y8640000D02*
X55040000Y3560000D01*
X55040000Y3560000D02*
X49960000Y3560000D01*
X49960000Y3560000D02*
X49960000Y8640000D01*
X49960000Y20540000D02*
X55040000Y20540000D01*
X55040000Y20540000D02*
X55040000Y15460000D01*
X55040000Y15460000D02*
X49960000Y15460000D01*
X49960000Y15460000D02*
X49960000Y20540000D01*
D10*
X-19350000Y-5400000D02*
X-20650000Y-5400000D01*
X-20000000Y-4800000D02*
X-20000000Y-6000000D01*
X-19532000Y-11451000D02*
X-20468000Y-11451000D01*
X-19324000Y-11411000D02*
X-20676000Y-11411000D01*
X-19166000Y-11371000D02*
X-20834000Y-11371000D01*
X-19034000Y-11331000D02*
X-20966000Y-11331000D01*
X-18919000Y-11291000D02*
X-21081000Y-11291000D01*
X-18816000Y-11251000D02*
X-21184000Y-11251000D01*
X-18722000Y-11211000D02*
X-21278000Y-11211000D01*
X-18636000Y-11171000D02*
X-21364000Y-11171000D01*
X-18555000Y-11131000D02*
X-21445000Y-11131000D01*
X-18480000Y-11091000D02*
X-21520000Y-11091000D01*
X-18409000Y-11051000D02*
X-21591000Y-11051000D01*
X-18342000Y-11011000D02*
X-21658000Y-11011000D01*
X-18279000Y-10971000D02*
X-21721000Y-10971000D01*
X-18219000Y-10931000D02*
X-21781000Y-10931000D01*
X-18161000Y-10891000D02*
X-21839000Y-10891000D01*
X-18106000Y-10851000D02*
X-21894000Y-10851000D01*
X-18054000Y-10811000D02*
X-21946000Y-10811000D01*
X-18003000Y-10771000D02*
X-21997000Y-10771000D01*
X-17955000Y-10731000D02*
X-22045000Y-10731000D01*
X-17908000Y-10691000D02*
X-22092000Y-10691000D01*
X-17863000Y-10651000D02*
X-22137000Y-10651000D01*
X-17820000Y-10611000D02*
X-22180000Y-10611000D01*
X-17778000Y-10571000D02*
X-22222000Y-10571000D01*
X-17738000Y-10531000D02*
X-22262000Y-10531000D01*
X-17699000Y-10491000D02*
X-22301000Y-10491000D01*
X-20980000Y-10451000D02*
X-22339000Y-10451000D01*
X-17661000Y-10451000D02*
X-19020000Y-10451000D01*
X-20980000Y-10411000D02*
X-22375000Y-10411000D01*
X-17625000Y-10411000D02*
X-19020000Y-10411000D01*
X-20980000Y-10371000D02*
X-22411000Y-10371000D01*
X-17589000Y-10371000D02*
X-19020000Y-10371000D01*
X-20980000Y-10331000D02*
X-22445000Y-10331000D01*
X-17555000Y-10331000D02*
X-19020000Y-10331000D01*
X-20980000Y-10291000D02*
X-22478000Y-10291000D01*
X-17522000Y-10291000D02*
X-19020000Y-10291000D01*
X-20980000Y-10251000D02*
X-22510000Y-10251000D01*
X-17490000Y-10251000D02*
X-19020000Y-10251000D01*
X-20980000Y-10211000D02*
X-22540000Y-10211000D01*
X-17460000Y-10211000D02*
X-19020000Y-10211000D01*
X-20980000Y-10171000D02*
X-22570000Y-10171000D01*
X-17430000Y-10171000D02*
X-19020000Y-10171000D01*
X-20980000Y-10131000D02*
X-22599000Y-10131000D01*
X-17401000Y-10131000D02*
X-19020000Y-10131000D01*
X-20980000Y-10091000D02*
X-22627000Y-10091000D01*
X-17373000Y-10091000D02*
X-19020000Y-10091000D01*
X-20980000Y-10051000D02*
X-22654000Y-10051000D01*
X-17346000Y-10051000D02*
X-19020000Y-10051000D01*
X-20980000Y-10011000D02*
X-22681000Y-10011000D01*
X-17319000Y-10011000D02*
X-19020000Y-10011000D01*
X-20980000Y-9971000D02*
X-22706000Y-9971000D01*
X-17294000Y-9971000D02*
X-19020000Y-9971000D01*
X-20980000Y-9931000D02*
X-22731000Y-9931000D01*
X-17269000Y-9931000D02*
X-19020000Y-9931000D01*
X-20980000Y-9891000D02*
X-22755000Y-9891000D01*
X-17245000Y-9891000D02*
X-19020000Y-9891000D01*
X-20980000Y-9851000D02*
X-22778000Y-9851000D01*
X-17222000Y-9851000D02*
X-19020000Y-9851000D01*
X-20980000Y-9811000D02*
X-22800000Y-9811000D01*
X-17200000Y-9811000D02*
X-19020000Y-9811000D01*
X-20980000Y-9771000D02*
X-22822000Y-9771000D01*
X-17178000Y-9771000D02*
X-19020000Y-9771000D01*
X-20980000Y-9731000D02*
X-22843000Y-9731000D01*
X-17157000Y-9731000D02*
X-19020000Y-9731000D01*
X-20980000Y-9691000D02*
X-22863000Y-9691000D01*
X-17137000Y-9691000D02*
X-19020000Y-9691000D01*
X-20980000Y-9651000D02*
X-22882000Y-9651000D01*
X-17118000Y-9651000D02*
X-19020000Y-9651000D01*
X-20980000Y-9611000D02*
X-22901000Y-9611000D01*
X-17099000Y-9611000D02*
X-19020000Y-9611000D01*
X-20980000Y-9571000D02*
X-22919000Y-9571000D01*
X-17081000Y-9571000D02*
X-19020000Y-9571000D01*
X-20980000Y-9531000D02*
X-22937000Y-9531000D01*
X-17063000Y-9531000D02*
X-19020000Y-9531000D01*
X-20980000Y-9491000D02*
X-22954000Y-9491000D01*
X-17046000Y-9491000D02*
X-19020000Y-9491000D01*
X-20980000Y-9451000D02*
X-22970000Y-9451000D01*
X-17030000Y-9451000D02*
X-19020000Y-9451000D01*
X-20980000Y-9411000D02*
X-22986000Y-9411000D01*
X-17014000Y-9411000D02*
X-19020000Y-9411000D01*
X-20980000Y-9371000D02*
X-23001000Y-9371000D01*
X-16999000Y-9371000D02*
X-19020000Y-9371000D01*
X-20980000Y-9331000D02*
X-23015000Y-9331000D01*
X-16985000Y-9331000D02*
X-19020000Y-9331000D01*
X-20980000Y-9291000D02*
X-23029000Y-9291000D01*
X-16971000Y-9291000D02*
X-19020000Y-9291000D01*
X-20980000Y-9251000D02*
X-23042000Y-9251000D01*
X-16958000Y-9251000D02*
X-19020000Y-9251000D01*
X-20980000Y-9211000D02*
X-23055000Y-9211000D01*
X-16945000Y-9211000D02*
X-19020000Y-9211000D01*
X-20980000Y-9171000D02*
X-23067000Y-9171000D01*
X-16933000Y-9171000D02*
X-19020000Y-9171000D01*
X-20980000Y-9131000D02*
X-23079000Y-9131000D01*
X-16921000Y-9131000D02*
X-19020000Y-9131000D01*
X-20980000Y-9091000D02*
X-23090000Y-9091000D01*
X-16910000Y-9091000D02*
X-19020000Y-9091000D01*
X-20980000Y-9051000D02*
X-23100000Y-9051000D01*
X-16900000Y-9051000D02*
X-19020000Y-9051000D01*
X-20980000Y-9011000D02*
X-23110000Y-9011000D01*
X-16890000Y-9011000D02*
X-19020000Y-9011000D01*
X-20980000Y-8971000D02*
X-23119000Y-8971000D01*
X-16881000Y-8971000D02*
X-19020000Y-8971000D01*
X-20980000Y-8930000D02*
X-23128000Y-8930000D01*
X-16872000Y-8930000D02*
X-19020000Y-8930000D01*
X-20980000Y-8890000D02*
X-23137000Y-8890000D01*
X-16863000Y-8890000D02*
X-19020000Y-8890000D01*
X-20980000Y-8850000D02*
X-23144000Y-8850000D01*
X-16856000Y-8850000D02*
X-19020000Y-8850000D01*
X-20980000Y-8810000D02*
X-23152000Y-8810000D01*
X-16848000Y-8810000D02*
X-19020000Y-8810000D01*
X-20980000Y-8770000D02*
X-23158000Y-8770000D01*
X-16842000Y-8770000D02*
X-19020000Y-8770000D01*
X-20980000Y-8730000D02*
X-23165000Y-8730000D01*
X-16835000Y-8730000D02*
X-19020000Y-8730000D01*
X-20980000Y-8690000D02*
X-23170000Y-8690000D01*
X-16830000Y-8690000D02*
X-19020000Y-8690000D01*
X-20980000Y-8650000D02*
X-23176000Y-8650000D01*
X-16824000Y-8650000D02*
X-19020000Y-8650000D01*
X-20980000Y-8610000D02*
X-23180000Y-8610000D01*
X-16820000Y-8610000D02*
X-19020000Y-8610000D01*
X-20980000Y-8570000D02*
X-23185000Y-8570000D01*
X-16815000Y-8570000D02*
X-19020000Y-8570000D01*
X-20980000Y-8530000D02*
X-23188000Y-8530000D01*
X-16812000Y-8530000D02*
X-19020000Y-8530000D01*
X-16808000Y-8490000D02*
X-23192000Y-8490000D01*
X-16806000Y-8450000D02*
X-23194000Y-8450000D01*
X-16803000Y-8410000D02*
X-23197000Y-8410000D01*
X-16802000Y-8370000D02*
X-23198000Y-8370000D01*
X-16800000Y-8330000D02*
X-23200000Y-8330000D01*
X-16800000Y-8290000D02*
X-23200000Y-8290000D01*
X-16800000Y-8250000D02*
X-23200000Y-8250000D01*
X-21179136Y-11267820D02*
G75*
G03X-18820000Y-11267482I1179136J3017820D01*
G01*
X-21179136Y-11267820D02*
G75*
G02X-21180000Y-5232518I1179136J3017820D01*
G01*
X-18820864Y-11267820D02*
G75*
G03X-18820000Y-5232518I-1179136J3017820D01*
G01*
D12*
X18224642Y-24737619D02*
X18129404Y-24690000D01*
X18034166Y-24594761D01*
X17891309Y-24451904D01*
X17796071Y-24404285D01*
X17700833Y-24404285D01*
X17748452Y-24642380D02*
X17653214Y-24594761D01*
X17557976Y-24499523D01*
X17510357Y-24309047D01*
X17510357Y-23975714D01*
X17557976Y-23785238D01*
X17653214Y-23690000D01*
X17748452Y-23642380D01*
X17938928Y-23642380D01*
X18034166Y-23690000D01*
X18129404Y-23785238D01*
X18177023Y-23975714D01*
X18177023Y-24309047D01*
X18129404Y-24499523D01*
X18034166Y-24594761D01*
X17938928Y-24642380D01*
X17748452Y-24642380D01*
X18557976Y-24594761D02*
X18700833Y-24642380D01*
X18938928Y-24642380D01*
X19034166Y-24594761D01*
X19081785Y-24547142D01*
X19129404Y-24451904D01*
X19129404Y-24356666D01*
X19081785Y-24261428D01*
X19034166Y-24213809D01*
X18938928Y-24166190D01*
X18748452Y-24118571D01*
X18653214Y-24070952D01*
X18605595Y-24023333D01*
X18557976Y-23928095D01*
X18557976Y-23832857D01*
X18605595Y-23737619D01*
X18653214Y-23690000D01*
X18748452Y-23642380D01*
X18986547Y-23642380D01*
X19129404Y-23690000D01*
X19462738Y-23642380D02*
X19700833Y-24642380D01*
X19891309Y-23928095D01*
X20081785Y-24642380D01*
X20319880Y-23642380D01*
X20605595Y-23642380D02*
X21224642Y-23642380D01*
X20891309Y-24023333D01*
X21034166Y-24023333D01*
X21129404Y-24070952D01*
X21177023Y-24118571D01*
X21224642Y-24213809D01*
X21224642Y-24451904D01*
X21177023Y-24547142D01*
X21129404Y-24594761D01*
X21034166Y-24642380D01*
X20748452Y-24642380D01*
X20653214Y-24594761D01*
X20605595Y-24547142D01*
D15*
X14611428Y-40138095D02*
X14611428Y-40271428D01*
X14820952Y-40271428D02*
X14420952Y-40271428D01*
X14420952Y-40080952D01*
X14801904Y-39776190D02*
X14820952Y-39814285D01*
X14820952Y-39890476D01*
X14801904Y-39928571D01*
X14763809Y-39947619D01*
X14611428Y-39947619D01*
X14573333Y-39928571D01*
X14554285Y-39890476D01*
X14554285Y-39814285D01*
X14573333Y-39776190D01*
X14611428Y-39757142D01*
X14649523Y-39757142D01*
X14687619Y-39947619D01*
X14820952Y-39585714D02*
X14554285Y-39585714D01*
X14630476Y-39585714D02*
X14592380Y-39566666D01*
X14573333Y-39547619D01*
X14554285Y-39509523D01*
X14554285Y-39471428D01*
X28511428Y-40138095D02*
X28511428Y-40271428D01*
X28720952Y-40271428D02*
X28320952Y-40271428D01*
X28320952Y-40080952D01*
X28701904Y-39776190D02*
X28720952Y-39814285D01*
X28720952Y-39890476D01*
X28701904Y-39928571D01*
X28663809Y-39947619D01*
X28511428Y-39947619D01*
X28473333Y-39928571D01*
X28454285Y-39890476D01*
X28454285Y-39814285D01*
X28473333Y-39776190D01*
X28511428Y-39757142D01*
X28549523Y-39757142D01*
X28587619Y-39947619D01*
X28720952Y-39585714D02*
X28454285Y-39585714D01*
X28530476Y-39585714D02*
X28492380Y-39566666D01*
X28473333Y-39547619D01*
X28454285Y-39509523D01*
X28454285Y-39471428D01*
X14611428Y-40138095D02*
X14611428Y-40271428D01*
X14820952Y-40271428D02*
X14420952Y-40271428D01*
X14420952Y-40080952D01*
X14801904Y-39776190D02*
X14820952Y-39814285D01*
X14820952Y-39890476D01*
X14801904Y-39928571D01*
X14763809Y-39947619D01*
X14611428Y-39947619D01*
X14573333Y-39928571D01*
X14554285Y-39890476D01*
X14554285Y-39814285D01*
X14573333Y-39776190D01*
X14611428Y-39757142D01*
X14649523Y-39757142D01*
X14687619Y-39947619D01*
X14820952Y-39585714D02*
X14554285Y-39585714D01*
X14630476Y-39585714D02*
X14592380Y-39566666D01*
X14573333Y-39547619D01*
X14554285Y-39509523D01*
X14554285Y-39471428D01*
X11001904Y-39696428D02*
X10868571Y-39696428D01*
X10868571Y-39905952D02*
X10868571Y-39505952D01*
X11059047Y-39505952D01*
X11363809Y-39886904D02*
X11325714Y-39905952D01*
X11249523Y-39905952D01*
X11211428Y-39886904D01*
X11192380Y-39848809D01*
X11192380Y-39696428D01*
X11211428Y-39658333D01*
X11249523Y-39639285D01*
X11325714Y-39639285D01*
X11363809Y-39658333D01*
X11382857Y-39696428D01*
X11382857Y-39734523D01*
X11192380Y-39772619D01*
X11554285Y-39905952D02*
X11554285Y-39639285D01*
X11554285Y-39715476D02*
X11573333Y-39677380D01*
X11592380Y-39658333D01*
X11630476Y-39639285D01*
X11668571Y-39639285D01*
X24901904Y-39696428D02*
X24768571Y-39696428D01*
X24768571Y-39905952D02*
X24768571Y-39505952D01*
X24959047Y-39505952D01*
X25263809Y-39886904D02*
X25225714Y-39905952D01*
X25149523Y-39905952D01*
X25111428Y-39886904D01*
X25092380Y-39848809D01*
X25092380Y-39696428D01*
X25111428Y-39658333D01*
X25149523Y-39639285D01*
X25225714Y-39639285D01*
X25263809Y-39658333D01*
X25282857Y-39696428D01*
X25282857Y-39734523D01*
X25092380Y-39772619D01*
X25454285Y-39905952D02*
X25454285Y-39639285D01*
X25454285Y-39715476D02*
X25473333Y-39677380D01*
X25492380Y-39658333D01*
X25530476Y-39639285D01*
X25568571Y-39639285D01*
X14611428Y-40138095D02*
X14611428Y-40271428D01*
X14820952Y-40271428D02*
X14420952Y-40271428D01*
X14420952Y-40080952D01*
X14801904Y-39776190D02*
X14820952Y-39814285D01*
X14820952Y-39890476D01*
X14801904Y-39928571D01*
X14763809Y-39947619D01*
X14611428Y-39947619D01*
X14573333Y-39928571D01*
X14554285Y-39890476D01*
X14554285Y-39814285D01*
X14573333Y-39776190D01*
X14611428Y-39757142D01*
X14649523Y-39757142D01*
X14687619Y-39947619D01*
X14820952Y-39585714D02*
X14554285Y-39585714D01*
X14630476Y-39585714D02*
X14592380Y-39566666D01*
X14573333Y-39547619D01*
X14554285Y-39509523D01*
X14554285Y-39471428D01*
D12*
X26948452Y-25267142D02*
X26900833Y-25314761D01*
X26757976Y-25362380D01*
X26662738Y-25362380D01*
X26519880Y-25314761D01*
X26424642Y-25219523D01*
X26377023Y-25124285D01*
X26329404Y-24933809D01*
X26329404Y-24790952D01*
X26377023Y-24600476D01*
X26424642Y-24505238D01*
X26519880Y-24410000D01*
X26662738Y-24362380D01*
X26757976Y-24362380D01*
X26900833Y-24410000D01*
X26948452Y-24457619D01*
X27519880Y-25362380D02*
X27424642Y-25314761D01*
X27377023Y-25267142D01*
X27329404Y-25171904D01*
X27329404Y-24886190D01*
X27377023Y-24790952D01*
X27424642Y-24743333D01*
X27519880Y-24695714D01*
X27662738Y-24695714D01*
X27757976Y-24743333D01*
X27805595Y-24790952D01*
X27853214Y-24886190D01*
X27853214Y-25171904D01*
X27805595Y-25267142D01*
X27757976Y-25314761D01*
X27662738Y-25362380D01*
X27519880Y-25362380D01*
X28805595Y-25362380D02*
X28234166Y-25362380D01*
X28519880Y-25362380D02*
X28519880Y-24362380D01*
X28424642Y-24505238D01*
X28329404Y-24600476D01*
X28234166Y-24648095D01*
D15*
X32455357Y-25582619D02*
X32474404Y-25601666D01*
X32493452Y-25658809D01*
X32493452Y-25696904D01*
X32474404Y-25754047D01*
X32436309Y-25792142D01*
X32398214Y-25811190D01*
X32322023Y-25830238D01*
X32264880Y-25830238D01*
X32188690Y-25811190D01*
X32150595Y-25792142D01*
X32112500Y-25754047D01*
X32093452Y-25696904D01*
X32093452Y-25658809D01*
X32112500Y-25601666D01*
X32131547Y-25582619D01*
X32493452Y-25354047D02*
X32474404Y-25392142D01*
X32455357Y-25411190D01*
X32417261Y-25430238D01*
X32302976Y-25430238D01*
X32264880Y-25411190D01*
X32245833Y-25392142D01*
X32226785Y-25354047D01*
X32226785Y-25296904D01*
X32245833Y-25258809D01*
X32264880Y-25239761D01*
X32302976Y-25220714D01*
X32417261Y-25220714D01*
X32455357Y-25239761D01*
X32474404Y-25258809D01*
X32493452Y-25296904D01*
X32493452Y-25354047D01*
X32131547Y-25068333D02*
X32112500Y-25049285D01*
X32093452Y-25011190D01*
X32093452Y-24915952D01*
X32112500Y-24877857D01*
X32131547Y-24858809D01*
X32169642Y-24839761D01*
X32207738Y-24839761D01*
X32264880Y-24858809D01*
X32493452Y-25087380D01*
X32493452Y-24839761D01*
X23260357Y-27676190D02*
X23279404Y-27695238D01*
X23298452Y-27752380D01*
X23298452Y-27790476D01*
X23279404Y-27847619D01*
X23241309Y-27885714D01*
X23203214Y-27904761D01*
X23127023Y-27923809D01*
X23069880Y-27923809D01*
X22993690Y-27904761D01*
X22955595Y-27885714D01*
X22917500Y-27847619D01*
X22898452Y-27790476D01*
X22898452Y-27752380D01*
X22917500Y-27695238D01*
X22936547Y-27676190D01*
X23298452Y-27504761D02*
X22898452Y-27504761D01*
X22898452Y-27409523D01*
X22917500Y-27352380D01*
X22955595Y-27314285D01*
X22993690Y-27295238D01*
X23069880Y-27276190D01*
X23127023Y-27276190D01*
X23203214Y-27295238D01*
X23241309Y-27314285D01*
X23279404Y-27352380D01*
X23298452Y-27409523D01*
X23298452Y-27504761D01*
X23298452Y-27104761D02*
X22898452Y-27104761D01*
X22898452Y-27009523D01*
X22917500Y-26952380D01*
X22955595Y-26914285D01*
X22993690Y-26895238D01*
X23069880Y-26876190D01*
X23127023Y-26876190D01*
X23203214Y-26895238D01*
X23241309Y-26914285D01*
X23279404Y-26952380D01*
X23298452Y-27009523D01*
X23298452Y-27104761D01*
X19396071Y-19382857D02*
X19377023Y-19401904D01*
X19319880Y-19420952D01*
X19281785Y-19420952D01*
X19224642Y-19401904D01*
X19186547Y-19363809D01*
X19167500Y-19325714D01*
X19148452Y-19249523D01*
X19148452Y-19192380D01*
X19167500Y-19116190D01*
X19186547Y-19078095D01*
X19224642Y-19040000D01*
X19281785Y-19020952D01*
X19319880Y-19020952D01*
X19377023Y-19040000D01*
X19396071Y-19059047D01*
X19567500Y-19420952D02*
X19567500Y-19154285D01*
X19567500Y-19020952D02*
X19548452Y-19040000D01*
X19567500Y-19059047D01*
X19586547Y-19040000D01*
X19567500Y-19020952D01*
X19567500Y-19059047D01*
X21998452Y-19718571D02*
X21807976Y-19851904D01*
X21998452Y-19947142D02*
X21598452Y-19947142D01*
X21598452Y-19794761D01*
X21617500Y-19756666D01*
X21636547Y-19737619D01*
X21674642Y-19718571D01*
X21731785Y-19718571D01*
X21769880Y-19737619D01*
X21788928Y-19756666D01*
X21807976Y-19794761D01*
X21807976Y-19947142D01*
X21979404Y-19394761D02*
X21998452Y-19432857D01*
X21998452Y-19509047D01*
X21979404Y-19547142D01*
X21941309Y-19566190D01*
X21788928Y-19566190D01*
X21750833Y-19547142D01*
X21731785Y-19509047D01*
X21731785Y-19432857D01*
X21750833Y-19394761D01*
X21788928Y-19375714D01*
X21827023Y-19375714D01*
X21865119Y-19566190D01*
X21731785Y-19204285D02*
X21998452Y-19204285D01*
X21769880Y-19204285D02*
X21750833Y-19185238D01*
X21731785Y-19147142D01*
X21731785Y-19090000D01*
X21750833Y-19051904D01*
X21788928Y-19032857D01*
X21998452Y-19032857D01*
X21998452Y-19718571D02*
X21807976Y-19851904D01*
X21998452Y-19947142D02*
X21598452Y-19947142D01*
X21598452Y-19794761D01*
X21617500Y-19756666D01*
X21636547Y-19737619D01*
X21674642Y-19718571D01*
X21731785Y-19718571D01*
X21769880Y-19737619D01*
X21788928Y-19756666D01*
X21807976Y-19794761D01*
X21807976Y-19947142D01*
X21979404Y-19394761D02*
X21998452Y-19432857D01*
X21998452Y-19509047D01*
X21979404Y-19547142D01*
X21941309Y-19566190D01*
X21788928Y-19566190D01*
X21750833Y-19547142D01*
X21731785Y-19509047D01*
X21731785Y-19432857D01*
X21750833Y-19394761D01*
X21788928Y-19375714D01*
X21827023Y-19375714D01*
X21865119Y-19566190D01*
X21731785Y-19204285D02*
X21998452Y-19204285D01*
X21769880Y-19204285D02*
X21750833Y-19185238D01*
X21731785Y-19147142D01*
X21731785Y-19090000D01*
X21750833Y-19051904D01*
X21788928Y-19032857D01*
X21998452Y-19032857D01*
X23498452Y-24636190D02*
X23307976Y-24769523D01*
X23498452Y-24864761D02*
X23098452Y-24864761D01*
X23098452Y-24712380D01*
X23117500Y-24674285D01*
X23136547Y-24655238D01*
X23174642Y-24636190D01*
X23231785Y-24636190D01*
X23269880Y-24655238D01*
X23288928Y-24674285D01*
X23307976Y-24712380D01*
X23307976Y-24864761D01*
X23498452Y-24464761D02*
X23098452Y-24464761D01*
X23098452Y-24369523D01*
X23117500Y-24312380D01*
X23155595Y-24274285D01*
X23193690Y-24255238D01*
X23269880Y-24236190D01*
X23327023Y-24236190D01*
X23403214Y-24255238D01*
X23441309Y-24274285D01*
X23479404Y-24312380D01*
X23498452Y-24369523D01*
X23498452Y-24464761D01*
X23498452Y-24064761D02*
X23098452Y-24064761D01*
X23098452Y-23969523D01*
X23117500Y-23912380D01*
X23155595Y-23874285D01*
X23193690Y-23855238D01*
X23269880Y-23836190D01*
X23327023Y-23836190D01*
X23403214Y-23855238D01*
X23441309Y-23874285D01*
X23479404Y-23912380D01*
X23498452Y-23969523D01*
X23498452Y-24064761D01*
X18548452Y-30137619D02*
X18357976Y-30270952D01*
X18548452Y-30366190D02*
X18148452Y-30366190D01*
X18148452Y-30213809D01*
X18167500Y-30175714D01*
X18186547Y-30156666D01*
X18224642Y-30137619D01*
X18281785Y-30137619D01*
X18319880Y-30156666D01*
X18338928Y-30175714D01*
X18357976Y-30213809D01*
X18357976Y-30366190D01*
X18281785Y-29794761D02*
X18605595Y-29794761D01*
X18643690Y-29813809D01*
X18662738Y-29832857D01*
X18681785Y-29870952D01*
X18681785Y-29928095D01*
X18662738Y-29966190D01*
X18529404Y-29794761D02*
X18548452Y-29832857D01*
X18548452Y-29909047D01*
X18529404Y-29947142D01*
X18510357Y-29966190D01*
X18472261Y-29985238D01*
X18357976Y-29985238D01*
X18319880Y-29966190D01*
X18300833Y-29947142D01*
X18281785Y-29909047D01*
X18281785Y-29832857D01*
X18300833Y-29794761D01*
X18186547Y-29623333D02*
X18167500Y-29604285D01*
X18148452Y-29566190D01*
X18148452Y-29470952D01*
X18167500Y-29432857D01*
X18186547Y-29413809D01*
X18224642Y-29394761D01*
X18262738Y-29394761D01*
X18319880Y-29413809D01*
X18548452Y-29642380D01*
X18548452Y-29394761D01*
X20093452Y-30137619D02*
X19902976Y-30270952D01*
X20093452Y-30366190D02*
X19693452Y-30366190D01*
X19693452Y-30213809D01*
X19712500Y-30175714D01*
X19731547Y-30156666D01*
X19769642Y-30137619D01*
X19826785Y-30137619D01*
X19864880Y-30156666D01*
X19883928Y-30175714D01*
X19902976Y-30213809D01*
X19902976Y-30366190D01*
X19826785Y-29794761D02*
X20150595Y-29794761D01*
X20188690Y-29813809D01*
X20207738Y-29832857D01*
X20226785Y-29870952D01*
X20226785Y-29928095D01*
X20207738Y-29966190D01*
X20074404Y-29794761D02*
X20093452Y-29832857D01*
X20093452Y-29909047D01*
X20074404Y-29947142D01*
X20055357Y-29966190D01*
X20017261Y-29985238D01*
X19902976Y-29985238D01*
X19864880Y-29966190D01*
X19845833Y-29947142D01*
X19826785Y-29909047D01*
X19826785Y-29832857D01*
X19845833Y-29794761D01*
X20093452Y-29394761D02*
X20093452Y-29623333D01*
X20093452Y-29509047D02*
X19693452Y-29509047D01*
X19750595Y-29547142D01*
X19788690Y-29585238D01*
X19807738Y-29623333D01*
D12*
X17589642Y23142380D02*
X17494404Y23190000D01*
X17399166Y23285238D01*
X17256309Y23428095D01*
X17161071Y23475714D01*
X17065833Y23475714D01*
X17113452Y23237619D02*
X17018214Y23285238D01*
X16922976Y23380476D01*
X16875357Y23570952D01*
X16875357Y23904285D01*
X16922976Y24094761D01*
X17018214Y24190000D01*
X17113452Y24237619D01*
X17303928Y24237619D01*
X17399166Y24190000D01*
X17494404Y24094761D01*
X17542023Y23904285D01*
X17542023Y23570952D01*
X17494404Y23380476D01*
X17399166Y23285238D01*
X17303928Y23237619D01*
X17113452Y23237619D01*
X17922976Y23285238D02*
X18065833Y23237619D01*
X18303928Y23237619D01*
X18399166Y23285238D01*
X18446785Y23332857D01*
X18494404Y23428095D01*
X18494404Y23523333D01*
X18446785Y23618571D01*
X18399166Y23666190D01*
X18303928Y23713809D01*
X18113452Y23761428D01*
X18018214Y23809047D01*
X17970595Y23856666D01*
X17922976Y23951904D01*
X17922976Y24047142D01*
X17970595Y24142380D01*
X18018214Y24190000D01*
X18113452Y24237619D01*
X18351547Y24237619D01*
X18494404Y24190000D01*
X18827738Y24237619D02*
X19065833Y23237619D01*
X19256309Y23951904D01*
X19446785Y23237619D01*
X19684880Y24237619D01*
X20494404Y23904285D02*
X20494404Y23237619D01*
X20256309Y24285238D02*
X20018214Y23570952D01*
X20637261Y23570952D01*
D15*
X23431428Y39661904D02*
X23431428Y39528571D01*
X23640952Y39528571D02*
X23240952Y39528571D01*
X23240952Y39719047D01*
X23621904Y40023809D02*
X23640952Y39985714D01*
X23640952Y39909523D01*
X23621904Y39871428D01*
X23583809Y39852380D01*
X23431428Y39852380D01*
X23393333Y39871428D01*
X23374285Y39909523D01*
X23374285Y39985714D01*
X23393333Y40023809D01*
X23431428Y40042857D01*
X23469523Y40042857D01*
X23507619Y39852380D01*
X23640952Y40214285D02*
X23374285Y40214285D01*
X23450476Y40214285D02*
X23412380Y40233333D01*
X23393333Y40252380D01*
X23374285Y40290476D01*
X23374285Y40328571D01*
X9531428Y39661904D02*
X9531428Y39528571D01*
X9740952Y39528571D02*
X9340952Y39528571D01*
X9340952Y39719047D01*
X9721904Y40023809D02*
X9740952Y39985714D01*
X9740952Y39909523D01*
X9721904Y39871428D01*
X9683809Y39852380D01*
X9531428Y39852380D01*
X9493333Y39871428D01*
X9474285Y39909523D01*
X9474285Y39985714D01*
X9493333Y40023809D01*
X9531428Y40042857D01*
X9569523Y40042857D01*
X9607619Y39852380D01*
X9740952Y40214285D02*
X9474285Y40214285D01*
X9550476Y40214285D02*
X9512380Y40233333D01*
X9493333Y40252380D01*
X9474285Y40290476D01*
X9474285Y40328571D01*
X23431428Y39661904D02*
X23431428Y39528571D01*
X23640952Y39528571D02*
X23240952Y39528571D01*
X23240952Y39719047D01*
X23621904Y40023809D02*
X23640952Y39985714D01*
X23640952Y39909523D01*
X23621904Y39871428D01*
X23583809Y39852380D01*
X23431428Y39852380D01*
X23393333Y39871428D01*
X23374285Y39909523D01*
X23374285Y39985714D01*
X23393333Y40023809D01*
X23431428Y40042857D01*
X23469523Y40042857D01*
X23507619Y39852380D01*
X23640952Y40214285D02*
X23374285Y40214285D01*
X23450476Y40214285D02*
X23412380Y40233333D01*
X23393333Y40252380D01*
X23374285Y40290476D01*
X23374285Y40328571D01*
X26621904Y39753571D02*
X26488571Y39753571D01*
X26488571Y39544047D02*
X26488571Y39944047D01*
X26679047Y39944047D01*
X26983809Y39563095D02*
X26945714Y39544047D01*
X26869523Y39544047D01*
X26831428Y39563095D01*
X26812380Y39601190D01*
X26812380Y39753571D01*
X26831428Y39791666D01*
X26869523Y39810714D01*
X26945714Y39810714D01*
X26983809Y39791666D01*
X27002857Y39753571D01*
X27002857Y39715476D01*
X26812380Y39677380D01*
X27174285Y39544047D02*
X27174285Y39810714D01*
X27174285Y39734523D02*
X27193333Y39772619D01*
X27212380Y39791666D01*
X27250476Y39810714D01*
X27288571Y39810714D01*
X12721904Y39753571D02*
X12588571Y39753571D01*
X12588571Y39544047D02*
X12588571Y39944047D01*
X12779047Y39944047D01*
X13083809Y39563095D02*
X13045714Y39544047D01*
X12969523Y39544047D01*
X12931428Y39563095D01*
X12912380Y39601190D01*
X12912380Y39753571D01*
X12931428Y39791666D01*
X12969523Y39810714D01*
X13045714Y39810714D01*
X13083809Y39791666D01*
X13102857Y39753571D01*
X13102857Y39715476D01*
X12912380Y39677380D01*
X13274285Y39544047D02*
X13274285Y39810714D01*
X13274285Y39734523D02*
X13293333Y39772619D01*
X13312380Y39791666D01*
X13350476Y39810714D01*
X13388571Y39810714D01*
X23431428Y39661904D02*
X23431428Y39528571D01*
X23640952Y39528571D02*
X23240952Y39528571D01*
X23240952Y39719047D01*
X23621904Y40023809D02*
X23640952Y39985714D01*
X23640952Y39909523D01*
X23621904Y39871428D01*
X23583809Y39852380D01*
X23431428Y39852380D01*
X23393333Y39871428D01*
X23374285Y39909523D01*
X23374285Y39985714D01*
X23393333Y40023809D01*
X23431428Y40042857D01*
X23469523Y40042857D01*
X23507619Y39852380D01*
X23640952Y40214285D02*
X23374285Y40214285D01*
X23450476Y40214285D02*
X23412380Y40233333D01*
X23393333Y40252380D01*
X23374285Y40290476D01*
X23374285Y40328571D01*
D12*
X9913452Y24052857D02*
X9865833Y24005238D01*
X9722976Y23957619D01*
X9627738Y23957619D01*
X9484880Y24005238D01*
X9389642Y24100476D01*
X9342023Y24195714D01*
X9294404Y24386190D01*
X9294404Y24529047D01*
X9342023Y24719523D01*
X9389642Y24814761D01*
X9484880Y24910000D01*
X9627738Y24957619D01*
X9722976Y24957619D01*
X9865833Y24910000D01*
X9913452Y24862380D01*
X10484880Y23957619D02*
X10389642Y24005238D01*
X10342023Y24052857D01*
X10294404Y24148095D01*
X10294404Y24433809D01*
X10342023Y24529047D01*
X10389642Y24576666D01*
X10484880Y24624285D01*
X10627738Y24624285D01*
X10722976Y24576666D01*
X10770595Y24529047D01*
X10818214Y24433809D01*
X10818214Y24148095D01*
X10770595Y24052857D01*
X10722976Y24005238D01*
X10627738Y23957619D01*
X10484880Y23957619D01*
X11770595Y23957619D02*
X11199166Y23957619D01*
X11484880Y23957619D02*
X11484880Y24957619D01*
X11389642Y24814761D01*
X11294404Y24719523D01*
X11199166Y24671904D01*
D15*
X5930357Y24587380D02*
X5949404Y24568333D01*
X5968452Y24511190D01*
X5968452Y24473095D01*
X5949404Y24415952D01*
X5911309Y24377857D01*
X5873214Y24358809D01*
X5797023Y24339761D01*
X5739880Y24339761D01*
X5663690Y24358809D01*
X5625595Y24377857D01*
X5587500Y24415952D01*
X5568452Y24473095D01*
X5568452Y24511190D01*
X5587500Y24568333D01*
X5606547Y24587380D01*
X5968452Y24815952D02*
X5949404Y24777857D01*
X5930357Y24758809D01*
X5892261Y24739761D01*
X5777976Y24739761D01*
X5739880Y24758809D01*
X5720833Y24777857D01*
X5701785Y24815952D01*
X5701785Y24873095D01*
X5720833Y24911190D01*
X5739880Y24930238D01*
X5777976Y24949285D01*
X5892261Y24949285D01*
X5930357Y24930238D01*
X5949404Y24911190D01*
X5968452Y24873095D01*
X5968452Y24815952D01*
X5606547Y25101666D02*
X5587500Y25120714D01*
X5568452Y25158809D01*
X5568452Y25254047D01*
X5587500Y25292142D01*
X5606547Y25311190D01*
X5644642Y25330238D01*
X5682738Y25330238D01*
X5739880Y25311190D01*
X5968452Y25082619D01*
X5968452Y25330238D01*
X15125357Y26623809D02*
X15144404Y26604761D01*
X15163452Y26547619D01*
X15163452Y26509523D01*
X15144404Y26452380D01*
X15106309Y26414285D01*
X15068214Y26395238D01*
X14992023Y26376190D01*
X14934880Y26376190D01*
X14858690Y26395238D01*
X14820595Y26414285D01*
X14782500Y26452380D01*
X14763452Y26509523D01*
X14763452Y26547619D01*
X14782500Y26604761D01*
X14801547Y26623809D01*
X15163452Y26795238D02*
X14763452Y26795238D01*
X14763452Y26890476D01*
X14782500Y26947619D01*
X14820595Y26985714D01*
X14858690Y27004761D01*
X14934880Y27023809D01*
X14992023Y27023809D01*
X15068214Y27004761D01*
X15106309Y26985714D01*
X15144404Y26947619D01*
X15163452Y26890476D01*
X15163452Y26795238D01*
X15163452Y27195238D02*
X14763452Y27195238D01*
X14763452Y27290476D01*
X14782500Y27347619D01*
X14820595Y27385714D01*
X14858690Y27404761D01*
X14934880Y27423809D01*
X14992023Y27423809D01*
X15068214Y27404761D01*
X15106309Y27385714D01*
X15144404Y27347619D01*
X15163452Y27290476D01*
X15163452Y27195238D01*
X18761071Y18597142D02*
X18742023Y18578095D01*
X18684880Y18559047D01*
X18646785Y18559047D01*
X18589642Y18578095D01*
X18551547Y18616190D01*
X18532500Y18654285D01*
X18513452Y18730476D01*
X18513452Y18787619D01*
X18532500Y18863809D01*
X18551547Y18901904D01*
X18589642Y18940000D01*
X18646785Y18959047D01*
X18684880Y18959047D01*
X18742023Y18940000D01*
X18761071Y18920952D01*
X18932500Y18559047D02*
X18932500Y18825714D01*
X18932500Y18959047D02*
X18913452Y18940000D01*
X18932500Y18920952D01*
X18951547Y18940000D01*
X18932500Y18959047D01*
X18932500Y18920952D01*
X16463452Y19261428D02*
X16272976Y19128095D01*
X16463452Y19032857D02*
X16063452Y19032857D01*
X16063452Y19185238D01*
X16082500Y19223333D01*
X16101547Y19242380D01*
X16139642Y19261428D01*
X16196785Y19261428D01*
X16234880Y19242380D01*
X16253928Y19223333D01*
X16272976Y19185238D01*
X16272976Y19032857D01*
X16444404Y19585238D02*
X16463452Y19547142D01*
X16463452Y19470952D01*
X16444404Y19432857D01*
X16406309Y19413809D01*
X16253928Y19413809D01*
X16215833Y19432857D01*
X16196785Y19470952D01*
X16196785Y19547142D01*
X16215833Y19585238D01*
X16253928Y19604285D01*
X16292023Y19604285D01*
X16330119Y19413809D01*
X16196785Y19775714D02*
X16463452Y19775714D01*
X16234880Y19775714D02*
X16215833Y19794761D01*
X16196785Y19832857D01*
X16196785Y19890000D01*
X16215833Y19928095D01*
X16253928Y19947142D01*
X16463452Y19947142D01*
X16463452Y19261428D02*
X16272976Y19128095D01*
X16463452Y19032857D02*
X16063452Y19032857D01*
X16063452Y19185238D01*
X16082500Y19223333D01*
X16101547Y19242380D01*
X16139642Y19261428D01*
X16196785Y19261428D01*
X16234880Y19242380D01*
X16253928Y19223333D01*
X16272976Y19185238D01*
X16272976Y19032857D01*
X16444404Y19585238D02*
X16463452Y19547142D01*
X16463452Y19470952D01*
X16444404Y19432857D01*
X16406309Y19413809D01*
X16253928Y19413809D01*
X16215833Y19432857D01*
X16196785Y19470952D01*
X16196785Y19547142D01*
X16215833Y19585238D01*
X16253928Y19604285D01*
X16292023Y19604285D01*
X16330119Y19413809D01*
X16196785Y19775714D02*
X16463452Y19775714D01*
X16234880Y19775714D02*
X16215833Y19794761D01*
X16196785Y19832857D01*
X16196785Y19890000D01*
X16215833Y19928095D01*
X16253928Y19947142D01*
X16463452Y19947142D01*
X14963452Y23583809D02*
X14772976Y23450476D01*
X14963452Y23355238D02*
X14563452Y23355238D01*
X14563452Y23507619D01*
X14582500Y23545714D01*
X14601547Y23564761D01*
X14639642Y23583809D01*
X14696785Y23583809D01*
X14734880Y23564761D01*
X14753928Y23545714D01*
X14772976Y23507619D01*
X14772976Y23355238D01*
X14963452Y23755238D02*
X14563452Y23755238D01*
X14563452Y23850476D01*
X14582500Y23907619D01*
X14620595Y23945714D01*
X14658690Y23964761D01*
X14734880Y23983809D01*
X14792023Y23983809D01*
X14868214Y23964761D01*
X14906309Y23945714D01*
X14944404Y23907619D01*
X14963452Y23850476D01*
X14963452Y23755238D01*
X14963452Y24155238D02*
X14563452Y24155238D01*
X14563452Y24250476D01*
X14582500Y24307619D01*
X14620595Y24345714D01*
X14658690Y24364761D01*
X14734880Y24383809D01*
X14792023Y24383809D01*
X14868214Y24364761D01*
X14906309Y24345714D01*
X14944404Y24307619D01*
X14963452Y24250476D01*
X14963452Y24155238D01*
X19913452Y29142380D02*
X19722976Y29009047D01*
X19913452Y28913809D02*
X19513452Y28913809D01*
X19513452Y29066190D01*
X19532500Y29104285D01*
X19551547Y29123333D01*
X19589642Y29142380D01*
X19646785Y29142380D01*
X19684880Y29123333D01*
X19703928Y29104285D01*
X19722976Y29066190D01*
X19722976Y28913809D01*
X19646785Y29485238D02*
X19970595Y29485238D01*
X20008690Y29466190D01*
X20027738Y29447142D01*
X20046785Y29409047D01*
X20046785Y29351904D01*
X20027738Y29313809D01*
X19894404Y29485238D02*
X19913452Y29447142D01*
X19913452Y29370952D01*
X19894404Y29332857D01*
X19875357Y29313809D01*
X19837261Y29294761D01*
X19722976Y29294761D01*
X19684880Y29313809D01*
X19665833Y29332857D01*
X19646785Y29370952D01*
X19646785Y29447142D01*
X19665833Y29485238D01*
X19551547Y29656666D02*
X19532500Y29675714D01*
X19513452Y29713809D01*
X19513452Y29809047D01*
X19532500Y29847142D01*
X19551547Y29866190D01*
X19589642Y29885238D01*
X19627738Y29885238D01*
X19684880Y29866190D01*
X19913452Y29637619D01*
X19913452Y29885238D01*
X18368452Y29142380D02*
X18177976Y29009047D01*
X18368452Y28913809D02*
X17968452Y28913809D01*
X17968452Y29066190D01*
X17987500Y29104285D01*
X18006547Y29123333D01*
X18044642Y29142380D01*
X18101785Y29142380D01*
X18139880Y29123333D01*
X18158928Y29104285D01*
X18177976Y29066190D01*
X18177976Y28913809D01*
X18101785Y29485238D02*
X18425595Y29485238D01*
X18463690Y29466190D01*
X18482738Y29447142D01*
X18501785Y29409047D01*
X18501785Y29351904D01*
X18482738Y29313809D01*
X18349404Y29485238D02*
X18368452Y29447142D01*
X18368452Y29370952D01*
X18349404Y29332857D01*
X18330357Y29313809D01*
X18292261Y29294761D01*
X18177976Y29294761D01*
X18139880Y29313809D01*
X18120833Y29332857D01*
X18101785Y29370952D01*
X18101785Y29447142D01*
X18120833Y29485238D01*
X18368452Y29885238D02*
X18368452Y29656666D01*
X18368452Y29770952D02*
X17968452Y29770952D01*
X18025595Y29732857D01*
X18063690Y29694761D01*
X18082738Y29656666D01*
D12*
X-22632857Y23142380D02*
X-22728095Y23190000D01*
X-22823333Y23285238D01*
X-22966190Y23428095D01*
X-23061428Y23475714D01*
X-23156666Y23475714D01*
X-23109047Y23237619D02*
X-23204285Y23285238D01*
X-23299523Y23380476D01*
X-23347142Y23570952D01*
X-23347142Y23904285D01*
X-23299523Y24094761D01*
X-23204285Y24190000D01*
X-23109047Y24237619D01*
X-22918571Y24237619D01*
X-22823333Y24190000D01*
X-22728095Y24094761D01*
X-22680476Y23904285D01*
X-22680476Y23570952D01*
X-22728095Y23380476D01*
X-22823333Y23285238D01*
X-22918571Y23237619D01*
X-23109047Y23237619D01*
X-22299523Y23285238D02*
X-22156666Y23237619D01*
X-21918571Y23237619D01*
X-21823333Y23285238D01*
X-21775714Y23332857D01*
X-21728095Y23428095D01*
X-21728095Y23523333D01*
X-21775714Y23618571D01*
X-21823333Y23666190D01*
X-21918571Y23713809D01*
X-22109047Y23761428D01*
X-22204285Y23809047D01*
X-22251904Y23856666D01*
X-22299523Y23951904D01*
X-22299523Y24047142D01*
X-22251904Y24142380D01*
X-22204285Y24190000D01*
X-22109047Y24237619D01*
X-21870952Y24237619D01*
X-21728095Y24190000D01*
X-21394761Y24237619D02*
X-21156666Y23237619D01*
X-20966190Y23951904D01*
X-20775714Y23237619D01*
X-20537619Y24237619D01*
X-20204285Y24142380D02*
X-20156666Y24190000D01*
X-20061428Y24237619D01*
X-19823333Y24237619D01*
X-19728095Y24190000D01*
X-19680476Y24142380D01*
X-19632857Y24047142D01*
X-19632857Y23951904D01*
X-19680476Y23809047D01*
X-20251904Y23237619D01*
X-19632857Y23237619D01*
D15*
X-22359047Y29562380D02*
X-22549523Y29429047D01*
X-22359047Y29333809D02*
X-22759047Y29333809D01*
X-22759047Y29486190D01*
X-22740000Y29524285D01*
X-22720952Y29543333D01*
X-22682857Y29562380D01*
X-22625714Y29562380D01*
X-22587619Y29543333D01*
X-22568571Y29524285D01*
X-22549523Y29486190D01*
X-22549523Y29333809D01*
X-22625714Y29905238D02*
X-22301904Y29905238D01*
X-22263809Y29886190D01*
X-22244761Y29867142D01*
X-22225714Y29829047D01*
X-22225714Y29771904D01*
X-22244761Y29733809D01*
X-22378095Y29905238D02*
X-22359047Y29867142D01*
X-22359047Y29790952D01*
X-22378095Y29752857D01*
X-22397142Y29733809D01*
X-22435238Y29714761D01*
X-22549523Y29714761D01*
X-22587619Y29733809D01*
X-22606666Y29752857D01*
X-22625714Y29790952D01*
X-22625714Y29867142D01*
X-22606666Y29905238D01*
X-22359047Y30305238D02*
X-22359047Y30076666D01*
X-22359047Y30190952D02*
X-22759047Y30190952D01*
X-22701904Y30152857D01*
X-22663809Y30114761D01*
X-22644761Y30076666D01*
X-20179047Y29532380D02*
X-20369523Y29399047D01*
X-20179047Y29303809D02*
X-20579047Y29303809D01*
X-20579047Y29456190D01*
X-20560000Y29494285D01*
X-20540952Y29513333D01*
X-20502857Y29532380D01*
X-20445714Y29532380D01*
X-20407619Y29513333D01*
X-20388571Y29494285D01*
X-20369523Y29456190D01*
X-20369523Y29303809D01*
X-20445714Y29875238D02*
X-20121904Y29875238D01*
X-20083809Y29856190D01*
X-20064761Y29837142D01*
X-20045714Y29799047D01*
X-20045714Y29741904D01*
X-20064761Y29703809D01*
X-20198095Y29875238D02*
X-20179047Y29837142D01*
X-20179047Y29760952D01*
X-20198095Y29722857D01*
X-20217142Y29703809D01*
X-20255238Y29684761D01*
X-20369523Y29684761D01*
X-20407619Y29703809D01*
X-20426666Y29722857D01*
X-20445714Y29760952D01*
X-20445714Y29837142D01*
X-20426666Y29875238D01*
X-20540952Y30046666D02*
X-20560000Y30065714D01*
X-20579047Y30103809D01*
X-20579047Y30199047D01*
X-20560000Y30237142D01*
X-20540952Y30256190D01*
X-20502857Y30275238D01*
X-20464761Y30275238D01*
X-20407619Y30256190D01*
X-20179047Y30027619D01*
X-20179047Y30275238D01*
X-24199047Y29183809D02*
X-24389523Y29050476D01*
X-24199047Y28955238D02*
X-24599047Y28955238D01*
X-24599047Y29107619D01*
X-24580000Y29145714D01*
X-24560952Y29164761D01*
X-24522857Y29183809D01*
X-24465714Y29183809D01*
X-24427619Y29164761D01*
X-24408571Y29145714D01*
X-24389523Y29107619D01*
X-24389523Y28955238D01*
X-24199047Y29355238D02*
X-24599047Y29355238D01*
X-24599047Y29450476D01*
X-24580000Y29507619D01*
X-24541904Y29545714D01*
X-24503809Y29564761D01*
X-24427619Y29583809D01*
X-24370476Y29583809D01*
X-24294285Y29564761D01*
X-24256190Y29545714D01*
X-24218095Y29507619D01*
X-24199047Y29450476D01*
X-24199047Y29355238D01*
X-24199047Y29755238D02*
X-24599047Y29755238D01*
X-24599047Y29850476D01*
X-24580000Y29907619D01*
X-24541904Y29945714D01*
X-24503809Y29964761D01*
X-24427619Y29983809D01*
X-24370476Y29983809D01*
X-24294285Y29964761D01*
X-24256190Y29945714D01*
X-24218095Y29907619D01*
X-24199047Y29850476D01*
X-24199047Y29755238D01*
X-23759047Y19261428D02*
X-23949523Y19128095D01*
X-23759047Y19032857D02*
X-24159047Y19032857D01*
X-24159047Y19185238D01*
X-24140000Y19223333D01*
X-24120952Y19242380D01*
X-24082857Y19261428D01*
X-24025714Y19261428D01*
X-23987619Y19242380D01*
X-23968571Y19223333D01*
X-23949523Y19185238D01*
X-23949523Y19032857D01*
X-23778095Y19585238D02*
X-23759047Y19547142D01*
X-23759047Y19470952D01*
X-23778095Y19432857D01*
X-23816190Y19413809D01*
X-23968571Y19413809D01*
X-24006666Y19432857D01*
X-24025714Y19470952D01*
X-24025714Y19547142D01*
X-24006666Y19585238D01*
X-23968571Y19604285D01*
X-23930476Y19604285D01*
X-23892380Y19413809D01*
X-24025714Y19775714D02*
X-23759047Y19775714D01*
X-23987619Y19775714D02*
X-24006666Y19794761D01*
X-24025714Y19832857D01*
X-24025714Y19890000D01*
X-24006666Y19928095D01*
X-23968571Y19947142D01*
X-23759047Y19947142D01*
X-24120952Y19718571D02*
X-23930476Y19851904D01*
X-24120952Y19947142D02*
X-23720952Y19947142D01*
X-23720952Y19794761D01*
X-23740000Y19756666D01*
X-23759047Y19737619D01*
X-23797142Y19718571D01*
X-23854285Y19718571D01*
X-23892380Y19737619D01*
X-23911428Y19756666D01*
X-23930476Y19794761D01*
X-23930476Y19947142D01*
X-24101904Y19394761D02*
X-24120952Y19432857D01*
X-24120952Y19509047D01*
X-24101904Y19547142D01*
X-24063809Y19566190D01*
X-23911428Y19566190D01*
X-23873333Y19547142D01*
X-23854285Y19509047D01*
X-23854285Y19432857D01*
X-23873333Y19394761D01*
X-23911428Y19375714D01*
X-23949523Y19375714D01*
X-23987619Y19566190D01*
X-23854285Y19204285D02*
X-24120952Y19204285D01*
X-23892380Y19204285D02*
X-23873333Y19185238D01*
X-23854285Y19147142D01*
X-23854285Y19090000D01*
X-23873333Y19051904D01*
X-23911428Y19032857D01*
X-24120952Y19032857D01*
X-21461428Y19597142D02*
X-21480476Y19578095D01*
X-21537619Y19559047D01*
X-21575714Y19559047D01*
X-21632857Y19578095D01*
X-21670952Y19616190D01*
X-21690000Y19654285D01*
X-21709047Y19730476D01*
X-21709047Y19787619D01*
X-21690000Y19863809D01*
X-21670952Y19901904D01*
X-21632857Y19940000D01*
X-21575714Y19959047D01*
X-21537619Y19959047D01*
X-21480476Y19940000D01*
X-21461428Y19920952D01*
X-21290000Y19559047D02*
X-21290000Y19825714D01*
X-21290000Y19959047D02*
X-21309047Y19940000D01*
X-21290000Y19920952D01*
X-21270952Y19940000D01*
X-21290000Y19959047D01*
X-21290000Y19920952D01*
X-25901190Y26932142D02*
X-25920238Y26913095D01*
X-25977380Y26894047D01*
X-26015476Y26894047D01*
X-26072619Y26913095D01*
X-26110714Y26951190D01*
X-26129761Y26989285D01*
X-26148809Y27065476D01*
X-26148809Y27122619D01*
X-26129761Y27198809D01*
X-26110714Y27236904D01*
X-26072619Y27275000D01*
X-26015476Y27294047D01*
X-25977380Y27294047D01*
X-25920238Y27275000D01*
X-25901190Y27255952D01*
X-25729761Y26894047D02*
X-25729761Y27294047D01*
X-25634523Y27294047D01*
X-25577380Y27275000D01*
X-25539285Y27236904D01*
X-25520238Y27198809D01*
X-25501190Y27122619D01*
X-25501190Y27065476D01*
X-25520238Y26989285D01*
X-25539285Y26951190D01*
X-25577380Y26913095D01*
X-25634523Y26894047D01*
X-25729761Y26894047D01*
X-25329761Y26894047D02*
X-25329761Y27294047D01*
X-25234523Y27294047D01*
X-25177380Y27275000D01*
X-25139285Y27236904D01*
X-25120238Y27198809D01*
X-25101190Y27122619D01*
X-25101190Y27065476D01*
X-25120238Y26989285D01*
X-25139285Y26951190D01*
X-25177380Y26913095D01*
X-25234523Y26894047D01*
X-25329761Y26894047D01*
X-30417619Y26967142D02*
X-30436666Y26948095D01*
X-30493809Y26929047D01*
X-30531904Y26929047D01*
X-30589047Y26948095D01*
X-30627142Y26986190D01*
X-30646190Y27024285D01*
X-30665238Y27100476D01*
X-30665238Y27157619D01*
X-30646190Y27233809D01*
X-30627142Y27271904D01*
X-30589047Y27310000D01*
X-30531904Y27329047D01*
X-30493809Y27329047D01*
X-30436666Y27310000D01*
X-30417619Y27290952D01*
X-30189047Y26929047D02*
X-30227142Y26948095D01*
X-30246190Y26967142D01*
X-30265238Y27005238D01*
X-30265238Y27119523D01*
X-30246190Y27157619D01*
X-30227142Y27176666D01*
X-30189047Y27195714D01*
X-30131904Y27195714D01*
X-30093809Y27176666D01*
X-30074761Y27157619D01*
X-30055714Y27119523D01*
X-30055714Y27005238D01*
X-30074761Y26967142D01*
X-30093809Y26948095D01*
X-30131904Y26929047D01*
X-30189047Y26929047D01*
X-29903333Y27290952D02*
X-29884285Y27310000D01*
X-29846190Y27329047D01*
X-29750952Y27329047D01*
X-29712857Y27310000D01*
X-29693809Y27290952D01*
X-29674761Y27252857D01*
X-29674761Y27214761D01*
X-29693809Y27157619D01*
X-29922380Y26929047D01*
X-29674761Y26929047D01*
D12*
X-29242857Y29880952D02*
X-29195238Y29833333D01*
X-29147619Y29690476D01*
X-29147619Y29595238D01*
X-29195238Y29452380D01*
X-29290476Y29357142D01*
X-29385714Y29309523D01*
X-29576190Y29261904D01*
X-29719047Y29261904D01*
X-29909523Y29309523D01*
X-30004761Y29357142D01*
X-30100000Y29452380D01*
X-30147619Y29595238D01*
X-30147619Y29690476D01*
X-30100000Y29833333D01*
X-30052380Y29880952D01*
X-29147619Y30452380D02*
X-29195238Y30357142D01*
X-29242857Y30309523D01*
X-29338095Y30261904D01*
X-29623809Y30261904D01*
X-29719047Y30309523D01*
X-29766666Y30357142D01*
X-29814285Y30452380D01*
X-29814285Y30595238D01*
X-29766666Y30690476D01*
X-29719047Y30738095D01*
X-29623809Y30785714D01*
X-29338095Y30785714D01*
X-29242857Y30738095D01*
X-29195238Y30690476D01*
X-29147619Y30595238D01*
X-29147619Y30452380D01*
X-29147619Y31738095D02*
X-29147619Y31166666D01*
X-29147619Y31452380D02*
X-30147619Y31452380D01*
X-30004761Y31357142D01*
X-29909523Y31261904D01*
X-29861904Y31166666D01*
D15*
X-28618571Y39661904D02*
X-28618571Y39528571D01*
X-28409047Y39528571D02*
X-28809047Y39528571D01*
X-28809047Y39719047D01*
X-28428095Y40023809D02*
X-28409047Y39985714D01*
X-28409047Y39909523D01*
X-28428095Y39871428D01*
X-28466190Y39852380D01*
X-28618571Y39852380D01*
X-28656666Y39871428D01*
X-28675714Y39909523D01*
X-28675714Y39985714D01*
X-28656666Y40023809D01*
X-28618571Y40042857D01*
X-28580476Y40042857D01*
X-28542380Y39852380D01*
X-28409047Y40214285D02*
X-28675714Y40214285D01*
X-28599523Y40214285D02*
X-28637619Y40233333D01*
X-28656666Y40252380D01*
X-28675714Y40290476D01*
X-28675714Y40328571D01*
X-11428095Y39753571D02*
X-11561428Y39753571D01*
X-11561428Y39544047D02*
X-11561428Y39944047D01*
X-11370952Y39944047D01*
X-11066190Y39563095D02*
X-11104285Y39544047D01*
X-11180476Y39544047D01*
X-11218571Y39563095D01*
X-11237619Y39601190D01*
X-11237619Y39753571D01*
X-11218571Y39791666D01*
X-11180476Y39810714D01*
X-11104285Y39810714D01*
X-11066190Y39791666D01*
X-11047142Y39753571D01*
X-11047142Y39715476D01*
X-11237619Y39677380D01*
X-10875714Y39544047D02*
X-10875714Y39810714D01*
X-10875714Y39734523D02*
X-10856666Y39772619D01*
X-10837619Y39791666D01*
X-10799523Y39810714D01*
X-10761428Y39810714D01*
X-25428095Y39753571D02*
X-25561428Y39753571D01*
X-25561428Y39544047D02*
X-25561428Y39944047D01*
X-25370952Y39944047D01*
X-25066190Y39563095D02*
X-25104285Y39544047D01*
X-25180476Y39544047D01*
X-25218571Y39563095D01*
X-25237619Y39601190D01*
X-25237619Y39753571D01*
X-25218571Y39791666D01*
X-25180476Y39810714D01*
X-25104285Y39810714D01*
X-25066190Y39791666D01*
X-25047142Y39753571D01*
X-25047142Y39715476D01*
X-25237619Y39677380D01*
X-24875714Y39544047D02*
X-24875714Y39810714D01*
X-24875714Y39734523D02*
X-24856666Y39772619D01*
X-24837619Y39791666D01*
X-24799523Y39810714D01*
X-24761428Y39810714D01*
X-28618571Y39661904D02*
X-28618571Y39528571D01*
X-28409047Y39528571D02*
X-28809047Y39528571D01*
X-28809047Y39719047D01*
X-28428095Y40023809D02*
X-28409047Y39985714D01*
X-28409047Y39909523D01*
X-28428095Y39871428D01*
X-28466190Y39852380D01*
X-28618571Y39852380D01*
X-28656666Y39871428D01*
X-28675714Y39909523D01*
X-28675714Y39985714D01*
X-28656666Y40023809D01*
X-28618571Y40042857D01*
X-28580476Y40042857D01*
X-28542380Y39852380D01*
X-28409047Y40214285D02*
X-28675714Y40214285D01*
X-28599523Y40214285D02*
X-28637619Y40233333D01*
X-28656666Y40252380D01*
X-28675714Y40290476D01*
X-28675714Y40328571D01*
D12*
X-17752857Y-24237619D02*
X-17848095Y-24190000D01*
X-17943333Y-24094761D01*
X-18086190Y-23951904D01*
X-18181428Y-23904285D01*
X-18276666Y-23904285D01*
X-18229047Y-24142380D02*
X-18324285Y-24094761D01*
X-18419523Y-23999523D01*
X-18467142Y-23809047D01*
X-18467142Y-23475714D01*
X-18419523Y-23285238D01*
X-18324285Y-23190000D01*
X-18229047Y-23142380D01*
X-18038571Y-23142380D01*
X-17943333Y-23190000D01*
X-17848095Y-23285238D01*
X-17800476Y-23475714D01*
X-17800476Y-23809047D01*
X-17848095Y-23999523D01*
X-17943333Y-24094761D01*
X-18038571Y-24142380D01*
X-18229047Y-24142380D01*
X-17419523Y-24094761D02*
X-17276666Y-24142380D01*
X-17038571Y-24142380D01*
X-16943333Y-24094761D01*
X-16895714Y-24047142D01*
X-16848095Y-23951904D01*
X-16848095Y-23856666D01*
X-16895714Y-23761428D01*
X-16943333Y-23713809D01*
X-17038571Y-23666190D01*
X-17229047Y-23618571D01*
X-17324285Y-23570952D01*
X-17371904Y-23523333D01*
X-17419523Y-23428095D01*
X-17419523Y-23332857D01*
X-17371904Y-23237619D01*
X-17324285Y-23190000D01*
X-17229047Y-23142380D01*
X-16990952Y-23142380D01*
X-16848095Y-23190000D01*
X-16514761Y-23142380D02*
X-16276666Y-24142380D01*
X-16086190Y-23428095D01*
X-15895714Y-24142380D01*
X-15657619Y-23142380D01*
X-14752857Y-24142380D02*
X-15324285Y-24142380D01*
X-15038571Y-24142380D02*
X-15038571Y-23142380D01*
X-15133809Y-23285238D01*
X-15229047Y-23380476D01*
X-15324285Y-23428095D01*
D15*
X-15379047Y-30057619D02*
X-15569523Y-30190952D01*
X-15379047Y-30286190D02*
X-15779047Y-30286190D01*
X-15779047Y-30133809D01*
X-15760000Y-30095714D01*
X-15740952Y-30076666D01*
X-15702857Y-30057619D01*
X-15645714Y-30057619D01*
X-15607619Y-30076666D01*
X-15588571Y-30095714D01*
X-15569523Y-30133809D01*
X-15569523Y-30286190D01*
X-15645714Y-29714761D02*
X-15321904Y-29714761D01*
X-15283809Y-29733809D01*
X-15264761Y-29752857D01*
X-15245714Y-29790952D01*
X-15245714Y-29848095D01*
X-15264761Y-29886190D01*
X-15398095Y-29714761D02*
X-15379047Y-29752857D01*
X-15379047Y-29829047D01*
X-15398095Y-29867142D01*
X-15417142Y-29886190D01*
X-15455238Y-29905238D01*
X-15569523Y-29905238D01*
X-15607619Y-29886190D01*
X-15626666Y-29867142D01*
X-15645714Y-29829047D01*
X-15645714Y-29752857D01*
X-15626666Y-29714761D01*
X-15379047Y-29314761D02*
X-15379047Y-29543333D01*
X-15379047Y-29429047D02*
X-15779047Y-29429047D01*
X-15721904Y-29467142D01*
X-15683809Y-29505238D01*
X-15664761Y-29543333D01*
X-17559047Y-30027619D02*
X-17749523Y-30160952D01*
X-17559047Y-30256190D02*
X-17959047Y-30256190D01*
X-17959047Y-30103809D01*
X-17940000Y-30065714D01*
X-17920952Y-30046666D01*
X-17882857Y-30027619D01*
X-17825714Y-30027619D01*
X-17787619Y-30046666D01*
X-17768571Y-30065714D01*
X-17749523Y-30103809D01*
X-17749523Y-30256190D01*
X-17825714Y-29684761D02*
X-17501904Y-29684761D01*
X-17463809Y-29703809D01*
X-17444761Y-29722857D01*
X-17425714Y-29760952D01*
X-17425714Y-29818095D01*
X-17444761Y-29856190D01*
X-17578095Y-29684761D02*
X-17559047Y-29722857D01*
X-17559047Y-29799047D01*
X-17578095Y-29837142D01*
X-17597142Y-29856190D01*
X-17635238Y-29875238D01*
X-17749523Y-29875238D01*
X-17787619Y-29856190D01*
X-17806666Y-29837142D01*
X-17825714Y-29799047D01*
X-17825714Y-29722857D01*
X-17806666Y-29684761D01*
X-17920952Y-29513333D02*
X-17940000Y-29494285D01*
X-17959047Y-29456190D01*
X-17959047Y-29360952D01*
X-17940000Y-29322857D01*
X-17920952Y-29303809D01*
X-17882857Y-29284761D01*
X-17844761Y-29284761D01*
X-17787619Y-29303809D01*
X-17559047Y-29532380D01*
X-17559047Y-29284761D01*
X-13539047Y-29736190D02*
X-13729523Y-29869523D01*
X-13539047Y-29964761D02*
X-13939047Y-29964761D01*
X-13939047Y-29812380D01*
X-13920000Y-29774285D01*
X-13900952Y-29755238D01*
X-13862857Y-29736190D01*
X-13805714Y-29736190D01*
X-13767619Y-29755238D01*
X-13748571Y-29774285D01*
X-13729523Y-29812380D01*
X-13729523Y-29964761D01*
X-13539047Y-29564761D02*
X-13939047Y-29564761D01*
X-13939047Y-29469523D01*
X-13920000Y-29412380D01*
X-13881904Y-29374285D01*
X-13843809Y-29355238D01*
X-13767619Y-29336190D01*
X-13710476Y-29336190D01*
X-13634285Y-29355238D01*
X-13596190Y-29374285D01*
X-13558095Y-29412380D01*
X-13539047Y-29469523D01*
X-13539047Y-29564761D01*
X-13539047Y-29164761D02*
X-13939047Y-29164761D01*
X-13939047Y-29069523D01*
X-13920000Y-29012380D01*
X-13881904Y-28974285D01*
X-13843809Y-28955238D01*
X-13767619Y-28936190D01*
X-13710476Y-28936190D01*
X-13634285Y-28955238D01*
X-13596190Y-28974285D01*
X-13558095Y-29012380D01*
X-13539047Y-29069523D01*
X-13539047Y-29164761D01*
X-13979047Y-19718571D02*
X-14169523Y-19851904D01*
X-13979047Y-19947142D02*
X-14379047Y-19947142D01*
X-14379047Y-19794761D01*
X-14360000Y-19756666D01*
X-14340952Y-19737619D01*
X-14302857Y-19718571D01*
X-14245714Y-19718571D01*
X-14207619Y-19737619D01*
X-14188571Y-19756666D01*
X-14169523Y-19794761D01*
X-14169523Y-19947142D01*
X-13998095Y-19394761D02*
X-13979047Y-19432857D01*
X-13979047Y-19509047D01*
X-13998095Y-19547142D01*
X-14036190Y-19566190D01*
X-14188571Y-19566190D01*
X-14226666Y-19547142D01*
X-14245714Y-19509047D01*
X-14245714Y-19432857D01*
X-14226666Y-19394761D01*
X-14188571Y-19375714D01*
X-14150476Y-19375714D01*
X-14112380Y-19566190D01*
X-14245714Y-19204285D02*
X-13979047Y-19204285D01*
X-14207619Y-19204285D02*
X-14226666Y-19185238D01*
X-14245714Y-19147142D01*
X-14245714Y-19090000D01*
X-14226666Y-19051904D01*
X-14188571Y-19032857D01*
X-13979047Y-19032857D01*
X-13979047Y-19718571D02*
X-14169523Y-19851904D01*
X-13979047Y-19947142D02*
X-14379047Y-19947142D01*
X-14379047Y-19794761D01*
X-14360000Y-19756666D01*
X-14340952Y-19737619D01*
X-14302857Y-19718571D01*
X-14245714Y-19718571D01*
X-14207619Y-19737619D01*
X-14188571Y-19756666D01*
X-14169523Y-19794761D01*
X-14169523Y-19947142D01*
X-13998095Y-19394761D02*
X-13979047Y-19432857D01*
X-13979047Y-19509047D01*
X-13998095Y-19547142D01*
X-14036190Y-19566190D01*
X-14188571Y-19566190D01*
X-14226666Y-19547142D01*
X-14245714Y-19509047D01*
X-14245714Y-19432857D01*
X-14226666Y-19394761D01*
X-14188571Y-19375714D01*
X-14150476Y-19375714D01*
X-14112380Y-19566190D01*
X-14245714Y-19204285D02*
X-13979047Y-19204285D01*
X-14207619Y-19204285D02*
X-14226666Y-19185238D01*
X-14245714Y-19147142D01*
X-14245714Y-19090000D01*
X-14226666Y-19051904D01*
X-14188571Y-19032857D01*
X-13979047Y-19032857D01*
X-17181428Y-20182857D02*
X-17200476Y-20201904D01*
X-17257619Y-20220952D01*
X-17295714Y-20220952D01*
X-17352857Y-20201904D01*
X-17390952Y-20163809D01*
X-17410000Y-20125714D01*
X-17429047Y-20049523D01*
X-17429047Y-19992380D01*
X-17410000Y-19916190D01*
X-17390952Y-19878095D01*
X-17352857Y-19840000D01*
X-17295714Y-19820952D01*
X-17257619Y-19820952D01*
X-17200476Y-19840000D01*
X-17181428Y-19859047D01*
X-17010000Y-20220952D02*
X-17010000Y-19954285D01*
X-17010000Y-19820952D02*
X-17029047Y-19840000D01*
X-17010000Y-19859047D01*
X-16990952Y-19840000D01*
X-17010000Y-19820952D01*
X-17010000Y-19859047D01*
X-12751190Y-27217857D02*
X-12770238Y-27236904D01*
X-12827380Y-27255952D01*
X-12865476Y-27255952D01*
X-12922619Y-27236904D01*
X-12960714Y-27198809D01*
X-12979761Y-27160714D01*
X-12998809Y-27084523D01*
X-12998809Y-27027380D01*
X-12979761Y-26951190D01*
X-12960714Y-26913095D01*
X-12922619Y-26875000D01*
X-12865476Y-26855952D01*
X-12827380Y-26855952D01*
X-12770238Y-26875000D01*
X-12751190Y-26894047D01*
X-12579761Y-27255952D02*
X-12579761Y-26855952D01*
X-12484523Y-26855952D01*
X-12427380Y-26875000D01*
X-12389285Y-26913095D01*
X-12370238Y-26951190D01*
X-12351190Y-27027380D01*
X-12351190Y-27084523D01*
X-12370238Y-27160714D01*
X-12389285Y-27198809D01*
X-12427380Y-27236904D01*
X-12484523Y-27255952D01*
X-12579761Y-27255952D01*
X-12179761Y-27255952D02*
X-12179761Y-26855952D01*
X-12084523Y-26855952D01*
X-12027380Y-26875000D01*
X-11989285Y-26913095D01*
X-11970238Y-26951190D01*
X-11951190Y-27027380D01*
X-11951190Y-27084523D01*
X-11970238Y-27160714D01*
X-11989285Y-27198809D01*
X-12027380Y-27236904D01*
X-12084523Y-27255952D01*
X-12179761Y-27255952D01*
X-8877619Y-27252857D02*
X-8896666Y-27271904D01*
X-8953809Y-27290952D01*
X-8991904Y-27290952D01*
X-9049047Y-27271904D01*
X-9087142Y-27233809D01*
X-9106190Y-27195714D01*
X-9125238Y-27119523D01*
X-9125238Y-27062380D01*
X-9106190Y-26986190D01*
X-9087142Y-26948095D01*
X-9049047Y-26910000D01*
X-8991904Y-26890952D01*
X-8953809Y-26890952D01*
X-8896666Y-26910000D01*
X-8877619Y-26929047D01*
X-8649047Y-27290952D02*
X-8687142Y-27271904D01*
X-8706190Y-27252857D01*
X-8725238Y-27214761D01*
X-8725238Y-27100476D01*
X-8706190Y-27062380D01*
X-8687142Y-27043333D01*
X-8649047Y-27024285D01*
X-8591904Y-27024285D01*
X-8553809Y-27043333D01*
X-8534761Y-27062380D01*
X-8515714Y-27100476D01*
X-8515714Y-27214761D01*
X-8534761Y-27252857D01*
X-8553809Y-27271904D01*
X-8591904Y-27290952D01*
X-8649047Y-27290952D01*
X-8363333Y-26929047D02*
X-8344285Y-26910000D01*
X-8306190Y-26890952D01*
X-8210952Y-26890952D01*
X-8172857Y-26910000D01*
X-8153809Y-26929047D01*
X-8134761Y-26967142D01*
X-8134761Y-27005238D01*
X-8153809Y-27062380D01*
X-8382380Y-27290952D01*
X-8134761Y-27290952D01*
D12*
X-8142857Y-31119047D02*
X-8095238Y-31166666D01*
X-8047619Y-31309523D01*
X-8047619Y-31404761D01*
X-8095238Y-31547619D01*
X-8190476Y-31642857D01*
X-8285714Y-31690476D01*
X-8476190Y-31738095D01*
X-8619047Y-31738095D01*
X-8809523Y-31690476D01*
X-8904761Y-31642857D01*
X-9000000Y-31547619D01*
X-9047619Y-31404761D01*
X-9047619Y-31309523D01*
X-9000000Y-31166666D01*
X-8952380Y-31119047D01*
X-8047619Y-30547619D02*
X-8095238Y-30642857D01*
X-8142857Y-30690476D01*
X-8238095Y-30738095D01*
X-8523809Y-30738095D01*
X-8619047Y-30690476D01*
X-8666666Y-30642857D01*
X-8714285Y-30547619D01*
X-8714285Y-30404761D01*
X-8666666Y-30309523D01*
X-8619047Y-30261904D01*
X-8523809Y-30214285D01*
X-8238095Y-30214285D01*
X-8142857Y-30261904D01*
X-8095238Y-30309523D01*
X-8047619Y-30404761D01*
X-8047619Y-30547619D01*
X-8047619Y-29261904D02*
X-8047619Y-29833333D01*
X-8047619Y-29547619D02*
X-9047619Y-29547619D01*
X-8904761Y-29642857D01*
X-8809523Y-29738095D01*
X-8761904Y-29833333D01*
D15*
X-9538571Y-40138095D02*
X-9538571Y-40271428D01*
X-9329047Y-40271428D02*
X-9729047Y-40271428D01*
X-9729047Y-40080952D01*
X-9348095Y-39776190D02*
X-9329047Y-39814285D01*
X-9329047Y-39890476D01*
X-9348095Y-39928571D01*
X-9386190Y-39947619D01*
X-9538571Y-39947619D01*
X-9576666Y-39928571D01*
X-9595714Y-39890476D01*
X-9595714Y-39814285D01*
X-9576666Y-39776190D01*
X-9538571Y-39757142D01*
X-9500476Y-39757142D01*
X-9462380Y-39947619D01*
X-9329047Y-39585714D02*
X-9595714Y-39585714D01*
X-9519523Y-39585714D02*
X-9557619Y-39566666D01*
X-9576666Y-39547619D01*
X-9595714Y-39509523D01*
X-9595714Y-39471428D01*
X-27148095Y-39696428D02*
X-27281428Y-39696428D01*
X-27281428Y-39905952D02*
X-27281428Y-39505952D01*
X-27090952Y-39505952D01*
X-26786190Y-39886904D02*
X-26824285Y-39905952D01*
X-26900476Y-39905952D01*
X-26938571Y-39886904D01*
X-26957619Y-39848809D01*
X-26957619Y-39696428D01*
X-26938571Y-39658333D01*
X-26900476Y-39639285D01*
X-26824285Y-39639285D01*
X-26786190Y-39658333D01*
X-26767142Y-39696428D01*
X-26767142Y-39734523D01*
X-26957619Y-39772619D01*
X-26595714Y-39905952D02*
X-26595714Y-39639285D01*
X-26595714Y-39715476D02*
X-26576666Y-39677380D01*
X-26557619Y-39658333D01*
X-26519523Y-39639285D01*
X-26481428Y-39639285D01*
X-13148095Y-39696428D02*
X-13281428Y-39696428D01*
X-13281428Y-39905952D02*
X-13281428Y-39505952D01*
X-13090952Y-39505952D01*
X-12786190Y-39886904D02*
X-12824285Y-39905952D01*
X-12900476Y-39905952D01*
X-12938571Y-39886904D01*
X-12957619Y-39848809D01*
X-12957619Y-39696428D01*
X-12938571Y-39658333D01*
X-12900476Y-39639285D01*
X-12824285Y-39639285D01*
X-12786190Y-39658333D01*
X-12767142Y-39696428D01*
X-12767142Y-39734523D01*
X-12957619Y-39772619D01*
X-12595714Y-39905952D02*
X-12595714Y-39639285D01*
X-12595714Y-39715476D02*
X-12576666Y-39677380D01*
X-12557619Y-39658333D01*
X-12519523Y-39639285D01*
X-12481428Y-39639285D01*
X-9538571Y-40138095D02*
X-9538571Y-40271428D01*
X-9329047Y-40271428D02*
X-9729047Y-40271428D01*
X-9729047Y-40080952D01*
X-9348095Y-39776190D02*
X-9329047Y-39814285D01*
X-9329047Y-39890476D01*
X-9348095Y-39928571D01*
X-9386190Y-39947619D01*
X-9538571Y-39947619D01*
X-9576666Y-39928571D01*
X-9595714Y-39890476D01*
X-9595714Y-39814285D01*
X-9576666Y-39776190D01*
X-9538571Y-39757142D01*
X-9500476Y-39757142D01*
X-9462380Y-39947619D01*
X-9329047Y-39585714D02*
X-9595714Y-39585714D01*
X-9519523Y-39585714D02*
X-9557619Y-39566666D01*
X-9576666Y-39547619D01*
X-9595714Y-39509523D01*
X-9595714Y-39471428D01*
D12*
X20416666Y1642857D02*
X20369047Y1595238D01*
X20226190Y1547619D01*
X20130952Y1547619D01*
X19988095Y1595238D01*
X19892857Y1690476D01*
X19845238Y1785714D01*
X19797619Y1976190D01*
X19797619Y2119047D01*
X19845238Y2309523D01*
X19892857Y2404761D01*
X19988095Y2500000D01*
X20130952Y2547619D01*
X20226190Y2547619D01*
X20369047Y2500000D01*
X20416666Y2452380D01*
X20845238Y1547619D02*
X20845238Y2214285D01*
X20845238Y2119047D02*
X20892857Y2166666D01*
X20988095Y2214285D01*
X21130952Y2214285D01*
X21226190Y2166666D01*
X21273809Y2071428D01*
X21273809Y1547619D01*
X21273809Y2071428D02*
X21321428Y2166666D01*
X21416666Y2214285D01*
X21559523Y2214285D01*
X21654761Y2166666D01*
X21702380Y2071428D01*
X21702380Y1547619D01*
X22702380Y1547619D02*
X22130952Y1547619D01*
X22416666Y1547619D02*
X22416666Y2547619D01*
X22321428Y2404761D01*
X22226190Y2309523D01*
X22130952Y2261904D01*
X18557142Y5785714D02*
X18604761Y5738095D01*
X18652380Y5595238D01*
X18652380Y5500000D01*
X18604761Y5357142D01*
X18509523Y5261904D01*
X18414285Y5214285D01*
X18223809Y5166666D01*
X18080952Y5166666D01*
X17890476Y5214285D01*
X17795238Y5261904D01*
X17700000Y5357142D01*
X17652380Y5500000D01*
X17652380Y5595238D01*
X17700000Y5738095D01*
X17747619Y5785714D01*
X17985714Y6119047D02*
X18652380Y6357142D01*
X17985714Y6595238D01*
X18652380Y6976190D02*
X17985714Y6976190D01*
X18080952Y6976190D02*
X18033333Y7023809D01*
X17985714Y7119047D01*
X17985714Y7261904D01*
X18033333Y7357142D01*
X18128571Y7404761D01*
X18652380Y7404761D01*
X18128571Y7404761D02*
X18033333Y7452380D01*
X17985714Y7547619D01*
X17985714Y7690476D01*
X18033333Y7785714D01*
X18128571Y7833333D01*
X18652380Y7833333D01*
X18652380Y8833333D02*
X18652380Y8261904D01*
X18652380Y8547619D02*
X17652380Y8547619D01*
X17795238Y8452380D01*
X17890476Y8357142D01*
X17938095Y8261904D01*
X25357142Y-6857142D02*
X25309523Y-6904761D01*
X25166666Y-6952380D01*
X25071428Y-6952380D01*
X24928571Y-6904761D01*
X24833333Y-6809523D01*
X24785714Y-6714285D01*
X24738095Y-6523809D01*
X24738095Y-6380952D01*
X24785714Y-6190476D01*
X24833333Y-6095238D01*
X24928571Y-6000000D01*
X25071428Y-5952380D01*
X25166666Y-5952380D01*
X25309523Y-6000000D01*
X25357142Y-6047619D01*
X25738095Y-6904761D02*
X25880952Y-6952380D01*
X26119047Y-6952380D01*
X26214285Y-6904761D01*
X26261904Y-6857142D01*
X26309523Y-6761904D01*
X26309523Y-6666666D01*
X26261904Y-6571428D01*
X26214285Y-6523809D01*
X26119047Y-6476190D01*
X25928571Y-6428571D01*
X25833333Y-6380952D01*
X25785714Y-6333333D01*
X25738095Y-6238095D01*
X25738095Y-6142857D01*
X25785714Y-6047619D01*
X25833333Y-6000000D01*
X25928571Y-5952380D01*
X26166666Y-5952380D01*
X26309523Y-6000000D01*
X27261904Y-6952380D02*
X26690476Y-6952380D01*
X26976190Y-6952380D02*
X26976190Y-5952380D01*
X26880952Y-6095238D01*
X26785714Y-6190476D01*
X26690476Y-6238095D01*
X31547619Y-6202380D02*
X31547619Y-5202380D01*
X32023809Y-5535714D02*
X32023809Y-6535714D01*
X32023809Y-5583333D02*
X32119047Y-5535714D01*
X32309523Y-5535714D01*
X32404761Y-5583333D01*
X32452380Y-5630952D01*
X32500000Y-5726190D01*
X32500000Y-6011904D01*
X32452380Y-6107142D01*
X32404761Y-6154761D01*
X32309523Y-6202380D01*
X32119047Y-6202380D01*
X32023809Y-6154761D01*
X-392857Y-4697619D02*
X-345238Y-4745238D01*
X-297619Y-4888095D01*
X-297619Y-4983333D01*
X-345238Y-5126190D01*
X-440476Y-5221428D01*
X-535714Y-5269047D01*
X-726190Y-5316666D01*
X-869047Y-5316666D01*
X-1059523Y-5269047D01*
X-1154761Y-5221428D01*
X-1250000Y-5126190D01*
X-1297619Y-4983333D01*
X-1297619Y-4888095D01*
X-1250000Y-4745238D01*
X-1202380Y-4697619D01*
X-964285Y-3840476D02*
X-297619Y-3840476D01*
X-964285Y-4269047D02*
X-440476Y-4269047D01*
X-345238Y-4221428D01*
X-297619Y-4126190D01*
X-297619Y-3983333D01*
X-345238Y-3888095D01*
X-392857Y-3840476D01*
X-345238Y-2935714D02*
X-297619Y-3030952D01*
X-297619Y-3221428D01*
X-345238Y-3316666D01*
X-392857Y-3364285D01*
X-488095Y-3411904D01*
X-773809Y-3411904D01*
X-869047Y-3364285D01*
X-916666Y-3316666D01*
X-964285Y-3221428D01*
X-964285Y-3030952D01*
X-916666Y-2935714D01*
X-297619Y-1983333D02*
X-297619Y-2554761D01*
X-297619Y-2269047D02*
X-1297619Y-2269047D01*
X-1154761Y-2364285D01*
X-1059523Y-2459523D01*
X-1011904Y-2554761D01*
X-41742857Y-2485714D02*
X-41695238Y-2533333D01*
X-41647619Y-2676190D01*
X-41647619Y-2771428D01*
X-41695238Y-2914285D01*
X-41790476Y-3009523D01*
X-41885714Y-3057142D01*
X-42076190Y-3104761D01*
X-42219047Y-3104761D01*
X-42409523Y-3057142D01*
X-42504761Y-3009523D01*
X-42600000Y-2914285D01*
X-42647619Y-2771428D01*
X-42647619Y-2676190D01*
X-42600000Y-2533333D01*
X-42552380Y-2485714D01*
X-41647619Y-1628571D02*
X-42647619Y-1628571D01*
X-41695238Y-1628571D02*
X-41647619Y-1723809D01*
X-41647619Y-1914285D01*
X-41695238Y-2009523D01*
X-41742857Y-2057142D01*
X-41838095Y-2104761D01*
X-42123809Y-2104761D01*
X-42219047Y-2057142D01*
X-42266666Y-2009523D01*
X-42314285Y-1914285D01*
X-42314285Y-1723809D01*
X-42266666Y-1628571D01*
X-41695238Y-723809D02*
X-41647619Y-819047D01*
X-41647619Y-1009523D01*
X-41695238Y-1104761D01*
X-41742857Y-1152380D01*
X-41838095Y-1200000D01*
X-42123809Y-1200000D01*
X-42219047Y-1152380D01*
X-42266666Y-1104761D01*
X-42314285Y-1009523D01*
X-42314285Y-819047D01*
X-42266666Y-723809D01*
X-41647619Y-295238D02*
X-42314285Y-295238D01*
X-42647619Y-295238D02*
X-42600000Y-342857D01*
X-42552380Y-295238D01*
X-42600000Y-247619D01*
X-42647619Y-295238D01*
X-42552380Y-295238D01*
X-42647619Y657142D02*
X-42647619Y180952D01*
X-42171428Y133333D01*
X-42219047Y180952D01*
X-42266666Y276190D01*
X-42266666Y514285D01*
X-42219047Y609523D01*
X-42171428Y657142D01*
X-42076190Y704761D01*
X-41838095Y704761D01*
X-41742857Y657142D01*
X-41695238Y609523D01*
X-41647619Y514285D01*
X-41647619Y276190D01*
X-41695238Y180952D01*
X-41742857Y133333D01*
X-27171428Y-7557142D02*
X-27219047Y-7604761D01*
X-27361904Y-7652380D01*
X-27457142Y-7652380D01*
X-27600000Y-7604761D01*
X-27695238Y-7509523D01*
X-27742857Y-7414285D01*
X-27790476Y-7223809D01*
X-27790476Y-7080952D01*
X-27742857Y-6890476D01*
X-27695238Y-6795238D01*
X-27600000Y-6700000D01*
X-27457142Y-6652380D01*
X-27361904Y-6652380D01*
X-27219047Y-6700000D01*
X-27171428Y-6747619D01*
X-26600000Y-7652380D02*
X-26695238Y-7604761D01*
X-26742857Y-7557142D01*
X-26790476Y-7461904D01*
X-26790476Y-7176190D01*
X-26742857Y-7080952D01*
X-26695238Y-7033333D01*
X-26600000Y-6985714D01*
X-26457142Y-6985714D01*
X-26361904Y-7033333D01*
X-26314285Y-7080952D01*
X-26266666Y-7176190D01*
X-26266666Y-7461904D01*
X-26314285Y-7557142D01*
X-26361904Y-7604761D01*
X-26457142Y-7652380D01*
X-26600000Y-7652380D01*
X-25409523Y-7652380D02*
X-25409523Y-7128571D01*
X-25457142Y-7033333D01*
X-25552380Y-6985714D01*
X-25742857Y-6985714D01*
X-25838095Y-7033333D01*
X-25409523Y-7604761D02*
X-25504761Y-7652380D01*
X-25742857Y-7652380D01*
X-25838095Y-7604761D01*
X-25885714Y-7509523D01*
X-25885714Y-7414285D01*
X-25838095Y-7319047D01*
X-25742857Y-7271428D01*
X-25504761Y-7271428D01*
X-25409523Y-7223809D01*
X-24457142Y-6652380D02*
X-24933333Y-6652380D01*
X-24980952Y-7128571D01*
X-24933333Y-7080952D01*
X-24838095Y-7033333D01*
X-24600000Y-7033333D01*
X-24504761Y-7080952D01*
X-24457142Y-7128571D01*
X-24409523Y-7223809D01*
X-24409523Y-7461904D01*
X-24457142Y-7557142D01*
X-24504761Y-7604761D01*
X-24600000Y-7652380D01*
X-24838095Y-7652380D01*
X-24933333Y-7604761D01*
X-24980952Y-7557142D01*
X-32976190Y-952380D02*
X-32976190Y47619D01*
X-32738095Y47619D01*
X-32595238Y0D01*
X-32500000Y-95238D01*
X-32452380Y-190476D01*
X-32404761Y-380952D01*
X-32404761Y-523809D01*
X-32452380Y-714285D01*
X-32500000Y-809523D01*
X-32595238Y-904761D01*
X-32738095Y-952380D01*
X-32976190Y-952380D01*
X-31404761Y-857142D02*
X-31452380Y-904761D01*
X-31595238Y-952380D01*
X-31690476Y-952380D01*
X-31833333Y-904761D01*
X-31928571Y-809523D01*
X-31976190Y-714285D01*
X-32023809Y-523809D01*
X-32023809Y-380952D01*
X-31976190Y-190476D01*
X-31928571Y-95238D01*
X-31833333Y0D01*
X-31690476Y47619D01*
X-31595238Y47619D01*
X-31452380Y0D01*
X-31404761Y-47619D01*
X-31119047Y-285714D02*
X-30738095Y-285714D01*
X-30976190Y47619D02*
X-30976190Y-809523D01*
X-30928571Y-904761D01*
X-30833333Y-952380D01*
X-30738095Y-952380D01*
X-30261904Y-952380D02*
X-30357142Y-904761D01*
X-30404761Y-857142D01*
X-30452380Y-761904D01*
X-30452380Y-476190D01*
X-30404761Y-380952D01*
X-30357142Y-333333D01*
X-30261904Y-285714D01*
X-30119047Y-285714D01*
X-30023809Y-333333D01*
X-29976190Y-380952D01*
X-29928571Y-476190D01*
X-29928571Y-761904D01*
X-29976190Y-857142D01*
X-30023809Y-904761D01*
X-30119047Y-952380D01*
X-30261904Y-952380D01*
X-29500000Y-952380D02*
X-29500000Y47619D01*
X-29261904Y47619D01*
X-29119047Y0D01*
X-29023809Y-95238D01*
X-28976190Y-190476D01*
X-28928571Y-380952D01*
X-28928571Y-523809D01*
X-28976190Y-714285D01*
X-29023809Y-809523D01*
X-29119047Y-904761D01*
X-29261904Y-952380D01*
X-29500000Y-952380D01*
X-27928571Y-857142D02*
X-27976190Y-904761D01*
X-28119047Y-952380D01*
X-28214285Y-952380D01*
X-28357142Y-904761D01*
X-28452380Y-809523D01*
X-28500000Y-714285D01*
X-28547619Y-523809D01*
X-28547619Y-380952D01*
X-28500000Y-190476D01*
X-28452380Y-95238D01*
X-28357142Y0D01*
X-28214285Y47619D01*
X-28119047Y47619D01*
X-27976190Y0D01*
X-27928571Y-47619D01*
X-27023809Y47619D02*
X-27500000Y47619D01*
X-27547619Y-428571D01*
X-27500000Y-380952D01*
X-27404761Y-333333D01*
X-27166666Y-333333D01*
X-27071428Y-380952D01*
X-27023809Y-428571D01*
X-26976190Y-523809D01*
X-26976190Y-761904D01*
X-27023809Y-857142D01*
X-27071428Y-904761D01*
X-27166666Y-952380D01*
X-27404761Y-952380D01*
X-27500000Y-904761D01*
X-27547619Y-857142D01*
X-18766666Y-5102380D02*
X-19100000Y-4626190D01*
X-19338095Y-5102380D02*
X-19338095Y-4102380D01*
X-18957142Y-4102380D01*
X-18861904Y-4150000D01*
X-18814285Y-4197619D01*
X-18766666Y-4292857D01*
X-18766666Y-4435714D01*
X-18814285Y-4530952D01*
X-18861904Y-4578571D01*
X-18957142Y-4626190D01*
X-19338095Y-4626190D01*
X-18338095Y-5102380D02*
X-18338095Y-4102380D01*
X-18100000Y-4102380D01*
X-17957142Y-4150000D01*
X-17861904Y-4245238D01*
X-17814285Y-4340476D01*
X-17766666Y-4530952D01*
X-17766666Y-4673809D01*
X-17814285Y-4864285D01*
X-17861904Y-4959523D01*
X-17957142Y-5054761D01*
X-18100000Y-5102380D01*
X-18338095Y-5102380D01*
X-17338095Y-5102380D02*
X-17338095Y-4102380D01*
X-17100000Y-4102380D01*
X-16957142Y-4150000D01*
X-16861904Y-4245238D01*
X-16814285Y-4340476D01*
X-16766666Y-4530952D01*
X-16766666Y-4673809D01*
X-16814285Y-4864285D01*
X-16861904Y-4959523D01*
X-16957142Y-5054761D01*
X-17100000Y-5102380D01*
X-17338095Y-5102380D01*
X-15861904Y-4102380D02*
X-16338095Y-4102380D01*
X-16385714Y-4578571D01*
X-16338095Y-4530952D01*
X-16242857Y-4483333D01*
X-16004761Y-4483333D01*
X-15909523Y-4530952D01*
X-15861904Y-4578571D01*
X-15814285Y-4673809D01*
X-15814285Y-4911904D01*
X-15861904Y-5007142D01*
X-15909523Y-5054761D01*
X-16004761Y-5102380D01*
X-16242857Y-5102380D01*
X-16338095Y-5054761D01*
X-16385714Y-5007142D01*
X21357142Y-8071428D02*
X21404761Y-8119047D01*
X21452380Y-8261904D01*
X21452380Y-8357142D01*
X21404761Y-8500000D01*
X21309523Y-8595238D01*
X21214285Y-8642857D01*
X21023809Y-8690476D01*
X20880952Y-8690476D01*
X20690476Y-8642857D01*
X20595238Y-8595238D01*
X20500000Y-8500000D01*
X20452380Y-8357142D01*
X20452380Y-8261904D01*
X20500000Y-8119047D01*
X20547619Y-8071428D01*
X21452380Y-7642857D02*
X20785714Y-7642857D01*
X20452380Y-7642857D02*
X20500000Y-7690476D01*
X20547619Y-7642857D01*
X20500000Y-7595238D01*
X20452380Y-7642857D01*
X20547619Y-7642857D01*
X21452380Y-7166666D02*
X20785714Y-7166666D01*
X20880952Y-7166666D02*
X20833333Y-7119047D01*
X20785714Y-7023809D01*
X20785714Y-6880952D01*
X20833333Y-6785714D01*
X20928571Y-6738095D01*
X21452380Y-6738095D01*
X20928571Y-6738095D02*
X20833333Y-6690476D01*
X20785714Y-6595238D01*
X20785714Y-6452380D01*
X20833333Y-6357142D01*
X20928571Y-6309523D01*
X21452380Y-6309523D01*
X21452380Y-5309523D02*
X21452380Y-5880952D01*
X21452380Y-5595238D02*
X20452380Y-5595238D01*
X20595238Y-5690476D01*
X20690476Y-5785714D01*
X20738095Y-5880952D01*
X20352380Y1285714D02*
X19876190Y952380D01*
X20352380Y714285D02*
X19352380Y714285D01*
X19352380Y1095238D01*
X19400000Y1190476D01*
X19447619Y1238095D01*
X19542857Y1285714D01*
X19685714Y1285714D01*
X19780952Y1238095D01*
X19828571Y1190476D01*
X19876190Y1095238D01*
X19876190Y714285D01*
X19685714Y1619047D02*
X20352380Y1857142D01*
X19685714Y2095238D01*
X20352380Y2476190D02*
X19685714Y2476190D01*
X19780952Y2476190D02*
X19733333Y2523809D01*
X19685714Y2619047D01*
X19685714Y2761904D01*
X19733333Y2857142D01*
X19828571Y2904761D01*
X20352380Y2904761D01*
X19828571Y2904761D02*
X19733333Y2952380D01*
X19685714Y3047619D01*
X19685714Y3190476D01*
X19733333Y3285714D01*
X19828571Y3333333D01*
X20352380Y3333333D01*
X20352380Y4333333D02*
X20352380Y3761904D01*
X20352380Y4047619D02*
X19352380Y4047619D01*
X19495238Y3952380D01*
X19590476Y3857142D01*
X19638095Y3761904D01*
X16377380Y3160714D02*
X15901190Y2827380D01*
X16377380Y2589285D02*
X15377380Y2589285D01*
X15377380Y2970238D01*
X15425000Y3065476D01*
X15472619Y3113095D01*
X15567857Y3160714D01*
X15710714Y3160714D01*
X15805952Y3113095D01*
X15853571Y3065476D01*
X15901190Y2970238D01*
X15901190Y2589285D01*
X15710714Y3494047D02*
X16377380Y3732142D01*
X15710714Y3970238D01*
X16377380Y4351190D02*
X15710714Y4351190D01*
X15805952Y4351190D02*
X15758333Y4398809D01*
X15710714Y4494047D01*
X15710714Y4636904D01*
X15758333Y4732142D01*
X15853571Y4779761D01*
X16377380Y4779761D01*
X15853571Y4779761D02*
X15758333Y4827380D01*
X15710714Y4922619D01*
X15710714Y5065476D01*
X15758333Y5160714D01*
X15853571Y5208333D01*
X16377380Y5208333D01*
X15472619Y5636904D02*
X15425000Y5684523D01*
X15377380Y5779761D01*
X15377380Y6017857D01*
X15425000Y6113095D01*
X15472619Y6160714D01*
X15567857Y6208333D01*
X15663095Y6208333D01*
X15805952Y6160714D01*
X16377380Y5589285D01*
X16377380Y6208333D01*
X17052380Y-2571428D02*
X16576190Y-2904761D01*
X17052380Y-3142857D02*
X16052380Y-3142857D01*
X16052380Y-2761904D01*
X16100000Y-2666666D01*
X16147619Y-2619047D01*
X16242857Y-2571428D01*
X16385714Y-2571428D01*
X16480952Y-2619047D01*
X16528571Y-2666666D01*
X16576190Y-2761904D01*
X16576190Y-3142857D01*
X17052380Y-2142857D02*
X16385714Y-2142857D01*
X16052380Y-2142857D02*
X16100000Y-2190476D01*
X16147619Y-2142857D01*
X16100000Y-2095238D01*
X16052380Y-2142857D01*
X16147619Y-2142857D01*
X17052380Y-1666666D02*
X16385714Y-1666666D01*
X16480952Y-1666666D02*
X16433333Y-1619047D01*
X16385714Y-1523809D01*
X16385714Y-1380952D01*
X16433333Y-1285714D01*
X16528571Y-1238095D01*
X17052380Y-1238095D01*
X16528571Y-1238095D02*
X16433333Y-1190476D01*
X16385714Y-1095238D01*
X16385714Y-952380D01*
X16433333Y-857142D01*
X16528571Y-809523D01*
X17052380Y-809523D01*
X17052380Y190476D02*
X17052380Y-380952D01*
X17052380Y-95238D02*
X16052380Y-95238D01*
X16195238Y-190476D01*
X16290476Y-285714D01*
X16338095Y-380952D01*
X13052380Y-2571428D02*
X12576190Y-2904761D01*
X13052380Y-3142857D02*
X12052380Y-3142857D01*
X12052380Y-2761904D01*
X12100000Y-2666666D01*
X12147619Y-2619047D01*
X12242857Y-2571428D01*
X12385714Y-2571428D01*
X12480952Y-2619047D01*
X12528571Y-2666666D01*
X12576190Y-2761904D01*
X12576190Y-3142857D01*
X13052380Y-2142857D02*
X12385714Y-2142857D01*
X12052380Y-2142857D02*
X12100000Y-2190476D01*
X12147619Y-2142857D01*
X12100000Y-2095238D01*
X12052380Y-2142857D01*
X12147619Y-2142857D01*
X13052380Y-1666666D02*
X12385714Y-1666666D01*
X12480952Y-1666666D02*
X12433333Y-1619047D01*
X12385714Y-1523809D01*
X12385714Y-1380952D01*
X12433333Y-1285714D01*
X12528571Y-1238095D01*
X13052380Y-1238095D01*
X12528571Y-1238095D02*
X12433333Y-1190476D01*
X12385714Y-1095238D01*
X12385714Y-952380D01*
X12433333Y-857142D01*
X12528571Y-809523D01*
X13052380Y-809523D01*
X12147619Y-380952D02*
X12100000Y-333333D01*
X12052380Y-238095D01*
X12052380Y0D01*
X12100000Y95238D01*
X12147619Y142857D01*
X12242857Y190476D01*
X12338095Y190476D01*
X12480952Y142857D01*
X13052380Y-428571D01*
X13052380Y190476D01*
X8952380Y6692857D02*
X8904761Y6645238D01*
X8761904Y6597619D01*
X8666666Y6597619D01*
X8523809Y6645238D01*
X8428571Y6740476D01*
X8380952Y6835714D01*
X8333333Y7026190D01*
X8333333Y7169047D01*
X8380952Y7359523D01*
X8428571Y7454761D01*
X8523809Y7550000D01*
X8666666Y7597619D01*
X8761904Y7597619D01*
X8904761Y7550000D01*
X8952380Y7502380D01*
X9809523Y7264285D02*
X9809523Y6597619D01*
X9380952Y7264285D02*
X9380952Y6740476D01*
X9428571Y6645238D01*
X9523809Y6597619D01*
X9666666Y6597619D01*
X9761904Y6645238D01*
X9809523Y6692857D01*
X10714285Y6645238D02*
X10619047Y6597619D01*
X10428571Y6597619D01*
X10333333Y6645238D01*
X10285714Y6692857D01*
X10238095Y6788095D01*
X10238095Y7073809D01*
X10285714Y7169047D01*
X10333333Y7216666D01*
X10428571Y7264285D01*
X10619047Y7264285D01*
X10714285Y7216666D01*
X11095238Y7502380D02*
X11142857Y7550000D01*
X11238095Y7597619D01*
X11476190Y7597619D01*
X11571428Y7550000D01*
X11619047Y7502380D01*
X11666666Y7407142D01*
X11666666Y7311904D01*
X11619047Y7169047D01*
X11047619Y6597619D01*
X11666666Y6597619D01*
X-3342857Y2202380D02*
X-3295238Y2154761D01*
X-3247619Y2011904D01*
X-3247619Y1916666D01*
X-3295238Y1773809D01*
X-3390476Y1678571D01*
X-3485714Y1630952D01*
X-3676190Y1583333D01*
X-3819047Y1583333D01*
X-4009523Y1630952D01*
X-4104761Y1678571D01*
X-4200000Y1773809D01*
X-4247619Y1916666D01*
X-4247619Y2011904D01*
X-4200000Y2154761D01*
X-4152380Y2202380D01*
X-3771428Y2964285D02*
X-3771428Y2630952D01*
X-3247619Y2630952D02*
X-4247619Y2630952D01*
X-4247619Y3107142D01*
X-3771428Y3488095D02*
X-3771428Y3821428D01*
X-3247619Y3964285D02*
X-3247619Y3488095D01*
X-4247619Y3488095D01*
X-4247619Y3964285D01*
X-3247619Y4916666D02*
X-3247619Y4345238D01*
X-3247619Y4630952D02*
X-4247619Y4630952D01*
X-4104761Y4535714D01*
X-4009523Y4440476D01*
X-3961904Y4345238D01*
X2738095Y-4079914D02*
X2738095Y-4746580D01*
X2309523Y-4079914D02*
X2309523Y-4603723D01*
X2357142Y-4698961D01*
X2452380Y-4746580D01*
X2595238Y-4746580D01*
X2690476Y-4698961D01*
X2738095Y-4651342D01*
X3785714Y-4651342D02*
X3738095Y-4698961D01*
X3595238Y-4746580D01*
X3500000Y-4746580D01*
X3357142Y-4698961D01*
X3261904Y-4603723D01*
X3214285Y-4508485D01*
X3166666Y-4318009D01*
X3166666Y-4175152D01*
X3214285Y-3984676D01*
X3261904Y-3889438D01*
X3357142Y-3794200D01*
X3500000Y-3746580D01*
X3595238Y-3746580D01*
X3738095Y-3794200D01*
X3785714Y-3841819D01*
X4738095Y-4746580D02*
X4166666Y-4746580D01*
X4452380Y-4746580D02*
X4452380Y-3746580D01*
X4357142Y-3889438D01*
X4261904Y-3984676D01*
X4166666Y-4032295D01*
X34952380Y11238095D02*
X34952380Y11809523D01*
X35952380Y11523809D02*
X34952380Y11523809D01*
X35952380Y12666666D02*
X35952380Y12095238D01*
X35952380Y12380952D02*
X34952380Y12380952D01*
X35095238Y12285714D01*
X35190476Y12190476D01*
X35238095Y12095238D01*
X-47976190Y-3452380D02*
X-47976190Y-2452380D01*
X-47595238Y-2452380D01*
X-47500000Y-2500000D01*
X-47452380Y-2547619D01*
X-47404761Y-2642857D01*
X-47404761Y-2785714D01*
X-47452380Y-2880952D01*
X-47500000Y-2928571D01*
X-47595238Y-2976190D01*
X-47976190Y-2976190D01*
X-46976190Y-3452380D02*
X-46976190Y-2785714D01*
X-46976190Y-2452380D02*
X-47023809Y-2500000D01*
X-46976190Y-2547619D01*
X-46928571Y-2500000D01*
X-46976190Y-2452380D01*
X-46976190Y-2547619D01*
X-45976190Y-3452380D02*
X-46547619Y-3452380D01*
X-46261904Y-3452380D02*
X-46261904Y-2452380D01*
X-46357142Y-2595238D01*
X-46452380Y-2690476D01*
X-46547619Y-2738095D01*
X-53976190Y-3452380D02*
X-53976190Y-2452380D01*
X-53595238Y-2452380D01*
X-53500000Y-2500000D01*
X-53452380Y-2547619D01*
X-53404761Y-2642857D01*
X-53404761Y-2785714D01*
X-53452380Y-2880952D01*
X-53500000Y-2928571D01*
X-53595238Y-2976190D01*
X-53976190Y-2976190D01*
X-52976190Y-3452380D02*
X-52976190Y-2785714D01*
X-52976190Y-2452380D02*
X-53023809Y-2500000D01*
X-52976190Y-2547619D01*
X-52928571Y-2500000D01*
X-52976190Y-2452380D01*
X-52976190Y-2547619D01*
X-52547619Y-2547619D02*
X-52500000Y-2500000D01*
X-52404761Y-2452380D01*
X-52166666Y-2452380D01*
X-52071428Y-2500000D01*
X-52023809Y-2547619D01*
X-51976190Y-2642857D01*
X-51976190Y-2738095D01*
X-52023809Y-2880952D01*
X-52595238Y-3452380D01*
X-51976190Y-3452380D01*
X51309523Y5647619D02*
X51309523Y6647619D01*
X51690476Y6647619D01*
X51785714Y6600000D01*
X51833333Y6552380D01*
X51880952Y6457142D01*
X51880952Y6314285D01*
X51833333Y6219047D01*
X51785714Y6171428D01*
X51690476Y6123809D01*
X51309523Y6123809D01*
X52452380Y5647619D02*
X52357142Y5695238D01*
X52309523Y5742857D01*
X52261904Y5838095D01*
X52261904Y6123809D01*
X52309523Y6219047D01*
X52357142Y6266666D01*
X52452380Y6314285D01*
X52595238Y6314285D01*
X52690476Y6266666D01*
X52738095Y6219047D01*
X52785714Y6123809D01*
X52785714Y5838095D01*
X52738095Y5742857D01*
X52690476Y5695238D01*
X52595238Y5647619D01*
X52452380Y5647619D01*
X53738095Y5647619D02*
X53166666Y5647619D01*
X53452380Y5647619D02*
X53452380Y6647619D01*
X53357142Y6504761D01*
X53261904Y6409523D01*
X53166666Y6361904D01*
X51309523Y17547619D02*
X51309523Y18547619D01*
X51690476Y18547619D01*
X51785714Y18500000D01*
X51833333Y18452380D01*
X51880952Y18357142D01*
X51880952Y18214285D01*
X51833333Y18119047D01*
X51785714Y18071428D01*
X51690476Y18023809D01*
X51309523Y18023809D01*
X52452380Y17547619D02*
X52357142Y17595238D01*
X52309523Y17642857D01*
X52261904Y17738095D01*
X52261904Y18023809D01*
X52309523Y18119047D01*
X52357142Y18166666D01*
X52452380Y18214285D01*
X52595238Y18214285D01*
X52690476Y18166666D01*
X52738095Y18119047D01*
X52785714Y18023809D01*
X52785714Y17738095D01*
X52738095Y17642857D01*
X52690476Y17595238D01*
X52595238Y17547619D01*
X52452380Y17547619D01*
X53166666Y18452380D02*
X53214285Y18500000D01*
X53309523Y18547619D01*
X53547619Y18547619D01*
X53642857Y18500000D01*
X53690476Y18452380D01*
X53738095Y18357142D01*
X53738095Y18261904D01*
X53690476Y18119047D01*
X53119047Y17547619D01*
X53738095Y17547619D01*
X-15182857Y-9321428D02*
X-15135238Y-9369047D01*
X-15087619Y-9511904D01*
X-15087619Y-9607142D01*
X-15135238Y-9750000D01*
X-15230476Y-9845238D01*
X-15325714Y-9892857D01*
X-15516190Y-9940476D01*
X-15659047Y-9940476D01*
X-15849523Y-9892857D01*
X-15944761Y-9845238D01*
X-16040000Y-9750000D01*
X-16087619Y-9607142D01*
X-16087619Y-9511904D01*
X-16040000Y-9369047D01*
X-15992380Y-9321428D01*
X-15087619Y-8750000D02*
X-15135238Y-8845238D01*
X-15182857Y-8892857D01*
X-15278095Y-8940476D01*
X-15563809Y-8940476D01*
X-15659047Y-8892857D01*
X-15706666Y-8845238D01*
X-15754285Y-8750000D01*
X-15754285Y-8607142D01*
X-15706666Y-8511904D01*
X-15659047Y-8464285D01*
X-15563809Y-8416666D01*
X-15278095Y-8416666D01*
X-15182857Y-8464285D01*
X-15135238Y-8511904D01*
X-15087619Y-8607142D01*
X-15087619Y-8750000D01*
X-15087619Y-7988095D02*
X-16087619Y-7988095D01*
X-15706666Y-7988095D02*
X-15754285Y-7892857D01*
X-15754285Y-7702380D01*
X-15706666Y-7607142D01*
X-15659047Y-7559523D01*
X-15563809Y-7511904D01*
X-15278095Y-7511904D01*
X-15182857Y-7559523D01*
X-15135238Y-7607142D01*
X-15087619Y-7702380D01*
X-15087619Y-7892857D01*
X-15135238Y-7988095D01*
X-16087619Y-6607142D02*
X-16087619Y-7083333D01*
X-15611428Y-7130952D01*
X-15659047Y-7083333D01*
X-15706666Y-6988095D01*
X-15706666Y-6750000D01*
X-15659047Y-6654761D01*
X-15611428Y-6607142D01*
X-15516190Y-6559523D01*
X-15278095Y-6559523D01*
X-15182857Y-6607142D01*
X-15135238Y-6654761D01*
X-15087619Y-6750000D01*
X-15087619Y-6988095D01*
X-15135238Y-7083333D01*
X-15182857Y-7130952D01*
M02*
