G04 #@! TF.GenerationSoftware,KiCad,Pcbnew,(5.1.2)-1*
G04 #@! TF.CreationDate,2019-05-29T22:51:05-07:00*
G04 #@! TF.ProjectId,1000WConverter_r1_ctrl,31303030-5743-46f6-9e76-65727465725f,rev?*
G04 #@! TF.SameCoordinates,Original*
G04 #@! TF.FileFunction,Soldermask,Bot*
G04 #@! TF.FilePolarity,Negative*
%FSLAX46Y46*%
G04 Gerber Fmt 4.6, Leading zero omitted, Abs format (unit mm)*
G04 Created by KiCad (PCBNEW (5.1.2)-1) date 2019-05-29 22:51:05*
%MOMM*%
%LPD*%
G04 APERTURE LIST*
%ADD10C,0.609600*%
%ADD11C,1.800000*%
%ADD12R,1.800000X1.800000*%
%ADD13R,1.016000X1.016000*%
%ADD14C,1.600000*%
%ADD15R,1.600000X1.600000*%
%ADD16C,1.524000*%
%ADD17C,3.000000*%
G04 APERTURE END LIST*
D10*
X24140000Y-40691600D03*
X10240000Y-40691600D03*
X10940000Y-36088400D03*
X10940000Y-28788400D03*
X16898400Y-27532500D03*
X24840000Y-36088400D03*
X24840000Y-28788400D03*
X22867500Y-30011600D03*
X17767500Y-19578400D03*
D11*
X9560000Y-44000000D03*
D12*
X14640000Y-44000000D03*
D11*
X12100000Y-44000000D03*
X26000000Y-44000000D03*
D12*
X28540000Y-44000000D03*
D11*
X23460000Y-44000000D03*
D13*
X21917500Y-17500000D03*
D14*
X27467500Y-26060000D03*
D15*
X27467500Y-23560000D03*
D10*
X31792500Y-26150000D03*
X13960000Y40691600D03*
X27860000Y40691600D03*
X27160000Y36088400D03*
X27160000Y28788400D03*
X21201600Y27532500D03*
X13260000Y36088400D03*
X13260000Y28788400D03*
X15232500Y30011600D03*
X20332500Y19578400D03*
D11*
X28540000Y44000000D03*
D12*
X23460000Y44000000D03*
D11*
X26000000Y44000000D03*
X12100000Y44000000D03*
D12*
X9560000Y44000000D03*
D11*
X14640000Y44000000D03*
D13*
X16182500Y17500000D03*
D14*
X10632500Y26060000D03*
D15*
X10632500Y23560000D03*
D10*
X6307500Y26150000D03*
X-17810000Y40725000D03*
X-10185000Y40700000D03*
X-24185000Y40700000D03*
X-17765000Y31235000D03*
X-19940000Y19550000D03*
X-18985000Y27485000D03*
D15*
X-29490000Y30100000D03*
D14*
X-29490000Y32640000D03*
D11*
X-9510000Y44000000D03*
D12*
X-14590000Y44000000D03*
D11*
X-12050000Y44000000D03*
D13*
X-24090000Y17500000D03*
D11*
X-26050000Y44000000D03*
D12*
X-28590000Y44000000D03*
D11*
X-23510000Y44000000D03*
D10*
X-33375000Y32725000D03*
X-27300000Y27025000D03*
X-20290000Y-40725000D03*
X-27915000Y-40700000D03*
X-13915000Y-40700000D03*
X-20335000Y-31235000D03*
X-18160000Y-19550000D03*
X-19115000Y-27485000D03*
D15*
X-8610000Y-30100000D03*
D14*
X-8610000Y-32640000D03*
D11*
X-28590000Y-44000000D03*
D12*
X-23510000Y-44000000D03*
D11*
X-26050000Y-44000000D03*
D13*
X-14010000Y-17500000D03*
D11*
X-12050000Y-44000000D03*
D12*
X-9510000Y-44000000D03*
D11*
X-14590000Y-44000000D03*
D10*
X-4725000Y-32725000D03*
X-10800000Y-27025000D03*
D16*
X26000000Y-4000000D03*
X26000000Y-8000000D03*
X-30000000Y-2540000D03*
X-24920000Y-2540000D03*
X-35080000Y-2540000D03*
X-37620000Y-2540000D03*
X45906000Y14540000D03*
X45906000Y19620000D03*
X45906000Y9460000D03*
X45906000Y4380000D03*
X26094000Y19620000D03*
X26094000Y14540000D03*
X26094000Y9460000D03*
X26094000Y4380000D03*
D17*
X-47000000Y-3000000D03*
X-53000000Y-3000000D03*
X52500000Y6100000D03*
X52500000Y18000000D03*
D14*
X-20000000Y-9500000D03*
D15*
X-20000000Y-7000000D03*
M02*
